999
dxflib 3.7.5.0
  0
SECTION
  2
HEADER
  9
$ACADVER
  1
AC1015
  9
$HANDSEED
  5
FFFF
  9
$DIMADEC
 70
0
  9
$DIMASZ
 40
0.18
  9
$DIMAUNIT
 70
0
  9
$DIMAZIN
 70
0
  9
$DIMDEC
 70
4
  9
$DIMEXE
 40
0.18
  9
$DIMEXO
 40
0.0625
  9
$DIMGAP
 40
0.09
  9
$DIMLUNIT
 70
2
  9
$DIMSCALE
 40
1.0
  9
$DIMTSZ
 40
0.0
  9
$DIMTXT
 40
0.18
  9
$DIMZIN
 70
0
  9
$DWGCODEPAGE
  3
ANSI_1252
  9
$EXTMAX
 10
1000.0
 20
1000.0
 30
0.0
  9
$EXTMIN
 10
0.0
 20
0.0
 30
0.0
  9
$FILLMODE
 70
0
  9
$INSUNITS
 70
0
  9
$LTSCALE
 40
1.0
  9
$PDMODE
 70
0
  9
$PDSIZE
 40
0
  9
$SPLFRAME
 70
1
  0
ENDSEC
  0
SECTION
  2
TABLES
  0
TABLE
  2
VPORT
  5
8
100
AcDbSymbolTable
 70
1
  0
VPORT
  5
30
100
AcDbSymbolTableRecord
100
AcDbViewportTableRecord
  2
*Active
 70
0
 10
0.0
 20
0.0
 11
1.0
 21
1.0
 12
286.30555555555549
 22
148.5
 13
0.0
 23
0.0
 14
10.0
 24
10.0
 15
10.0
 25
10.0
 16
0.0
 26
0.0
 36
1.0
 17
0.0
 27
0.0
 37
0.0
 40
297.0
 41
1.92798353909465
 42
50.0
 43
0.0
 44
0.0
 50
0.0
 51
0.0
 71
0
 72
100
 73
1
 74
3
 75
1
 76
1
 77
0
 78
0
281
0
 65
1
110
0.0
120
0.0
130
0.0
111
1.0
121
0.0
131
0.0
112
0.0
122
1.0
132
0.0
 79
0
146
0.0
  0
ENDTAB
  0
TABLE
  2
LTYPE
  5
5
100
AcDbSymbolTable
 70
50
  0
LTYPE
  5
16
100
AcDbSymbolTableRecord
100
AcDbLinetypeTableRecord
  2
Continuous
 70
0
  3
Solid line
 72
65
 73
0
 40
0.0
  0
LTYPE
  5
31
100
AcDbSymbolTableRecord
100
AcDbLinetypeTableRecord
  2
ACAD_ISO15W100
 70
0
  3
ISO double-dash triple-dot __ __ . . . __ __ . .
 72
65
 73
10
 40
39.0
 49
12.0
 74
0
 49
-3.0
 74
0
 49
12.0
 74
0
 49
-3.0
 74
0
 49
0.0
 74
0
 49
-3.0
 74
0
 49
0.0
 74
0
 49
-3.0
 74
0
 49
0.0
 74
0
 49
-3.0
 74
0
  0
LTYPE
  5
32
100
AcDbSymbolTableRecord
100
AcDbLinetypeTableRecord
  2
HOT_WATER_SUPPLY
 70
0
  3
Hot water supply ---- HW ---- HW ---- HW ----
 72
65
 73
3
 40
22.859999999999999
 49
12.699999999999999
 74
0
 49
-5.0800000000000001
 74
0
 49
-5.0800000000000001
 74
0
  0
LTYPE
  5
33
100
AcDbSymbolTableRecord
100
AcDbLinetypeTableRecord
  2
DIVIDE
 70
0
  3
Divide ____ . . ____ . . ____ . . ____ . . ____
 72
65
 73
6
 40
31.75
 49
12.699999999999999
 74
0
 49
-6.3499999999999996
 74
0
 49
0.0
 74
0
 49
-6.3499999999999996
 74
0
 49
0.0
 74
0
 49
-6.3499999999999996
 74
0
  0
LTYPE
  5
34
100
AcDbSymbolTableRecord
100
AcDbLinetypeTableRecord
  2
ACAD_ISO10W100
 70
0
  3
ISO dash dot __ . __ . __ . __ . __ . __ . __ . 
 72
65
 73
4
 40
18.0
 49
12.0
 74
0
 49
-3.0
 74
0
 49
0.0
 74
0
 49
-3.0
 74
0
  0
LTYPE
  5
35
100
AcDbSymbolTableRecord
100
AcDbLinetypeTableRecord
  2
GAS_LINE
 70
0
  3
Gas line ----GAS----GAS----GAS----GAS----GAS----GAS--
 72
65
 73
3
 40
24.130000000000003
 49
12.699999999999999
 74
0
 49
-5.0800000000000001
 74
0
 49
-6.3499999999999996
 74
0
  0
LTYPE
  5
36
100
AcDbSymbolTableRecord
100
AcDbLinetypeTableRecord
  2
ACAD_ISO04W100
 70
0
  3
ISO long-dash dot ____ . ____ . ____ . ____ . _
 72
65
 73
4
 40
30.0
 49
24.0
 74
0
 49
-3.0
 74
0
 49
0.0
 74
0
 49
-3.0
 74
0
  0
LTYPE
  5
37
100
AcDbSymbolTableRecord
100
AcDbLinetypeTableRecord
  2
CENTER2
 70
0
  3
Center (.5x) ___ _ ___ _ ___ _ ___ _ ___ _ ___
 72
65
 73
4
 40
28.575000000000003
 49
19.050000000000001
 74
0
 49
-3.1749999999999998
 74
0
 49
3.1749999999999998
 74
0
 49
-3.1749999999999998
 74
0
  0
LTYPE
  5
38
100
AcDbSymbolTableRecord
100
AcDbLinetypeTableRecord
  2
ACAD_ISO11W100
 70
0
  3
ISO double-dash dot __ __ . __ __ . __ __ . __ _
 72
65
 73
6
 40
33.0
 49
12.0
 74
0
 49
-3.0
 74
0
 49
12.0
 74
0
 49
-3.0
 74
0
 49
0.0
 74
0
 49
-3.0
 74
0
  0
LTYPE
  5
39
100
AcDbSymbolTableRecord
100
AcDbLinetypeTableRecord
  2
HIDDEN2
 70
0
  3
Hidden (.5x) _ _ _ _ _ _ _ _ _ _ _ _ _ _ _ _ _ 
 72
65
 73
2
 40
4.7624999999999993
 49
3.1749999999999998
 74
0
 49
-1.5874999999999999
 74
0
  0
LTYPE
  5
3A
100
AcDbSymbolTableRecord
100
AcDbLinetypeTableRecord
  2
BORDERX2
 70
0
  3
Border (2x) ____  ____  .  ____  ____  .  ___
 72
65
 73
6
 40
88.899999999999991
 49
25.399999999999999
 74
0
 49
-12.699999999999999
 74
0
 49
25.399999999999999
 74
0
 49
-12.699999999999999
 74
0
 49
0.0
 74
0
 49
-12.699999999999999
 74
0
  0
LTYPE
  5
3B
100
AcDbSymbolTableRecord
100
AcDbLinetypeTableRecord
  2
ACAD_ISO05W100
 70
0
  3
ISO long-dash double-dot ____ .. ____ .. ____ . 
 72
65
 73
6
 40
33.0
 49
24.0
 74
0
 49
-3.0
 74
0
 49
0.0
 74
0
 49
-3.0
 74
0
 49
0.0
 74
0
 49
-3.0
 74
0
  0
LTYPE
  5
3C
100
AcDbSymbolTableRecord
100
AcDbLinetypeTableRecord
  2
DASHDOTX2
 70
0
  3
Dash dot (2x) ____  .  ____  .  ____  .  ___
 72
65
 73
4
 40
50.799999999999997
 49
25.399999999999999
 74
0
 49
-12.699999999999999
 74
0
 49
0.0
 74
0
 49
-12.699999999999999
 74
0
  0
LTYPE
  5
3D
100
AcDbSymbolTableRecord
100
AcDbLinetypeTableRecord
  2
HIDDENX2
 70
0
  3
Hidden (2x) ____ ____ ____ ____ ____ ____ ____ 
 72
65
 73
2
 40
19.049999999999997
 49
12.699999999999999
 74
0
 49
-6.3499999999999996
 74
0
  0
LTYPE
  5
3E
100
AcDbSymbolTableRecord
100
AcDbLinetypeTableRecord
  2
CENTERX2
 70
0
  3
Center (2x) ________  __  ________  __  _____
 72
65
 73
4
 40
101.60000000000001
 49
63.5
 74
0
 49
-12.699999999999999
 74
0
 49
12.699999999999999
 74
0
 49
-12.699999999999999
 74
0
  0
LTYPE
  5
3F
100
AcDbSymbolTableRecord
100
AcDbLinetypeTableRecord
  2
BORDER2
 70
0
  3
Border (.5x) __.__.__.__.__.__.__.__.__.__.__.
 72
65
 73
6
 40
22.224999999999998
 49
6.3499999999999996
 74
0
 49
-3.1749999999999998
 74
0
 49
6.3499999999999996
 74
0
 49
-3.1749999999999998
 74
0
 49
0.0
 74
0
 49
-3.1749999999999998
 74
0
  0
LTYPE
  5
40
100
AcDbSymbolTableRecord
100
AcDbLinetypeTableRecord
  2
DASHDOT2
 70
0
  3
Dash dot (.5x) _._._._._._._._._._._._._._._.
 72
65
 73
4
 40
12.699999999999999
 49
6.3499999999999996
 74
0
 49
-3.1749999999999998
 74
0
 49
0.0
 74
0
 49
-3.1749999999999998
 74
0
  0
LTYPE
  5
41
100
AcDbSymbolTableRecord
100
AcDbLinetypeTableRecord
  2
ACAD_ISO12W100
 70
0
  3
ISO dash double-dot __ . . __ . . __ . . __ . . 
 72
65
 73
6
 40
21.0
 49
12.0
 74
0
 49
-3.0
 74
0
 49
0.0
 74
0
 49
-3.0
 74
0
 49
0.0
 74
0
 49
-3.0
 74
0
  0
LTYPE
  5
42
100
AcDbSymbolTableRecord
100
AcDbLinetypeTableRecord
  2
ACAD_ISO07W100
 70
0
  3
ISO dot . . . . . . . . . . . . . . . . . . . . 
 72
65
 73
2
 40
3.0
 49
0.0
 74
0
 49
-3.0
 74
0
  0
LTYPE
  5
43
100
AcDbSymbolTableRecord
100
AcDbLinetypeTableRecord
  2
ACAD_ISO06W100
 70
0
  3
ISO long-dash triple-dot ____ ... ____ ... ____
 72
65
 73
8
 40
36.0
 49
24.0
 74
0
 49
-3.0
 74
0
 49
0.0
 74
0
 49
-3.0
 74
0
 49
0.0
 74
0
 49
-3.0
 74
0
 49
0.0
 74
0
 49
-3.0
 74
0
  0
LTYPE
  5
44
100
AcDbSymbolTableRecord
100
AcDbLinetypeTableRecord
  2
CENTER
 70
0
  3
Center ____ _ ____ _ ____ _ ____ _ ____ _ ____
 72
65
 73
4
 40
50.800000000000004
 49
31.75
 74
0
 49
-6.3499999999999996
 74
0
 49
6.3499999999999996
 74
0
 49
-6.3499999999999996
 74
0
  0
LTYPE
  5
45
100
AcDbSymbolTableRecord
100
AcDbLinetypeTableRecord
  2
HIDDEN
 70
0
  3
Hidden __ __ __ __ __ __ __ __ __ __ __ __ __ __
 72
65
 73
2
 40
9.5249999999999986
 49
6.3499999999999996
 74
0
 49
-3.1749999999999998
 74
0
  0
LTYPE
  5
46
100
AcDbSymbolTableRecord
100
AcDbLinetypeTableRecord
  2
DOTX2
 70
0
  3
Dot (2x) .  .  .  .  .  .  .  .  .  .  .  .  .  .
 72
65
 73
2
 40
12.699999999999999
 49
0.0
 74
0
 49
-12.699999999999999
 74
0
  0
LTYPE
  5
47
100
AcDbSymbolTableRecord
100
AcDbLinetypeTableRecord
  2
PHANTOM
 70
0
  3
Phantom ______  __  __  ______  __  __  ______ 
 72
65
 73
6
 40
63.500000000000007
 49
31.75
 74
0
 49
-6.3499999999999996
 74
0
 49
6.3499999999999996
 74
0
 49
-6.3499999999999996
 74
0
 49
6.3499999999999996
 74
0
 49
-6.3499999999999996
 74
0
  0
LTYPE
  5
48
100
AcDbSymbolTableRecord
100
AcDbLinetypeTableRecord
  2
ACAD_ISO08W100
 70
0
  3
ISO long-dash short-dash ____ __ ____ __ ____ _
 72
65
 73
4
 40
36.0
 49
24.0
 74
0
 49
-3.0
 74
0
 49
6.0
 74
0
 49
-3.0
 74
0
  0
LTYPE
  5
49
100
AcDbSymbolTableRecord
100
AcDbLinetypeTableRecord
  2
DASHEDX2
 70
0
  3
Dashed (2x) ____  ____  ____  ____  ____  ___
 72
65
 73
2
 40
38.099999999999994
 49
25.399999999999999
 74
0
 49
-12.699999999999999
 74
0
  0
LTYPE
  5
4A
100
AcDbSymbolTableRecord
100
AcDbLinetypeTableRecord
  2
DRAINAGE
 70
0
  3
Drainage ---->---->---->----
 72
65
 73
2
 40
10.16
 49
5.0800000000000001
 74
0
 49
5.0800000000000001
 74
0
  0
LTYPE
  5
4B
100
AcDbSymbolTableRecord
100
AcDbLinetypeTableRecord
  2
ACAD_ISO02W100
 70
0
  3
ISO dash __ __ __ __ __ __ __ __ __ __ __ __ __
 72
65
 73
2
 40
15.0
 49
12.0
 74
0
 49
-3.0
 74
0
  0
LTYPE
  5
4C
100
AcDbSymbolTableRecord
100
AcDbLinetypeTableRecord
  2
PHANTOM2
 70
0
  3
Phantom (.5x) ___ _ _ ___ _ _ ___ _ _ ___ _ _
 72
65
 73
6
 40
31.750000000000004
 49
15.875
 74
0
 49
-3.1749999999999998
 74
0
 49
3.1749999999999998
 74
0
 49
-3.1749999999999998
 74
0
 49
3.1749999999999998
 74
0
 49
-3.1749999999999998
 74
0
  0
LTYPE
  5
4D
100
AcDbSymbolTableRecord
100
AcDbLinetypeTableRecord
  2
DASHED2
 70
0
  3
Dashed (.5x) _ _ _ _ _ _ _ _ _ _ _ _ _ _ _ _ _ 
 72
65
 73
2
 40
9.5249999999999986
 49
6.3499999999999996
 74
0
 49
-3.1749999999999998
 74
0
  0
LTYPE
  5
4E
100
AcDbSymbolTableRecord
100
AcDbLinetypeTableRecord
  2
ACAD_ISO09W100
 70
0
  3
ISO long-dash double-short-dash ____ __ __ ____
 72
65
 73
6
 40
45.0
 49
24.0
 74
0
 49
-3.0
 74
0
 49
6.0
 74
0
 49
-3.0
 74
0
 49
6.0
 74
0
 49
-3.0
 74
0
  0
LTYPE
  5
4F
100
AcDbSymbolTableRecord
100
AcDbLinetypeTableRecord
  2
ACAD_ISO13W100
 70
0
  3
ISO double-dash double-dot __ __ . . __ __ . . _
 72
65
 73
8
 40
36.0
 49
12.0
 74
0
 49
-3.0
 74
0
 49
12.0
 74
0
 49
-3.0
 74
0
 49
0.0
 74
0
 49
-3.0
 74
0
 49
0.0
 74
0
 49
-3.0
 74
0
  0
LTYPE
  5
50
100
AcDbSymbolTableRecord
100
AcDbLinetypeTableRecord
  2
TRACKS
 70
0
  3
Tracks -|-|-|-|-|-|-|-|-|-|-|-|-|-|-|-|-|-|-|-|-|-|-|-|-
 72
65
 73
2
 40
7.6200000000000001
 49
3.8100000000000001
 74
0
 49
3.8100000000000001
 74
0
  0
LTYPE
  5
51
100
AcDbSymbolTableRecord
100
AcDbLinetypeTableRecord
  2
DRAINAGE2
 70
0
  3
Drainage reversed----<----<----<----
 72
65
 73
2
 40
10.16
 49
5.0800000000000001
 74
0
 49
5.0800000000000001
 74
0
  0
LTYPE
  5
52
100
AcDbSymbolTableRecord
100
AcDbLinetypeTableRecord
  2
DOT2
 70
0
  3
Dot (.5x) ........................................
 72
65
 73
2
 40
3.1749999999999998
 49
0.0
 74
0
 49
-3.1749999999999998
 74
0
  0
LTYPE
  5
53
100
AcDbSymbolTableRecord
100
AcDbLinetypeTableRecord
  2
ZIGZAG
 70
0
  3
Zig zag /\/\/\/\/\/\/\/\/\/\/\/\/\/\/\/\/\/\/\/\/\/\/\/
 72
65
 73
4
 40
20.32254
 49
0.00254
 74
0
 49
-5.0800000000000001
 74
0
 49
-10.16
 74
0
 49
-5.0800000000000001
 74
0
  0
LTYPE
  5
54
100
AcDbSymbolTableRecord
100
AcDbLinetypeTableRecord
  2
DASHED
 70
0
  3
Dashed __ __ __ __ __ __ __ __ __ __ __ __ __ _
 72
65
 73
2
 40
19.049999999999997
 49
12.699999999999999
 74
0
 49
-6.3499999999999996
 74
0
  0
LTYPE
  5
55
100
AcDbSymbolTableRecord
100
AcDbLinetypeTableRecord
  2
ACAD_ISO14W100
 70
0
  3
ISO dash triple-dot __ . . . __ . . . __ . . . _
 72
65
 73
8
 40
24.0
 49
12.0
 74
0
 49
-3.0
 74
0
 49
0.0
 74
0
 49
-3.0
 74
0
 49
0.0
 74
0
 49
-3.0
 74
0
 49
0.0
 74
0
 49
-3.0
 74
0
  0
LTYPE
  5
15
100
AcDbSymbolTableRecord
100
AcDbLinetypeTableRecord
  2
BYLAYER
 70
0
  3

 72
65
 73
0
 40
0.0
  0
LTYPE
  5
56
100
AcDbSymbolTableRecord
100
AcDbLinetypeTableRecord
  2
PHANTOMX2
 70
0
  3
Phantom (2x) ____________    ____    ____   _
 72
65
 73
6
 40
127.00000000000001
 49
63.5
 74
0
 49
-12.699999999999999
 74
0
 49
12.699999999999999
 74
0
 49
-12.699999999999999
 74
0
 49
12.699999999999999
 74
0
 49
-12.699999999999999
 74
0
  0
LTYPE
  5
14
100
AcDbSymbolTableRecord
100
AcDbLinetypeTableRecord
  2
BYBLOCK
 70
0
  3

 72
65
 73
0
 40
0.0
  0
LTYPE
  5
57
100
AcDbSymbolTableRecord
100
AcDbLinetypeTableRecord
  2
DIVIDEX2
 70
0
  3
Divide (2x) ________  .  .  ________  .  .  _
 72
65
 73
6
 40
63.5
 49
25.399999999999999
 74
0
 49
-12.699999999999999
 74
0
 49
0.0
 74
0
 49
-12.699999999999999
 74
0
 49
0.0
 74
0
 49
-12.699999999999999
 74
0
  0
LTYPE
  5
58
100
AcDbSymbolTableRecord
100
AcDbLinetypeTableRecord
  2
BORDER
 70
0
  3
Border __ __ . __ __ . __ __ . __ __ . __ __ .
 72
65
 73
6
 40
44.449999999999996
 49
12.699999999999999
 74
0
 49
-6.3499999999999996
 74
0
 49
12.699999999999999
 74
0
 49
-6.3499999999999996
 74
0
 49
0.0
 74
0
 49
-6.3499999999999996
 74
0
  0
LTYPE
  5
59
100
AcDbSymbolTableRecord
100
AcDbLinetypeTableRecord
  2
DIVIDE2
 70
0
  3
Divide (.5x) __..__..__..__..__..__..__..__.._
 72
65
 73
6
 40
15.875
 49
6.3499999999999996
 74
0
 49
-3.1749999999999998
 74
0
 49
0.0
 74
0
 49
-3.1749999999999998
 74
0
 49
0.0
 74
0
 49
-3.1749999999999998
 74
0
  0
LTYPE
  5
5A
100
AcDbSymbolTableRecord
100
AcDbLinetypeTableRecord
  2
DOT
 70
0
  3
Dot . . . . . . . . . . . . . . . . . . . . . . . .
 72
65
 73
2
 40
6.3499999999999996
 49
0.0
 74
0
 49
-6.3499999999999996
 74
0
  0
LTYPE
  5
5B
100
AcDbSymbolTableRecord
100
AcDbLinetypeTableRecord
  2
DASHDOT
 70
0
  3
Dash dot __ . __ . __ . __ . __ . __ . __ . __
 72
65
 73
4
 40
25.399999999999999
 49
12.699999999999999
 74
0
 49
-6.3499999999999996
 74
0
 49
0.0
 74
0
 49
-6.3499999999999996
 74
0
  0
LTYPE
  5
5C
100
AcDbSymbolTableRecord
100
AcDbLinetypeTableRecord
  2
FENCELINE1
 70
0
  3
Fenceline circle ----0-----0----0-----0----0-----0--
 72
65
 73
4
 40
36.829999999999998
 49
6.3499999999999996
 74
0
 49
-2.54
 74
0
 49
-2.54
 74
0
 49
25.399999999999999
 74
0
  0
LTYPE
  5
5D
100
AcDbSymbolTableRecord
100
AcDbLinetypeTableRecord
  2
BATTING
 70
0
  3
Batting SSSSSSSSSSSSSSSSSSSSSSSSSSSSSSSSSSSSSSSSSSSSSSS
 72
65
 73
4
 40
10.16254
 49
0.00254
 74
0
 49
-2.54
 74
0
 49
-5.0800000000000001
 74
0
 49
-2.54
 74
0
  0
LTYPE
  5
5E
100
AcDbSymbolTableRecord
100
AcDbLinetypeTableRecord
  2
ACAD_ISO03W100
 70
0
  3
ISO dash space __    __    __    __    __    __
 72
65
 73
2
 40
30.0
 49
12.0
 74
0
 49
-18.0
 74
0
  0
LTYPE
  5
5F
100
AcDbSymbolTableRecord
100
AcDbLinetypeTableRecord
  2
FENCELINE2
 70
0
  3
Fenceline square ----[]-----[]----[]-----[]----[]---
 72
65
 73
4
 40
36.829999999999998
 49
6.3499999999999996
 74
0
 49
-2.54
 74
0
 49
-2.54
 74
0
 49
25.399999999999999
 74
0
  0
ENDTAB
  0
TABLE
  2
LAYER
  5
2
100
AcDbSymbolTable
 70
1
  0
LAYER
  5
10
100
AcDbSymbolTableRecord
100
AcDbLayerTableRecord
  2
0
 70
0
 62
7
420
16777215
  6
Continuous
370
5
390
F
  0
ENDTAB
  0
TABLE
  2
STYLE
  5
3
100
AcDbSymbolTable
 70
1
  0
STYLE
  5
60
100
AcDbSymbolTableRecord
100
AcDbTextStyleTableRecord
  2
Standard
 70
0
 40
0.0
 41
1.0
 50
0.0
 71
0
 42
2.5
  3

  4

1001
ACAD
1000
txt
1071
0
  0
ENDTAB
  0
TABLE
  2
VIEW
  5
6
100
AcDbSymbolTable
 70
0
  0
ENDTAB
  0
TABLE
  2
UCS
  5
7
100
AcDbSymbolTable
 70
0
  0
ENDTAB
  0
TABLE
  2
APPID
  5
9
100
AcDbSymbolTable
 70
1
  0
APPID
  5
12
100
AcDbSymbolTableRecord
100
AcDbRegAppTableRecord
  2
ACAD
 70
0
  0
APPID
  5
61
100
AcDbSymbolTableRecord
100
AcDbRegAppTableRecord
  2
QCAD
 70
0
  0
ENDTAB
  0
TABLE
  2
DIMSTYLE
  5
A
100
AcDbSymbolTable
 70
1
100
AcDbDimStyleTable
 71
0
  0
DIMSTYLE
105
27
100
AcDbSymbolTableRecord
100
AcDbDimStyleTableRecord
  2
Standard
 41
0.18
 42
0.0625
 43
3.75
 44
0.18
 70
0
 73
0
 74
0
 77
1
 78
8
140
0.18
141
2.5
143
0.03937007874016
147
0.09
171
3
172
1
271
2
272
2
274
3
278
44
283
0
284
8
340
60
  0
ENDTAB
  0
TABLE
  2
BLOCK_RECORD
  5
1
100
AcDbSymbolTable
 70
1
  0
BLOCK_RECORD
  5
1F
100
AcDbSymbolTableRecord
100
AcDbBlockTableRecord
  2
*Model_Space
340
22
  0
BLOCK_RECORD
  5
1B
100
AcDbSymbolTableRecord
100
AcDbBlockTableRecord
  2
*Paper_Space
340
1E
  0
BLOCK_RECORD
  5
23
100
AcDbSymbolTableRecord
100
AcDbBlockTableRecord
  2
*Paper_Space0
340
26
  0
ENDTAB
  0
ENDSEC
  0
SECTION
  2
BLOCKS
  0
BLOCK
  5
20
100
AcDbEntity
  8
0
100
AcDbBlockBegin
  2
*Model_Space
 70
0
 10
0.0
 20
0.0
 30
0.0
  3
*Model_Space
  1

  0
ENDBLK
  5
21
100
AcDbEntity
  8
0
100
AcDbBlockEnd
  0
BLOCK
  5
1C
100
AcDbEntity
 67
1
  8
0
100
AcDbBlockBegin
  2
*Paper_Space
 70
0
 10
0.0
 20
0.0
 30
0.0
  3
*Paper_Space
  1

  0
ENDBLK
  5
1D
100
AcDbEntity
 67
1
  8
0
100
AcDbBlockEnd
  0
BLOCK
  5
24
100
AcDbEntity
  8
0
100
AcDbBlockBegin
  2
*Paper_Space0
 70
0
 10
0.0
 20
0.0
 30
0.0
  3
*Paper_Space0
  1

  0
ENDBLK
  5
25
100
AcDbEntity
  8
0
100
AcDbBlockEnd
  0
ENDSEC
  0
SECTION
  2
ENTITIES
  0
LWPOLYLINE
  5
62
  8
0
 62
256
370
-1
 48
1.0
  6
BYLAYER
100
AcDbEntity
100
AcDbPolyline
 90
2
 70
0
 10
150.12499999999997
 20
293.91674139170652
 30
0.0
 10
150.12499999999997
 20
393.91674139170652
 30
0.0
  0
LWPOLYLINE
  5
63
  8
0
 62
256
370
-1
 48
1.0
  6
BYLAYER
100
AcDbEntity
100
AcDbPolyline
 90
2
 70
0
 10
150.12499999999997
 20
406.41674139170652
 30
0.0
 10
150.12499999999997
 20
506.41674139170652
 30
0.0
  0
LWPOLYLINE
  5
64
  8
0
 62
256
370
-1
 48
1.0
  6
BYLAYER
100
AcDbEntity
100
AcDbPolyline
 90
2
 70
0
 10
157.488
 20
512.66674139170652
 30
0.0
 10
157.488
 20
462.66674139170652
 30
0.0
  0
LWPOLYLINE
  5
65
  8
0
 62
256
370
-1
 48
1.0
  6
BYLAYER
100
AcDbEntity
100
AcDbPolyline
 90
2
 70
0
 10
157.488
 20
450.16674139170652
 30
0.0
 10
157.488
 20
350.16674139170652
 30
0.0
  0
LWPOLYLINE
  5
66
  8
0
 62
256
370
-1
 48
1.0
  6
BYLAYER
100
AcDbEntity
100
AcDbPolyline
 90
2
 70
0
 10
157.488
 20
337.66674139170652
 30
0.0
 10
157.488
 20
287.66674139170652
 30
0.0
  0
LWPOLYLINE
  5
67
  8
0
 62
256
370
-1
 48
1.0
  6
BYLAYER
100
AcDbEntity
100
AcDbPolyline
 90
2
 70
0
 10
164.84999999999999
 20
293.91674139170652
 30
0.0
 10
164.84999999999999
 20
393.91674139170652
 30
0.0
  0
LWPOLYLINE
  5
68
  8
0
 62
256
370
-1
 48
1.0
  6
BYLAYER
100
AcDbEntity
100
AcDbPolyline
 90
2
 70
0
 10
164.84999999999999
 20
406.41674139170652
 30
0.0
 10
164.84999999999999
 20
506.41674139170652
 30
0.0
  0
LWPOLYLINE
  5
69
  8
0
 62
256
370
-1
 48
1.0
  6
BYLAYER
100
AcDbEntity
100
AcDbPolyline
 90
2
 70
0
 10
172.21699999999998
 20
512.66674139170652
 30
0.0
 10
172.21699999999998
 20
462.66674139170652
 30
0.0
  0
LWPOLYLINE
  5
6A
  8
0
 62
256
370
-1
 48
1.0
  6
BYLAYER
100
AcDbEntity
100
AcDbPolyline
 90
2
 70
0
 10
172.21699999999998
 20
450.16674139170652
 30
0.0
 10
172.21699999999998
 20
350.16674139170652
 30
0.0
  0
LWPOLYLINE
  5
6B
  8
0
 62
256
370
-1
 48
1.0
  6
BYLAYER
100
AcDbEntity
100
AcDbPolyline
 90
2
 70
0
 10
172.21699999999998
 20
337.66674139170652
 30
0.0
 10
172.21699999999998
 20
287.66674139170652
 30
0.0
  0
LWPOLYLINE
  5
6C
  8
0
 62
256
370
-1
 48
1.0
  6
BYLAYER
100
AcDbEntity
100
AcDbPolyline
 90
2
 70
0
 10
179.57899999999998
 20
293.91674139170652
 30
0.0
 10
179.57899999999998
 20
393.91674139170652
 30
0.0
  0
LWPOLYLINE
  5
6D
  8
0
 62
256
370
-1
 48
1.0
  6
BYLAYER
100
AcDbEntity
100
AcDbPolyline
 90
2
 70
0
 10
179.57899999999998
 20
406.41674139170652
 30
0.0
 10
179.57899999999998
 20
506.41674139170652
 30
0.0
  0
LWPOLYLINE
  5
6E
  8
0
 62
256
370
-1
 48
1.0
  6
BYLAYER
100
AcDbEntity
100
AcDbPolyline
 90
2
 70
0
 10
186.94199999999998
 20
512.66674139170652
 30
0.0
 10
186.94199999999998
 20
462.66674139170652
 30
0.0
  0
LWPOLYLINE
  5
6F
  8
0
 62
256
370
-1
 48
1.0
  6
BYLAYER
100
AcDbEntity
100
AcDbPolyline
 90
2
 70
0
 10
186.94199999999998
 20
450.16674139170652
 30
0.0
 10
186.94199999999998
 20
350.16674139170652
 30
0.0
  0
LWPOLYLINE
  5
70
  8
0
 62
256
370
-1
 48
1.0
  6
BYLAYER
100
AcDbEntity
100
AcDbPolyline
 90
2
 70
0
 10
186.94199999999998
 20
337.66674139170652
 30
0.0
 10
186.94199999999998
 20
287.66674139170652
 30
0.0
  0
LWPOLYLINE
  5
71
  8
0
 62
256
370
-1
 48
1.0
  6
BYLAYER
100
AcDbEntity
100
AcDbPolyline
 90
2
 70
0
 10
194.304
 20
293.91674139170652
 30
0.0
 10
194.304
 20
393.91674139170652
 30
0.0
  0
LWPOLYLINE
  5
72
  8
0
 62
256
370
-1
 48
1.0
  6
BYLAYER
100
AcDbEntity
100
AcDbPolyline
 90
2
 70
0
 10
194.304
 20
406.41674139170652
 30
0.0
 10
194.304
 20
506.41674139170652
 30
0.0
  0
LWPOLYLINE
  5
73
  8
0
 62
256
370
-1
 48
1.0
  6
BYLAYER
100
AcDbEntity
100
AcDbPolyline
 90
2
 70
0
 10
201.66500000000002
 20
512.66674139170652
 30
0.0
 10
201.66500000000002
 20
462.66674139170652
 30
0.0
  0
LWPOLYLINE
  5
74
  8
0
 62
256
370
-1
 48
1.0
  6
BYLAYER
100
AcDbEntity
100
AcDbPolyline
 90
2
 70
0
 10
201.66500000000002
 20
450.16674139170652
 30
0.0
 10
201.66500000000002
 20
350.16674139170652
 30
0.0
  0
LWPOLYLINE
  5
75
  8
0
 62
256
370
-1
 48
1.0
  6
BYLAYER
100
AcDbEntity
100
AcDbPolyline
 90
2
 70
0
 10
201.66500000000002
 20
337.66674139170652
 30
0.0
 10
201.66500000000002
 20
287.66674139170652
 30
0.0
  0
LWPOLYLINE
  5
76
  8
0
 62
256
370
-1
 48
1.0
  6
BYLAYER
100
AcDbEntity
100
AcDbPolyline
 90
2
 70
0
 10
209.02800000000002
 20
293.91674139170652
 30
0.0
 10
209.02800000000002
 20
393.91674139170652
 30
0.0
  0
LWPOLYLINE
  5
77
  8
0
 62
256
370
-1
 48
1.0
  6
BYLAYER
100
AcDbEntity
100
AcDbPolyline
 90
2
 70
0
 10
209.02800000000002
 20
406.41674139170652
 30
0.0
 10
209.02800000000002
 20
506.41674139170652
 30
0.0
  0
LWPOLYLINE
  5
78
  8
0
 62
256
370
-1
 48
1.0
  6
BYLAYER
100
AcDbEntity
100
AcDbPolyline
 90
2
 70
0
 10
150.12499999999997
 20
512.66674139170652
 30
0.0
 10
209.02800000000002
 20
512.66674139170652
 30
0.0
  0
LWPOLYLINE
  5
79
  8
0
 62
256
370
-1
 48
1.0
  6
BYLAYER
100
AcDbEntity
100
AcDbPolyline
 90
2
 70
0
 10
209.02800000000002
 20
287.66674139170652
 30
0.0
 10
150.12499999999997
 20
287.66674139170652
 30
0.0
  0
LWPOLYLINE
  5
7A
  8
0
 62
256
370
-1
 48
1.0
  6
BYLAYER
100
AcDbEntity
100
AcDbPolyline
 90
2
 70
0
 10
309.02800000000002
 20
293.91674139170652
 30
0.0
 10
309.02800000000002
 20
393.91674139170652
 30
0.0
  0
LWPOLYLINE
  5
7B
  8
0
 62
256
370
-1
 48
1.0
  6
BYLAYER
100
AcDbEntity
100
AcDbPolyline
 90
2
 70
0
 10
309.02800000000002
 20
406.41674139170652
 30
0.0
 10
309.02800000000002
 20
506.41674139170652
 30
0.0
  0
LWPOLYLINE
  5
7C
  8
0
 62
256
370
-1
 48
1.0
  6
BYLAYER
100
AcDbEntity
100
AcDbPolyline
 90
2
 70
0
 10
316.39600000000002
 20
512.66674139170652
 30
0.0
 10
316.39600000000002
 20
462.66674139170652
 30
0.0
  0
LWPOLYLINE
  5
7D
  8
0
 62
256
370
-1
 48
1.0
  6
BYLAYER
100
AcDbEntity
100
AcDbPolyline
 90
2
 70
0
 10
316.39600000000002
 20
450.16674139170652
 30
0.0
 10
316.39600000000002
 20
350.16674139170652
 30
0.0
  0
LWPOLYLINE
  5
7E
  8
0
 62
256
370
-1
 48
1.0
  6
BYLAYER
100
AcDbEntity
100
AcDbPolyline
 90
2
 70
0
 10
316.39600000000002
 20
337.66674139170652
 30
0.0
 10
316.39600000000002
 20
287.66674139170652
 30
0.0
  0
LWPOLYLINE
  5
7F
  8
0
 62
256
370
-1
 48
1.0
  6
BYLAYER
100
AcDbEntity
100
AcDbPolyline
 90
2
 70
0
 10
323.75800000000004
 20
293.91674139170652
 30
0.0
 10
323.75800000000004
 20
393.91674139170652
 30
0.0
  0
LWPOLYLINE
  5
80
  8
0
 62
256
370
-1
 48
1.0
  6
BYLAYER
100
AcDbEntity
100
AcDbPolyline
 90
2
 70
0
 10
323.75800000000004
 20
406.41674139170652
 30
0.0
 10
323.75800000000004
 20
506.41674139170652
 30
0.0
  0
LWPOLYLINE
  5
81
  8
0
 62
256
370
-1
 48
1.0
  6
BYLAYER
100
AcDbEntity
100
AcDbPolyline
 90
2
 70
0
 10
331.11900000000003
 20
512.66674139170652
 30
0.0
 10
331.11900000000003
 20
462.66674139170652
 30
0.0
  0
LWPOLYLINE
  5
82
  8
0
 62
256
370
-1
 48
1.0
  6
BYLAYER
100
AcDbEntity
100
AcDbPolyline
 90
2
 70
0
 10
331.11900000000003
 20
450.16674139170652
 30
0.0
 10
331.11900000000003
 20
350.16674139170652
 30
0.0
  0
LWPOLYLINE
  5
83
  8
0
 62
256
370
-1
 48
1.0
  6
BYLAYER
100
AcDbEntity
100
AcDbPolyline
 90
2
 70
0
 10
331.11900000000003
 20
337.66674139170652
 30
0.0
 10
331.11900000000003
 20
287.66674139170652
 30
0.0
  0
LWPOLYLINE
  5
84
  8
0
 62
256
370
-1
 48
1.0
  6
BYLAYER
100
AcDbEntity
100
AcDbPolyline
 90
2
 70
0
 10
338.48200000000003
 20
293.91674139170652
 30
0.0
 10
338.48200000000003
 20
393.91674139170652
 30
0.0
  0
LWPOLYLINE
  5
85
  8
0
 62
256
370
-1
 48
1.0
  6
BYLAYER
100
AcDbEntity
100
AcDbPolyline
 90
2
 70
0
 10
338.48200000000003
 20
406.41674139170652
 30
0.0
 10
338.48200000000003
 20
506.41674139170652
 30
0.0
  0
LWPOLYLINE
  5
86
  8
0
 62
256
370
-1
 48
1.0
  6
BYLAYER
100
AcDbEntity
100
AcDbPolyline
 90
2
 70
0
 10
345.84399999999999
 20
512.66674139170652
 30
0.0
 10
345.84399999999999
 20
462.66674139170652
 30
0.0
  0
LWPOLYLINE
  5
87
  8
0
 62
256
370
-1
 48
1.0
  6
BYLAYER
100
AcDbEntity
100
AcDbPolyline
 90
2
 70
0
 10
345.84399999999999
 20
450.16674139170652
 30
0.0
 10
345.84399999999999
 20
350.16674139170652
 30
0.0
  0
LWPOLYLINE
  5
88
  8
0
 62
256
370
-1
 48
1.0
  6
BYLAYER
100
AcDbEntity
100
AcDbPolyline
 90
2
 70
0
 10
345.84399999999999
 20
337.66674139170652
 30
0.0
 10
345.84399999999999
 20
287.66674139170652
 30
0.0
  0
LWPOLYLINE
  5
89
  8
0
 62
256
370
-1
 48
1.0
  6
BYLAYER
100
AcDbEntity
100
AcDbPolyline
 90
2
 70
0
 10
353.20699999999999
 20
293.91674139170652
 30
0.0
 10
353.20699999999999
 20
393.91674139170652
 30
0.0
  0
LWPOLYLINE
  5
8A
  8
0
 62
256
370
-1
 48
1.0
  6
BYLAYER
100
AcDbEntity
100
AcDbPolyline
 90
2
 70
0
 10
353.20699999999999
 20
406.41674139170652
 30
0.0
 10
353.20699999999999
 20
506.41674139170652
 30
0.0
  0
LWPOLYLINE
  5
8B
  8
0
 62
256
370
-1
 48
1.0
  6
BYLAYER
100
AcDbEntity
100
AcDbPolyline
 90
2
 70
0
 10
360.57400000000001
 20
512.66674139170652
 30
0.0
 10
360.57400000000001
 20
462.66674139170652
 30
0.0
  0
LWPOLYLINE
  5
8C
  8
0
 62
256
370
-1
 48
1.0
  6
BYLAYER
100
AcDbEntity
100
AcDbPolyline
 90
2
 70
0
 10
360.57400000000001
 20
450.16674139170652
 30
0.0
 10
360.57400000000001
 20
350.16674139170652
 30
0.0
  0
LWPOLYLINE
  5
8D
  8
0
 62
256
370
-1
 48
1.0
  6
BYLAYER
100
AcDbEntity
100
AcDbPolyline
 90
2
 70
0
 10
360.57400000000001
 20
337.66674139170652
 30
0.0
 10
360.57400000000001
 20
287.66674139170652
 30
0.0
  0
LWPOLYLINE
  5
8E
  8
0
 62
256
370
-1
 48
1.0
  6
BYLAYER
100
AcDbEntity
100
AcDbPolyline
 90
2
 70
0
 10
367.93600000000004
 20
293.91674139170652
 30
0.0
 10
367.93600000000004
 20
393.91674139170652
 30
0.0
  0
LWPOLYLINE
  5
8F
  8
0
 62
256
370
-1
 48
1.0
  6
BYLAYER
100
AcDbEntity
100
AcDbPolyline
 90
2
 70
0
 10
367.93600000000004
 20
406.41674139170652
 30
0.0
 10
367.93600000000004
 20
506.41674139170652
 30
0.0
  0
LWPOLYLINE
  5
90
  8
0
 62
256
370
-1
 48
1.0
  6
BYLAYER
100
AcDbEntity
100
AcDbPolyline
 90
2
 70
0
 10
309.02800000000002
 20
512.66674139170652
 30
0.0
 10
367.93600000000004
 20
512.66674139170652
 30
0.0
  0
LWPOLYLINE
  5
91
  8
0
 62
256
370
-1
 48
1.0
  6
BYLAYER
100
AcDbEntity
100
AcDbPolyline
 90
2
 70
0
 10
367.93600000000004
 20
287.66674139170652
 30
0.0
 10
309.02800000000002
 20
287.66674139170652
 30
0.0
  0
LWPOLYLINE
  5
92
  8
0
 62
256
370
-1
 48
1.0
  6
BYLAYER
100
AcDbEntity
100
AcDbPolyline
 90
12
 70
0
 10
150.12499999999997
 20
512.66674139170652
 30
0.0
 10
50.124999999999986
 20
512.66674139170652
 30
0.0
 10
50.124999999999986
 20
500.16674139170652
 30
0.0
 10
25.124999999999982
 20
500.16674139170652
 30
0.0
 10
25.124999999999982
 20
512.66674139170652
 30
0.0
 10
0.1249999999999835
 20
512.66674139170652
 30
0.0
 10
0.1249999999999835
 20
287.66674139170652
 30
0.0
 10
25.124999999999982
 20
287.66674139170652
 30
0.0
 10
25.124999999999982
 20
300.16674139170652
 30
0.0
 10
50.124999999999986
 20
300.16674139170652
 30
0.0
 10
50.124999999999986
 20
287.66674139170652
 30
0.0
 10
150.12499999999997
 20
287.66674139170652
 30
0.0
  0
LWPOLYLINE
  5
93
  8
0
 62
256
370
-1
 48
1.0
  6
BYLAYER
100
AcDbEntity
100
AcDbPolyline
 90
10
 70
0
 10
209.02800000000002
 20
512.66674139170652
 30
0.0
 10
229.03100000000001
 20
512.66674139170652
 30
0.0
 10
229.03100000000001
 20
500.16674139170652
 30
0.0
 10
249.02900000000002
 20
500.16674139170652
 30
0.0
 10
249.02900000000002
 20
512.66674139170652
 30
0.0
 10
269.03199999999998
 20
512.66674139170652
 30
0.0
 10
269.03199999999998
 20
500.16674139170652
 30
0.0
 10
289.03100000000001
 20
500.16674139170652
 30
0.0
 10
289.03100000000001
 20
512.66674139170652
 30
0.0
 10
309.02800000000002
 20
512.66674139170652
 30
0.0
  0
LWPOLYLINE
  5
94
  8
0
 62
256
370
-1
 48
1.0
  6
BYLAYER
100
AcDbEntity
100
AcDbPolyline
 90
10
 70
0
 10
309.02800000000002
 20
287.66674139170652
 30
0.0
 10
289.03100000000001
 20
287.66674139170652
 30
0.0
 10
289.03100000000001
 20
300.16674139170652
 30
0.0
 10
269.03199999999998
 20
300.16674139170652
 30
0.0
 10
269.03199999999998
 20
287.66674139170652
 30
0.0
 10
249.02900000000002
 20
287.66674139170652
 30
0.0
 10
249.02900000000002
 20
300.16674139170652
 30
0.0
 10
229.03100000000001
 20
300.16674139170652
 30
0.0
 10
229.03100000000001
 20
287.66674139170652
 30
0.0
 10
209.02800000000002
 20
287.66674139170652
 30
0.0
  0
LWPOLYLINE
  5
95
  8
0
 62
256
370
-1
 48
1.0
  6
BYLAYER
100
AcDbEntity
100
AcDbPolyline
 90
2
 70
0
 10
885.74300000000005
 20
293.91674139170652
 30
0.0
 10
885.74300000000005
 20
393.91674139170652
 30
0.0
  0
LWPOLYLINE
  5
96
  8
0
 62
256
370
-1
 48
1.0
  6
BYLAYER
100
AcDbEntity
100
AcDbPolyline
 90
2
 70
0
 10
885.74300000000005
 20
406.41674139170652
 30
0.0
 10
885.74300000000005
 20
506.41674139170652
 30
0.0
  0
LWPOLYLINE
  5
97
  8
0
 62
256
370
-1
 48
1.0
  6
BYLAYER
100
AcDbEntity
100
AcDbPolyline
 90
2
 70
0
 10
878.38099999999997
 20
512.66674139170652
 30
0.0
 10
878.38099999999997
 20
462.66674139170652
 30
0.0
  0
LWPOLYLINE
  5
98
  8
0
 62
256
370
-1
 48
1.0
  6
BYLAYER
100
AcDbEntity
100
AcDbPolyline
 90
2
 70
0
 10
878.38099999999997
 20
450.16674139170652
 30
0.0
 10
878.38099999999997
 20
350.16674139170652
 30
0.0
  0
LWPOLYLINE
  5
99
  8
0
 62
256
370
-1
 48
1.0
  6
BYLAYER
100
AcDbEntity
100
AcDbPolyline
 90
2
 70
0
 10
878.38099999999997
 20
337.66674139170652
 30
0.0
 10
878.38099999999997
 20
287.66674139170652
 30
0.0
  0
LWPOLYLINE
  5
9A
  8
0
 62
256
370
-1
 48
1.0
  6
BYLAYER
100
AcDbEntity
100
AcDbPolyline
 90
2
 70
0
 10
871.01800000000003
 20
293.91674139170652
 30
0.0
 10
871.01800000000003
 20
393.91674139170652
 30
0.0
  0
LWPOLYLINE
  5
9B
  8
0
 62
256
370
-1
 48
1.0
  6
BYLAYER
100
AcDbEntity
100
AcDbPolyline
 90
2
 70
0
 10
871.01800000000003
 20
406.41674139170652
 30
0.0
 10
871.01800000000003
 20
506.41674139170652
 30
0.0
  0
LWPOLYLINE
  5
9C
  8
0
 62
256
370
-1
 48
1.0
  6
BYLAYER
100
AcDbEntity
100
AcDbPolyline
 90
2
 70
0
 10
863.65600000000006
 20
512.66674139170652
 30
0.0
 10
863.65600000000006
 20
462.66674139170652
 30
0.0
  0
LWPOLYLINE
  5
9D
  8
0
 62
256
370
-1
 48
1.0
  6
BYLAYER
100
AcDbEntity
100
AcDbPolyline
 90
2
 70
0
 10
863.65600000000006
 20
450.16674139170652
 30
0.0
 10
863.65600000000006
 20
350.16674139170652
 30
0.0
  0
LWPOLYLINE
  5
9E
  8
0
 62
256
370
-1
 48
1.0
  6
BYLAYER
100
AcDbEntity
100
AcDbPolyline
 90
2
 70
0
 10
863.65600000000006
 20
337.66674139170652
 30
0.0
 10
863.65600000000006
 20
287.66674139170652
 30
0.0
  0
LWPOLYLINE
  5
9F
  8
0
 62
256
370
-1
 48
1.0
  6
BYLAYER
100
AcDbEntity
100
AcDbPolyline
 90
2
 70
0
 10
856.29300000000012
 20
293.91674139170652
 30
0.0
 10
856.29300000000012
 20
393.91674139170652
 30
0.0
  0
LWPOLYLINE
  5
A0
  8
0
 62
256
370
-1
 48
1.0
  6
BYLAYER
100
AcDbEntity
100
AcDbPolyline
 90
2
 70
0
 10
856.29300000000012
 20
406.41674139170652
 30
0.0
 10
856.29300000000012
 20
506.41674139170652
 30
0.0
  0
LWPOLYLINE
  5
A1
  8
0
 62
256
370
-1
 48
1.0
  6
BYLAYER
100
AcDbEntity
100
AcDbPolyline
 90
2
 70
0
 10
848.93200000000002
 20
512.66674139170652
 30
0.0
 10
848.93200000000002
 20
462.66674139170652
 30
0.0
  0
LWPOLYLINE
  5
A2
  8
0
 62
256
370
-1
 48
1.0
  6
BYLAYER
100
AcDbEntity
100
AcDbPolyline
 90
2
 70
0
 10
848.93200000000002
 20
450.16674139170652
 30
0.0
 10
848.93200000000002
 20
350.16674139170652
 30
0.0
  0
LWPOLYLINE
  5
A3
  8
0
 62
256
370
-1
 48
1.0
  6
BYLAYER
100
AcDbEntity
100
AcDbPolyline
 90
2
 70
0
 10
848.93200000000002
 20
337.66674139170652
 30
0.0
 10
848.93200000000002
 20
287.66674139170652
 30
0.0
  0
LWPOLYLINE
  5
A4
  8
0
 62
256
370
-1
 48
1.0
  6
BYLAYER
100
AcDbEntity
100
AcDbPolyline
 90
2
 70
0
 10
841.56399999999996
 20
293.91674139170652
 30
0.0
 10
841.56399999999996
 20
393.91674139170652
 30
0.0
  0
LWPOLYLINE
  5
A5
  8
0
 62
256
370
-1
 48
1.0
  6
BYLAYER
100
AcDbEntity
100
AcDbPolyline
 90
2
 70
0
 10
841.56399999999996
 20
406.41674139170652
 30
0.0
 10
841.56399999999996
 20
506.41674139170652
 30
0.0
  0
LWPOLYLINE
  5
A6
  8
0
 62
256
370
-1
 48
1.0
  6
BYLAYER
100
AcDbEntity
100
AcDbPolyline
 90
2
 70
0
 10
834.20099999999991
 20
512.66674139170652
 30
0.0
 10
834.20099999999991
 20
462.66674139170652
 30
0.0
  0
LWPOLYLINE
  5
A7
  8
0
 62
256
370
-1
 48
1.0
  6
BYLAYER
100
AcDbEntity
100
AcDbPolyline
 90
2
 70
0
 10
834.20099999999991
 20
450.16674139170652
 30
0.0
 10
834.20099999999991
 20
350.16674139170652
 30
0.0
  0
LWPOLYLINE
  5
A8
  8
0
 62
256
370
-1
 48
1.0
  6
BYLAYER
100
AcDbEntity
100
AcDbPolyline
 90
2
 70
0
 10
834.20099999999991
 20
337.66674139170652
 30
0.0
 10
834.20099999999991
 20
287.66674139170652
 30
0.0
  0
LWPOLYLINE
  5
A9
  8
0
 62
256
370
-1
 48
1.0
  6
BYLAYER
100
AcDbEntity
100
AcDbPolyline
 90
2
 70
0
 10
826.83899999999994
 20
293.91674139170652
 30
0.0
 10
826.83899999999994
 20
393.91674139170652
 30
0.0
  0
LWPOLYLINE
  5
AA
  8
0
 62
256
370
-1
 48
1.0
  6
BYLAYER
100
AcDbEntity
100
AcDbPolyline
 90
2
 70
0
 10
826.83899999999994
 20
406.41674139170652
 30
0.0
 10
826.83899999999994
 20
506.41674139170652
 30
0.0
  0
LWPOLYLINE
  5
AB
  8
0
 62
256
370
-1
 48
1.0
  6
BYLAYER
100
AcDbEntity
100
AcDbPolyline
 90
2
 70
0
 10
885.74300000000005
 20
512.66674139170652
 30
0.0
 10
826.83899999999994
 20
512.66674139170652
 30
0.0
  0
LWPOLYLINE
  5
AC
  8
0
 62
256
370
-1
 48
1.0
  6
BYLAYER
100
AcDbEntity
100
AcDbPolyline
 90
2
 70
0
 10
826.83899999999994
 20
287.66674139170652
 30
0.0
 10
885.74300000000005
 20
287.66674139170652
 30
0.0
  0
LWPOLYLINE
  5
AD
  8
0
 62
256
370
-1
 48
1.0
  6
BYLAYER
100
AcDbEntity
100
AcDbPolyline
 90
2
 70
0
 10
726.83900000000006
 20
293.91674139170652
 30
0.0
 10
726.83900000000006
 20
393.91674139170652
 30
0.0
  0
LWPOLYLINE
  5
AE
  8
0
 62
256
370
-1
 48
1.0
  6
BYLAYER
100
AcDbEntity
100
AcDbPolyline
 90
2
 70
0
 10
726.83900000000006
 20
406.41674139170652
 30
0.0
 10
726.83900000000006
 20
506.41674139170652
 30
0.0
  0
LWPOLYLINE
  5
AF
  8
0
 62
256
370
-1
 48
1.0
  6
BYLAYER
100
AcDbEntity
100
AcDbPolyline
 90
2
 70
0
 10
719.47799999999995
 20
512.66674139170652
 30
0.0
 10
719.47799999999995
 20
462.66674139170652
 30
0.0
  0
LWPOLYLINE
  5
B0
  8
0
 62
256
370
-1
 48
1.0
  6
BYLAYER
100
AcDbEntity
100
AcDbPolyline
 90
2
 70
0
 10
719.47799999999995
 20
450.16674139170652
 30
0.0
 10
719.47799999999995
 20
350.16674139170652
 30
0.0
  0
LWPOLYLINE
  5
B1
  8
0
 62
256
370
-1
 48
1.0
  6
BYLAYER
100
AcDbEntity
100
AcDbPolyline
 90
2
 70
0
 10
719.47799999999995
 20
337.66674139170652
 30
0.0
 10
719.47799999999995
 20
287.66674139170652
 30
0.0
  0
LWPOLYLINE
  5
B2
  8
0
 62
256
370
-1
 48
1.0
  6
BYLAYER
100
AcDbEntity
100
AcDbPolyline
 90
2
 70
0
 10
712.11500000000001
 20
293.91674139170652
 30
0.0
 10
712.11500000000001
 20
393.91674139170652
 30
0.0
  0
LWPOLYLINE
  5
B3
  8
0
 62
256
370
-1
 48
1.0
  6
BYLAYER
100
AcDbEntity
100
AcDbPolyline
 90
2
 70
0
 10
712.11500000000001
 20
406.41674139170652
 30
0.0
 10
712.11500000000001
 20
506.41674139170652
 30
0.0
  0
LWPOLYLINE
  5
B4
  8
0
 62
256
370
-1
 48
1.0
  6
BYLAYER
100
AcDbEntity
100
AcDbPolyline
 90
2
 70
0
 10
704.75300000000004
 20
512.66674139170652
 30
0.0
 10
704.75300000000004
 20
462.66674139170652
 30
0.0
  0
LWPOLYLINE
  5
B5
  8
0
 62
256
370
-1
 48
1.0
  6
BYLAYER
100
AcDbEntity
100
AcDbPolyline
 90
2
 70
0
 10
704.75300000000004
 20
450.16674139170652
 30
0.0
 10
704.75300000000004
 20
350.16674139170652
 30
0.0
  0
LWPOLYLINE
  5
B6
  8
0
 62
256
370
-1
 48
1.0
  6
BYLAYER
100
AcDbEntity
100
AcDbPolyline
 90
2
 70
0
 10
704.75300000000004
 20
337.66674139170652
 30
0.0
 10
704.75300000000004
 20
287.66674139170652
 30
0.0
  0
LWPOLYLINE
  5
B7
  8
0
 62
256
370
-1
 48
1.0
  6
BYLAYER
100
AcDbEntity
100
AcDbPolyline
 90
2
 70
0
 10
697.38499999999999
 20
293.91674139170652
 30
0.0
 10
697.38499999999999
 20
393.91674139170652
 30
0.0
  0
LWPOLYLINE
  5
B8
  8
0
 62
256
370
-1
 48
1.0
  6
BYLAYER
100
AcDbEntity
100
AcDbPolyline
 90
2
 70
0
 10
697.38499999999999
 20
406.41674139170652
 30
0.0
 10
697.38499999999999
 20
506.41674139170652
 30
0.0
  0
LWPOLYLINE
  5
B9
  8
0
 62
256
370
-1
 48
1.0
  6
BYLAYER
100
AcDbEntity
100
AcDbPolyline
 90
2
 70
0
 10
690.024
 20
512.66674139170652
 30
0.0
 10
690.024
 20
462.66674139170652
 30
0.0
  0
LWPOLYLINE
  5
BA
  8
0
 62
256
370
-1
 48
1.0
  6
BYLAYER
100
AcDbEntity
100
AcDbPolyline
 90
2
 70
0
 10
690.024
 20
450.16674139170652
 30
0.0
 10
690.024
 20
350.16674139170652
 30
0.0
  0
LWPOLYLINE
  5
BB
  8
0
 62
256
370
-1
 48
1.0
  6
BYLAYER
100
AcDbEntity
100
AcDbPolyline
 90
2
 70
0
 10
690.024
 20
337.66674139170652
 30
0.0
 10
690.024
 20
287.66674139170652
 30
0.0
  0
LWPOLYLINE
  5
BC
  8
0
 62
256
370
-1
 48
1.0
  6
BYLAYER
100
AcDbEntity
100
AcDbPolyline
 90
2
 70
0
 10
682.66099999999994
 20
293.91674139170652
 30
0.0
 10
682.66099999999994
 20
393.91674139170652
 30
0.0
  0
LWPOLYLINE
  5
BD
  8
0
 62
256
370
-1
 48
1.0
  6
BYLAYER
100
AcDbEntity
100
AcDbPolyline
 90
2
 70
0
 10
682.66099999999994
 20
406.41674139170652
 30
0.0
 10
682.66099999999994
 20
506.41674139170652
 30
0.0
  0
LWPOLYLINE
  5
BE
  8
0
 62
256
370
-1
 48
1.0
  6
BYLAYER
100
AcDbEntity
100
AcDbPolyline
 90
2
 70
0
 10
675.29899999999998
 20
512.66674139170652
 30
0.0
 10
675.29899999999998
 20
462.66674139170652
 30
0.0
  0
LWPOLYLINE
  5
BF
  8
0
 62
256
370
-1
 48
1.0
  6
BYLAYER
100
AcDbEntity
100
AcDbPolyline
 90
2
 70
0
 10
675.29899999999998
 20
450.16674139170652
 30
0.0
 10
675.29899999999998
 20
350.16674139170652
 30
0.0
  0
LWPOLYLINE
  5
C0
  8
0
 62
256
370
-1
 48
1.0
  6
BYLAYER
100
AcDbEntity
100
AcDbPolyline
 90
2
 70
0
 10
675.29899999999998
 20
337.66674139170652
 30
0.0
 10
675.29899999999998
 20
287.66674139170652
 30
0.0
  0
LWPOLYLINE
  5
C1
  8
0
 62
256
370
-1
 48
1.0
  6
BYLAYER
100
AcDbEntity
100
AcDbPolyline
 90
2
 70
0
 10
667.93600000000004
 20
293.91674139170652
 30
0.0
 10
667.93600000000004
 20
393.91674139170652
 30
0.0
  0
LWPOLYLINE
  5
C2
  8
0
 62
256
370
-1
 48
1.0
  6
BYLAYER
100
AcDbEntity
100
AcDbPolyline
 90
2
 70
0
 10
667.93600000000004
 20
406.41674139170652
 30
0.0
 10
667.93600000000004
 20
506.41674139170652
 30
0.0
  0
LWPOLYLINE
  5
C3
  8
0
 62
256
370
-1
 48
1.0
  6
BYLAYER
100
AcDbEntity
100
AcDbPolyline
 90
2
 70
0
 10
726.83900000000006
 20
512.66674139170652
 30
0.0
 10
667.93600000000004
 20
512.66674139170652
 30
0.0
  0
LWPOLYLINE
  5
C4
  8
0
 62
256
370
-1
 48
1.0
  6
BYLAYER
100
AcDbEntity
100
AcDbPolyline
 90
2
 70
0
 10
667.93600000000004
 20
287.66674139170652
 30
0.0
 10
726.83900000000006
 20
287.66674139170652
 30
0.0
  0
LWPOLYLINE
  5
C5
  8
0
 62
256
370
-1
 48
1.0
  6
BYLAYER
100
AcDbEntity
100
AcDbPolyline
 90
12
 70
0
 10
885.74300000000005
 20
512.66674139170652
 30
0.0
 10
985.74300000000005
 20
512.66674139170652
 30
0.0
 10
985.74300000000005
 20
500.16674139170652
 30
0.0
 10
1010.7449999999999
 20
500.16674139170652
 30
0.0
 10
1010.7449999999999
 20
512.66674139170652
 30
0.0
 10
1035.7449999999999
 20
512.66674139170652
 30
0.0
 10
1035.7449999999999
 20
287.66674139170652
 30
0.0
 10
1010.7449999999999
 20
287.66674139170652
 30
0.0
 10
1010.7449999999999
 20
300.16674139170652
 30
0.0
 10
985.74300000000005
 20
300.16674139170652
 30
0.0
 10
985.74300000000005
 20
287.66674139170652
 30
0.0
 10
885.74300000000005
 20
287.66674139170652
 30
0.0
  0
LWPOLYLINE
  5
C6
  8
0
 62
256
370
-1
 48
1.0
  6
BYLAYER
100
AcDbEntity
100
AcDbPolyline
 90
10
 70
0
 10
826.83899999999994
 20
512.66674139170652
 30
0.0
 10
806.8420000000001
 20
512.66674139170652
 30
0.0
 10
806.8420000000001
 20
500.16674139170652
 30
0.0
 10
786.83900000000006
 20
500.16674139170652
 30
0.0
 10
786.83900000000006
 20
512.66674139170652
 30
0.0
 10
766.84000000000003
 20
512.66674139170652
 30
0.0
 10
766.84000000000003
 20
500.16674139170652
 30
0.0
 10
746.83699999999999
 20
500.16674139170652
 30
0.0
 10
746.83699999999999
 20
512.66674139170652
 30
0.0
 10
726.83900000000006
 20
512.66674139170652
 30
0.0
  0
LWPOLYLINE
  5
C7
  8
0
 62
256
370
-1
 48
1.0
  6
BYLAYER
100
AcDbEntity
100
AcDbPolyline
 90
10
 70
0
 10
726.83900000000006
 20
287.66674139170652
 30
0.0
 10
746.83699999999999
 20
287.66674139170652
 30
0.0
 10
746.83699999999999
 20
300.16674139170652
 30
0.0
 10
766.84000000000003
 20
300.16674139170652
 30
0.0
 10
766.84000000000003
 20
287.66674139170652
 30
0.0
 10
786.83900000000006
 20
287.66674139170652
 30
0.0
 10
786.83900000000006
 20
300.16674139170652
 30
0.0
 10
806.8420000000001
 20
300.16674139170652
 30
0.0
 10
806.8420000000001
 20
287.66674139170652
 30
0.0
 10
826.83899999999994
 20
287.66674139170652
 30
0.0
  0
LWPOLYLINE
  5
C8
  8
0
 62
256
370
-1
 48
1.0
  6
BYLAYER
100
AcDbEntity
100
AcDbPolyline
 90
26
 70
0
 10
367.93600000000004
 20
512.66674139170652
 30
0.0
 10
391.01099999999997
 20
512.66674139170652
 30
0.0
 10
391.01099999999997
 20
500.16674139170652
 30
0.0
 10
414.08999999999997
 20
500.16674139170652
 30
0.0
 10
414.08999999999997
 20
512.66674139170652
 30
0.0
 10
437.16400000000004
 20
512.66674139170652
 30
0.0
 10
437.16400000000004
 20
500.16674139170652
 30
0.0
 10
460.24300000000005
 20
500.16674139170652
 30
0.0
 10
460.24300000000005
 20
512.66674139170652
 30
0.0
 10
483.31700000000001
 20
512.66674139170652
 30
0.0
 10
483.31700000000001
 20
500.16674139170652
 30
0.0
 10
506.39699999999999
 20
500.16674139170652
 30
0.0
 10
506.39699999999999
 20
512.66674139170652
 30
0.0
 10
529.471
 20
512.66674139170652
 30
0.0
 10
529.471
 20
500.16674139170652
 30
0.0
 10
552.55000000000007
 20
500.16674139170652
 30
0.0
 10
552.55000000000007
 20
512.66674139170652
 30
0.0
 10
575.62900000000002
 20
512.66674139170652
 30
0.0
 10
575.62900000000002
 20
500.16674139170652
 30
0.0
 10
598.70399999999995
 20
500.16674139170652
 30
0.0
 10
598.70399999999995
 20
512.66674139170652
 30
0.0
 10
621.78300000000002
 20
512.66674139170652
 30
0.0
 10
621.78300000000002
 20
500.16674139170652
 30
0.0
 10
644.85700000000008
 20
500.16674139170652
 30
0.0
 10
644.85700000000008
 20
512.66674139170652
 30
0.0
 10
667.93600000000004
 20
512.66674139170652
 30
0.0
  0
LWPOLYLINE
  5
C9
  8
0
 62
256
370
-1
 48
1.0
  6
BYLAYER
100
AcDbEntity
100
AcDbPolyline
 90
10
 70
0
 10
667.93600000000004
 20
512.66674139170652
 30
0.0
 10
667.93600000000004
 20
512.66674139170652
 30
0.0
 10
675.48900000000003
 20
513.43674139170651
 30
0.0
 10
682.53100000000006
 20
515.61674139170657
 30
0.0
 10
688.89999999999998
 20
519.07674139170649
 30
0.0
 10
694.45000000000005
 20
523.65674139170642
 30
0.0
 10
699.029
 20
529.20674139170649
 30
0.0
 10
702.48500000000001
 20
535.57674139170661
 30
0.0
 10
704.67100000000005
 20
542.61674139170646
 30
0.0
 10
705.43600000000004
 20
550.16674139170652
 30
0.0
  0
LWPOLYLINE
  5
CA
  8
0
 62
256
370
-1
 48
1.0
  6
BYLAYER
100
AcDbEntity
100
AcDbPolyline
 90
10
 70
0
 10
705.43600000000004
 20
550.16674139170652
 30
0.0
 10
705.43600000000004
 20
570.16674139170641
 30
0.0
 10
717.93600000000004
 20
570.16674139170641
 30
0.0
 10
717.93600000000004
 20
590.16674139170652
 30
0.0
 10
705.43600000000004
 20
590.16674139170652
 30
0.0
 10
705.43600000000004
 20
610.16674139170641
 30
0.0
 10
717.93600000000004
 20
610.16674139170641
 30
0.0
 10
717.93600000000004
 20
630.16674139170652
 30
0.0
 10
705.43600000000004
 20
630.16674139170652
 30
0.0
 10
705.43600000000004
 20
650.16674139170652
 30
0.0
  0
LWPOLYLINE
  5
CB
  8
0
 62
256
370
-1
 48
1.0
  6
BYLAYER
100
AcDbEntity
100
AcDbPolyline
 90
27
 70
0
 10
705.43600000000004
 20
650.16674139170652
 30
0.0
 10
704.67100000000005
 20
657.72674139170647
 30
0.0
 10
702.48500000000001
 20
664.76674139170655
 30
0.0
 10
699.029
 20
671.13674139170644
 30
0.0
 10
694.45000000000005
 20
676.68674139170651
 30
0.0
 10
688.89999999999998
 20
681.26674139170643
 30
0.0
 10
682.53100000000006
 20
684.71674139170648
 30
0.0
 10
675.48900000000003
 20
686.90674139170642
 30
0.0
 10
667.93600000000004
 20
687.66674139170652
 30
0.0
 10
567.93600000000004
 20
687.66674139170652
 30
0.0
 10
567.93600000000004
 20
700.16674139170652
 30
0.0
 10
542.93600000000004
 20
700.16674139170652
 30
0.0
 10
542.93600000000004
 20
687.66674139170652
 30
0.0
 10
492.93600000000004
 20
687.66674139170652
 30
0.0
 10
492.93600000000004
 20
700.16674139170652
 30
0.0
 10
467.93600000000004
 20
700.16674139170652
 30
0.0
 10
467.93600000000004
 20
687.66674139170652
 30
0.0
 10
367.93600000000004
 20
687.66674139170652
 30
0.0
 10
367.93600000000004
 20
687.66674139170652
 30
0.0
 10
360.37899999999996
 20
686.90674139170642
 30
0.0
 10
353.33600000000001
 20
684.71674139170648
 30
0.0
 10
346.96800000000002
 20
681.26674139170643
 30
0.0
 10
341.41700000000003
 20
676.68674139170651
 30
0.0
 10
336.839
 20
671.13674139170644
 30
0.0
 10
333.38200000000001
 20
664.76674139170655
 30
0.0
 10
331.19599999999997
 20
657.72674139170647
 30
0.0
 10
330.43600000000004
 20
650.16674139170652
 30
0.0
  0
LWPOLYLINE
  5
CC
  8
0
 62
256
370
-1
 48
1.0
  6
BYLAYER
100
AcDbEntity
100
AcDbPolyline
 90
10
 70
0
 10
330.43600000000004
 20
650.16674139170652
 30
0.0
 10
330.43600000000004
 20
630.16674139170652
 30
0.0
 10
317.93600000000004
 20
630.16674139170652
 30
0.0
 10
317.93600000000004
 20
610.16674139170641
 30
0.0
 10
330.43600000000004
 20
610.16674139170641
 30
0.0
 10
330.43600000000004
 20
590.16674139170652
 30
0.0
 10
317.93600000000004
 20
590.16674139170652
 30
0.0
 10
317.93600000000004
 20
570.16674139170641
 30
0.0
 10
330.43600000000004
 20
570.16674139170641
 30
0.0
 10
330.43600000000004
 20
550.16674139170652
 30
0.0
  0
LWPOLYLINE
  5
CD
  8
0
 62
256
370
-1
 48
1.0
  6
BYLAYER
100
AcDbEntity
100
AcDbPolyline
 90
9
 70
0
 10
330.43600000000004
 20
550.16674139170652
 30
0.0
 10
331.19599999999997
 20
542.61674139170646
 30
0.0
 10
333.38200000000001
 20
535.57674139170661
 30
0.0
 10
336.839
 20
529.20674139170649
 30
0.0
 10
341.41700000000003
 20
523.65674139170642
 30
0.0
 10
346.96800000000002
 20
519.07674139170649
 30
0.0
 10
353.33600000000001
 20
515.61674139170657
 30
0.0
 10
360.37899999999996
 20
513.43674139170651
 30
0.0
 10
367.93600000000004
 20
512.66674139170652
 30
0.0
  0
LWPOLYLINE
  5
CE
  8
0
 62
256
370
-1
 48
1.0
  6
BYLAYER
100
AcDbEntity
100
AcDbPolyline
 90
26
 70
0
 10
667.93600000000004
 20
287.66674139170652
 30
0.0
 10
644.85700000000008
 20
287.66674139170652
 30
0.0
 10
644.85700000000008
 20
300.16674139170652
 30
0.0
 10
621.78300000000002
 20
300.16674139170652
 30
0.0
 10
621.78300000000002
 20
287.66674139170652
 30
0.0
 10
598.70399999999995
 20
287.66674139170652
 30
0.0
 10
598.70399999999995
 20
300.16674139170652
 30
0.0
 10
575.62900000000002
 20
300.16674139170652
 30
0.0
 10
575.62900000000002
 20
287.66674139170652
 30
0.0
 10
552.55000000000007
 20
287.66674139170652
 30
0.0
 10
552.55000000000007
 20
300.16674139170652
 30
0.0
 10
529.471
 20
300.16674139170652
 30
0.0
 10
529.471
 20
287.66674139170652
 30
0.0
 10
506.39699999999999
 20
287.66674139170652
 30
0.0
 10
506.39699999999999
 20
300.16674139170652
 30
0.0
 10
483.31700000000001
 20
300.16674139170652
 30
0.0
 10
483.31700000000001
 20
287.66674139170652
 30
0.0
 10
460.24300000000005
 20
287.66674139170652
 30
0.0
 10
460.24300000000005
 20
300.16674139170652
 30
0.0
 10
437.16400000000004
 20
300.16674139170652
 30
0.0
 10
437.16400000000004
 20
287.66674139170652
 30
0.0
 10
414.08999999999997
 20
287.66674139170652
 30
0.0
 10
414.08999999999997
 20
300.16674139170652
 30
0.0
 10
391.01099999999997
 20
300.16674139170652
 30
0.0
 10
391.01099999999997
 20
287.66674139170652
 30
0.0
 10
367.93600000000004
 20
287.66674139170652
 30
0.0
  0
LWPOLYLINE
  5
CF
  8
0
 62
256
370
-1
 48
1.0
  6
BYLAYER
100
AcDbEntity
100
AcDbPolyline
 90
10
 70
0
 10
367.93600000000004
 20
287.66674139170652
 30
0.0
 10
367.93600000000004
 20
287.66674139170652
 30
0.0
 10
360.37899999999996
 20
286.90674139170653
 30
0.0
 10
353.33600000000001
 20
284.7207413917065
 30
0.0
 10
346.96800000000002
 20
281.26574139170657
 30
0.0
 10
341.41700000000003
 20
276.68574139170647
 30
0.0
 10
336.839
 20
271.13574139170652
 30
0.0
 10
333.38200000000001
 20
264.76674139170655
 30
0.0
 10
331.19599999999997
 20
257.72374139170648
 30
0.0
 10
330.43600000000004
 20
250.16674139170652
 30
0.0
  0
LWPOLYLINE
  5
D0
  8
0
 62
256
370
-1
 48
1.0
  6
BYLAYER
100
AcDbEntity
100
AcDbPolyline
 90
10
 70
0
 10
330.43600000000004
 20
250.16674139170652
 30
0.0
 10
330.43600000000004
 20
230.16974139170648
 30
0.0
 10
317.93600000000004
 20
230.16974139170648
 30
0.0
 10
317.93600000000004
 20
210.16574139170655
 30
0.0
 10
330.43600000000004
 20
210.16574139170655
 30
0.0
 10
330.43600000000004
 20
190.16774139170653
 30
0.0
 10
317.93600000000004
 20
190.16774139170653
 30
0.0
 10
317.93600000000004
 20
170.16374139170657
 30
0.0
 10
330.43600000000004
 20
170.16374139170657
 30
0.0
 10
330.43600000000004
 20
150.16674139170652
 30
0.0
  0
LWPOLYLINE
  5
D1
  8
0
 62
256
370
-1
 48
1.0
  6
BYLAYER
100
AcDbEntity
100
AcDbPolyline
 90
27
 70
0
 10
330.43600000000004
 20
150.16674139170652
 30
0.0
 10
331.19599999999997
 20
142.61374139170655
 30
0.0
 10
333.38200000000001
 20
135.5727413917065
 30
0.0
 10
336.839
 20
129.2027413917065
 30
0.0
 10
341.41700000000003
 20
123.65274139170656
 30
0.0
 10
346.96800000000002
 20
119.07374139170653
 30
0.0
 10
353.33600000000001
 20
115.61774139170655
 30
0.0
 10
360.37899999999996
 20
113.43174139170652
 30
0.0
 10
367.93600000000004
 20
112.66674139170652
 30
0.0
 10
467.93600000000004
 20
112.66674139170652
 30
0.0
 10
467.93600000000004
 20
100.16674139170652
 30
0.0
 10
492.93600000000004
 20
100.16674139170652
 30
0.0
 10
492.93600000000004
 20
112.66674139170652
 30
0.0
 10
542.93600000000004
 20
112.66674139170652
 30
0.0
 10
542.93600000000004
 20
100.16674139170652
 30
0.0
 10
567.93600000000004
 20
100.16674139170652
 30
0.0
 10
567.93600000000004
 20
112.66674139170652
 30
0.0
 10
667.93600000000004
 20
112.66674139170652
 30
0.0
 10
667.93600000000004
 20
112.66674139170652
 30
0.0
 10
675.48900000000003
 20
113.43174139170652
 30
0.0
 10
682.53100000000006
 20
115.61774139170655
 30
0.0
 10
688.89999999999998
 20
119.07374139170653
 30
0.0
 10
694.45000000000005
 20
123.65274139170656
 30
0.0
 10
699.029
 20
129.2027413917065
 30
0.0
 10
702.48500000000001
 20
135.5727413917065
 30
0.0
 10
704.67100000000005
 20
142.61374139170655
 30
0.0
 10
705.43600000000004
 20
150.16674139170652
 30
0.0
  0
LWPOLYLINE
  5
D2
  8
0
 62
256
370
-1
 48
1.0
  6
BYLAYER
100
AcDbEntity
100
AcDbPolyline
 90
10
 70
0
 10
705.43600000000004
 20
150.16674139170652
 30
0.0
 10
705.43600000000004
 20
170.16374139170657
 30
0.0
 10
717.93600000000004
 20
170.16374139170657
 30
0.0
 10
717.93600000000004
 20
190.16774139170653
 30
0.0
 10
705.43600000000004
 20
190.16774139170653
 30
0.0
 10
705.43600000000004
 20
210.16574139170655
 30
0.0
 10
717.93600000000004
 20
210.16574139170655
 30
0.0
 10
717.93600000000004
 20
230.16974139170648
 30
0.0
 10
705.43600000000004
 20
230.16974139170648
 30
0.0
 10
705.43600000000004
 20
250.16674139170652
 30
0.0
  0
LWPOLYLINE
  5
D3
  8
0
 62
256
370
-1
 48
1.0
  6
BYLAYER
100
AcDbEntity
100
AcDbPolyline
 90
9
 70
0
 10
705.43600000000004
 20
250.16674139170652
 30
0.0
 10
704.67100000000005
 20
257.72374139170648
 30
0.0
 10
702.48500000000001
 20
264.76674139170655
 30
0.0
 10
699.029
 20
271.13574139170652
 30
0.0
 10
694.45000000000005
 20
276.68574139170647
 30
0.0
 10
688.89999999999998
 20
281.26574139170657
 30
0.0
 10
682.53100000000006
 20
284.7207413917065
 30
0.0
 10
675.48900000000003
 20
286.90674139170653
 30
0.0
 10
667.93600000000004
 20
287.66674139170652
 30
0.0
  0
DIMENSION
  5
D4
100
AcDbEntity
  8
0
 62
256
370
-1
 48
1.0
  6
BYLAYER
100
AcDbDimension
 10
0.1250000000000008
 20
4.9225581677604282
 30
0.0
 11
517.93499999999995
 21
5.1025581677604279
 31
0.0
 70
1
 71
8
 72
2
 41
1.0
 42
0.0
  1

  3
Standard
100
AcDbAlignedDimension
 13
0.1249999999999835
 23
287.66674139170652
 33
0.0
 14
1035.7449999999999
 24
287.66674139170652
 34
0.0
1001
ACAD
1000
DSTYLE
1002
{
1070
144
1040
1.0
1070
40
1040
1.0
1002
}
  0
ENDSEC
  0
SECTION
  2
OBJECTS
  0
DICTIONARY
  5
C
100
AcDbDictionary
280
0
281
1
  3
ACAD_GROUP
350
D
  3
ACAD_LAYOUT
350
1A
  3
ACAD_MLINESTYLE
350
17
  3
ACAD_PLOTSETTINGS
350
19
  3
ACAD_PLOTSTYLENAME
350
E
  3
AcDbVariableDictionary
350
D5
  3
QCAD_OBJECTS
350
D6
  0
DICTIONARY
  5
D
100
AcDbDictionary
280
0
281
1
  0
ACDBDICTIONARYWDFLT
  5
E
100
AcDbDictionary
281
1
  3
Normal
350
F
100
AcDbDictionaryWithDefault
340
F
  0
ACDBPLACEHOLDER
  5
F
  0
DICTIONARY
  5
17
100
AcDbDictionary
280
0
281
1
  3
Standard
350
18
  0
MLINESTYLE
  5
18
100
AcDbMlineStyle
  2
STANDARD
 70
0
  3

 62
256
 51
90.0
 52
90.0
 71
2
 49
0.5
 62
256
  6
BYLAYER
 49
-0.5
 62
256
  6
BYLAYER
  0
DICTIONARY
  5
19
100
AcDbDictionary
280
0
281
1
  0
DICTIONARY
  5
1A
100
AcDbDictionary
281
1
  3
Layout1
350
1E
  3
Layout2
350
26
  3
Model
350
22
  0
LAYOUT
  5
1E
100
AcDbPlotSettings
  1

  2
none_device
  4

  6

 40
0.0
 41
0.0
 42
0.0
 43
0.0
 44
0.0
 45
0.0
 46
0.0
 47
0.0
 48
0.0
 49
0.0
140
0.0
141
0.0
142
1.0
143
1.0
 70
688
 72
0
 73
0
 74
5
  7

 75
16
147
1.0
148
0.0
149
0.0
100
AcDbLayout
  1
Layout1
 70
1
 71
1
 10
0.0
 20
0.0
 11
420.0
 21
297.0
 12
0.0
 22
0.0
 32
0.0
 14
100000000000000000000.0
 24
100000000000000000000.0
 34
100000000000000000000.0
 15
-100000000000000000000.0
 25
-100000000000000000000.0
 35
-100000000000000000000.0
146
0.0
 13
0.0
 23
0.0
 33
0.0
 16
1.0
 26
0.0
 36
0.0
 17
0.0
 27
1.0
 37
0.0
 76
0
330
1B
  0
LAYOUT
  5
22
100
AcDbPlotSettings
  1

  2
none_device
  4

  6

 40
0.0
 41
0.0
 42
0.0
 43
0.0
 44
0.0
 45
0.0
 46
0.0
 47
0.0
 48
0.0
 49
0.0
140
0.0
141
0.0
142
1.0
143
1.0
 70
1712
 72
0
 73
0
 74
0
  7

 75
0
147
1.0
148
0.0
149
0.0
100
AcDbLayout
  1
Model
 70
1
 71
0
 10
0.0
 20
0.0
 11
12.0
 21
9.0
 12
0.0
 22
0.0
 32
0.0
 14
0.0
 24
0.0
 34
0.0
 15
0.0
 25
0.0
 35
0.0
146
0.0
 13
0.0
 23
0.0
 33
0.0
 16
1.0
 26
0.0
 36
0.0
 17
0.0
 27
1.0
 37
0.0
 76
0
330
1F
  0
LAYOUT
  5
26
100
AcDbPlotSettings
  1

  2
none_device
  4

  6

 40
0.0
 41
0.0
 42
0.0
 43
0.0
 44
0.0
 45
0.0
 46
0.0
 47
0.0
 48
0.0
 49
0.0
140
0.0
141
0.0
142
1.0
143
1.0
 70
688
 72
0
 73
0
 74
5
  7

 75
16
147
1.0
148
0.0
149
0.0
100
AcDbLayout
  1
Layout2
 70
1
 71
2
 10
0.0
 20
0.0
 11
12.0
 21
9.0
 12
0.0
 22
0.0
 32
0.0
 14
0.0
 24
0.0
 34
0.0
 15
0.0
 25
0.0
 35
0.0
146
0.0
 13
0.0
 23
0.0
 33
0.0
 16
1.0
 26
0.0
 36
0.0
 17
0.0
 27
1.0
 37
0.0
 76
0
330
23
  0
DICTIONARY
  5
D5
100
AcDbDictionary
281
1
  3
DIMASSOC
350
D8
  3
HIDETEXT
350
D7
  0
DICTIONARYVAR
  5
D7
100
DictionaryVariables
280
0
  1
2
  0
DICTIONARYVAR
  5
D8
100
DictionaryVariables
280
0
  1
1
  0
DICTIONARY
  5
D6
100
AcDbDictionary
281
1
  3
ColorSettings/BackgroundColor
350
D9
  3
ColorSettings/ColorMode
350
DA
  3
Grid/DisplayGrid00
350
DB
  3
Grid/DisplayGrid01
350
DC
  3
Grid/DisplayGrid02
350
DD
  3
Grid/DisplayGrid03
350
DE
  3
Grid/GridSpacingX00
350
DF
  3
Grid/GridSpacingX01
350
E0
  3
Grid/GridSpacingX02
350
E1
  3
Grid/GridSpacingX03
350
E2
  3
Grid/GridSpacingY00
350
E3
  3
Grid/GridSpacingY01
350
E4
  3
Grid/GridSpacingY02
350
E5
  3
Grid/GridSpacingY03
350
E6
  3
Grid/IsometricGrid00
350
E7
  3
Grid/IsometricGrid01
350
E8
  3
Grid/IsometricGrid02
350
E9
  3
Grid/IsometricGrid03
350
EA
  3
Grid/IsometricProjection00
350
EB
  3
Grid/IsometricProjection01
350
EC
  3
Grid/IsometricProjection02
350
ED
  3
Grid/IsometricProjection03
350
EE
  3
Grid/MetaGridSpacingX00
350
EF
  3
Grid/MetaGridSpacingX01
350
F0
  3
Grid/MetaGridSpacingX02
350
F1
  3
Grid/MetaGridSpacingX03
350
F2
  3
Grid/MetaGridSpacingY00
350
F3
  3
Grid/MetaGridSpacingY01
350
F4
  3
Grid/MetaGridSpacingY02
350
F5
  3
Grid/MetaGridSpacingY03
350
F6
  3
MultiPageSettings/Columns
350
F7
  3
MultiPageSettings/GlueMarginsBottom
350
F8
  3
MultiPageSettings/GlueMarginsLeft
350
F9
  3
MultiPageSettings/GlueMarginsRight
350
FA
  3
MultiPageSettings/GlueMarginsTop
350
FB
  3
MultiPageSettings/PrintCropMarks
350
FC
  3
MultiPageSettings/Rows
350
FD
  3
PageSettings/OffsetX
350
FE
  3
PageSettings/OffsetY
350
FF
  3
PageSettings/PageOrientation
350
100
  3
PageSettings/PaperHeight
350
101
  3
PageSettings/PaperWidth
350
102
  3
PageSettings/Scale
350
103
  3
PageSettings/ShowPaperBorders
350
104
  3
UnitSettings/PaperUnit
350
105
  0
XRECORD
  5
D9
330
D6
100
AcDbXrecord
280
1
1000
Weiss
  0
XRECORD
  5
DA
330
D6
100
AcDbXrecord
280
1
1000
FullColor
  0
XRECORD
  5
DB
330
D6
100
AcDbXrecord
280
1
290
1
  0
XRECORD
  5
DC
330
D6
100
AcDbXrecord
280
1
290
1
  0
XRECORD
  5
DD
330
D6
100
AcDbXrecord
280
1
290
1
  0
XRECORD
  5
DE
330
D6
100
AcDbXrecord
280
1
290
1
  0
XRECORD
  5
DF
330
D6
100
AcDbXrecord
280
1
1000
auto
  0
XRECORD
  5
E0
330
D6
100
AcDbXrecord
280
1
1000
auto
  0
XRECORD
  5
E1
330
D6
100
AcDbXrecord
280
1
1000
auto
  0
XRECORD
  5
E2
330
D6
100
AcDbXrecord
280
1
1000
auto
  0
XRECORD
  5
E3
330
D6
100
AcDbXrecord
280
1
1000
auto
  0
XRECORD
  5
E4
330
D6
100
AcDbXrecord
280
1
1000
auto
  0
XRECORD
  5
E5
330
D6
100
AcDbXrecord
280
1
1000
auto
  0
XRECORD
  5
E6
330
D6
100
AcDbXrecord
280
1
1000
auto
  0
XRECORD
  5
E7
330
D6
100
AcDbXrecord
280
1
290
0
  0
XRECORD
  5
E8
330
D6
100
AcDbXrecord
280
1
290
0
  0
XRECORD
  5
E9
330
D6
100
AcDbXrecord
280
1
290
0
  0
XRECORD
  5
EA
330
D6
100
AcDbXrecord
280
1
290
0
  0
XRECORD
  5
EB
330
D6
100
AcDbXrecord
280
1
 90
0
  0
XRECORD
  5
EC
330
D6
100
AcDbXrecord
280
1
 90
0
  0
XRECORD
  5
ED
330
D6
100
AcDbXrecord
280
1
 90
0
  0
XRECORD
  5
EE
330
D6
100
AcDbXrecord
280
1
 90
0
  0
XRECORD
  5
EF
330
D6
100
AcDbXrecord
280
1
1000
auto
  0
XRECORD
  5
F0
330
D6
100
AcDbXrecord
280
1
1000
auto
  0
XRECORD
  5
F1
330
D6
100
AcDbXrecord
280
1
1000
auto
  0
XRECORD
  5
F2
330
D6
100
AcDbXrecord
280
1
1000
auto
  0
XRECORD
  5
F3
330
D6
100
AcDbXrecord
280
1
1000
auto
  0
XRECORD
  5
F4
330
D6
100
AcDbXrecord
280
1
1000
auto
  0
XRECORD
  5
F5
330
D6
100
AcDbXrecord
280
1
1000
auto
  0
XRECORD
  5
F6
330
D6
100
AcDbXrecord
280
1
1000
auto
  0
XRECORD
  5
F7
330
D6
100
AcDbXrecord
280
1
 90
1
  0
XRECORD
  5
F8
330
D6
100
AcDbXrecord
280
1
 40
10.0
  0
XRECORD
  5
F9
330
D6
100
AcDbXrecord
280
1
 40
10.0
  0
XRECORD
  5
FA
330
D6
100
AcDbXrecord
280
1
 40
10.0
  0
XRECORD
  5
FB
330
D6
100
AcDbXrecord
280
1
 40
10.0
  0
XRECORD
  5
FC
330
D6
100
AcDbXrecord
280
1
290
0
  0
XRECORD
  5
FD
330
D6
100
AcDbXrecord
280
1
 90
1
  0
XRECORD
  5
FE
330
D6
100
AcDbXrecord
280
1
 40
0.0
  0
XRECORD
  5
FF
330
D6
100
AcDbXrecord
280
1
 40
0.0
  0
XRECORD
  5
100
330
D6
100
AcDbXrecord
280
1
1000
Portrait
  0
XRECORD
  5
101
330
D6
100
AcDbXrecord
280
1
 40
297.0
  0
XRECORD
  5
102
330
D6
100
AcDbXrecord
280
1
 40
210.0
  0
XRECORD
  5
103
330
D6
100
AcDbXrecord
280
1
1000
1:1
  0
XRECORD
  5
104
330
D6
100
AcDbXrecord
280
1
290
1
  0
XRECORD
  5
105
330
D6
100
AcDbXrecord
280
1
 90
4
  0
ENDSEC
  0
EOF
