  0
SECTION
  2
HEADER
  9
$ACADVER
  1
AC1009
  9
$EXTMIN
 10
0.0
 20
0.0
 30
0.0
  9
$EXTMAX
 10
1000.0
 20
1000.0
 30
0.0
  9
$FILLMODE
 70
 0
  9
$SPLFRAME
 70
 1
  0
ENDSEC
  0
SECTION
  2
TABLES
  0
TABLE
  2
LAYER
 70
1
  0
LAYER
  2
0
 70
     0
 62
     7
  6
CONTINUOUS
  0
ENDTAB
  0
ENDSEC
  0
SECTION
  2
ENTITIES
  0
POLYLINE
  8
0
 62
     0
 66
     1
 10
0
 20
0
 30
0.0
 40
0
 41
0
  0
VERTEX
  8
0
 10
0.944878
 20
7.16536
 30
0.0
 40
0
 41
0
  0
VERTEX
  8
0
 10
0.944878
 20
7.99214
 30
0.0
 40
0
 41
0
  0
SEQEND
 8
0
  0
POLYLINE
  8
0
 62
     0
 66
     1
 10
0
 20
0
 30
0.0
 40
0
 41
0
  0
VERTEX
  8
0
 10
0.944878
 20
8.14963
 30
0.0
 40
0
 41
0
  0
VERTEX
  8
0
 10
0.944878
 20
8.9764
 30
0.0
 40
0
 41
0
  0
SEQEND
 8
0
  0
POLYLINE
  8
0
 62
     0
 66
     1
 10
0
 20
0
 30
0.0
 40
0
 41
0
  0
VERTEX
  8
0
 10
1.02604
 20
9.05512
 30
0.0
 40
0
 41
0
  0
VERTEX
  8
0
 10
1.02604
 20
8.64176
 30
0.0
 40
0
 41
0
  0
SEQEND
 8
0
  0
POLYLINE
  8
0
 62
     0
 66
     1
 10
0
 20
0
 30
0.0
 40
0
 41
0
  0
VERTEX
  8
0
 10
1.02604
 20
8.48426
 30
0.0
 40
0
 41
0
  0
VERTEX
  8
0
 10
1.02604
 20
7.6575
 30
0.0
 40
0
 41
0
  0
SEQEND
 8
0
  0
POLYLINE
  8
0
 62
     0
 66
     1
 10
0
 20
0
 30
0.0
 40
0
 41
0
  0
VERTEX
  8
0
 10
1.02604
 20
7.5
 30
0.0
 40
0
 41
0
  0
VERTEX
  8
0
 10
1.02604
 20
7.08664
 30
0.0
 40
0
 41
0
  0
SEQEND
 8
0
  0
POLYLINE
  8
0
 62
     0
 66
     1
 10
0
 20
0
 30
0.0
 40
0
 41
0
  0
VERTEX
  8
0
 10
1.10721
 20
7.16536
 30
0.0
 40
0
 41
0
  0
VERTEX
  8
0
 10
1.10721
 20
7.99214
 30
0.0
 40
0
 41
0
  0
SEQEND
 8
0
  0
POLYLINE
  8
0
 62
     0
 66
     1
 10
0
 20
0
 30
0.0
 40
0
 41
0
  0
VERTEX
  8
0
 10
1.10721
 20
8.14963
 30
0.0
 40
0
 41
0
  0
VERTEX
  8
0
 10
1.10721
 20
8.9764
 30
0.0
 40
0
 41
0
  0
SEQEND
 8
0
  0
POLYLINE
  8
0
 62
     0
 66
     1
 10
0
 20
0
 30
0.0
 40
0
 41
0
  0
VERTEX
  8
0
 10
1.18837
 20
9.05512
 30
0.0
 40
0
 41
0
  0
VERTEX
  8
0
 10
1.18837
 20
8.64176
 30
0.0
 40
0
 41
0
  0
SEQEND
 8
0
  0
POLYLINE
  8
0
 62
     0
 66
     1
 10
0
 20
0
 30
0.0
 40
0
 41
0
  0
VERTEX
  8
0
 10
1.18837
 20
8.48426
 30
0.0
 40
0
 41
0
  0
VERTEX
  8
0
 10
1.18837
 20
7.6575
 30
0.0
 40
0
 41
0
  0
SEQEND
 8
0
  0
POLYLINE
  8
0
 62
     0
 66
     1
 10
0
 20
0
 30
0.0
 40
0
 41
0
  0
VERTEX
  8
0
 10
1.18837
 20
7.5
 30
0.0
 40
0
 41
0
  0
VERTEX
  8
0
 10
1.18837
 20
7.08664
 30
0.0
 40
0
 41
0
  0
SEQEND
 8
0
  0
POLYLINE
  8
0
 62
     0
 66
     1
 10
0
 20
0
 30
0.0
 40
0
 41
0
  0
VERTEX
  8
0
 10
1.26953
 20
7.16536
 30
0.0
 40
0
 41
0
  0
VERTEX
  8
0
 10
1.26953
 20
7.99214
 30
0.0
 40
0
 41
0
  0
SEQEND
 8
0
  0
POLYLINE
  8
0
 62
     0
 66
     1
 10
0
 20
0
 30
0.0
 40
0
 41
0
  0
VERTEX
  8
0
 10
1.26953
 20
8.14963
 30
0.0
 40
0
 41
0
  0
VERTEX
  8
0
 10
1.26953
 20
8.9764
 30
0.0
 40
0
 41
0
  0
SEQEND
 8
0
  0
POLYLINE
  8
0
 62
     0
 66
     1
 10
0
 20
0
 30
0.0
 40
0
 41
0
  0
VERTEX
  8
0
 10
1.35075
 20
9.05512
 30
0.0
 40
0
 41
0
  0
VERTEX
  8
0
 10
1.35075
 20
8.64176
 30
0.0
 40
0
 41
0
  0
SEQEND
 8
0
  0
POLYLINE
  8
0
 62
     0
 66
     1
 10
0
 20
0
 30
0.0
 40
0
 41
0
  0
VERTEX
  8
0
 10
1.35075
 20
8.48426
 30
0.0
 40
0
 41
0
  0
VERTEX
  8
0
 10
1.35075
 20
7.6575
 30
0.0
 40
0
 41
0
  0
SEQEND
 8
0
  0
POLYLINE
  8
0
 62
     0
 66
     1
 10
0
 20
0
 30
0.0
 40
0
 41
0
  0
VERTEX
  8
0
 10
1.35075
 20
7.5
 30
0.0
 40
0
 41
0
  0
VERTEX
  8
0
 10
1.35075
 20
7.08664
 30
0.0
 40
0
 41
0
  0
SEQEND
 8
0
  0
POLYLINE
  8
0
 62
     0
 66
     1
 10
0
 20
0
 30
0.0
 40
0
 41
0
  0
VERTEX
  8
0
 10
1.43192
 20
7.16536
 30
0.0
 40
0
 41
0
  0
VERTEX
  8
0
 10
1.43192
 20
7.99214
 30
0.0
 40
0
 41
0
  0
SEQEND
 8
0
  0
POLYLINE
  8
0
 62
     0
 66
     1
 10
0
 20
0
 30
0.0
 40
0
 41
0
  0
VERTEX
  8
0
 10
1.43192
 20
8.14963
 30
0.0
 40
0
 41
0
  0
VERTEX
  8
0
 10
1.43192
 20
8.9764
 30
0.0
 40
0
 41
0
  0
SEQEND
 8
0
  0
POLYLINE
  8
0
 62
     0
 66
     1
 10
0
 20
0
 30
0.0
 40
0
 41
0
  0
VERTEX
  8
0
 10
1.51307
 20
9.05512
 30
0.0
 40
0
 41
0
  0
VERTEX
  8
0
 10
1.51307
 20
8.64176
 30
0.0
 40
0
 41
0
  0
SEQEND
 8
0
  0
POLYLINE
  8
0
 62
     0
 66
     1
 10
0
 20
0
 30
0.0
 40
0
 41
0
  0
VERTEX
  8
0
 10
1.51307
 20
8.48426
 30
0.0
 40
0
 41
0
  0
VERTEX
  8
0
 10
1.51307
 20
7.6575
 30
0.0
 40
0
 41
0
  0
SEQEND
 8
0
  0
POLYLINE
  8
0
 62
     0
 66
     1
 10
0
 20
0
 30
0.0
 40
0
 41
0
  0
VERTEX
  8
0
 10
1.51307
 20
7.5
 30
0.0
 40
0
 41
0
  0
VERTEX
  8
0
 10
1.51307
 20
7.08664
 30
0.0
 40
0
 41
0
  0
SEQEND
 8
0
  0
POLYLINE
  8
0
 62
     0
 66
     1
 10
0
 20
0
 30
0.0
 40
0
 41
0
  0
VERTEX
  8
0
 10
1.59424
 20
7.16536
 30
0.0
 40
0
 41
0
  0
VERTEX
  8
0
 10
1.59424
 20
7.99214
 30
0.0
 40
0
 41
0
  0
SEQEND
 8
0
  0
POLYLINE
  8
0
 62
     0
 66
     1
 10
0
 20
0
 30
0.0
 40
0
 41
0
  0
VERTEX
  8
0
 10
1.59424
 20
8.14963
 30
0.0
 40
0
 41
0
  0
VERTEX
  8
0
 10
1.59424
 20
8.9764
 30
0.0
 40
0
 41
0
  0
SEQEND
 8
0
  0
POLYLINE
  8
0
 62
     0
 66
     1
 10
0
 20
0
 30
0.0
 40
0
 41
0
  0
VERTEX
  8
0
 10
1.6754
 20
9.05512
 30
0.0
 40
0
 41
0
  0
VERTEX
  8
0
 10
1.6754
 20
8.64176
 30
0.0
 40
0
 41
0
  0
SEQEND
 8
0
  0
POLYLINE
  8
0
 62
     0
 66
     1
 10
0
 20
0
 30
0.0
 40
0
 41
0
  0
VERTEX
  8
0
 10
1.6754
 20
8.48426
 30
0.0
 40
0
 41
0
  0
VERTEX
  8
0
 10
1.6754
 20
7.6575
 30
0.0
 40
0
 41
0
  0
SEQEND
 8
0
  0
POLYLINE
  8
0
 62
     0
 66
     1
 10
0
 20
0
 30
0.0
 40
0
 41
0
  0
VERTEX
  8
0
 10
1.6754
 20
7.5
 30
0.0
 40
0
 41
0
  0
VERTEX
  8
0
 10
1.6754
 20
7.08664
 30
0.0
 40
0
 41
0
  0
SEQEND
 8
0
  0
POLYLINE
  8
0
 62
     0
 66
     1
 10
0
 20
0
 30
0.0
 40
0
 41
0
  0
VERTEX
  8
0
 10
1.75657
 20
7.16536
 30
0.0
 40
0
 41
0
  0
VERTEX
  8
0
 10
1.75657
 20
7.99214
 30
0.0
 40
0
 41
0
  0
SEQEND
 8
0
  0
POLYLINE
  8
0
 62
     0
 66
     1
 10
0
 20
0
 30
0.0
 40
0
 41
0
  0
VERTEX
  8
0
 10
1.75657
 20
8.14963
 30
0.0
 40
0
 41
0
  0
VERTEX
  8
0
 10
1.75657
 20
8.9764
 30
0.0
 40
0
 41
0
  0
SEQEND
 8
0
  0
POLYLINE
  8
0
 62
     0
 66
     1
 10
0
 20
0
 30
0.0
 40
0
 41
0
  0
VERTEX
  8
0
 10
1.83772
 20
9.05512
 30
0.0
 40
0
 41
0
  0
VERTEX
  8
0
 10
1.83772
 20
8.64176
 30
0.0
 40
0
 41
0
  0
SEQEND
 8
0
  0
POLYLINE
  8
0
 62
     0
 66
     1
 10
0
 20
0
 30
0.0
 40
0
 41
0
  0
VERTEX
  8
0
 10
1.83772
 20
8.48426
 30
0.0
 40
0
 41
0
  0
VERTEX
  8
0
 10
1.83772
 20
7.6575
 30
0.0
 40
0
 41
0
  0
SEQEND
 8
0
  0
POLYLINE
  8
0
 62
     0
 66
     1
 10
0
 20
0
 30
0.0
 40
0
 41
0
  0
VERTEX
  8
0
 10
1.83772
 20
7.5
 30
0.0
 40
0
 41
0
  0
VERTEX
  8
0
 10
1.83772
 20
7.08664
 30
0.0
 40
0
 41
0
  0
SEQEND
 8
0
  0
POLYLINE
  8
0
 62
     0
 66
     1
 10
0
 20
0
 30
0.0
 40
0
 41
0
  0
VERTEX
  8
0
 10
1.91889
 20
7.16536
 30
0.0
 40
0
 41
0
  0
VERTEX
  8
0
 10
1.91889
 20
7.99214
 30
0.0
 40
0
 41
0
  0
SEQEND
 8
0
  0
POLYLINE
  8
0
 62
     0
 66
     1
 10
0
 20
0
 30
0.0
 40
0
 41
0
  0
VERTEX
  8
0
 10
1.91889
 20
8.14963
 30
0.0
 40
0
 41
0
  0
VERTEX
  8
0
 10
1.91889
 20
8.9764
 30
0.0
 40
0
 41
0
  0
SEQEND
 8
0
  0
POLYLINE
  8
0
 62
     0
 66
     1
 10
0
 20
0
 30
0.0
 40
0
 41
0
  0
VERTEX
  8
0
 10
2.00006
 20
9.05512
 30
0.0
 40
0
 41
0
  0
VERTEX
  8
0
 10
2.00006
 20
8.64176
 30
0.0
 40
0
 41
0
  0
SEQEND
 8
0
  0
POLYLINE
  8
0
 62
     0
 66
     1
 10
0
 20
0
 30
0.0
 40
0
 41
0
  0
VERTEX
  8
0
 10
2.00006
 20
8.48426
 30
0.0
 40
0
 41
0
  0
VERTEX
  8
0
 10
2.00006
 20
7.6575
 30
0.0
 40
0
 41
0
  0
SEQEND
 8
0
  0
POLYLINE
  8
0
 62
     0
 66
     1
 10
0
 20
0
 30
0.0
 40
0
 41
0
  0
VERTEX
  8
0
 10
2.00006
 20
7.5
 30
0.0
 40
0
 41
0
  0
VERTEX
  8
0
 10
2.00006
 20
7.08664
 30
0.0
 40
0
 41
0
  0
SEQEND
 8
0
  0
POLYLINE
  8
0
 62
     0
 66
     1
 10
0
 20
0
 30
0.0
 40
0
 41
0
  0
VERTEX
  8
0
 10
2.08122
 20
7.16536
 30
0.0
 40
0
 41
0
  0
VERTEX
  8
0
 10
2.08122
 20
7.99214
 30
0.0
 40
0
 41
0
  0
SEQEND
 8
0
  0
POLYLINE
  8
0
 62
     0
 66
     1
 10
0
 20
0
 30
0.0
 40
0
 41
0
  0
VERTEX
  8
0
 10
2.08122
 20
8.14963
 30
0.0
 40
0
 41
0
  0
VERTEX
  8
0
 10
2.08122
 20
8.9764
 30
0.0
 40
0
 41
0
  0
SEQEND
 8
0
  0
POLYLINE
  8
0
 62
     0
 66
     1
 10
0
 20
0
 30
0.0
 40
0
 41
0
  0
VERTEX
  8
0
 10
2.16237
 20
9.05512
 30
0.0
 40
0
 41
0
  0
VERTEX
  8
0
 10
2.16237
 20
8.64176
 30
0.0
 40
0
 41
0
  0
SEQEND
 8
0
  0
POLYLINE
  8
0
 62
     0
 66
     1
 10
0
 20
0
 30
0.0
 40
0
 41
0
  0
VERTEX
  8
0
 10
2.16237
 20
8.48426
 30
0.0
 40
0
 41
0
  0
VERTEX
  8
0
 10
2.16237
 20
7.6575
 30
0.0
 40
0
 41
0
  0
SEQEND
 8
0
  0
POLYLINE
  8
0
 62
     0
 66
     1
 10
0
 20
0
 30
0.0
 40
0
 41
0
  0
VERTEX
  8
0
 10
2.16237
 20
7.5
 30
0.0
 40
0
 41
0
  0
VERTEX
  8
0
 10
2.16237
 20
7.08664
 30
0.0
 40
0
 41
0
  0
SEQEND
 8
0
  0
POLYLINE
  8
0
 62
     0
 66
     1
 10
0
 20
0
 30
0.0
 40
0
 41
0
  0
VERTEX
  8
0
 10
2.2436
 20
7.16536
 30
0.0
 40
0
 41
0
  0
VERTEX
  8
0
 10
2.2436
 20
7.99214
 30
0.0
 40
0
 41
0
  0
SEQEND
 8
0
  0
POLYLINE
  8
0
 62
     0
 66
     1
 10
0
 20
0
 30
0.0
 40
0
 41
0
  0
VERTEX
  8
0
 10
2.2436
 20
8.14963
 30
0.0
 40
0
 41
0
  0
VERTEX
  8
0
 10
2.2436
 20
8.9764
 30
0.0
 40
0
 41
0
  0
SEQEND
 8
0
  0
POLYLINE
  8
0
 62
     0
 66
     1
 10
0
 20
0
 30
0.0
 40
0
 41
0
  0
VERTEX
  8
0
 10
0.944878
 20
9.05512
 30
0.0
 40
0
 41
0
  0
VERTEX
  8
0
 10
2.2436
 20
9.05512
 30
0.0
 40
0
 41
0
  0
SEQEND
 8
0
  0
POLYLINE
  8
0
 62
     0
 66
     1
 10
0
 20
0
 30
0.0
 40
0
 41
0
  0
VERTEX
  8
0
 10
2.2436
 20
7.08664
 30
0.0
 40
0
 41
0
  0
VERTEX
  8
0
 10
0.944878
 20
7.08664
 30
0.0
 40
0
 41
0
  0
SEQEND
 8
0
  0
POLYLINE
  8
0
 62
     0
 66
     1
 10
0
 20
0
 30
0.0
 40
0
 41
0
  0
VERTEX
  8
0
 10
3.03097
 20
7.16536
 30
0.0
 40
0
 41
0
  0
VERTEX
  8
0
 10
3.03097
 20
7.99214
 30
0.0
 40
0
 41
0
  0
SEQEND
 8
0
  0
POLYLINE
  8
0
 62
     0
 66
     1
 10
0
 20
0
 30
0.0
 40
0
 41
0
  0
VERTEX
  8
0
 10
3.03097
 20
8.14963
 30
0.0
 40
0
 41
0
  0
VERTEX
  8
0
 10
3.03097
 20
8.9764
 30
0.0
 40
0
 41
0
  0
SEQEND
 8
0
  0
POLYLINE
  8
0
 62
     0
 66
     1
 10
0
 20
0
 30
0.0
 40
0
 41
0
  0
VERTEX
  8
0
 10
3.11214
 20
9.05512
 30
0.0
 40
0
 41
0
  0
VERTEX
  8
0
 10
3.11214
 20
8.64176
 30
0.0
 40
0
 41
0
  0
SEQEND
 8
0
  0
POLYLINE
  8
0
 62
     0
 66
     1
 10
0
 20
0
 30
0.0
 40
0
 41
0
  0
VERTEX
  8
0
 10
3.11214
 20
8.48426
 30
0.0
 40
0
 41
0
  0
VERTEX
  8
0
 10
3.11214
 20
7.6575
 30
0.0
 40
0
 41
0
  0
SEQEND
 8
0
  0
POLYLINE
  8
0
 62
     0
 66
     1
 10
0
 20
0
 30
0.0
 40
0
 41
0
  0
VERTEX
  8
0
 10
3.11214
 20
7.5
 30
0.0
 40
0
 41
0
  0
VERTEX
  8
0
 10
3.11214
 20
7.08664
 30
0.0
 40
0
 41
0
  0
SEQEND
 8
0
  0
POLYLINE
  8
0
 62
     0
 66
     1
 10
0
 20
0
 30
0.0
 40
0
 41
0
  0
VERTEX
  8
0
 10
3.19331
 20
7.16536
 30
0.0
 40
0
 41
0
  0
VERTEX
  8
0
 10
3.19331
 20
7.99214
 30
0.0
 40
0
 41
0
  0
SEQEND
 8
0
  0
POLYLINE
  8
0
 62
     0
 66
     1
 10
0
 20
0
 30
0.0
 40
0
 41
0
  0
VERTEX
  8
0
 10
3.19331
 20
8.14963
 30
0.0
 40
0
 41
0
  0
VERTEX
  8
0
 10
3.19331
 20
8.9764
 30
0.0
 40
0
 41
0
  0
SEQEND
 8
0
  0
POLYLINE
  8
0
 62
     0
 66
     1
 10
0
 20
0
 30
0.0
 40
0
 41
0
  0
VERTEX
  8
0
 10
3.27447
 20
9.05512
 30
0.0
 40
0
 41
0
  0
VERTEX
  8
0
 10
3.27447
 20
8.64176
 30
0.0
 40
0
 41
0
  0
SEQEND
 8
0
  0
POLYLINE
  8
0
 62
     0
 66
     1
 10
0
 20
0
 30
0.0
 40
0
 41
0
  0
VERTEX
  8
0
 10
3.27447
 20
8.48426
 30
0.0
 40
0
 41
0
  0
VERTEX
  8
0
 10
3.27447
 20
7.6575
 30
0.0
 40
0
 41
0
  0
SEQEND
 8
0
  0
POLYLINE
  8
0
 62
     0
 66
     1
 10
0
 20
0
 30
0.0
 40
0
 41
0
  0
VERTEX
  8
0
 10
3.27447
 20
7.5
 30
0.0
 40
0
 41
0
  0
VERTEX
  8
0
 10
3.27447
 20
7.08664
 30
0.0
 40
0
 41
0
  0
SEQEND
 8
0
  0
POLYLINE
  8
0
 62
     0
 66
     1
 10
0
 20
0
 30
0.0
 40
0
 41
0
  0
VERTEX
  8
0
 10
3.35562
 20
7.16536
 30
0.0
 40
0
 41
0
  0
VERTEX
  8
0
 10
3.35562
 20
7.99214
 30
0.0
 40
0
 41
0
  0
SEQEND
 8
0
  0
POLYLINE
  8
0
 62
     0
 66
     1
 10
0
 20
0
 30
0.0
 40
0
 41
0
  0
VERTEX
  8
0
 10
3.35562
 20
8.14963
 30
0.0
 40
0
 41
0
  0
VERTEX
  8
0
 10
3.35562
 20
8.9764
 30
0.0
 40
0
 41
0
  0
SEQEND
 8
0
  0
POLYLINE
  8
0
 62
     0
 66
     1
 10
0
 20
0
 30
0.0
 40
0
 41
0
  0
VERTEX
  8
0
 10
3.43679
 20
9.05512
 30
0.0
 40
0
 41
0
  0
VERTEX
  8
0
 10
3.43679
 20
8.64176
 30
0.0
 40
0
 41
0
  0
SEQEND
 8
0
  0
POLYLINE
  8
0
 62
     0
 66
     1
 10
0
 20
0
 30
0.0
 40
0
 41
0
  0
VERTEX
  8
0
 10
3.43679
 20
8.48426
 30
0.0
 40
0
 41
0
  0
VERTEX
  8
0
 10
3.43679
 20
7.6575
 30
0.0
 40
0
 41
0
  0
SEQEND
 8
0
  0
POLYLINE
  8
0
 62
     0
 66
     1
 10
0
 20
0
 30
0.0
 40
0
 41
0
  0
VERTEX
  8
0
 10
3.43679
 20
7.5
 30
0.0
 40
0
 41
0
  0
VERTEX
  8
0
 10
3.43679
 20
7.08664
 30
0.0
 40
0
 41
0
  0
SEQEND
 8
0
  0
POLYLINE
  8
0
 62
     0
 66
     1
 10
0
 20
0
 30
0.0
 40
0
 41
0
  0
VERTEX
  8
0
 10
3.51801
 20
7.16536
 30
0.0
 40
0
 41
0
  0
VERTEX
  8
0
 10
3.51801
 20
7.99214
 30
0.0
 40
0
 41
0
  0
SEQEND
 8
0
  0
POLYLINE
  8
0
 62
     0
 66
     1
 10
0
 20
0
 30
0.0
 40
0
 41
0
  0
VERTEX
  8
0
 10
3.51801
 20
8.14963
 30
0.0
 40
0
 41
0
  0
VERTEX
  8
0
 10
3.51801
 20
8.9764
 30
0.0
 40
0
 41
0
  0
SEQEND
 8
0
  0
POLYLINE
  8
0
 62
     0
 66
     1
 10
0
 20
0
 30
0.0
 40
0
 41
0
  0
VERTEX
  8
0
 10
3.59918
 20
9.05512
 30
0.0
 40
0
 41
0
  0
VERTEX
  8
0
 10
3.59918
 20
8.64176
 30
0.0
 40
0
 41
0
  0
SEQEND
 8
0
  0
POLYLINE
  8
0
 62
     0
 66
     1
 10
0
 20
0
 30
0.0
 40
0
 41
0
  0
VERTEX
  8
0
 10
3.59918
 20
8.48426
 30
0.0
 40
0
 41
0
  0
VERTEX
  8
0
 10
3.59918
 20
7.6575
 30
0.0
 40
0
 41
0
  0
SEQEND
 8
0
  0
POLYLINE
  8
0
 62
     0
 66
     1
 10
0
 20
0
 30
0.0
 40
0
 41
0
  0
VERTEX
  8
0
 10
3.59918
 20
7.5
 30
0.0
 40
0
 41
0
  0
VERTEX
  8
0
 10
3.59918
 20
7.08664
 30
0.0
 40
0
 41
0
  0
SEQEND
 8
0
  0
POLYLINE
  8
0
 62
     0
 66
     1
 10
0
 20
0
 30
0.0
 40
0
 41
0
  0
VERTEX
  8
0
 10
3.68033
 20
7.16536
 30
0.0
 40
0
 41
0
  0
VERTEX
  8
0
 10
3.68033
 20
7.99214
 30
0.0
 40
0
 41
0
  0
SEQEND
 8
0
  0
POLYLINE
  8
0
 62
     0
 66
     1
 10
0
 20
0
 30
0.0
 40
0
 41
0
  0
VERTEX
  8
0
 10
3.68033
 20
8.14963
 30
0.0
 40
0
 41
0
  0
VERTEX
  8
0
 10
3.68033
 20
8.9764
 30
0.0
 40
0
 41
0
  0
SEQEND
 8
0
  0
POLYLINE
  8
0
 62
     0
 66
     1
 10
0
 20
0
 30
0.0
 40
0
 41
0
  0
VERTEX
  8
0
 10
3.7615
 20
9.05512
 30
0.0
 40
0
 41
0
  0
VERTEX
  8
0
 10
3.7615
 20
8.64176
 30
0.0
 40
0
 41
0
  0
SEQEND
 8
0
  0
POLYLINE
  8
0
 62
     0
 66
     1
 10
0
 20
0
 30
0.0
 40
0
 41
0
  0
VERTEX
  8
0
 10
3.7615
 20
8.48426
 30
0.0
 40
0
 41
0
  0
VERTEX
  8
0
 10
3.7615
 20
7.6575
 30
0.0
 40
0
 41
0
  0
SEQEND
 8
0
  0
POLYLINE
  8
0
 62
     0
 66
     1
 10
0
 20
0
 30
0.0
 40
0
 41
0
  0
VERTEX
  8
0
 10
3.7615
 20
7.5
 30
0.0
 40
0
 41
0
  0
VERTEX
  8
0
 10
3.7615
 20
7.08664
 30
0.0
 40
0
 41
0
  0
SEQEND
 8
0
  0
POLYLINE
  8
0
 62
     0
 66
     1
 10
0
 20
0
 30
0.0
 40
0
 41
0
  0
VERTEX
  8
0
 10
3.84267
 20
7.16536
 30
0.0
 40
0
 41
0
  0
VERTEX
  8
0
 10
3.84267
 20
7.99214
 30
0.0
 40
0
 41
0
  0
SEQEND
 8
0
  0
POLYLINE
  8
0
 62
     0
 66
     1
 10
0
 20
0
 30
0.0
 40
0
 41
0
  0
VERTEX
  8
0
 10
3.84267
 20
8.14963
 30
0.0
 40
0
 41
0
  0
VERTEX
  8
0
 10
3.84267
 20
8.9764
 30
0.0
 40
0
 41
0
  0
SEQEND
 8
0
  0
POLYLINE
  8
0
 62
     0
 66
     1
 10
0
 20
0
 30
0.0
 40
0
 41
0
  0
VERTEX
  8
0
 10
3.92383
 20
9.05512
 30
0.0
 40
0
 41
0
  0
VERTEX
  8
0
 10
3.92383
 20
8.64176
 30
0.0
 40
0
 41
0
  0
SEQEND
 8
0
  0
POLYLINE
  8
0
 62
     0
 66
     1
 10
0
 20
0
 30
0.0
 40
0
 41
0
  0
VERTEX
  8
0
 10
3.92383
 20
8.48426
 30
0.0
 40
0
 41
0
  0
VERTEX
  8
0
 10
3.92383
 20
7.6575
 30
0.0
 40
0
 41
0
  0
SEQEND
 8
0
  0
POLYLINE
  8
0
 62
     0
 66
     1
 10
0
 20
0
 30
0.0
 40
0
 41
0
  0
VERTEX
  8
0
 10
3.92383
 20
7.5
 30
0.0
 40
0
 41
0
  0
VERTEX
  8
0
 10
3.92383
 20
7.08664
 30
0.0
 40
0
 41
0
  0
SEQEND
 8
0
  0
POLYLINE
  8
0
 62
     0
 66
     1
 10
0
 20
0
 30
0.0
 40
0
 41
0
  0
VERTEX
  8
0
 10
4.00499
 20
7.16536
 30
0.0
 40
0
 41
0
  0
VERTEX
  8
0
 10
4.00499
 20
7.99214
 30
0.0
 40
0
 41
0
  0
SEQEND
 8
0
  0
POLYLINE
  8
0
 62
     0
 66
     1
 10
0
 20
0
 30
0.0
 40
0
 41
0
  0
VERTEX
  8
0
 10
4.00499
 20
8.14963
 30
0.0
 40
0
 41
0
  0
VERTEX
  8
0
 10
4.00499
 20
8.9764
 30
0.0
 40
0
 41
0
  0
SEQEND
 8
0
  0
POLYLINE
  8
0
 62
     0
 66
     1
 10
0
 20
0
 30
0.0
 40
0
 41
0
  0
VERTEX
  8
0
 10
4.08615
 20
9.05512
 30
0.0
 40
0
 41
0
  0
VERTEX
  8
0
 10
4.08615
 20
8.64176
 30
0.0
 40
0
 41
0
  0
SEQEND
 8
0
  0
POLYLINE
  8
0
 62
     0
 66
     1
 10
0
 20
0
 30
0.0
 40
0
 41
0
  0
VERTEX
  8
0
 10
4.08615
 20
8.48426
 30
0.0
 40
0
 41
0
  0
VERTEX
  8
0
 10
4.08615
 20
7.6575
 30
0.0
 40
0
 41
0
  0
SEQEND
 8
0
  0
POLYLINE
  8
0
 62
     0
 66
     1
 10
0
 20
0
 30
0.0
 40
0
 41
0
  0
VERTEX
  8
0
 10
4.08615
 20
7.5
 30
0.0
 40
0
 41
0
  0
VERTEX
  8
0
 10
4.08615
 20
7.08664
 30
0.0
 40
0
 41
0
  0
SEQEND
 8
0
  0
POLYLINE
  8
0
 62
     0
 66
     1
 10
0
 20
0
 30
0.0
 40
0
 41
0
  0
VERTEX
  8
0
 10
4.16732
 20
7.16536
 30
0.0
 40
0
 41
0
  0
VERTEX
  8
0
 10
4.16732
 20
7.99214
 30
0.0
 40
0
 41
0
  0
SEQEND
 8
0
  0
POLYLINE
  8
0
 62
     0
 66
     1
 10
0
 20
0
 30
0.0
 40
0
 41
0
  0
VERTEX
  8
0
 10
4.16732
 20
8.14963
 30
0.0
 40
0
 41
0
  0
VERTEX
  8
0
 10
4.16732
 20
8.9764
 30
0.0
 40
0
 41
0
  0
SEQEND
 8
0
  0
POLYLINE
  8
0
 62
     0
 66
     1
 10
0
 20
0
 30
0.0
 40
0
 41
0
  0
VERTEX
  8
0
 10
4.24849
 20
9.05512
 30
0.0
 40
0
 41
0
  0
VERTEX
  8
0
 10
4.24849
 20
8.64176
 30
0.0
 40
0
 41
0
  0
SEQEND
 8
0
  0
POLYLINE
  8
0
 62
     0
 66
     1
 10
0
 20
0
 30
0.0
 40
0
 41
0
  0
VERTEX
  8
0
 10
4.24849
 20
8.48426
 30
0.0
 40
0
 41
0
  0
VERTEX
  8
0
 10
4.24849
 20
7.6575
 30
0.0
 40
0
 41
0
  0
SEQEND
 8
0
  0
POLYLINE
  8
0
 62
     0
 66
     1
 10
0
 20
0
 30
0.0
 40
0
 41
0
  0
VERTEX
  8
0
 10
4.24849
 20
7.5
 30
0.0
 40
0
 41
0
  0
VERTEX
  8
0
 10
4.24849
 20
7.08664
 30
0.0
 40
0
 41
0
  0
SEQEND
 8
0
  0
POLYLINE
  8
0
 62
     0
 66
     1
 10
0
 20
0
 30
0.0
 40
0
 41
0
  0
VERTEX
  8
0
 10
4.32964
 20
7.16536
 30
0.0
 40
0
 41
0
  0
VERTEX
  8
0
 10
4.32964
 20
7.99214
 30
0.0
 40
0
 41
0
  0
SEQEND
 8
0
  0
POLYLINE
  8
0
 62
     0
 66
     1
 10
0
 20
0
 30
0.0
 40
0
 41
0
  0
VERTEX
  8
0
 10
4.32964
 20
8.14963
 30
0.0
 40
0
 41
0
  0
VERTEX
  8
0
 10
4.32964
 20
8.9764
 30
0.0
 40
0
 41
0
  0
SEQEND
 8
0
  0
POLYLINE
  8
0
 62
     0
 66
     1
 10
0
 20
0
 30
0.0
 40
0
 41
0
  0
VERTEX
  8
0
 10
3.03097
 20
9.05512
 30
0.0
 40
0
 41
0
  0
VERTEX
  8
0
 10
4.32964
 20
9.05512
 30
0.0
 40
0
 41
0
  0
SEQEND
 8
0
  0
POLYLINE
  8
0
 62
     0
 66
     1
 10
0
 20
0
 30
0.0
 40
0
 41
0
  0
VERTEX
  8
0
 10
4.32964
 20
7.08664
 30
0.0
 40
0
 41
0
  0
VERTEX
  8
0
 10
3.03097
 20
7.08664
 30
0.0
 40
0
 41
0
  0
SEQEND
 8
0
  0
POLYLINE
  8
0
 62
     0
 66
     1
 10
0
 20
0
 30
0.0
 40
0
 41
0
  0
VERTEX
  8
0
 10
0.944878
 20
9.05512
 30
0.0
 40
0
 41
0
  0
VERTEX
  8
0
 10
0.787381
 20
9.05512
 30
0.0
 40
0
 41
0
  0
VERTEX
  8
0
 10
0.787381
 20
8.89768
 30
0.0
 40
0
 41
0
  0
VERTEX
  8
0
 10
0.472439
 20
8.89768
 30
0.0
 40
0
 41
0
  0
VERTEX
  8
0
 10
0.472439
 20
9.05512
 30
0.0
 40
0
 41
0
  0
VERTEX
  8
0
 10
0.157497
 20
9.05512
 30
0.0
 40
0
 41
0
  0
VERTEX
  8
0
 10
0.157497
 20
7.08664
 30
0.0
 40
0
 41
0
  0
VERTEX
  8
0
 10
0.472439
 20
7.08664
 30
0.0
 40
0
 41
0
  0
VERTEX
  8
0
 10
0.472439
 20
7.24408
 30
0.0
 40
0
 41
0
  0
VERTEX
  8
0
 10
0.787381
 20
7.24408
 30
0.0
 40
0
 41
0
  0
VERTEX
  8
0
 10
0.787381
 20
7.08664
 30
0.0
 40
0
 41
0
  0
VERTEX
  8
0
 10
0.944878
 20
7.08664
 30
0.0
 40
0
 41
0
  0
SEQEND
 8
0
  0
POLYLINE
  8
0
 62
     0
 66
     1
 10
0
 20
0
 30
0.0
 40
0
 41
0
  0
VERTEX
  8
0
 10
2.2436
 20
9.05512
 30
0.0
 40
0
 41
0
  0
VERTEX
  8
0
 10
2.40104
 20
9.05512
 30
0.0
 40
0
 41
0
  0
VERTEX
  8
0
 10
2.40104
 20
8.89768
 30
0.0
 40
0
 41
0
  0
VERTEX
  8
0
 10
2.55854
 20
8.89768
 30
0.0
 40
0
 41
0
  0
VERTEX
  8
0
 10
2.55854
 20
9.05512
 30
0.0
 40
0
 41
0
  0
VERTEX
  8
0
 10
2.71604
 20
9.05512
 30
0.0
 40
0
 41
0
  0
VERTEX
  8
0
 10
2.71604
 20
8.89768
 30
0.0
 40
0
 41
0
  0
VERTEX
  8
0
 10
2.87349
 20
8.89768
 30
0.0
 40
0
 41
0
  0
VERTEX
  8
0
 10
2.87349
 20
9.05512
 30
0.0
 40
0
 41
0
  0
VERTEX
  8
0
 10
3.03097
 20
9.05512
 30
0.0
 40
0
 41
0
  0
SEQEND
 8
0
  0
POLYLINE
  8
0
 62
     0
 66
     1
 10
0
 20
0
 30
0.0
 40
0
 41
0
  0
VERTEX
  8
0
 10
3.03097
 20
7.08664
 30
0.0
 40
0
 41
0
  0
VERTEX
  8
0
 10
2.87349
 20
7.08664
 30
0.0
 40
0
 41
0
  0
VERTEX
  8
0
 10
2.87349
 20
7.24408
 30
0.0
 40
0
 41
0
  0
VERTEX
  8
0
 10
2.71604
 20
7.24408
 30
0.0
 40
0
 41
0
  0
VERTEX
  8
0
 10
2.71604
 20
7.08664
 30
0.0
 40
0
 41
0
  0
VERTEX
  8
0
 10
2.55854
 20
7.08664
 30
0.0
 40
0
 41
0
  0
VERTEX
  8
0
 10
2.55854
 20
7.24408
 30
0.0
 40
0
 41
0
  0
VERTEX
  8
0
 10
2.40104
 20
7.24408
 30
0.0
 40
0
 41
0
  0
VERTEX
  8
0
 10
2.40104
 20
7.08664
 30
0.0
 40
0
 41
0
  0
VERTEX
  8
0
 10
2.2436
 20
7.08664
 30
0.0
 40
0
 41
0
  0
SEQEND
 8
0
  0
POLYLINE
  8
0
 62
     0
 66
     1
 10
0
 20
0
 30
0.0
 40
0
 41
0
  0
VERTEX
  8
0
 10
9.28928
 20
7.16536
 30
0.0
 40
0
 41
0
  0
VERTEX
  8
0
 10
9.28928
 20
7.99214
 30
0.0
 40
0
 41
0
  0
SEQEND
 8
0
  0
POLYLINE
  8
0
 62
     0
 66
     1
 10
0
 20
0
 30
0.0
 40
0
 41
0
  0
VERTEX
  8
0
 10
9.28928
 20
8.14963
 30
0.0
 40
0
 41
0
  0
VERTEX
  8
0
 10
9.28928
 20
8.9764
 30
0.0
 40
0
 41
0
  0
SEQEND
 8
0
  0
POLYLINE
  8
0
 62
     0
 66
     1
 10
0
 20
0
 30
0.0
 40
0
 41
0
  0
VERTEX
  8
0
 10
9.20811
 20
9.05512
 30
0.0
 40
0
 41
0
  0
VERTEX
  8
0
 10
9.20811
 20
8.64176
 30
0.0
 40
0
 41
0
  0
SEQEND
 8
0
  0
POLYLINE
  8
0
 62
     0
 66
     1
 10
0
 20
0
 30
0.0
 40
0
 41
0
  0
VERTEX
  8
0
 10
9.20811
 20
8.48426
 30
0.0
 40
0
 41
0
  0
VERTEX
  8
0
 10
9.20811
 20
7.6575
 30
0.0
 40
0
 41
0
  0
SEQEND
 8
0
  0
POLYLINE
  8
0
 62
     0
 66
     1
 10
0
 20
0
 30
0.0
 40
0
 41
0
  0
VERTEX
  8
0
 10
9.20811
 20
7.5
 30
0.0
 40
0
 41
0
  0
VERTEX
  8
0
 10
9.20811
 20
7.08664
 30
0.0
 40
0
 41
0
  0
SEQEND
 8
0
  0
POLYLINE
  8
0
 62
     0
 66
     1
 10
0
 20
0
 30
0.0
 40
0
 41
0
  0
VERTEX
  8
0
 10
9.1269
 20
7.16536
 30
0.0
 40
0
 41
0
  0
VERTEX
  8
0
 10
9.1269
 20
7.99214
 30
0.0
 40
0
 41
0
  0
SEQEND
 8
0
  0
POLYLINE
  8
0
 62
     0
 66
     1
 10
0
 20
0
 30
0.0
 40
0
 41
0
  0
VERTEX
  8
0
 10
9.1269
 20
8.14963
 30
0.0
 40
0
 41
0
  0
VERTEX
  8
0
 10
9.1269
 20
8.9764
 30
0.0
 40
0
 41
0
  0
SEQEND
 8
0
  0
POLYLINE
  8
0
 62
     0
 66
     1
 10
0
 20
0
 30
0.0
 40
0
 41
0
  0
VERTEX
  8
0
 10
9.04574
 20
9.05512
 30
0.0
 40
0
 41
0
  0
VERTEX
  8
0
 10
9.04574
 20
8.64176
 30
0.0
 40
0
 41
0
  0
SEQEND
 8
0
  0
POLYLINE
  8
0
 62
     0
 66
     1
 10
0
 20
0
 30
0.0
 40
0
 41
0
  0
VERTEX
  8
0
 10
9.04574
 20
8.48426
 30
0.0
 40
0
 41
0
  0
VERTEX
  8
0
 10
9.04574
 20
7.6575
 30
0.0
 40
0
 41
0
  0
SEQEND
 8
0
  0
POLYLINE
  8
0
 62
     0
 66
     1
 10
0
 20
0
 30
0.0
 40
0
 41
0
  0
VERTEX
  8
0
 10
9.04574
 20
7.5
 30
0.0
 40
0
 41
0
  0
VERTEX
  8
0
 10
9.04574
 20
7.08664
 30
0.0
 40
0
 41
0
  0
SEQEND
 8
0
  0
POLYLINE
  8
0
 62
     0
 66
     1
 10
0
 20
0
 30
0.0
 40
0
 41
0
  0
VERTEX
  8
0
 10
8.96457
 20
7.16536
 30
0.0
 40
0
 41
0
  0
VERTEX
  8
0
 10
8.96457
 20
7.99214
 30
0.0
 40
0
 41
0
  0
SEQEND
 8
0
  0
POLYLINE
  8
0
 62
     0
 66
     1
 10
0
 20
0
 30
0.0
 40
0
 41
0
  0
VERTEX
  8
0
 10
8.96457
 20
8.14963
 30
0.0
 40
0
 41
0
  0
VERTEX
  8
0
 10
8.96457
 20
8.9764
 30
0.0
 40
0
 41
0
  0
SEQEND
 8
0
  0
POLYLINE
  8
0
 62
     0
 66
     1
 10
0
 20
0
 30
0.0
 40
0
 41
0
  0
VERTEX
  8
0
 10
8.8834
 20
9.05512
 30
0.0
 40
0
 41
0
  0
VERTEX
  8
0
 10
8.8834
 20
8.64176
 30
0.0
 40
0
 41
0
  0
SEQEND
 8
0
  0
POLYLINE
  8
0
 62
     0
 66
     1
 10
0
 20
0
 30
0.0
 40
0
 41
0
  0
VERTEX
  8
0
 10
8.8834
 20
8.48426
 30
0.0
 40
0
 41
0
  0
VERTEX
  8
0
 10
8.8834
 20
7.6575
 30
0.0
 40
0
 41
0
  0
SEQEND
 8
0
  0
POLYLINE
  8
0
 62
     0
 66
     1
 10
0
 20
0
 30
0.0
 40
0
 41
0
  0
VERTEX
  8
0
 10
8.8834
 20
7.5
 30
0.0
 40
0
 41
0
  0
VERTEX
  8
0
 10
8.8834
 20
7.08664
 30
0.0
 40
0
 41
0
  0
SEQEND
 8
0
  0
POLYLINE
  8
0
 62
     0
 66
     1
 10
0
 20
0
 30
0.0
 40
0
 41
0
  0
VERTEX
  8
0
 10
8.80225
 20
7.16536
 30
0.0
 40
0
 41
0
  0
VERTEX
  8
0
 10
8.80225
 20
7.99214
 30
0.0
 40
0
 41
0
  0
SEQEND
 8
0
  0
POLYLINE
  8
0
 62
     0
 66
     1
 10
0
 20
0
 30
0.0
 40
0
 41
0
  0
VERTEX
  8
0
 10
8.80225
 20
8.14963
 30
0.0
 40
0
 41
0
  0
VERTEX
  8
0
 10
8.80225
 20
8.9764
 30
0.0
 40
0
 41
0
  0
SEQEND
 8
0
  0
POLYLINE
  8
0
 62
     0
 66
     1
 10
0
 20
0
 30
0.0
 40
0
 41
0
  0
VERTEX
  8
0
 10
8.72108
 20
9.05512
 30
0.0
 40
0
 41
0
  0
VERTEX
  8
0
 10
8.72108
 20
8.64176
 30
0.0
 40
0
 41
0
  0
SEQEND
 8
0
  0
POLYLINE
  8
0
 62
     0
 66
     1
 10
0
 20
0
 30
0.0
 40
0
 41
0
  0
VERTEX
  8
0
 10
8.72108
 20
8.48426
 30
0.0
 40
0
 41
0
  0
VERTEX
  8
0
 10
8.72108
 20
7.6575
 30
0.0
 40
0
 41
0
  0
SEQEND
 8
0
  0
POLYLINE
  8
0
 62
     0
 66
     1
 10
0
 20
0
 30
0.0
 40
0
 41
0
  0
VERTEX
  8
0
 10
8.72108
 20
7.5
 30
0.0
 40
0
 41
0
  0
VERTEX
  8
0
 10
8.72108
 20
7.08664
 30
0.0
 40
0
 41
0
  0
SEQEND
 8
0
  0
POLYLINE
  8
0
 62
     0
 66
     1
 10
0
 20
0
 30
0.0
 40
0
 41
0
  0
VERTEX
  8
0
 10
8.63992
 20
7.16536
 30
0.0
 40
0
 41
0
  0
VERTEX
  8
0
 10
8.63992
 20
7.99214
 30
0.0
 40
0
 41
0
  0
SEQEND
 8
0
  0
POLYLINE
  8
0
 62
     0
 66
     1
 10
0
 20
0
 30
0.0
 40
0
 41
0
  0
VERTEX
  8
0
 10
8.63992
 20
8.14963
 30
0.0
 40
0
 41
0
  0
VERTEX
  8
0
 10
8.63992
 20
8.9764
 30
0.0
 40
0
 41
0
  0
SEQEND
 8
0
  0
POLYLINE
  8
0
 62
     0
 66
     1
 10
0
 20
0
 30
0.0
 40
0
 41
0
  0
VERTEX
  8
0
 10
8.55875
 20
9.05512
 30
0.0
 40
0
 41
0
  0
VERTEX
  8
0
 10
8.55875
 20
8.64176
 30
0.0
 40
0
 41
0
  0
SEQEND
 8
0
  0
POLYLINE
  8
0
 62
     0
 66
     1
 10
0
 20
0
 30
0.0
 40
0
 41
0
  0
VERTEX
  8
0
 10
8.55875
 20
8.48426
 30
0.0
 40
0
 41
0
  0
VERTEX
  8
0
 10
8.55875
 20
7.6575
 30
0.0
 40
0
 41
0
  0
SEQEND
 8
0
  0
POLYLINE
  8
0
 62
     0
 66
     1
 10
0
 20
0
 30
0.0
 40
0
 41
0
  0
VERTEX
  8
0
 10
8.55875
 20
7.5
 30
0.0
 40
0
 41
0
  0
VERTEX
  8
0
 10
8.55875
 20
7.08664
 30
0.0
 40
0
 41
0
  0
SEQEND
 8
0
  0
POLYLINE
  8
0
 62
     0
 66
     1
 10
0
 20
0
 30
0.0
 40
0
 41
0
  0
VERTEX
  8
0
 10
8.4776
 20
7.16536
 30
0.0
 40
0
 41
0
  0
VERTEX
  8
0
 10
8.4776
 20
7.99214
 30
0.0
 40
0
 41
0
  0
SEQEND
 8
0
  0
POLYLINE
  8
0
 62
     0
 66
     1
 10
0
 20
0
 30
0.0
 40
0
 41
0
  0
VERTEX
  8
0
 10
8.4776
 20
8.14963
 30
0.0
 40
0
 41
0
  0
VERTEX
  8
0
 10
8.4776
 20
8.9764
 30
0.0
 40
0
 41
0
  0
SEQEND
 8
0
  0
POLYLINE
  8
0
 62
     0
 66
     1
 10
0
 20
0
 30
0.0
 40
0
 41
0
  0
VERTEX
  8
0
 10
8.39643
 20
9.05512
 30
0.0
 40
0
 41
0
  0
VERTEX
  8
0
 10
8.39643
 20
8.64176
 30
0.0
 40
0
 41
0
  0
SEQEND
 8
0
  0
POLYLINE
  8
0
 62
     0
 66
     1
 10
0
 20
0
 30
0.0
 40
0
 41
0
  0
VERTEX
  8
0
 10
8.39643
 20
8.48426
 30
0.0
 40
0
 41
0
  0
VERTEX
  8
0
 10
8.39643
 20
7.6575
 30
0.0
 40
0
 41
0
  0
SEQEND
 8
0
  0
POLYLINE
  8
0
 62
     0
 66
     1
 10
0
 20
0
 30
0.0
 40
0
 41
0
  0
VERTEX
  8
0
 10
8.39643
 20
7.5
 30
0.0
 40
0
 41
0
  0
VERTEX
  8
0
 10
8.39643
 20
7.08664
 30
0.0
 40
0
 41
0
  0
SEQEND
 8
0
  0
POLYLINE
  8
0
 62
     0
 66
     1
 10
0
 20
0
 30
0.0
 40
0
 41
0
  0
VERTEX
  8
0
 10
8.31526
 20
7.16536
 30
0.0
 40
0
 41
0
  0
VERTEX
  8
0
 10
8.31526
 20
7.99214
 30
0.0
 40
0
 41
0
  0
SEQEND
 8
0
  0
POLYLINE
  8
0
 62
     0
 66
     1
 10
0
 20
0
 30
0.0
 40
0
 41
0
  0
VERTEX
  8
0
 10
8.31526
 20
8.14963
 30
0.0
 40
0
 41
0
  0
VERTEX
  8
0
 10
8.31526
 20
8.9764
 30
0.0
 40
0
 41
0
  0
SEQEND
 8
0
  0
POLYLINE
  8
0
 62
     0
 66
     1
 10
0
 20
0
 30
0.0
 40
0
 41
0
  0
VERTEX
  8
0
 10
8.23406
 20
9.05512
 30
0.0
 40
0
 41
0
  0
VERTEX
  8
0
 10
8.23406
 20
8.64176
 30
0.0
 40
0
 41
0
  0
SEQEND
 8
0
  0
POLYLINE
  8
0
 62
     0
 66
     1
 10
0
 20
0
 30
0.0
 40
0
 41
0
  0
VERTEX
  8
0
 10
8.23406
 20
8.48426
 30
0.0
 40
0
 41
0
  0
VERTEX
  8
0
 10
8.23406
 20
7.6575
 30
0.0
 40
0
 41
0
  0
SEQEND
 8
0
  0
POLYLINE
  8
0
 62
     0
 66
     1
 10
0
 20
0
 30
0.0
 40
0
 41
0
  0
VERTEX
  8
0
 10
8.23406
 20
7.5
 30
0.0
 40
0
 41
0
  0
VERTEX
  8
0
 10
8.23406
 20
7.08664
 30
0.0
 40
0
 41
0
  0
SEQEND
 8
0
  0
POLYLINE
  8
0
 62
     0
 66
     1
 10
0
 20
0
 30
0.0
 40
0
 41
0
  0
VERTEX
  8
0
 10
8.15289
 20
7.16536
 30
0.0
 40
0
 41
0
  0
VERTEX
  8
0
 10
8.15289
 20
7.99214
 30
0.0
 40
0
 41
0
  0
SEQEND
 8
0
  0
POLYLINE
  8
0
 62
     0
 66
     1
 10
0
 20
0
 30
0.0
 40
0
 41
0
  0
VERTEX
  8
0
 10
8.15289
 20
8.14963
 30
0.0
 40
0
 41
0
  0
VERTEX
  8
0
 10
8.15289
 20
8.9764
 30
0.0
 40
0
 41
0
  0
SEQEND
 8
0
  0
POLYLINE
  8
0
 62
     0
 66
     1
 10
0
 20
0
 30
0.0
 40
0
 41
0
  0
VERTEX
  8
0
 10
8.07172
 20
9.05512
 30
0.0
 40
0
 41
0
  0
VERTEX
  8
0
 10
8.07172
 20
8.64176
 30
0.0
 40
0
 41
0
  0
SEQEND
 8
0
  0
POLYLINE
  8
0
 62
     0
 66
     1
 10
0
 20
0
 30
0.0
 40
0
 41
0
  0
VERTEX
  8
0
 10
8.07172
 20
8.48426
 30
0.0
 40
0
 41
0
  0
VERTEX
  8
0
 10
8.07172
 20
7.6575
 30
0.0
 40
0
 41
0
  0
SEQEND
 8
0
  0
POLYLINE
  8
0
 62
     0
 66
     1
 10
0
 20
0
 30
0.0
 40
0
 41
0
  0
VERTEX
  8
0
 10
8.07172
 20
7.5
 30
0.0
 40
0
 41
0
  0
VERTEX
  8
0
 10
8.07172
 20
7.08664
 30
0.0
 40
0
 41
0
  0
SEQEND
 8
0
  0
POLYLINE
  8
0
 62
     0
 66
     1
 10
0
 20
0
 30
0.0
 40
0
 41
0
  0
VERTEX
  8
0
 10
7.99056
 20
7.16536
 30
0.0
 40
0
 41
0
  0
VERTEX
  8
0
 10
7.99056
 20
7.99214
 30
0.0
 40
0
 41
0
  0
SEQEND
 8
0
  0
POLYLINE
  8
0
 62
     0
 66
     1
 10
0
 20
0
 30
0.0
 40
0
 41
0
  0
VERTEX
  8
0
 10
7.99056
 20
8.14963
 30
0.0
 40
0
 41
0
  0
VERTEX
  8
0
 10
7.99056
 20
8.9764
 30
0.0
 40
0
 41
0
  0
SEQEND
 8
0
  0
POLYLINE
  8
0
 62
     0
 66
     1
 10
0
 20
0
 30
0.0
 40
0
 41
0
  0
VERTEX
  8
0
 10
9.28928
 20
9.05512
 30
0.0
 40
0
 41
0
  0
VERTEX
  8
0
 10
7.99056
 20
9.05512
 30
0.0
 40
0
 41
0
  0
SEQEND
 8
0
  0
POLYLINE
  8
0
 62
     0
 66
     1
 10
0
 20
0
 30
0.0
 40
0
 41
0
  0
VERTEX
  8
0
 10
7.99056
 20
7.08664
 30
0.0
 40
0
 41
0
  0
VERTEX
  8
0
 10
9.28928
 20
7.08664
 30
0.0
 40
0
 41
0
  0
SEQEND
 8
0
  0
POLYLINE
  8
0
 62
     0
 66
     1
 10
0
 20
0
 30
0.0
 40
0
 41
0
  0
VERTEX
  8
0
 10
7.20318
 20
7.16536
 30
0.0
 40
0
 41
0
  0
VERTEX
  8
0
 10
7.20318
 20
7.99214
 30
0.0
 40
0
 41
0
  0
SEQEND
 8
0
  0
POLYLINE
  8
0
 62
     0
 66
     1
 10
0
 20
0
 30
0.0
 40
0
 41
0
  0
VERTEX
  8
0
 10
7.20318
 20
8.14963
 30
0.0
 40
0
 41
0
  0
VERTEX
  8
0
 10
7.20318
 20
8.9764
 30
0.0
 40
0
 41
0
  0
SEQEND
 8
0
  0
POLYLINE
  8
0
 62
     0
 66
     1
 10
0
 20
0
 30
0.0
 40
0
 41
0
  0
VERTEX
  8
0
 10
7.12201
 20
9.05512
 30
0.0
 40
0
 41
0
  0
VERTEX
  8
0
 10
7.12201
 20
8.64176
 30
0.0
 40
0
 41
0
  0
SEQEND
 8
0
  0
POLYLINE
  8
0
 62
     0
 66
     1
 10
0
 20
0
 30
0.0
 40
0
 41
0
  0
VERTEX
  8
0
 10
7.12201
 20
8.48426
 30
0.0
 40
0
 41
0
  0
VERTEX
  8
0
 10
7.12201
 20
7.6575
 30
0.0
 40
0
 41
0
  0
SEQEND
 8
0
  0
POLYLINE
  8
0
 62
     0
 66
     1
 10
0
 20
0
 30
0.0
 40
0
 41
0
  0
VERTEX
  8
0
 10
7.12201
 20
7.5
 30
0.0
 40
0
 41
0
  0
VERTEX
  8
0
 10
7.12201
 20
7.08664
 30
0.0
 40
0
 41
0
  0
SEQEND
 8
0
  0
POLYLINE
  8
0
 62
     0
 66
     1
 10
0
 20
0
 30
0.0
 40
0
 41
0
  0
VERTEX
  8
0
 10
7.04085
 20
7.16536
 30
0.0
 40
0
 41
0
  0
VERTEX
  8
0
 10
7.04085
 20
7.99214
 30
0.0
 40
0
 41
0
  0
SEQEND
 8
0
  0
POLYLINE
  8
0
 62
     0
 66
     1
 10
0
 20
0
 30
0.0
 40
0
 41
0
  0
VERTEX
  8
0
 10
7.04085
 20
8.14963
 30
0.0
 40
0
 41
0
  0
VERTEX
  8
0
 10
7.04085
 20
8.9764
 30
0.0
 40
0
 41
0
  0
SEQEND
 8
0
  0
POLYLINE
  8
0
 62
     0
 66
     1
 10
0
 20
0
 30
0.0
 40
0
 41
0
  0
VERTEX
  8
0
 10
6.95964
 20
9.05512
 30
0.0
 40
0
 41
0
  0
VERTEX
  8
0
 10
6.95964
 20
8.64176
 30
0.0
 40
0
 41
0
  0
SEQEND
 8
0
  0
POLYLINE
  8
0
 62
     0
 66
     1
 10
0
 20
0
 30
0.0
 40
0
 41
0
  0
VERTEX
  8
0
 10
6.95964
 20
8.48426
 30
0.0
 40
0
 41
0
  0
VERTEX
  8
0
 10
6.95964
 20
7.6575
 30
0.0
 40
0
 41
0
  0
SEQEND
 8
0
  0
POLYLINE
  8
0
 62
     0
 66
     1
 10
0
 20
0
 30
0.0
 40
0
 41
0
  0
VERTEX
  8
0
 10
6.95964
 20
7.5
 30
0.0
 40
0
 41
0
  0
VERTEX
  8
0
 10
6.95964
 20
7.08664
 30
0.0
 40
0
 41
0
  0
SEQEND
 8
0
  0
POLYLINE
  8
0
 62
     0
 66
     1
 10
0
 20
0
 30
0.0
 40
0
 41
0
  0
VERTEX
  8
0
 10
6.87847
 20
7.16536
 30
0.0
 40
0
 41
0
  0
VERTEX
  8
0
 10
6.87847
 20
7.99214
 30
0.0
 40
0
 41
0
  0
SEQEND
 8
0
  0
POLYLINE
  8
0
 62
     0
 66
     1
 10
0
 20
0
 30
0.0
 40
0
 41
0
  0
VERTEX
  8
0
 10
6.87847
 20
8.14963
 30
0.0
 40
0
 41
0
  0
VERTEX
  8
0
 10
6.87847
 20
8.9764
 30
0.0
 40
0
 41
0
  0
SEQEND
 8
0
  0
POLYLINE
  8
0
 62
     0
 66
     1
 10
0
 20
0
 30
0.0
 40
0
 41
0
  0
VERTEX
  8
0
 10
6.79731
 20
9.05512
 30
0.0
 40
0
 41
0
  0
VERTEX
  8
0
 10
6.79731
 20
8.64176
 30
0.0
 40
0
 41
0
  0
SEQEND
 8
0
  0
POLYLINE
  8
0
 62
     0
 66
     1
 10
0
 20
0
 30
0.0
 40
0
 41
0
  0
VERTEX
  8
0
 10
6.79731
 20
8.48426
 30
0.0
 40
0
 41
0
  0
VERTEX
  8
0
 10
6.79731
 20
7.6575
 30
0.0
 40
0
 41
0
  0
SEQEND
 8
0
  0
POLYLINE
  8
0
 62
     0
 66
     1
 10
0
 20
0
 30
0.0
 40
0
 41
0
  0
VERTEX
  8
0
 10
6.79731
 20
7.5
 30
0.0
 40
0
 41
0
  0
VERTEX
  8
0
 10
6.79731
 20
7.08664
 30
0.0
 40
0
 41
0
  0
SEQEND
 8
0
  0
POLYLINE
  8
0
 62
     0
 66
     1
 10
0
 20
0
 30
0.0
 40
0
 41
0
  0
VERTEX
  8
0
 10
6.71614
 20
7.16536
 30
0.0
 40
0
 41
0
  0
VERTEX
  8
0
 10
6.71614
 20
7.99214
 30
0.0
 40
0
 41
0
  0
SEQEND
 8
0
  0
POLYLINE
  8
0
 62
     0
 66
     1
 10
0
 20
0
 30
0.0
 40
0
 41
0
  0
VERTEX
  8
0
 10
6.71614
 20
8.14963
 30
0.0
 40
0
 41
0
  0
VERTEX
  8
0
 10
6.71614
 20
8.9764
 30
0.0
 40
0
 41
0
  0
SEQEND
 8
0
  0
POLYLINE
  8
0
 62
     0
 66
     1
 10
0
 20
0
 30
0.0
 40
0
 41
0
  0
VERTEX
  8
0
 10
6.63499
 20
9.05512
 30
0.0
 40
0
 41
0
  0
VERTEX
  8
0
 10
6.63499
 20
8.64176
 30
0.0
 40
0
 41
0
  0
SEQEND
 8
0
  0
POLYLINE
  8
0
 62
     0
 66
     1
 10
0
 20
0
 30
0.0
 40
0
 41
0
  0
VERTEX
  8
0
 10
6.63499
 20
8.48426
 30
0.0
 40
0
 41
0
  0
VERTEX
  8
0
 10
6.63499
 20
7.6575
 30
0.0
 40
0
 41
0
  0
SEQEND
 8
0
  0
POLYLINE
  8
0
 62
     0
 66
     1
 10
0
 20
0
 30
0.0
 40
0
 41
0
  0
VERTEX
  8
0
 10
6.63499
 20
7.5
 30
0.0
 40
0
 41
0
  0
VERTEX
  8
0
 10
6.63499
 20
7.08664
 30
0.0
 40
0
 41
0
  0
SEQEND
 8
0
  0
POLYLINE
  8
0
 62
     0
 66
     1
 10
0
 20
0
 30
0.0
 40
0
 41
0
  0
VERTEX
  8
0
 10
6.55382
 20
7.16536
 30
0.0
 40
0
 41
0
  0
VERTEX
  8
0
 10
6.55382
 20
7.99214
 30
0.0
 40
0
 41
0
  0
SEQEND
 8
0
  0
POLYLINE
  8
0
 62
     0
 66
     1
 10
0
 20
0
 30
0.0
 40
0
 41
0
  0
VERTEX
  8
0
 10
6.55382
 20
8.14963
 30
0.0
 40
0
 41
0
  0
VERTEX
  8
0
 10
6.55382
 20
8.9764
 30
0.0
 40
0
 41
0
  0
SEQEND
 8
0
  0
POLYLINE
  8
0
 62
     0
 66
     1
 10
0
 20
0
 30
0.0
 40
0
 41
0
  0
VERTEX
  8
0
 10
6.47265
 20
9.05512
 30
0.0
 40
0
 41
0
  0
VERTEX
  8
0
 10
6.47265
 20
8.64176
 30
0.0
 40
0
 41
0
  0
SEQEND
 8
0
  0
POLYLINE
  8
0
 62
     0
 66
     1
 10
0
 20
0
 30
0.0
 40
0
 41
0
  0
VERTEX
  8
0
 10
6.47265
 20
8.48426
 30
0.0
 40
0
 41
0
  0
VERTEX
  8
0
 10
6.47265
 20
7.6575
 30
0.0
 40
0
 41
0
  0
SEQEND
 8
0
  0
POLYLINE
  8
0
 62
     0
 66
     1
 10
0
 20
0
 30
0.0
 40
0
 41
0
  0
VERTEX
  8
0
 10
6.47265
 20
7.5
 30
0.0
 40
0
 41
0
  0
VERTEX
  8
0
 10
6.47265
 20
7.08664
 30
0.0
 40
0
 41
0
  0
SEQEND
 8
0
  0
POLYLINE
  8
0
 62
     0
 66
     1
 10
0
 20
0
 30
0.0
 40
0
 41
0
  0
VERTEX
  8
0
 10
6.3915
 20
7.16536
 30
0.0
 40
0
 41
0
  0
VERTEX
  8
0
 10
6.3915
 20
7.99214
 30
0.0
 40
0
 41
0
  0
SEQEND
 8
0
  0
POLYLINE
  8
0
 62
     0
 66
     1
 10
0
 20
0
 30
0.0
 40
0
 41
0
  0
VERTEX
  8
0
 10
6.3915
 20
8.14963
 30
0.0
 40
0
 41
0
  0
VERTEX
  8
0
 10
6.3915
 20
8.9764
 30
0.0
 40
0
 41
0
  0
SEQEND
 8
0
  0
POLYLINE
  8
0
 62
     0
 66
     1
 10
0
 20
0
 30
0.0
 40
0
 41
0
  0
VERTEX
  8
0
 10
6.31033
 20
9.05512
 30
0.0
 40
0
 41
0
  0
VERTEX
  8
0
 10
6.31033
 20
8.64176
 30
0.0
 40
0
 41
0
  0
SEQEND
 8
0
  0
POLYLINE
  8
0
 62
     0
 66
     1
 10
0
 20
0
 30
0.0
 40
0
 41
0
  0
VERTEX
  8
0
 10
6.31033
 20
8.48426
 30
0.0
 40
0
 41
0
  0
VERTEX
  8
0
 10
6.31033
 20
7.6575
 30
0.0
 40
0
 41
0
  0
SEQEND
 8
0
  0
POLYLINE
  8
0
 62
     0
 66
     1
 10
0
 20
0
 30
0.0
 40
0
 41
0
  0
VERTEX
  8
0
 10
6.31033
 20
7.5
 30
0.0
 40
0
 41
0
  0
VERTEX
  8
0
 10
6.31033
 20
7.08664
 30
0.0
 40
0
 41
0
  0
SEQEND
 8
0
  0
POLYLINE
  8
0
 62
     0
 66
     1
 10
0
 20
0
 30
0.0
 40
0
 41
0
  0
VERTEX
  8
0
 10
6.22917
 20
7.16536
 30
0.0
 40
0
 41
0
  0
VERTEX
  8
0
 10
6.22917
 20
7.99214
 30
0.0
 40
0
 41
0
  0
SEQEND
 8
0
  0
POLYLINE
  8
0
 62
     0
 66
     1
 10
0
 20
0
 30
0.0
 40
0
 41
0
  0
VERTEX
  8
0
 10
6.22917
 20
8.14963
 30
0.0
 40
0
 41
0
  0
VERTEX
  8
0
 10
6.22917
 20
8.9764
 30
0.0
 40
0
 41
0
  0
SEQEND
 8
0
  0
POLYLINE
  8
0
 62
     0
 66
     1
 10
0
 20
0
 30
0.0
 40
0
 41
0
  0
VERTEX
  8
0
 10
6.148
 20
9.05512
 30
0.0
 40
0
 41
0
  0
VERTEX
  8
0
 10
6.148
 20
8.64176
 30
0.0
 40
0
 41
0
  0
SEQEND
 8
0
  0
POLYLINE
  8
0
 62
     0
 66
     1
 10
0
 20
0
 30
0.0
 40
0
 41
0
  0
VERTEX
  8
0
 10
6.148
 20
8.48426
 30
0.0
 40
0
 41
0
  0
VERTEX
  8
0
 10
6.148
 20
7.6575
 30
0.0
 40
0
 41
0
  0
SEQEND
 8
0
  0
POLYLINE
  8
0
 62
     0
 66
     1
 10
0
 20
0
 30
0.0
 40
0
 41
0
  0
VERTEX
  8
0
 10
6.148
 20
7.5
 30
0.0
 40
0
 41
0
  0
VERTEX
  8
0
 10
6.148
 20
7.08664
 30
0.0
 40
0
 41
0
  0
SEQEND
 8
0
  0
POLYLINE
  8
0
 62
     0
 66
     1
 10
0
 20
0
 30
0.0
 40
0
 41
0
  0
VERTEX
  8
0
 10
6.06679
 20
7.16536
 30
0.0
 40
0
 41
0
  0
VERTEX
  8
0
 10
6.06679
 20
7.99214
 30
0.0
 40
0
 41
0
  0
SEQEND
 8
0
  0
POLYLINE
  8
0
 62
     0
 66
     1
 10
0
 20
0
 30
0.0
 40
0
 41
0
  0
VERTEX
  8
0
 10
6.06679
 20
8.14963
 30
0.0
 40
0
 41
0
  0
VERTEX
  8
0
 10
6.06679
 20
8.9764
 30
0.0
 40
0
 41
0
  0
SEQEND
 8
0
  0
POLYLINE
  8
0
 62
     0
 66
     1
 10
0
 20
0
 30
0.0
 40
0
 41
0
  0
VERTEX
  8
0
 10
5.98562
 20
9.05512
 30
0.0
 40
0
 41
0
  0
VERTEX
  8
0
 10
5.98562
 20
8.64176
 30
0.0
 40
0
 41
0
  0
SEQEND
 8
0
  0
POLYLINE
  8
0
 62
     0
 66
     1
 10
0
 20
0
 30
0.0
 40
0
 41
0
  0
VERTEX
  8
0
 10
5.98562
 20
8.48426
 30
0.0
 40
0
 41
0
  0
VERTEX
  8
0
 10
5.98562
 20
7.6575
 30
0.0
 40
0
 41
0
  0
SEQEND
 8
0
  0
POLYLINE
  8
0
 62
     0
 66
     1
 10
0
 20
0
 30
0.0
 40
0
 41
0
  0
VERTEX
  8
0
 10
5.98562
 20
7.5
 30
0.0
 40
0
 41
0
  0
VERTEX
  8
0
 10
5.98562
 20
7.08664
 30
0.0
 40
0
 41
0
  0
SEQEND
 8
0
  0
POLYLINE
  8
0
 62
     0
 66
     1
 10
0
 20
0
 30
0.0
 40
0
 41
0
  0
VERTEX
  8
0
 10
5.90446
 20
7.16536
 30
0.0
 40
0
 41
0
  0
VERTEX
  8
0
 10
5.90446
 20
7.99214
 30
0.0
 40
0
 41
0
  0
SEQEND
 8
0
  0
POLYLINE
  8
0
 62
     0
 66
     1
 10
0
 20
0
 30
0.0
 40
0
 41
0
  0
VERTEX
  8
0
 10
5.90446
 20
8.14963
 30
0.0
 40
0
 41
0
  0
VERTEX
  8
0
 10
5.90446
 20
8.9764
 30
0.0
 40
0
 41
0
  0
SEQEND
 8
0
  0
POLYLINE
  8
0
 62
     0
 66
     1
 10
0
 20
0
 30
0.0
 40
0
 41
0
  0
VERTEX
  8
0
 10
7.20318
 20
9.05512
 30
0.0
 40
0
 41
0
  0
VERTEX
  8
0
 10
5.90446
 20
9.05512
 30
0.0
 40
0
 41
0
  0
SEQEND
 8
0
  0
POLYLINE
  8
0
 62
     0
 66
     1
 10
0
 20
0
 30
0.0
 40
0
 41
0
  0
VERTEX
  8
0
 10
5.90446
 20
7.08664
 30
0.0
 40
0
 41
0
  0
VERTEX
  8
0
 10
7.20318
 20
7.08664
 30
0.0
 40
0
 41
0
  0
SEQEND
 8
0
  0
POLYLINE
  8
0
 62
     0
 66
     1
 10
0
 20
0
 30
0.0
 40
0
 41
0
  0
VERTEX
  8
0
 10
9.28928
 20
9.05512
 30
0.0
 40
0
 41
0
  0
VERTEX
  8
0
 10
9.44672
 20
9.05512
 30
0.0
 40
0
 41
0
  0
VERTEX
  8
0
 10
9.44672
 20
8.89768
 30
0.0
 40
0
 41
0
  0
VERTEX
  8
0
 10
9.76172
 20
8.89768
 30
0.0
 40
0
 41
0
  0
VERTEX
  8
0
 10
9.76172
 20
9.05512
 30
0.0
 40
0
 41
0
  0
VERTEX
  8
0
 10
10.0767
 20
9.05512
 30
0.0
 40
0
 41
0
  0
VERTEX
  8
0
 10
10.0767
 20
7.08664
 30
0.0
 40
0
 41
0
  0
VERTEX
  8
0
 10
9.76172
 20
7.08664
 30
0.0
 40
0
 41
0
  0
VERTEX
  8
0
 10
9.76172
 20
7.24408
 30
0.0
 40
0
 41
0
  0
VERTEX
  8
0
 10
9.44672
 20
7.24408
 30
0.0
 40
0
 41
0
  0
VERTEX
  8
0
 10
9.44672
 20
7.08664
 30
0.0
 40
0
 41
0
  0
VERTEX
  8
0
 10
9.28928
 20
7.08664
 30
0.0
 40
0
 41
0
  0
SEQEND
 8
0
  0
POLYLINE
  8
0
 62
     0
 66
     1
 10
0
 20
0
 30
0.0
 40
0
 41
0
  0
VERTEX
  8
0
 10
7.99056
 20
9.05512
 30
0.0
 40
0
 41
0
  0
VERTEX
  8
0
 10
7.83306
 20
9.05512
 30
0.0
 40
0
 41
0
  0
VERTEX
  8
0
 10
7.83306
 20
8.89768
 30
0.0
 40
0
 41
0
  0
VERTEX
  8
0
 10
7.67563
 20
8.89768
 30
0.0
 40
0
 41
0
  0
VERTEX
  8
0
 10
7.67563
 20
9.05512
 30
0.0
 40
0
 41
0
  0
VERTEX
  8
0
 10
7.51812
 20
9.05512
 30
0.0
 40
0
 41
0
  0
VERTEX
  8
0
 10
7.51812
 20
8.89768
 30
0.0
 40
0
 41
0
  0
VERTEX
  8
0
 10
7.36063
 20
8.89768
 30
0.0
 40
0
 41
0
  0
VERTEX
  8
0
 10
7.36063
 20
9.05512
 30
0.0
 40
0
 41
0
  0
VERTEX
  8
0
 10
7.20318
 20
9.05512
 30
0.0
 40
0
 41
0
  0
SEQEND
 8
0
  0
POLYLINE
  8
0
 62
     0
 66
     1
 10
0
 20
0
 30
0.0
 40
0
 41
0
  0
VERTEX
  8
0
 10
7.20318
 20
7.08664
 30
0.0
 40
0
 41
0
  0
VERTEX
  8
0
 10
7.36063
 20
7.08664
 30
0.0
 40
0
 41
0
  0
VERTEX
  8
0
 10
7.36063
 20
7.24408
 30
0.0
 40
0
 41
0
  0
VERTEX
  8
0
 10
7.51812
 20
7.24408
 30
0.0
 40
0
 41
0
  0
VERTEX
  8
0
 10
7.51812
 20
7.08664
 30
0.0
 40
0
 41
0
  0
VERTEX
  8
0
 10
7.67563
 20
7.08664
 30
0.0
 40
0
 41
0
  0
VERTEX
  8
0
 10
7.67563
 20
7.24408
 30
0.0
 40
0
 41
0
  0
VERTEX
  8
0
 10
7.83306
 20
7.24408
 30
0.0
 40
0
 41
0
  0
VERTEX
  8
0
 10
7.83306
 20
7.08664
 30
0.0
 40
0
 41
0
  0
VERTEX
  8
0
 10
7.99056
 20
7.08664
 30
0.0
 40
0
 41
0
  0
SEQEND
 8
0
  0
POLYLINE
  8
0
 62
     0
 66
     1
 10
0
 20
0
 30
0.0
 40
0
 41
0
  0
VERTEX
  8
0
 10
4.32964
 20
9.05512
 30
0.0
 40
0
 41
0
  0
VERTEX
  8
0
 10
4.64464
 20
9.05512
 30
0.0
 40
0
 41
0
  0
VERTEX
  8
0
 10
4.64464
 20
8.89768
 30
0.0
 40
0
 41
0
  0
VERTEX
  8
0
 10
4.95958
 20
8.89768
 30
0.0
 40
0
 41
0
  0
VERTEX
  8
0
 10
4.95958
 20
9.05512
 30
0.0
 40
0
 41
0
  0
VERTEX
  8
0
 10
5.27458
 20
9.05512
 30
0.0
 40
0
 41
0
  0
VERTEX
  8
0
 10
5.27458
 20
8.89768
 30
0.0
 40
0
 41
0
  0
VERTEX
  8
0
 10
5.58951
 20
8.89768
 30
0.0
 40
0
 41
0
  0
VERTEX
  8
0
 10
5.58951
 20
9.05512
 30
0.0
 40
0
 41
0
  0
VERTEX
  8
0
 10
5.90446
 20
9.05512
 30
0.0
 40
0
 41
0
  0
SEQEND
 8
0
  0
POLYLINE
  8
0
 62
     0
 66
     1
 10
0
 20
0
 30
0.0
 40
0
 41
0
  0
VERTEX
  8
0
 10
5.90446
 20
9.05512
 30
0.0
 40
0
 41
0
  0
VERTEX
  8
0
 10
5.90446
 20
9.05512
 30
0.0
 40
0
 41
0
  0
VERTEX
  8
0
 10
6.07107
 20
9.07194
 30
0.0
 40
0
 41
0
  0
VERTEX
  8
0
 10
6.22624
 20
9.12011
 30
0.0
 40
0
 41
0
  0
VERTEX
  8
0
 10
6.36669
 20
9.19635
 30
0.0
 40
0
 41
0
  0
VERTEX
  8
0
 10
6.48904
 20
9.29731
 30
0.0
 40
0
 41
0
  0
VERTEX
  8
0
 10
6.59
 20
9.41965
 30
0.0
 40
0
 41
0
  0
VERTEX
  8
0
 10
6.66624
 20
9.56011
 30
0.0
 40
0
 41
0
  0
VERTEX
  8
0
 10
6.71442
 20
9.71528
 30
0.0
 40
0
 41
0
  0
VERTEX
  8
0
 10
6.73122
 20
9.88189
 30
0.0
 40
0
 41
0
  0
SEQEND
 8
0
  0
POLYLINE
  8
0
 62
     0
 66
     1
 10
0
 20
0
 30
0.0
 40
0
 41
0
  0
VERTEX
  8
0
 10
6.73122
 20
9.88189
 30
0.0
 40
0
 41
0
  0
VERTEX
  8
0
 10
6.73122
 20
10.0394
 30
0.0
 40
0
 41
0
  0
VERTEX
  8
0
 10
6.88872
 20
10.0394
 30
0.0
 40
0
 41
0
  0
VERTEX
  8
0
 10
6.88872
 20
10.1969
 30
0.0
 40
0
 41
0
  0
VERTEX
  8
0
 10
6.73122
 20
10.1969
 30
0.0
 40
0
 41
0
  0
VERTEX
  8
0
 10
6.73122
 20
10.3543
 30
0.0
 40
0
 41
0
  0
VERTEX
  8
0
 10
6.88872
 20
10.3543
 30
0.0
 40
0
 41
0
  0
VERTEX
  8
0
 10
6.88872
 20
10.5118
 30
0.0
 40
0
 41
0
  0
VERTEX
  8
0
 10
6.73122
 20
10.5118
 30
0.0
 40
0
 41
0
  0
VERTEX
  8
0
 10
6.73122
 20
10.6693
 30
0.0
 40
0
 41
0
  0
SEQEND
 8
0
  0
POLYLINE
  8
0
 62
     0
 66
     1
 10
0
 20
0
 30
0.0
 40
0
 41
0
  0
VERTEX
  8
0
 10
6.73122
 20
10.6693
 30
0.0
 40
0
 41
0
  0
VERTEX
  8
0
 10
6.71442
 20
10.836
 30
0.0
 40
0
 41
0
  0
VERTEX
  8
0
 10
6.66624
 20
10.9912
 30
0.0
 40
0
 41
0
  0
VERTEX
  8
0
 10
6.59
 20
11.1316
 30
0.0
 40
0
 41
0
  0
VERTEX
  8
0
 10
6.48904
 20
11.254
 30
0.0
 40
0
 41
0
  0
VERTEX
  8
0
 10
6.36669
 20
11.3549
 30
0.0
 40
0
 41
0
  0
VERTEX
  8
0
 10
6.22624
 20
11.4312
 30
0.0
 40
0
 41
0
  0
VERTEX
  8
0
 10
6.07107
 20
11.4793
 30
0.0
 40
0
 41
0
  0
VERTEX
  8
0
 10
5.90446
 20
11.4961
 30
0.0
 40
0
 41
0
  0
VERTEX
  8
0
 10
5.74701
 20
11.4961
 30
0.0
 40
0
 41
0
  0
VERTEX
  8
0
 10
5.74701
 20
11.6535
 30
0.0
 40
0
 41
0
  0
VERTEX
  8
0
 10
5.43201
 20
11.6535
 30
0.0
 40
0
 41
0
  0
VERTEX
  8
0
 10
5.43201
 20
11.4961
 30
0.0
 40
0
 41
0
  0
VERTEX
  8
0
 10
4.80208
 20
11.4961
 30
0.0
 40
0
 41
0
  0
VERTEX
  8
0
 10
4.80208
 20
11.6535
 30
0.0
 40
0
 41
0
  0
VERTEX
  8
0
 10
4.48714
 20
11.6535
 30
0.0
 40
0
 41
0
  0
VERTEX
  8
0
 10
4.48714
 20
11.4961
 30
0.0
 40
0
 41
0
  0
VERTEX
  8
0
 10
4.32964
 20
11.4961
 30
0.0
 40
0
 41
0
  0
VERTEX
  8
0
 10
4.32964
 20
11.4961
 30
0.0
 40
0
 41
0
  0
VERTEX
  8
0
 10
4.16297
 20
11.4793
 30
0.0
 40
0
 41
0
  0
VERTEX
  8
0
 10
4.00781
 20
11.4312
 30
0.0
 40
0
 41
0
  0
VERTEX
  8
0
 10
3.86735
 20
11.3549
 30
0.0
 40
0
 41
0
  0
VERTEX
  8
0
 10
3.74501
 20
11.254
 30
0.0
 40
0
 41
0
  0
VERTEX
  8
0
 10
3.64404
 20
11.1316
 30
0.0
 40
0
 41
0
  0
VERTEX
  8
0
 10
3.56782
 20
10.9912
 30
0.0
 40
0
 41
0
  0
VERTEX
  8
0
 10
3.51964
 20
10.836
 30
0.0
 40
0
 41
0
  0
VERTEX
  8
0
 10
3.50288
 20
10.6693
 30
0.0
 40
0
 41
0
  0
SEQEND
 8
0
  0
POLYLINE
  8
0
 62
     0
 66
     1
 10
0
 20
0
 30
0.0
 40
0
 41
0
  0
VERTEX
  8
0
 10
3.50288
 20
10.6693
 30
0.0
 40
0
 41
0
  0
VERTEX
  8
0
 10
3.50288
 20
10.5118
 30
0.0
 40
0
 41
0
  0
VERTEX
  8
0
 10
3.34543
 20
10.5118
 30
0.0
 40
0
 41
0
  0
VERTEX
  8
0
 10
3.34543
 20
10.3543
 30
0.0
 40
0
 41
0
  0
VERTEX
  8
0
 10
3.50288
 20
10.3543
 30
0.0
 40
0
 41
0
  0
VERTEX
  8
0
 10
3.50288
 20
10.1969
 30
0.0
 40
0
 41
0
  0
VERTEX
  8
0
 10
3.34543
 20
10.1969
 30
0.0
 40
0
 41
0
  0
VERTEX
  8
0
 10
3.34543
 20
10.0394
 30
0.0
 40
0
 41
0
  0
VERTEX
  8
0
 10
3.50288
 20
10.0394
 30
0.0
 40
0
 41
0
  0
VERTEX
  8
0
 10
3.50288
 20
9.88189
 30
0.0
 40
0
 41
0
  0
SEQEND
 8
0
  0
POLYLINE
  8
0
 62
     0
 66
     1
 10
0
 20
0
 30
0.0
 40
0
 41
0
  0
VERTEX
  8
0
 10
3.50288
 20
9.88189
 30
0.0
 40
0
 41
0
  0
VERTEX
  8
0
 10
3.51964
 20
9.71528
 30
0.0
 40
0
 41
0
  0
VERTEX
  8
0
 10
3.56782
 20
9.56011
 30
0.0
 40
0
 41
0
  0
VERTEX
  8
0
 10
3.64404
 20
9.41965
 30
0.0
 40
0
 41
0
  0
VERTEX
  8
0
 10
3.74501
 20
9.29731
 30
0.0
 40
0
 41
0
  0
VERTEX
  8
0
 10
3.86735
 20
9.19635
 30
0.0
 40
0
 41
0
  0
VERTEX
  8
0
 10
4.00781
 20
9.12011
 30
0.0
 40
0
 41
0
  0
VERTEX
  8
0
 10
4.16297
 20
9.07194
 30
0.0
 40
0
 41
0
  0
VERTEX
  8
0
 10
4.32964
 20
9.05512
 30
0.0
 40
0
 41
0
  0
SEQEND
 8
0
  0
POLYLINE
  8
0
 62
     0
 66
     1
 10
0
 20
0
 30
0.0
 40
0
 41
0
  0
VERTEX
  8
0
 10
5.90446
 20
7.08664
 30
0.0
 40
0
 41
0
  0
VERTEX
  8
0
 10
5.58951
 20
7.08664
 30
0.0
 40
0
 41
0
  0
VERTEX
  8
0
 10
5.58951
 20
7.24408
 30
0.0
 40
0
 41
0
  0
VERTEX
  8
0
 10
5.27458
 20
7.24408
 30
0.0
 40
0
 41
0
  0
VERTEX
  8
0
 10
5.27458
 20
7.08664
 30
0.0
 40
0
 41
0
  0
VERTEX
  8
0
 10
4.95958
 20
7.08664
 30
0.0
 40
0
 41
0
  0
VERTEX
  8
0
 10
4.95958
 20
7.24408
 30
0.0
 40
0
 41
0
  0
VERTEX
  8
0
 10
4.64464
 20
7.24408
 30
0.0
 40
0
 41
0
  0
VERTEX
  8
0
 10
4.64464
 20
7.08664
 30
0.0
 40
0
 41
0
  0
VERTEX
  8
0
 10
4.32964
 20
7.08664
 30
0.0
 40
0
 41
0
  0
SEQEND
 8
0
  0
POLYLINE
  8
0
 62
     0
 66
     1
 10
0
 20
0
 30
0.0
 40
0
 41
0
  0
VERTEX
  8
0
 10
4.32964
 20
7.08664
 30
0.0
 40
0
 41
0
  0
VERTEX
  8
0
 10
4.32964
 20
7.08664
 30
0.0
 40
0
 41
0
  0
VERTEX
  8
0
 10
4.16297
 20
7.06988
 30
0.0
 40
0
 41
0
  0
VERTEX
  8
0
 10
4.00781
 20
7.02169
 30
0.0
 40
0
 41
0
  0
VERTEX
  8
0
 10
3.86735
 20
6.94547
 30
0.0
 40
0
 41
0
  0
VERTEX
  8
0
 10
3.74501
 20
6.84451
 30
0.0
 40
0
 41
0
  0
VERTEX
  8
0
 10
3.64404
 20
6.72217
 30
0.0
 40
0
 41
0
  0
VERTEX
  8
0
 10
3.56782
 20
6.58171
 30
0.0
 40
0
 41
0
  0
VERTEX
  8
0
 10
3.51964
 20
6.42654
 30
0.0
 40
0
 41
0
  0
VERTEX
  8
0
 10
3.50288
 20
6.25988
 30
0.0
 40
0
 41
0
  0
SEQEND
 8
0
  0
POLYLINE
  8
0
 62
     0
 66
     1
 10
0
 20
0
 30
0.0
 40
0
 41
0
  0
VERTEX
  8
0
 10
3.50288
 20
6.25988
 30
0.0
 40
0
 41
0
  0
VERTEX
  8
0
 10
3.50288
 20
6.10238
 30
0.0
 40
0
 41
0
  0
VERTEX
  8
0
 10
3.34543
 20
6.10238
 30
0.0
 40
0
 41
0
  0
VERTEX
  8
0
 10
3.34543
 20
5.94488
 30
0.0
 40
0
 41
0
  0
VERTEX
  8
0
 10
3.50288
 20
5.94488
 30
0.0
 40
0
 41
0
  0
VERTEX
  8
0
 10
3.50288
 20
5.78743
 30
0.0
 40
0
 41
0
  0
VERTEX
  8
0
 10
3.34543
 20
5.78743
 30
0.0
 40
0
 41
0
  0
VERTEX
  8
0
 10
3.34543
 20
5.62993
 30
0.0
 40
0
 41
0
  0
VERTEX
  8
0
 10
3.50288
 20
5.62993
 30
0.0
 40
0
 41
0
  0
VERTEX
  8
0
 10
3.50288
 20
5.47244
 30
0.0
 40
0
 41
0
  0
SEQEND
 8
0
  0
POLYLINE
  8
0
 62
     0
 66
     1
 10
0
 20
0
 30
0.0
 40
0
 41
0
  0
VERTEX
  8
0
 10
3.50288
 20
5.47244
 30
0.0
 40
0
 41
0
  0
VERTEX
  8
0
 10
3.51964
 20
5.30583
 30
0.0
 40
0
 41
0
  0
VERTEX
  8
0
 10
3.56782
 20
5.15067
 30
0.0
 40
0
 41
0
  0
VERTEX
  8
0
 10
3.64404
 20
5.01019
 30
0.0
 40
0
 41
0
  0
VERTEX
  8
0
 10
3.74501
 20
4.88786
 30
0.0
 40
0
 41
0
  0
VERTEX
  8
0
 10
3.86735
 20
4.78689
 30
0.0
 40
0
 41
0
  0
VERTEX
  8
0
 10
4.00781
 20
4.71067
 30
0.0
 40
0
 41
0
  0
VERTEX
  8
0
 10
4.16297
 20
4.66249
 30
0.0
 40
0
 41
0
  0
VERTEX
  8
0
 10
4.32964
 20
4.64567
 30
0.0
 40
0
 41
0
  0
VERTEX
  8
0
 10
4.48714
 20
4.64567
 30
0.0
 40
0
 41
0
  0
VERTEX
  8
0
 10
4.48714
 20
4.48817
 30
0.0
 40
0
 41
0
  0
VERTEX
  8
0
 10
4.80208
 20
4.48817
 30
0.0
 40
0
 41
0
  0
VERTEX
  8
0
 10
4.80208
 20
4.64567
 30
0.0
 40
0
 41
0
  0
VERTEX
  8
0
 10
5.43201
 20
4.64567
 30
0.0
 40
0
 41
0
  0
VERTEX
  8
0
 10
5.43201
 20
4.48817
 30
0.0
 40
0
 41
0
  0
VERTEX
  8
0
 10
5.74701
 20
4.48817
 30
0.0
 40
0
 41
0
  0
VERTEX
  8
0
 10
5.74701
 20
4.64567
 30
0.0
 40
0
 41
0
  0
VERTEX
  8
0
 10
5.90446
 20
4.64567
 30
0.0
 40
0
 41
0
  0
VERTEX
  8
0
 10
5.90446
 20
4.64567
 30
0.0
 40
0
 41
0
  0
VERTEX
  8
0
 10
6.07107
 20
4.66249
 30
0.0
 40
0
 41
0
  0
VERTEX
  8
0
 10
6.22624
 20
4.71067
 30
0.0
 40
0
 41
0
  0
VERTEX
  8
0
 10
6.36669
 20
4.78689
 30
0.0
 40
0
 41
0
  0
VERTEX
  8
0
 10
6.48904
 20
4.88786
 30
0.0
 40
0
 41
0
  0
VERTEX
  8
0
 10
6.59
 20
5.01019
 30
0.0
 40
0
 41
0
  0
VERTEX
  8
0
 10
6.66624
 20
5.15067
 30
0.0
 40
0
 41
0
  0
VERTEX
  8
0
 10
6.71442
 20
5.30583
 30
0.0
 40
0
 41
0
  0
VERTEX
  8
0
 10
6.73122
 20
5.47244
 30
0.0
 40
0
 41
0
  0
SEQEND
 8
0
  0
POLYLINE
  8
0
 62
     0
 66
     1
 10
0
 20
0
 30
0.0
 40
0
 41
0
  0
VERTEX
  8
0
 10
6.73122
 20
5.47244
 30
0.0
 40
0
 41
0
  0
VERTEX
  8
0
 10
6.73122
 20
5.62993
 30
0.0
 40
0
 41
0
  0
VERTEX
  8
0
 10
6.88872
 20
5.62993
 30
0.0
 40
0
 41
0
  0
VERTEX
  8
0
 10
6.88872
 20
5.78743
 30
0.0
 40
0
 41
0
  0
VERTEX
  8
0
 10
6.73122
 20
5.78743
 30
0.0
 40
0
 41
0
  0
VERTEX
  8
0
 10
6.73122
 20
5.94488
 30
0.0
 40
0
 41
0
  0
VERTEX
  8
0
 10
6.88872
 20
5.94488
 30
0.0
 40
0
 41
0
  0
VERTEX
  8
0
 10
6.88872
 20
6.10238
 30
0.0
 40
0
 41
0
  0
VERTEX
  8
0
 10
6.73122
 20
6.10238
 30
0.0
 40
0
 41
0
  0
VERTEX
  8
0
 10
6.73122
 20
6.25988
 30
0.0
 40
0
 41
0
  0
SEQEND
 8
0
  0
POLYLINE
  8
0
 62
     0
 66
     1
 10
0
 20
0
 30
0.0
 40
0
 41
0
  0
VERTEX
  8
0
 10
6.73122
 20
6.25988
 30
0.0
 40
0
 41
0
  0
VERTEX
  8
0
 10
6.71442
 20
6.42654
 30
0.0
 40
0
 41
0
  0
VERTEX
  8
0
 10
6.66624
 20
6.58171
 30
0.0
 40
0
 41
0
  0
VERTEX
  8
0
 10
6.59
 20
6.72217
 30
0.0
 40
0
 41
0
  0
VERTEX
  8
0
 10
6.48904
 20
6.84451
 30
0.0
 40
0
 41
0
  0
VERTEX
  8
0
 10
6.36669
 20
6.94547
 30
0.0
 40
0
 41
0
  0
VERTEX
  8
0
 10
6.22624
 20
7.02169
 30
0.0
 40
0
 41
0
  0
VERTEX
  8
0
 10
6.07107
 20
7.06988
 30
0.0
 40
0
 41
0
  0
VERTEX
  8
0
 10
5.90446
 20
7.08664
 30
0.0
 40
0
 41
0
  0
SEQEND
 8
0
  0
POLYLINE
  8
0
 62
     1
 66
     1
 10
0
 20
0
 30
0.0
 70
     1
 40
0
 41
0
  0
VERTEX
  8
0
 10
0.157497
 20
12.0472
 30
0.0
 40
0
 41
0
  0
VERTEX
  8
0
 10
19.8425
 20
12.0472
 30
0.0
 40
0
 41
0
  0
VERTEX
  8
0
 10
19.8425
 20
0.236219
 30
0.0
 40
0
 41
0
  0
VERTEX
  8
0
 10
0.157497
 20
0.236219
 30
0.0
 40
0
 41
0
  0
VERTEX
  8
0
 10
0.157497
 20
12.0472
 30
0.0
 40
0
 41
0
  0
SEQEND
 8
0
  0
ENDSEC
  0
EOF
