  0
SECTION
  2
HEADER
  9
$ACADVER
  1
AC1009
  9
$EXTMIN
 10
0.0
 20
0.0
 30
0.0
  9
$EXTMAX
 10
1000.0
 20
1000.0
 30
0.0
  9
$FILLMODE
 70
 0
  9
$SPLFRAME
 70
 1
  0
ENDSEC
  0
SECTION
  2
TABLES
  0
TABLE
  2
LAYER
 70
1
  0
LAYER
  2
0
 70
     0
 62
     7
  6
CONTINUOUS
  0
ENDTAB
  0
ENDSEC
  0
SECTION
  2
ENTITIES
  0
POLYLINE
  8
0
 62
     0
 66
     1
 10
0
 20
0
 30
0.0
 40
0
 41
0
  0
VERTEX
  8
0
 10
0.748047
 20
5.19683
 30
0.0
 40
0
 41
0
  0
VERTEX
  8
0
 10
0.748047
 20
6.22049
 30
0.0
 40
0
 41
0
  0
SEQEND
 8
0
  0
POLYLINE
  8
0
 62
     0
 66
     1
 10
0
 20
0
 30
0.0
 40
0
 41
0
  0
VERTEX
  8
0
 10
0.748047
 20
6.37799
 30
0.0
 40
0
 41
0
  0
VERTEX
  8
0
 10
0.748047
 20
7.40158
 30
0.0
 40
0
 41
0
  0
SEQEND
 8
0
  0
POLYLINE
  8
0
 62
     0
 66
     1
 10
0
 20
0
 30
0.0
 40
0
 41
0
  0
VERTEX
  8
0
 10
0.827528
 20
7.48031
 30
0.0
 40
0
 41
0
  0
VERTEX
  8
0
 10
0.827528
 20
6.96853
 30
0.0
 40
0
 41
0
  0
SEQEND
 8
0
  0
POLYLINE
  8
0
 62
     0
 66
     1
 10
0
 20
0
 30
0.0
 40
0
 41
0
  0
VERTEX
  8
0
 10
0.827528
 20
6.81104
 30
0.0
 40
0
 41
0
  0
VERTEX
  8
0
 10
0.827528
 20
5.78743
 30
0.0
 40
0
 41
0
  0
SEQEND
 8
0
  0
POLYLINE
  8
0
 62
     0
 66
     1
 10
0
 20
0
 30
0.0
 40
0
 41
0
  0
VERTEX
  8
0
 10
0.827528
 20
5.62993
 30
0.0
 40
0
 41
0
  0
VERTEX
  8
0
 10
0.827528
 20
5.11811
 30
0.0
 40
0
 41
0
  0
SEQEND
 8
0
  0
POLYLINE
  8
0
 62
     0
 66
     1
 10
0
 20
0
 30
0.0
 40
0
 41
0
  0
VERTEX
  8
0
 10
0.907064
 20
5.19683
 30
0.0
 40
0
 41
0
  0
VERTEX
  8
0
 10
0.907064
 20
6.22049
 30
0.0
 40
0
 41
0
  0
SEQEND
 8
0
  0
POLYLINE
  8
0
 62
     0
 66
     1
 10
0
 20
0
 30
0.0
 40
0
 41
0
  0
VERTEX
  8
0
 10
0.907064
 20
6.37799
 30
0.0
 40
0
 41
0
  0
VERTEX
  8
0
 10
0.907064
 20
7.40158
 30
0.0
 40
0
 41
0
  0
SEQEND
 8
0
  0
POLYLINE
  8
0
 62
     0
 66
     1
 10
0
 20
0
 30
0.0
 40
0
 41
0
  0
VERTEX
  8
0
 10
0.986544
 20
7.48031
 30
0.0
 40
0
 41
0
  0
VERTEX
  8
0
 10
0.986544
 20
6.96853
 30
0.0
 40
0
 41
0
  0
SEQEND
 8
0
  0
POLYLINE
  8
0
 62
     0
 66
     1
 10
0
 20
0
 30
0.0
 40
0
 41
0
  0
VERTEX
  8
0
 10
0.986544
 20
6.81104
 30
0.0
 40
0
 41
0
  0
VERTEX
  8
0
 10
0.986544
 20
5.78743
 30
0.0
 40
0
 41
0
  0
SEQEND
 8
0
  0
POLYLINE
  8
0
 62
     0
 66
     1
 10
0
 20
0
 30
0.0
 40
0
 41
0
  0
VERTEX
  8
0
 10
0.986544
 20
5.62993
 30
0.0
 40
0
 41
0
  0
VERTEX
  8
0
 10
0.986544
 20
5.11811
 30
0.0
 40
0
 41
0
  0
SEQEND
 8
0
  0
POLYLINE
  8
0
 62
     0
 66
     1
 10
0
 20
0
 30
0.0
 40
0
 41
0
  0
VERTEX
  8
0
 10
1.06608
 20
5.19683
 30
0.0
 40
0
 41
0
  0
VERTEX
  8
0
 10
1.06608
 20
6.22049
 30
0.0
 40
0
 41
0
  0
SEQEND
 8
0
  0
POLYLINE
  8
0
 62
     0
 66
     1
 10
0
 20
0
 30
0.0
 40
0
 41
0
  0
VERTEX
  8
0
 10
1.06608
 20
6.37799
 30
0.0
 40
0
 41
0
  0
VERTEX
  8
0
 10
1.06608
 20
7.40158
 30
0.0
 40
0
 41
0
  0
SEQEND
 8
0
  0
POLYLINE
  8
0
 62
     0
 66
     1
 10
0
 20
0
 30
0.0
 40
0
 41
0
  0
VERTEX
  8
0
 10
1.14562
 20
7.48031
 30
0.0
 40
0
 41
0
  0
VERTEX
  8
0
 10
1.14562
 20
6.96853
 30
0.0
 40
0
 41
0
  0
SEQEND
 8
0
  0
POLYLINE
  8
0
 62
     0
 66
     1
 10
0
 20
0
 30
0.0
 40
0
 41
0
  0
VERTEX
  8
0
 10
1.14562
 20
6.81104
 30
0.0
 40
0
 41
0
  0
VERTEX
  8
0
 10
1.14562
 20
5.78743
 30
0.0
 40
0
 41
0
  0
SEQEND
 8
0
  0
POLYLINE
  8
0
 62
     0
 66
     1
 10
0
 20
0
 30
0.0
 40
0
 41
0
  0
VERTEX
  8
0
 10
1.14562
 20
5.62993
 30
0.0
 40
0
 41
0
  0
VERTEX
  8
0
 10
1.14562
 20
5.11811
 30
0.0
 40
0
 41
0
  0
SEQEND
 8
0
  0
POLYLINE
  8
0
 62
     0
 66
     1
 10
0
 20
0
 30
0.0
 40
0
 41
0
  0
VERTEX
  8
0
 10
1.2251
 20
5.19683
 30
0.0
 40
0
 41
0
  0
VERTEX
  8
0
 10
1.2251
 20
6.22049
 30
0.0
 40
0
 41
0
  0
SEQEND
 8
0
  0
POLYLINE
  8
0
 62
     0
 66
     1
 10
0
 20
0
 30
0.0
 40
0
 41
0
  0
VERTEX
  8
0
 10
1.2251
 20
6.37799
 30
0.0
 40
0
 41
0
  0
VERTEX
  8
0
 10
1.2251
 20
7.40158
 30
0.0
 40
0
 41
0
  0
SEQEND
 8
0
  0
POLYLINE
  8
0
 62
     0
 66
     1
 10
0
 20
0
 30
0.0
 40
0
 41
0
  0
VERTEX
  8
0
 10
1.30463
 20
7.48031
 30
0.0
 40
0
 41
0
  0
VERTEX
  8
0
 10
1.30463
 20
6.96853
 30
0.0
 40
0
 41
0
  0
SEQEND
 8
0
  0
POLYLINE
  8
0
 62
     0
 66
     1
 10
0
 20
0
 30
0.0
 40
0
 41
0
  0
VERTEX
  8
0
 10
1.30463
 20
6.81104
 30
0.0
 40
0
 41
0
  0
VERTEX
  8
0
 10
1.30463
 20
5.78743
 30
0.0
 40
0
 41
0
  0
SEQEND
 8
0
  0
POLYLINE
  8
0
 62
     0
 66
     1
 10
0
 20
0
 30
0.0
 40
0
 41
0
  0
VERTEX
  8
0
 10
1.30463
 20
5.62993
 30
0.0
 40
0
 41
0
  0
VERTEX
  8
0
 10
1.30463
 20
5.11811
 30
0.0
 40
0
 41
0
  0
SEQEND
 8
0
  0
POLYLINE
  8
0
 62
     0
 66
     1
 10
0
 20
0
 30
0.0
 40
0
 41
0
  0
VERTEX
  8
0
 10
1.38411
 20
5.19683
 30
0.0
 40
0
 41
0
  0
VERTEX
  8
0
 10
1.38411
 20
6.22049
 30
0.0
 40
0
 41
0
  0
SEQEND
 8
0
  0
POLYLINE
  8
0
 62
     0
 66
     1
 10
0
 20
0
 30
0.0
 40
0
 41
0
  0
VERTEX
  8
0
 10
1.38411
 20
6.37799
 30
0.0
 40
0
 41
0
  0
VERTEX
  8
0
 10
1.38411
 20
7.40158
 30
0.0
 40
0
 41
0
  0
SEQEND
 8
0
  0
POLYLINE
  8
0
 62
     0
 66
     1
 10
0
 20
0
 30
0.0
 40
0
 41
0
  0
VERTEX
  8
0
 10
1.46365
 20
7.48031
 30
0.0
 40
0
 41
0
  0
VERTEX
  8
0
 10
1.46365
 20
6.96853
 30
0.0
 40
0
 41
0
  0
SEQEND
 8
0
  0
POLYLINE
  8
0
 62
     0
 66
     1
 10
0
 20
0
 30
0.0
 40
0
 41
0
  0
VERTEX
  8
0
 10
1.46365
 20
6.81104
 30
0.0
 40
0
 41
0
  0
VERTEX
  8
0
 10
1.46365
 20
5.78743
 30
0.0
 40
0
 41
0
  0
SEQEND
 8
0
  0
POLYLINE
  8
0
 62
     0
 66
     1
 10
0
 20
0
 30
0.0
 40
0
 41
0
  0
VERTEX
  8
0
 10
1.46365
 20
5.62993
 30
0.0
 40
0
 41
0
  0
VERTEX
  8
0
 10
1.46365
 20
5.11811
 30
0.0
 40
0
 41
0
  0
SEQEND
 8
0
  0
POLYLINE
  8
0
 62
     0
 66
     1
 10
0
 20
0
 30
0.0
 40
0
 41
0
  0
VERTEX
  8
0
 10
1.54313
 20
5.19683
 30
0.0
 40
0
 41
0
  0
VERTEX
  8
0
 10
1.54313
 20
6.22049
 30
0.0
 40
0
 41
0
  0
SEQEND
 8
0
  0
POLYLINE
  8
0
 62
     0
 66
     1
 10
0
 20
0
 30
0.0
 40
0
 41
0
  0
VERTEX
  8
0
 10
1.54313
 20
6.37799
 30
0.0
 40
0
 41
0
  0
VERTEX
  8
0
 10
1.54313
 20
7.40158
 30
0.0
 40
0
 41
0
  0
SEQEND
 8
0
  0
POLYLINE
  8
0
 62
     0
 66
     1
 10
0
 20
0
 30
0.0
 40
0
 41
0
  0
VERTEX
  8
0
 10
1.62267
 20
7.48031
 30
0.0
 40
0
 41
0
  0
VERTEX
  8
0
 10
1.62267
 20
6.96853
 30
0.0
 40
0
 41
0
  0
SEQEND
 8
0
  0
POLYLINE
  8
0
 62
     0
 66
     1
 10
0
 20
0
 30
0.0
 40
0
 41
0
  0
VERTEX
  8
0
 10
1.62267
 20
6.81104
 30
0.0
 40
0
 41
0
  0
VERTEX
  8
0
 10
1.62267
 20
5.78743
 30
0.0
 40
0
 41
0
  0
SEQEND
 8
0
  0
POLYLINE
  8
0
 62
     0
 66
     1
 10
0
 20
0
 30
0.0
 40
0
 41
0
  0
VERTEX
  8
0
 10
1.62267
 20
5.62993
 30
0.0
 40
0
 41
0
  0
VERTEX
  8
0
 10
1.62267
 20
5.11811
 30
0.0
 40
0
 41
0
  0
SEQEND
 8
0
  0
POLYLINE
  8
0
 62
     0
 66
     1
 10
0
 20
0
 30
0.0
 40
0
 41
0
  0
VERTEX
  8
0
 10
1.70215
 20
5.19683
 30
0.0
 40
0
 41
0
  0
VERTEX
  8
0
 10
1.70215
 20
6.22049
 30
0.0
 40
0
 41
0
  0
SEQEND
 8
0
  0
POLYLINE
  8
0
 62
     0
 66
     1
 10
0
 20
0
 30
0.0
 40
0
 41
0
  0
VERTEX
  8
0
 10
1.70215
 20
6.37799
 30
0.0
 40
0
 41
0
  0
VERTEX
  8
0
 10
1.70215
 20
7.40158
 30
0.0
 40
0
 41
0
  0
SEQEND
 8
0
  0
POLYLINE
  8
0
 62
     0
 66
     1
 10
0
 20
0
 30
0.0
 40
0
 41
0
  0
VERTEX
  8
0
 10
1.78168
 20
7.48031
 30
0.0
 40
0
 41
0
  0
VERTEX
  8
0
 10
1.78168
 20
6.96853
 30
0.0
 40
0
 41
0
  0
SEQEND
 8
0
  0
POLYLINE
  8
0
 62
     0
 66
     1
 10
0
 20
0
 30
0.0
 40
0
 41
0
  0
VERTEX
  8
0
 10
1.78168
 20
6.81104
 30
0.0
 40
0
 41
0
  0
VERTEX
  8
0
 10
1.78168
 20
5.78743
 30
0.0
 40
0
 41
0
  0
SEQEND
 8
0
  0
POLYLINE
  8
0
 62
     0
 66
     1
 10
0
 20
0
 30
0.0
 40
0
 41
0
  0
VERTEX
  8
0
 10
1.78168
 20
5.62993
 30
0.0
 40
0
 41
0
  0
VERTEX
  8
0
 10
1.78168
 20
5.11811
 30
0.0
 40
0
 41
0
  0
SEQEND
 8
0
  0
POLYLINE
  8
0
 62
     0
 66
     1
 10
0
 20
0
 30
0.0
 40
0
 41
0
  0
VERTEX
  8
0
 10
1.86122
 20
5.19683
 30
0.0
 40
0
 41
0
  0
VERTEX
  8
0
 10
1.86122
 20
6.22049
 30
0.0
 40
0
 41
0
  0
SEQEND
 8
0
  0
POLYLINE
  8
0
 62
     0
 66
     1
 10
0
 20
0
 30
0.0
 40
0
 41
0
  0
VERTEX
  8
0
 10
1.86122
 20
6.37799
 30
0.0
 40
0
 41
0
  0
VERTEX
  8
0
 10
1.86122
 20
7.40158
 30
0.0
 40
0
 41
0
  0
SEQEND
 8
0
  0
POLYLINE
  8
0
 62
     0
 66
     1
 10
0
 20
0
 30
0.0
 40
0
 41
0
  0
VERTEX
  8
0
 10
1.94069
 20
7.48031
 30
0.0
 40
0
 41
0
  0
VERTEX
  8
0
 10
1.94069
 20
6.96853
 30
0.0
 40
0
 41
0
  0
SEQEND
 8
0
  0
POLYLINE
  8
0
 62
     0
 66
     1
 10
0
 20
0
 30
0.0
 40
0
 41
0
  0
VERTEX
  8
0
 10
1.94069
 20
6.81104
 30
0.0
 40
0
 41
0
  0
VERTEX
  8
0
 10
1.94069
 20
5.78743
 30
0.0
 40
0
 41
0
  0
SEQEND
 8
0
  0
POLYLINE
  8
0
 62
     0
 66
     1
 10
0
 20
0
 30
0.0
 40
0
 41
0
  0
VERTEX
  8
0
 10
1.94069
 20
5.62993
 30
0.0
 40
0
 41
0
  0
VERTEX
  8
0
 10
1.94069
 20
5.11811
 30
0.0
 40
0
 41
0
  0
SEQEND
 8
0
  0
POLYLINE
  8
0
 62
     0
 66
     1
 10
0
 20
0
 30
0.0
 40
0
 41
0
  0
VERTEX
  8
0
 10
2.02024
 20
5.19683
 30
0.0
 40
0
 41
0
  0
VERTEX
  8
0
 10
2.02024
 20
6.22049
 30
0.0
 40
0
 41
0
  0
SEQEND
 8
0
  0
POLYLINE
  8
0
 62
     0
 66
     1
 10
0
 20
0
 30
0.0
 40
0
 41
0
  0
VERTEX
  8
0
 10
2.02024
 20
6.37799
 30
0.0
 40
0
 41
0
  0
VERTEX
  8
0
 10
2.02024
 20
7.40158
 30
0.0
 40
0
 41
0
  0
SEQEND
 8
0
  0
POLYLINE
  8
0
 62
     0
 66
     1
 10
0
 20
0
 30
0.0
 40
0
 41
0
  0
VERTEX
  8
0
 10
2.09972
 20
7.48031
 30
0.0
 40
0
 41
0
  0
VERTEX
  8
0
 10
2.09972
 20
6.96853
 30
0.0
 40
0
 41
0
  0
SEQEND
 8
0
  0
POLYLINE
  8
0
 62
     0
 66
     1
 10
0
 20
0
 30
0.0
 40
0
 41
0
  0
VERTEX
  8
0
 10
2.09972
 20
6.81104
 30
0.0
 40
0
 41
0
  0
VERTEX
  8
0
 10
2.09972
 20
5.78743
 30
0.0
 40
0
 41
0
  0
SEQEND
 8
0
  0
POLYLINE
  8
0
 62
     0
 66
     1
 10
0
 20
0
 30
0.0
 40
0
 41
0
  0
VERTEX
  8
0
 10
2.09972
 20
5.62993
 30
0.0
 40
0
 41
0
  0
VERTEX
  8
0
 10
2.09972
 20
5.11811
 30
0.0
 40
0
 41
0
  0
SEQEND
 8
0
  0
POLYLINE
  8
0
 62
     0
 66
     1
 10
0
 20
0
 30
0.0
 40
0
 41
0
  0
VERTEX
  8
0
 10
2.17925
 20
5.19683
 30
0.0
 40
0
 41
0
  0
VERTEX
  8
0
 10
2.17925
 20
6.22049
 30
0.0
 40
0
 41
0
  0
SEQEND
 8
0
  0
POLYLINE
  8
0
 62
     0
 66
     1
 10
0
 20
0
 30
0.0
 40
0
 41
0
  0
VERTEX
  8
0
 10
2.17925
 20
6.37799
 30
0.0
 40
0
 41
0
  0
VERTEX
  8
0
 10
2.17925
 20
7.40158
 30
0.0
 40
0
 41
0
  0
SEQEND
 8
0
  0
POLYLINE
  8
0
 62
     0
 66
     1
 10
0
 20
0
 30
0.0
 40
0
 41
0
  0
VERTEX
  8
0
 10
2.25874
 20
7.48031
 30
0.0
 40
0
 41
0
  0
VERTEX
  8
0
 10
2.25874
 20
6.96853
 30
0.0
 40
0
 41
0
  0
SEQEND
 8
0
  0
POLYLINE
  8
0
 62
     0
 66
     1
 10
0
 20
0
 30
0.0
 40
0
 41
0
  0
VERTEX
  8
0
 10
2.25874
 20
6.81104
 30
0.0
 40
0
 41
0
  0
VERTEX
  8
0
 10
2.25874
 20
5.78743
 30
0.0
 40
0
 41
0
  0
SEQEND
 8
0
  0
POLYLINE
  8
0
 62
     0
 66
     1
 10
0
 20
0
 30
0.0
 40
0
 41
0
  0
VERTEX
  8
0
 10
2.25874
 20
5.62993
 30
0.0
 40
0
 41
0
  0
VERTEX
  8
0
 10
2.25874
 20
5.11811
 30
0.0
 40
0
 41
0
  0
SEQEND
 8
0
  0
POLYLINE
  8
0
 62
     0
 66
     1
 10
0
 20
0
 30
0.0
 40
0
 41
0
  0
VERTEX
  8
0
 10
2.33826
 20
5.19683
 30
0.0
 40
0
 41
0
  0
VERTEX
  8
0
 10
2.33826
 20
6.22049
 30
0.0
 40
0
 41
0
  0
SEQEND
 8
0
  0
POLYLINE
  8
0
 62
     0
 66
     1
 10
0
 20
0
 30
0.0
 40
0
 41
0
  0
VERTEX
  8
0
 10
2.33826
 20
6.37799
 30
0.0
 40
0
 41
0
  0
VERTEX
  8
0
 10
2.33826
 20
7.40158
 30
0.0
 40
0
 41
0
  0
SEQEND
 8
0
  0
POLYLINE
  8
0
 62
     0
 66
     1
 10
0
 20
0
 30
0.0
 40
0
 41
0
  0
VERTEX
  8
0
 10
2.41775
 20
7.48031
 30
0.0
 40
0
 41
0
  0
VERTEX
  8
0
 10
2.41775
 20
6.96853
 30
0.0
 40
0
 41
0
  0
SEQEND
 8
0
  0
POLYLINE
  8
0
 62
     0
 66
     1
 10
0
 20
0
 30
0.0
 40
0
 41
0
  0
VERTEX
  8
0
 10
2.41775
 20
6.81104
 30
0.0
 40
0
 41
0
  0
VERTEX
  8
0
 10
2.41775
 20
5.78743
 30
0.0
 40
0
 41
0
  0
SEQEND
 8
0
  0
POLYLINE
  8
0
 62
     0
 66
     1
 10
0
 20
0
 30
0.0
 40
0
 41
0
  0
VERTEX
  8
0
 10
2.41775
 20
5.62993
 30
0.0
 40
0
 41
0
  0
VERTEX
  8
0
 10
2.41775
 20
5.11811
 30
0.0
 40
0
 41
0
  0
SEQEND
 8
0
  0
POLYLINE
  8
0
 62
     0
 66
     1
 10
0
 20
0
 30
0.0
 40
0
 41
0
  0
VERTEX
  8
0
 10
2.49729
 20
5.19683
 30
0.0
 40
0
 41
0
  0
VERTEX
  8
0
 10
2.49729
 20
6.22049
 30
0.0
 40
0
 41
0
  0
SEQEND
 8
0
  0
POLYLINE
  8
0
 62
     0
 66
     1
 10
0
 20
0
 30
0.0
 40
0
 41
0
  0
VERTEX
  8
0
 10
2.49729
 20
6.37799
 30
0.0
 40
0
 41
0
  0
VERTEX
  8
0
 10
2.49729
 20
7.40158
 30
0.0
 40
0
 41
0
  0
SEQEND
 8
0
  0
POLYLINE
  8
0
 62
     0
 66
     1
 10
0
 20
0
 30
0.0
 40
0
 41
0
  0
VERTEX
  8
0
 10
2.57682
 20
7.48031
 30
0.0
 40
0
 41
0
  0
VERTEX
  8
0
 10
2.57682
 20
6.96853
 30
0.0
 40
0
 41
0
  0
SEQEND
 8
0
  0
POLYLINE
  8
0
 62
     0
 66
     1
 10
0
 20
0
 30
0.0
 40
0
 41
0
  0
VERTEX
  8
0
 10
2.57682
 20
6.81104
 30
0.0
 40
0
 41
0
  0
VERTEX
  8
0
 10
2.57682
 20
5.78743
 30
0.0
 40
0
 41
0
  0
SEQEND
 8
0
  0
POLYLINE
  8
0
 62
     0
 66
     1
 10
0
 20
0
 30
0.0
 40
0
 41
0
  0
VERTEX
  8
0
 10
2.57682
 20
5.62993
 30
0.0
 40
0
 41
0
  0
VERTEX
  8
0
 10
2.57682
 20
5.11811
 30
0.0
 40
0
 41
0
  0
SEQEND
 8
0
  0
POLYLINE
  8
0
 62
     0
 66
     1
 10
0
 20
0
 30
0.0
 40
0
 41
0
  0
VERTEX
  8
0
 10
2.65631
 20
5.19683
 30
0.0
 40
0
 41
0
  0
VERTEX
  8
0
 10
2.65631
 20
6.22049
 30
0.0
 40
0
 41
0
  0
SEQEND
 8
0
  0
POLYLINE
  8
0
 62
     0
 66
     1
 10
0
 20
0
 30
0.0
 40
0
 41
0
  0
VERTEX
  8
0
 10
2.65631
 20
6.37799
 30
0.0
 40
0
 41
0
  0
VERTEX
  8
0
 10
2.65631
 20
7.40158
 30
0.0
 40
0
 41
0
  0
SEQEND
 8
0
  0
POLYLINE
  8
0
 62
     0
 66
     1
 10
0
 20
0
 30
0.0
 40
0
 41
0
  0
VERTEX
  8
0
 10
2.73583
 20
7.48031
 30
0.0
 40
0
 41
0
  0
VERTEX
  8
0
 10
2.73583
 20
6.96853
 30
0.0
 40
0
 41
0
  0
SEQEND
 8
0
  0
POLYLINE
  8
0
 62
     0
 66
     1
 10
0
 20
0
 30
0.0
 40
0
 41
0
  0
VERTEX
  8
0
 10
2.73583
 20
6.81104
 30
0.0
 40
0
 41
0
  0
VERTEX
  8
0
 10
2.73583
 20
5.78743
 30
0.0
 40
0
 41
0
  0
SEQEND
 8
0
  0
POLYLINE
  8
0
 62
     0
 66
     1
 10
0
 20
0
 30
0.0
 40
0
 41
0
  0
VERTEX
  8
0
 10
2.73583
 20
5.62993
 30
0.0
 40
0
 41
0
  0
VERTEX
  8
0
 10
2.73583
 20
5.11811
 30
0.0
 40
0
 41
0
  0
SEQEND
 8
0
  0
POLYLINE
  8
0
 62
     0
 66
     1
 10
0
 20
0
 30
0.0
 40
0
 41
0
  0
VERTEX
  8
0
 10
2.81532
 20
5.19683
 30
0.0
 40
0
 41
0
  0
VERTEX
  8
0
 10
2.81532
 20
6.22049
 30
0.0
 40
0
 41
0
  0
SEQEND
 8
0
  0
POLYLINE
  8
0
 62
     0
 66
     1
 10
0
 20
0
 30
0.0
 40
0
 41
0
  0
VERTEX
  8
0
 10
2.81532
 20
6.37799
 30
0.0
 40
0
 41
0
  0
VERTEX
  8
0
 10
2.81532
 20
7.40158
 30
0.0
 40
0
 41
0
  0
SEQEND
 8
0
  0
POLYLINE
  8
0
 62
     0
 66
     1
 10
0
 20
0
 30
0.0
 40
0
 41
0
  0
VERTEX
  8
0
 10
2.89486
 20
7.48031
 30
0.0
 40
0
 41
0
  0
VERTEX
  8
0
 10
2.89486
 20
6.96853
 30
0.0
 40
0
 41
0
  0
SEQEND
 8
0
  0
POLYLINE
  8
0
 62
     0
 66
     1
 10
0
 20
0
 30
0.0
 40
0
 41
0
  0
VERTEX
  8
0
 10
2.89486
 20
6.81104
 30
0.0
 40
0
 41
0
  0
VERTEX
  8
0
 10
2.89486
 20
5.78743
 30
0.0
 40
0
 41
0
  0
SEQEND
 8
0
  0
POLYLINE
  8
0
 62
     0
 66
     1
 10
0
 20
0
 30
0.0
 40
0
 41
0
  0
VERTEX
  8
0
 10
2.89486
 20
5.62993
 30
0.0
 40
0
 41
0
  0
VERTEX
  8
0
 10
2.89486
 20
5.11811
 30
0.0
 40
0
 41
0
  0
SEQEND
 8
0
  0
POLYLINE
  8
0
 62
     0
 66
     1
 10
0
 20
0
 30
0.0
 40
0
 41
0
  0
VERTEX
  8
0
 10
2.97433
 20
5.19683
 30
0.0
 40
0
 41
0
  0
VERTEX
  8
0
 10
2.97433
 20
6.22049
 30
0.0
 40
0
 41
0
  0
SEQEND
 8
0
  0
POLYLINE
  8
0
 62
     0
 66
     1
 10
0
 20
0
 30
0.0
 40
0
 41
0
  0
VERTEX
  8
0
 10
2.97433
 20
6.37799
 30
0.0
 40
0
 41
0
  0
VERTEX
  8
0
 10
2.97433
 20
7.40158
 30
0.0
 40
0
 41
0
  0
SEQEND
 8
0
  0
POLYLINE
  8
0
 62
     0
 66
     1
 10
0
 20
0
 30
0.0
 40
0
 41
0
  0
VERTEX
  8
0
 10
0.748047
 20
7.48031
 30
0.0
 40
0
 41
0
  0
VERTEX
  8
0
 10
2.97433
 20
7.48031
 30
0.0
 40
0
 41
0
  0
SEQEND
 8
0
  0
POLYLINE
  8
0
 62
     0
 66
     1
 10
0
 20
0
 30
0.0
 40
0
 41
0
  0
VERTEX
  8
0
 10
2.97433
 20
5.11811
 30
0.0
 40
0
 41
0
  0
VERTEX
  8
0
 10
0.748047
 20
5.11811
 30
0.0
 40
0
 41
0
  0
SEQEND
 8
0
  0
POLYLINE
  8
0
 62
     0
 66
     1
 10
0
 20
0
 30
0.0
 40
0
 41
0
  0
VERTEX
  8
0
 10
4.15549
 20
5.19683
 30
0.0
 40
0
 41
0
  0
VERTEX
  8
0
 10
4.15549
 20
6.22049
 30
0.0
 40
0
 41
0
  0
SEQEND
 8
0
  0
POLYLINE
  8
0
 62
     0
 66
     1
 10
0
 20
0
 30
0.0
 40
0
 41
0
  0
VERTEX
  8
0
 10
4.15549
 20
6.37799
 30
0.0
 40
0
 41
0
  0
VERTEX
  8
0
 10
4.15549
 20
7.40158
 30
0.0
 40
0
 41
0
  0
SEQEND
 8
0
  0
POLYLINE
  8
0
 62
     0
 66
     1
 10
0
 20
0
 30
0.0
 40
0
 41
0
  0
VERTEX
  8
0
 10
4.23497
 20
7.48031
 30
0.0
 40
0
 41
0
  0
VERTEX
  8
0
 10
4.23497
 20
6.96853
 30
0.0
 40
0
 41
0
  0
SEQEND
 8
0
  0
POLYLINE
  8
0
 62
     0
 66
     1
 10
0
 20
0
 30
0.0
 40
0
 41
0
  0
VERTEX
  8
0
 10
4.23497
 20
6.81104
 30
0.0
 40
0
 41
0
  0
VERTEX
  8
0
 10
4.23497
 20
5.78743
 30
0.0
 40
0
 41
0
  0
SEQEND
 8
0
  0
POLYLINE
  8
0
 62
     0
 66
     1
 10
0
 20
0
 30
0.0
 40
0
 41
0
  0
VERTEX
  8
0
 10
4.23497
 20
5.62993
 30
0.0
 40
0
 41
0
  0
VERTEX
  8
0
 10
4.23497
 20
5.11811
 30
0.0
 40
0
 41
0
  0
SEQEND
 8
0
  0
POLYLINE
  8
0
 62
     0
 66
     1
 10
0
 20
0
 30
0.0
 40
0
 41
0
  0
VERTEX
  8
0
 10
4.31451
 20
5.19683
 30
0.0
 40
0
 41
0
  0
VERTEX
  8
0
 10
4.31451
 20
6.22049
 30
0.0
 40
0
 41
0
  0
SEQEND
 8
0
  0
POLYLINE
  8
0
 62
     0
 66
     1
 10
0
 20
0
 30
0.0
 40
0
 41
0
  0
VERTEX
  8
0
 10
4.31451
 20
6.37799
 30
0.0
 40
0
 41
0
  0
VERTEX
  8
0
 10
4.31451
 20
7.40158
 30
0.0
 40
0
 41
0
  0
SEQEND
 8
0
  0
POLYLINE
  8
0
 62
     0
 66
     1
 10
0
 20
0
 30
0.0
 40
0
 41
0
  0
VERTEX
  8
0
 10
4.39399
 20
7.48031
 30
0.0
 40
0
 41
0
  0
VERTEX
  8
0
 10
4.39399
 20
6.96853
 30
0.0
 40
0
 41
0
  0
SEQEND
 8
0
  0
POLYLINE
  8
0
 62
     0
 66
     1
 10
0
 20
0
 30
0.0
 40
0
 41
0
  0
VERTEX
  8
0
 10
4.39399
 20
6.81104
 30
0.0
 40
0
 41
0
  0
VERTEX
  8
0
 10
4.39399
 20
5.78743
 30
0.0
 40
0
 41
0
  0
SEQEND
 8
0
  0
POLYLINE
  8
0
 62
     0
 66
     1
 10
0
 20
0
 30
0.0
 40
0
 41
0
  0
VERTEX
  8
0
 10
4.39399
 20
5.62993
 30
0.0
 40
0
 41
0
  0
VERTEX
  8
0
 10
4.39399
 20
5.11811
 30
0.0
 40
0
 41
0
  0
SEQEND
 8
0
  0
POLYLINE
  8
0
 62
     0
 66
     1
 10
0
 20
0
 30
0.0
 40
0
 41
0
  0
VERTEX
  8
0
 10
4.47353
 20
5.19683
 30
0.0
 40
0
 41
0
  0
VERTEX
  8
0
 10
4.47353
 20
6.22049
 30
0.0
 40
0
 41
0
  0
SEQEND
 8
0
  0
POLYLINE
  8
0
 62
     0
 66
     1
 10
0
 20
0
 30
0.0
 40
0
 41
0
  0
VERTEX
  8
0
 10
4.47353
 20
6.37799
 30
0.0
 40
0
 41
0
  0
VERTEX
  8
0
 10
4.47353
 20
7.40158
 30
0.0
 40
0
 41
0
  0
SEQEND
 8
0
  0
POLYLINE
  8
0
 62
     0
 66
     1
 10
0
 20
0
 30
0.0
 40
0
 41
0
  0
VERTEX
  8
0
 10
4.553
 20
7.48031
 30
0.0
 40
0
 41
0
  0
VERTEX
  8
0
 10
4.553
 20
6.96853
 30
0.0
 40
0
 41
0
  0
SEQEND
 8
0
  0
POLYLINE
  8
0
 62
     0
 66
     1
 10
0
 20
0
 30
0.0
 40
0
 41
0
  0
VERTEX
  8
0
 10
4.553
 20
6.81104
 30
0.0
 40
0
 41
0
  0
VERTEX
  8
0
 10
4.553
 20
5.78743
 30
0.0
 40
0
 41
0
  0
SEQEND
 8
0
  0
POLYLINE
  8
0
 62
     0
 66
     1
 10
0
 20
0
 30
0.0
 40
0
 41
0
  0
VERTEX
  8
0
 10
4.553
 20
5.62993
 30
0.0
 40
0
 41
0
  0
VERTEX
  8
0
 10
4.553
 20
5.11811
 30
0.0
 40
0
 41
0
  0
SEQEND
 8
0
  0
POLYLINE
  8
0
 62
     0
 66
     1
 10
0
 20
0
 30
0.0
 40
0
 41
0
  0
VERTEX
  8
0
 10
4.63254
 20
5.19683
 30
0.0
 40
0
 41
0
  0
VERTEX
  8
0
 10
4.63254
 20
6.22049
 30
0.0
 40
0
 41
0
  0
SEQEND
 8
0
  0
POLYLINE
  8
0
 62
     0
 66
     1
 10
0
 20
0
 30
0.0
 40
0
 41
0
  0
VERTEX
  8
0
 10
4.63254
 20
6.37799
 30
0.0
 40
0
 41
0
  0
VERTEX
  8
0
 10
4.63254
 20
7.40158
 30
0.0
 40
0
 41
0
  0
SEQEND
 8
0
  0
POLYLINE
  8
0
 62
     0
 66
     1
 10
0
 20
0
 30
0.0
 40
0
 41
0
  0
VERTEX
  8
0
 10
4.71203
 20
7.48031
 30
0.0
 40
0
 41
0
  0
VERTEX
  8
0
 10
4.71203
 20
6.96853
 30
0.0
 40
0
 41
0
  0
SEQEND
 8
0
  0
POLYLINE
  8
0
 62
     0
 66
     1
 10
0
 20
0
 30
0.0
 40
0
 41
0
  0
VERTEX
  8
0
 10
4.71203
 20
6.81104
 30
0.0
 40
0
 41
0
  0
VERTEX
  8
0
 10
4.71203
 20
5.78743
 30
0.0
 40
0
 41
0
  0
SEQEND
 8
0
  0
POLYLINE
  8
0
 62
     0
 66
     1
 10
0
 20
0
 30
0.0
 40
0
 41
0
  0
VERTEX
  8
0
 10
4.71203
 20
5.62993
 30
0.0
 40
0
 41
0
  0
VERTEX
  8
0
 10
4.71203
 20
5.11811
 30
0.0
 40
0
 41
0
  0
SEQEND
 8
0
  0
POLYLINE
  8
0
 62
     0
 66
     1
 10
0
 20
0
 30
0.0
 40
0
 41
0
  0
VERTEX
  8
0
 10
4.79156
 20
5.19683
 30
0.0
 40
0
 41
0
  0
VERTEX
  8
0
 10
4.79156
 20
6.22049
 30
0.0
 40
0
 41
0
  0
SEQEND
 8
0
  0
POLYLINE
  8
0
 62
     0
 66
     1
 10
0
 20
0
 30
0.0
 40
0
 41
0
  0
VERTEX
  8
0
 10
4.79156
 20
6.37799
 30
0.0
 40
0
 41
0
  0
VERTEX
  8
0
 10
4.79156
 20
7.40158
 30
0.0
 40
0
 41
0
  0
SEQEND
 8
0
  0
POLYLINE
  8
0
 62
     0
 66
     1
 10
0
 20
0
 30
0.0
 40
0
 41
0
  0
VERTEX
  8
0
 10
4.8711
 20
7.48031
 30
0.0
 40
0
 41
0
  0
VERTEX
  8
0
 10
4.8711
 20
6.96853
 30
0.0
 40
0
 41
0
  0
SEQEND
 8
0
  0
POLYLINE
  8
0
 62
     0
 66
     1
 10
0
 20
0
 30
0.0
 40
0
 41
0
  0
VERTEX
  8
0
 10
4.8711
 20
6.81104
 30
0.0
 40
0
 41
0
  0
VERTEX
  8
0
 10
4.8711
 20
5.78743
 30
0.0
 40
0
 41
0
  0
SEQEND
 8
0
  0
POLYLINE
  8
0
 62
     0
 66
     1
 10
0
 20
0
 30
0.0
 40
0
 41
0
  0
VERTEX
  8
0
 10
4.8711
 20
5.62993
 30
0.0
 40
0
 41
0
  0
VERTEX
  8
0
 10
4.8711
 20
5.11811
 30
0.0
 40
0
 41
0
  0
SEQEND
 8
0
  0
POLYLINE
  8
0
 62
     0
 66
     1
 10
0
 20
0
 30
0.0
 40
0
 41
0
  0
VERTEX
  8
0
 10
4.95057
 20
5.19683
 30
0.0
 40
0
 41
0
  0
VERTEX
  8
0
 10
4.95057
 20
6.22049
 30
0.0
 40
0
 41
0
  0
SEQEND
 8
0
  0
POLYLINE
  8
0
 62
     0
 66
     1
 10
0
 20
0
 30
0.0
 40
0
 41
0
  0
VERTEX
  8
0
 10
4.95057
 20
6.37799
 30
0.0
 40
0
 41
0
  0
VERTEX
  8
0
 10
4.95057
 20
7.40158
 30
0.0
 40
0
 41
0
  0
SEQEND
 8
0
  0
POLYLINE
  8
0
 62
     0
 66
     1
 10
0
 20
0
 30
0.0
 40
0
 41
0
  0
VERTEX
  8
0
 10
5.03011
 20
7.48031
 30
0.0
 40
0
 41
0
  0
VERTEX
  8
0
 10
5.03011
 20
6.96853
 30
0.0
 40
0
 41
0
  0
SEQEND
 8
0
  0
POLYLINE
  8
0
 62
     0
 66
     1
 10
0
 20
0
 30
0.0
 40
0
 41
0
  0
VERTEX
  8
0
 10
5.03011
 20
6.81104
 30
0.0
 40
0
 41
0
  0
VERTEX
  8
0
 10
5.03011
 20
5.78743
 30
0.0
 40
0
 41
0
  0
SEQEND
 8
0
  0
POLYLINE
  8
0
 62
     0
 66
     1
 10
0
 20
0
 30
0.0
 40
0
 41
0
  0
VERTEX
  8
0
 10
5.03011
 20
5.62993
 30
0.0
 40
0
 41
0
  0
VERTEX
  8
0
 10
5.03011
 20
5.11811
 30
0.0
 40
0
 41
0
  0
SEQEND
 8
0
  0
POLYLINE
  8
0
 62
     0
 66
     1
 10
0
 20
0
 30
0.0
 40
0
 41
0
  0
VERTEX
  8
0
 10
5.1096
 20
5.19683
 30
0.0
 40
0
 41
0
  0
VERTEX
  8
0
 10
5.1096
 20
6.22049
 30
0.0
 40
0
 41
0
  0
SEQEND
 8
0
  0
POLYLINE
  8
0
 62
     0
 66
     1
 10
0
 20
0
 30
0.0
 40
0
 41
0
  0
VERTEX
  8
0
 10
5.1096
 20
6.37799
 30
0.0
 40
0
 41
0
  0
VERTEX
  8
0
 10
5.1096
 20
7.40158
 30
0.0
 40
0
 41
0
  0
SEQEND
 8
0
  0
POLYLINE
  8
0
 62
     0
 66
     1
 10
0
 20
0
 30
0.0
 40
0
 41
0
  0
VERTEX
  8
0
 10
5.18913
 20
7.48031
 30
0.0
 40
0
 41
0
  0
VERTEX
  8
0
 10
5.18913
 20
6.96853
 30
0.0
 40
0
 41
0
  0
SEQEND
 8
0
  0
POLYLINE
  8
0
 62
     0
 66
     1
 10
0
 20
0
 30
0.0
 40
0
 41
0
  0
VERTEX
  8
0
 10
5.18913
 20
6.81104
 30
0.0
 40
0
 41
0
  0
VERTEX
  8
0
 10
5.18913
 20
5.78743
 30
0.0
 40
0
 41
0
  0
SEQEND
 8
0
  0
POLYLINE
  8
0
 62
     0
 66
     1
 10
0
 20
0
 30
0.0
 40
0
 41
0
  0
VERTEX
  8
0
 10
5.18913
 20
5.62993
 30
0.0
 40
0
 41
0
  0
VERTEX
  8
0
 10
5.18913
 20
5.11811
 30
0.0
 40
0
 41
0
  0
SEQEND
 8
0
  0
POLYLINE
  8
0
 62
     0
 66
     1
 10
0
 20
0
 30
0.0
 40
0
 41
0
  0
VERTEX
  8
0
 10
5.26861
 20
5.19683
 30
0.0
 40
0
 41
0
  0
VERTEX
  8
0
 10
5.26861
 20
6.22049
 30
0.0
 40
0
 41
0
  0
SEQEND
 8
0
  0
POLYLINE
  8
0
 62
     0
 66
     1
 10
0
 20
0
 30
0.0
 40
0
 41
0
  0
VERTEX
  8
0
 10
5.26861
 20
6.37799
 30
0.0
 40
0
 41
0
  0
VERTEX
  8
0
 10
5.26861
 20
7.40158
 30
0.0
 40
0
 41
0
  0
SEQEND
 8
0
  0
POLYLINE
  8
0
 62
     0
 66
     1
 10
0
 20
0
 30
0.0
 40
0
 41
0
  0
VERTEX
  8
0
 10
5.34814
 20
7.48031
 30
0.0
 40
0
 41
0
  0
VERTEX
  8
0
 10
5.34814
 20
6.96853
 30
0.0
 40
0
 41
0
  0
SEQEND
 8
0
  0
POLYLINE
  8
0
 62
     0
 66
     1
 10
0
 20
0
 30
0.0
 40
0
 41
0
  0
VERTEX
  8
0
 10
5.34814
 20
6.81104
 30
0.0
 40
0
 41
0
  0
VERTEX
  8
0
 10
5.34814
 20
5.78743
 30
0.0
 40
0
 41
0
  0
SEQEND
 8
0
  0
POLYLINE
  8
0
 62
     0
 66
     1
 10
0
 20
0
 30
0.0
 40
0
 41
0
  0
VERTEX
  8
0
 10
5.34814
 20
5.62993
 30
0.0
 40
0
 41
0
  0
VERTEX
  8
0
 10
5.34814
 20
5.11811
 30
0.0
 40
0
 41
0
  0
SEQEND
 8
0
  0
POLYLINE
  8
0
 62
     0
 66
     1
 10
0
 20
0
 30
0.0
 40
0
 41
0
  0
VERTEX
  8
0
 10
5.42763
 20
5.19683
 30
0.0
 40
0
 41
0
  0
VERTEX
  8
0
 10
5.42763
 20
6.22049
 30
0.0
 40
0
 41
0
  0
SEQEND
 8
0
  0
POLYLINE
  8
0
 62
     0
 66
     1
 10
0
 20
0
 30
0.0
 40
0
 41
0
  0
VERTEX
  8
0
 10
5.42763
 20
6.37799
 30
0.0
 40
0
 41
0
  0
VERTEX
  8
0
 10
5.42763
 20
7.40158
 30
0.0
 40
0
 41
0
  0
SEQEND
 8
0
  0
POLYLINE
  8
0
 62
     0
 66
     1
 10
0
 20
0
 30
0.0
 40
0
 41
0
  0
VERTEX
  8
0
 10
5.50717
 20
7.48031
 30
0.0
 40
0
 41
0
  0
VERTEX
  8
0
 10
5.50717
 20
6.96853
 30
0.0
 40
0
 41
0
  0
SEQEND
 8
0
  0
POLYLINE
  8
0
 62
     0
 66
     1
 10
0
 20
0
 30
0.0
 40
0
 41
0
  0
VERTEX
  8
0
 10
5.50717
 20
6.81104
 30
0.0
 40
0
 41
0
  0
VERTEX
  8
0
 10
5.50717
 20
5.78743
 30
0.0
 40
0
 41
0
  0
SEQEND
 8
0
  0
POLYLINE
  8
0
 62
     0
 66
     1
 10
0
 20
0
 30
0.0
 40
0
 41
0
  0
VERTEX
  8
0
 10
5.50717
 20
5.62993
 30
0.0
 40
0
 41
0
  0
VERTEX
  8
0
 10
5.50717
 20
5.11811
 30
0.0
 40
0
 41
0
  0
SEQEND
 8
0
  0
POLYLINE
  8
0
 62
     0
 66
     1
 10
0
 20
0
 30
0.0
 40
0
 41
0
  0
VERTEX
  8
0
 10
5.58669
 20
5.19683
 30
0.0
 40
0
 41
0
  0
VERTEX
  8
0
 10
5.58669
 20
6.22049
 30
0.0
 40
0
 41
0
  0
SEQEND
 8
0
  0
POLYLINE
  8
0
 62
     0
 66
     1
 10
0
 20
0
 30
0.0
 40
0
 41
0
  0
VERTEX
  8
0
 10
5.58669
 20
6.37799
 30
0.0
 40
0
 41
0
  0
VERTEX
  8
0
 10
5.58669
 20
7.40158
 30
0.0
 40
0
 41
0
  0
SEQEND
 8
0
  0
POLYLINE
  8
0
 62
     0
 66
     1
 10
0
 20
0
 30
0.0
 40
0
 41
0
  0
VERTEX
  8
0
 10
5.66618
 20
7.48031
 30
0.0
 40
0
 41
0
  0
VERTEX
  8
0
 10
5.66618
 20
6.96853
 30
0.0
 40
0
 41
0
  0
SEQEND
 8
0
  0
POLYLINE
  8
0
 62
     0
 66
     1
 10
0
 20
0
 30
0.0
 40
0
 41
0
  0
VERTEX
  8
0
 10
5.66618
 20
6.81104
 30
0.0
 40
0
 41
0
  0
VERTEX
  8
0
 10
5.66618
 20
5.78743
 30
0.0
 40
0
 41
0
  0
SEQEND
 8
0
  0
POLYLINE
  8
0
 62
     0
 66
     1
 10
0
 20
0
 30
0.0
 40
0
 41
0
  0
VERTEX
  8
0
 10
5.66618
 20
5.62993
 30
0.0
 40
0
 41
0
  0
VERTEX
  8
0
 10
5.66618
 20
5.11811
 30
0.0
 40
0
 41
0
  0
SEQEND
 8
0
  0
POLYLINE
  8
0
 62
     0
 66
     1
 10
0
 20
0
 30
0.0
 40
0
 41
0
  0
VERTEX
  8
0
 10
5.74571
 20
5.19683
 30
0.0
 40
0
 41
0
  0
VERTEX
  8
0
 10
5.74571
 20
6.22049
 30
0.0
 40
0
 41
0
  0
SEQEND
 8
0
  0
POLYLINE
  8
0
 62
     0
 66
     1
 10
0
 20
0
 30
0.0
 40
0
 41
0
  0
VERTEX
  8
0
 10
5.74571
 20
6.37799
 30
0.0
 40
0
 41
0
  0
VERTEX
  8
0
 10
5.74571
 20
7.40158
 30
0.0
 40
0
 41
0
  0
SEQEND
 8
0
  0
POLYLINE
  8
0
 62
     0
 66
     1
 10
0
 20
0
 30
0.0
 40
0
 41
0
  0
VERTEX
  8
0
 10
5.82519
 20
7.48031
 30
0.0
 40
0
 41
0
  0
VERTEX
  8
0
 10
5.82519
 20
6.96853
 30
0.0
 40
0
 41
0
  0
SEQEND
 8
0
  0
POLYLINE
  8
0
 62
     0
 66
     1
 10
0
 20
0
 30
0.0
 40
0
 41
0
  0
VERTEX
  8
0
 10
5.82519
 20
6.81104
 30
0.0
 40
0
 41
0
  0
VERTEX
  8
0
 10
5.82519
 20
5.78743
 30
0.0
 40
0
 41
0
  0
SEQEND
 8
0
  0
POLYLINE
  8
0
 62
     0
 66
     1
 10
0
 20
0
 30
0.0
 40
0
 41
0
  0
VERTEX
  8
0
 10
5.82519
 20
5.62993
 30
0.0
 40
0
 41
0
  0
VERTEX
  8
0
 10
5.82519
 20
5.11811
 30
0.0
 40
0
 41
0
  0
SEQEND
 8
0
  0
POLYLINE
  8
0
 62
     0
 66
     1
 10
0
 20
0
 30
0.0
 40
0
 41
0
  0
VERTEX
  8
0
 10
5.90474
 20
5.19683
 30
0.0
 40
0
 41
0
  0
VERTEX
  8
0
 10
5.90474
 20
6.22049
 30
0.0
 40
0
 41
0
  0
SEQEND
 8
0
  0
POLYLINE
  8
0
 62
     0
 66
     1
 10
0
 20
0
 30
0.0
 40
0
 41
0
  0
VERTEX
  8
0
 10
5.90474
 20
6.37799
 30
0.0
 40
0
 41
0
  0
VERTEX
  8
0
 10
5.90474
 20
7.40158
 30
0.0
 40
0
 41
0
  0
SEQEND
 8
0
  0
POLYLINE
  8
0
 62
     0
 66
     1
 10
0
 20
0
 30
0.0
 40
0
 41
0
  0
VERTEX
  8
0
 10
5.98421
 20
7.48031
 30
0.0
 40
0
 41
0
  0
VERTEX
  8
0
 10
5.98421
 20
6.96853
 30
0.0
 40
0
 41
0
  0
SEQEND
 8
0
  0
POLYLINE
  8
0
 62
     0
 66
     1
 10
0
 20
0
 30
0.0
 40
0
 41
0
  0
VERTEX
  8
0
 10
5.98421
 20
6.81104
 30
0.0
 40
0
 41
0
  0
VERTEX
  8
0
 10
5.98421
 20
5.78743
 30
0.0
 40
0
 41
0
  0
SEQEND
 8
0
  0
POLYLINE
  8
0
 62
     0
 66
     1
 10
0
 20
0
 30
0.0
 40
0
 41
0
  0
VERTEX
  8
0
 10
5.98421
 20
5.62993
 30
0.0
 40
0
 41
0
  0
VERTEX
  8
0
 10
5.98421
 20
5.11811
 30
0.0
 40
0
 41
0
  0
SEQEND
 8
0
  0
POLYLINE
  8
0
 62
     0
 66
     1
 10
0
 20
0
 30
0.0
 40
0
 41
0
  0
VERTEX
  8
0
 10
6.06375
 20
5.19683
 30
0.0
 40
0
 41
0
  0
VERTEX
  8
0
 10
6.06375
 20
6.22049
 30
0.0
 40
0
 41
0
  0
SEQEND
 8
0
  0
POLYLINE
  8
0
 62
     0
 66
     1
 10
0
 20
0
 30
0.0
 40
0
 41
0
  0
VERTEX
  8
0
 10
6.06375
 20
6.37799
 30
0.0
 40
0
 41
0
  0
VERTEX
  8
0
 10
6.06375
 20
7.40158
 30
0.0
 40
0
 41
0
  0
SEQEND
 8
0
  0
POLYLINE
  8
0
 62
     0
 66
     1
 10
0
 20
0
 30
0.0
 40
0
 41
0
  0
VERTEX
  8
0
 10
6.14322
 20
7.48031
 30
0.0
 40
0
 41
0
  0
VERTEX
  8
0
 10
6.14322
 20
6.96853
 30
0.0
 40
0
 41
0
  0
SEQEND
 8
0
  0
POLYLINE
  8
0
 62
     0
 66
     1
 10
0
 20
0
 30
0.0
 40
0
 41
0
  0
VERTEX
  8
0
 10
6.14322
 20
6.81104
 30
0.0
 40
0
 41
0
  0
VERTEX
  8
0
 10
6.14322
 20
5.78743
 30
0.0
 40
0
 41
0
  0
SEQEND
 8
0
  0
POLYLINE
  8
0
 62
     0
 66
     1
 10
0
 20
0
 30
0.0
 40
0
 41
0
  0
VERTEX
  8
0
 10
6.14322
 20
5.62993
 30
0.0
 40
0
 41
0
  0
VERTEX
  8
0
 10
6.14322
 20
5.11811
 30
0.0
 40
0
 41
0
  0
SEQEND
 8
0
  0
POLYLINE
  8
0
 62
     0
 66
     1
 10
0
 20
0
 30
0.0
 40
0
 41
0
  0
VERTEX
  8
0
 10
6.22276
 20
5.19683
 30
0.0
 40
0
 41
0
  0
VERTEX
  8
0
 10
6.22276
 20
6.22049
 30
0.0
 40
0
 41
0
  0
SEQEND
 8
0
  0
POLYLINE
  8
0
 62
     0
 66
     1
 10
0
 20
0
 30
0.0
 40
0
 41
0
  0
VERTEX
  8
0
 10
6.22276
 20
6.37799
 30
0.0
 40
0
 41
0
  0
VERTEX
  8
0
 10
6.22276
 20
7.40158
 30
0.0
 40
0
 41
0
  0
SEQEND
 8
0
  0
POLYLINE
  8
0
 62
     0
 66
     1
 10
0
 20
0
 30
0.0
 40
0
 41
0
  0
VERTEX
  8
0
 10
6.30231
 20
7.48031
 30
0.0
 40
0
 41
0
  0
VERTEX
  8
0
 10
6.30231
 20
6.96853
 30
0.0
 40
0
 41
0
  0
SEQEND
 8
0
  0
POLYLINE
  8
0
 62
     0
 66
     1
 10
0
 20
0
 30
0.0
 40
0
 41
0
  0
VERTEX
  8
0
 10
6.30231
 20
6.81104
 30
0.0
 40
0
 41
0
  0
VERTEX
  8
0
 10
6.30231
 20
5.78743
 30
0.0
 40
0
 41
0
  0
SEQEND
 8
0
  0
POLYLINE
  8
0
 62
     0
 66
     1
 10
0
 20
0
 30
0.0
 40
0
 41
0
  0
VERTEX
  8
0
 10
6.30231
 20
5.62993
 30
0.0
 40
0
 41
0
  0
VERTEX
  8
0
 10
6.30231
 20
5.11811
 30
0.0
 40
0
 41
0
  0
SEQEND
 8
0
  0
POLYLINE
  8
0
 62
     0
 66
     1
 10
0
 20
0
 30
0.0
 40
0
 41
0
  0
VERTEX
  8
0
 10
6.38178
 20
5.19683
 30
0.0
 40
0
 41
0
  0
VERTEX
  8
0
 10
6.38178
 20
6.22049
 30
0.0
 40
0
 41
0
  0
SEQEND
 8
0
  0
POLYLINE
  8
0
 62
     0
 66
     1
 10
0
 20
0
 30
0.0
 40
0
 41
0
  0
VERTEX
  8
0
 10
6.38178
 20
6.37799
 30
0.0
 40
0
 41
0
  0
VERTEX
  8
0
 10
6.38178
 20
7.40158
 30
0.0
 40
0
 41
0
  0
SEQEND
 8
0
  0
POLYLINE
  8
0
 62
     0
 66
     1
 10
0
 20
0
 30
0.0
 40
0
 41
0
  0
VERTEX
  8
0
 10
4.15549
 20
7.48031
 30
0.0
 40
0
 41
0
  0
VERTEX
  8
0
 10
6.38178
 20
7.48031
 30
0.0
 40
0
 41
0
  0
SEQEND
 8
0
  0
POLYLINE
  8
0
 62
     0
 66
     1
 10
0
 20
0
 30
0.0
 40
0
 41
0
  0
VERTEX
  8
0
 10
6.38178
 20
5.11811
 30
0.0
 40
0
 41
0
  0
VERTEX
  8
0
 10
4.15549
 20
5.11811
 30
0.0
 40
0
 41
0
  0
SEQEND
 8
0
  0
POLYLINE
  8
0
 62
     0
 66
     1
 10
0
 20
0
 30
0.0
 40
0
 41
0
  0
VERTEX
  8
0
 10
0.748047
 20
7.48031
 30
0.0
 40
0
 41
0
  0
VERTEX
  8
0
 10
0.787381
 20
7.48031
 30
0.0
 40
0
 41
0
  0
VERTEX
  8
0
 10
0.787381
 20
7.32286
 30
0.0
 40
0
 41
0
  0
VERTEX
  8
0
 10
0.472439
 20
7.32286
 30
0.0
 40
0
 41
0
  0
VERTEX
  8
0
 10
0.472439
 20
7.48031
 30
0.0
 40
0
 41
0
  0
VERTEX
  8
0
 10
0.157497
 20
7.48031
 30
0.0
 40
0
 41
0
  0
VERTEX
  8
0
 10
0.157497
 20
5.11811
 30
0.0
 40
0
 41
0
  0
VERTEX
  8
0
 10
0.472439
 20
5.11811
 30
0.0
 40
0
 41
0
  0
VERTEX
  8
0
 10
0.472439
 20
5.27561
 30
0.0
 40
0
 41
0
  0
VERTEX
  8
0
 10
0.787381
 20
5.27561
 30
0.0
 40
0
 41
0
  0
VERTEX
  8
0
 10
0.787381
 20
5.11811
 30
0.0
 40
0
 41
0
  0
VERTEX
  8
0
 10
0.748047
 20
5.11811
 30
0.0
 40
0
 41
0
  0
SEQEND
 8
0
  0
POLYLINE
  8
0
 62
     0
 66
     1
 10
0
 20
0
 30
0.0
 40
0
 41
0
  0
VERTEX
  8
0
 10
2.97433
 20
7.48031
 30
0.0
 40
0
 41
0
  0
VERTEX
  8
0
 10
3.21056
 20
7.48031
 30
0.0
 40
0
 41
0
  0
VERTEX
  8
0
 10
3.21056
 20
7.32286
 30
0.0
 40
0
 41
0
  0
VERTEX
  8
0
 10
3.44678
 20
7.32286
 30
0.0
 40
0
 41
0
  0
VERTEX
  8
0
 10
3.44678
 20
7.48031
 30
0.0
 40
0
 41
0
  0
VERTEX
  8
0
 10
3.683
 20
7.48031
 30
0.0
 40
0
 41
0
  0
VERTEX
  8
0
 10
3.683
 20
7.32286
 30
0.0
 40
0
 41
0
  0
VERTEX
  8
0
 10
3.91922
 20
7.32286
 30
0.0
 40
0
 41
0
  0
VERTEX
  8
0
 10
3.91922
 20
7.48031
 30
0.0
 40
0
 41
0
  0
VERTEX
  8
0
 10
4.15549
 20
7.48031
 30
0.0
 40
0
 41
0
  0
SEQEND
 8
0
  0
POLYLINE
  8
0
 62
     0
 66
     1
 10
0
 20
0
 30
0.0
 40
0
 41
0
  0
VERTEX
  8
0
 10
4.15549
 20
5.11811
 30
0.0
 40
0
 41
0
  0
VERTEX
  8
0
 10
3.91922
 20
5.11811
 30
0.0
 40
0
 41
0
  0
VERTEX
  8
0
 10
3.91922
 20
5.27561
 30
0.0
 40
0
 41
0
  0
VERTEX
  8
0
 10
3.683
 20
5.27561
 30
0.0
 40
0
 41
0
  0
VERTEX
  8
0
 10
3.683
 20
5.11811
 30
0.0
 40
0
 41
0
  0
VERTEX
  8
0
 10
3.44678
 20
5.11811
 30
0.0
 40
0
 41
0
  0
VERTEX
  8
0
 10
3.44678
 20
5.27561
 30
0.0
 40
0
 41
0
  0
VERTEX
  8
0
 10
3.21056
 20
5.27561
 30
0.0
 40
0
 41
0
  0
VERTEX
  8
0
 10
3.21056
 20
5.11811
 30
0.0
 40
0
 41
0
  0
VERTEX
  8
0
 10
2.97433
 20
5.11811
 30
0.0
 40
0
 41
0
  0
SEQEND
 8
0
  0
POLYLINE
  8
0
 62
     0
 66
     1
 10
0
 20
0
 30
0.0
 40
0
 41
0
  0
VERTEX
  8
0
 10
13.1967
 20
5.19683
 30
0.0
 40
0
 41
0
  0
VERTEX
  8
0
 10
13.1967
 20
6.22049
 30
0.0
 40
0
 41
0
  0
SEQEND
 8
0
  0
POLYLINE
  8
0
 62
     0
 66
     1
 10
0
 20
0
 30
0.0
 40
0
 41
0
  0
VERTEX
  8
0
 10
13.1967
 20
6.37799
 30
0.0
 40
0
 41
0
  0
VERTEX
  8
0
 10
13.1967
 20
7.40158
 30
0.0
 40
0
 41
0
  0
SEQEND
 8
0
  0
POLYLINE
  8
0
 62
     0
 66
     1
 10
0
 20
0
 30
0.0
 40
0
 41
0
  0
VERTEX
  8
0
 10
13.1171
 20
7.48031
 30
0.0
 40
0
 41
0
  0
VERTEX
  8
0
 10
13.1171
 20
6.96853
 30
0.0
 40
0
 41
0
  0
SEQEND
 8
0
  0
POLYLINE
  8
0
 62
     0
 66
     1
 10
0
 20
0
 30
0.0
 40
0
 41
0
  0
VERTEX
  8
0
 10
13.1171
 20
6.81104
 30
0.0
 40
0
 41
0
  0
VERTEX
  8
0
 10
13.1171
 20
5.78743
 30
0.0
 40
0
 41
0
  0
SEQEND
 8
0
  0
POLYLINE
  8
0
 62
     0
 66
     1
 10
0
 20
0
 30
0.0
 40
0
 41
0
  0
VERTEX
  8
0
 10
13.1171
 20
5.62993
 30
0.0
 40
0
 41
0
  0
VERTEX
  8
0
 10
13.1171
 20
5.11811
 30
0.0
 40
0
 41
0
  0
SEQEND
 8
0
  0
POLYLINE
  8
0
 62
     0
 66
     1
 10
0
 20
0
 30
0.0
 40
0
 41
0
  0
VERTEX
  8
0
 10
13.0377
 20
5.19683
 30
0.0
 40
0
 41
0
  0
VERTEX
  8
0
 10
13.0377
 20
6.22049
 30
0.0
 40
0
 41
0
  0
SEQEND
 8
0
  0
POLYLINE
  8
0
 62
     0
 66
     1
 10
0
 20
0
 30
0.0
 40
0
 41
0
  0
VERTEX
  8
0
 10
13.0377
 20
6.37799
 30
0.0
 40
0
 41
0
  0
VERTEX
  8
0
 10
13.0377
 20
7.40158
 30
0.0
 40
0
 41
0
  0
SEQEND
 8
0
  0
POLYLINE
  8
0
 62
     0
 66
     1
 10
0
 20
0
 30
0.0
 40
0
 41
0
  0
VERTEX
  8
0
 10
12.9581
 20
7.48031
 30
0.0
 40
0
 41
0
  0
VERTEX
  8
0
 10
12.9581
 20
6.96853
 30
0.0
 40
0
 41
0
  0
SEQEND
 8
0
  0
POLYLINE
  8
0
 62
     0
 66
     1
 10
0
 20
0
 30
0.0
 40
0
 41
0
  0
VERTEX
  8
0
 10
12.9581
 20
6.81104
 30
0.0
 40
0
 41
0
  0
VERTEX
  8
0
 10
12.9581
 20
5.78743
 30
0.0
 40
0
 41
0
  0
SEQEND
 8
0
  0
POLYLINE
  8
0
 62
     0
 66
     1
 10
0
 20
0
 30
0.0
 40
0
 41
0
  0
VERTEX
  8
0
 10
12.9581
 20
5.62993
 30
0.0
 40
0
 41
0
  0
VERTEX
  8
0
 10
12.9581
 20
5.11811
 30
0.0
 40
0
 41
0
  0
SEQEND
 8
0
  0
POLYLINE
  8
0
 62
     0
 66
     1
 10
0
 20
0
 30
0.0
 40
0
 41
0
  0
VERTEX
  8
0
 10
12.8786
 20
5.19683
 30
0.0
 40
0
 41
0
  0
VERTEX
  8
0
 10
12.8786
 20
6.22049
 30
0.0
 40
0
 41
0
  0
SEQEND
 8
0
  0
POLYLINE
  8
0
 62
     0
 66
     1
 10
0
 20
0
 30
0.0
 40
0
 41
0
  0
VERTEX
  8
0
 10
12.8786
 20
6.37799
 30
0.0
 40
0
 41
0
  0
VERTEX
  8
0
 10
12.8786
 20
7.40158
 30
0.0
 40
0
 41
0
  0
SEQEND
 8
0
  0
POLYLINE
  8
0
 62
     0
 66
     1
 10
0
 20
0
 30
0.0
 40
0
 41
0
  0
VERTEX
  8
0
 10
12.7991
 20
7.48031
 30
0.0
 40
0
 41
0
  0
VERTEX
  8
0
 10
12.7991
 20
6.96853
 30
0.0
 40
0
 41
0
  0
SEQEND
 8
0
  0
POLYLINE
  8
0
 62
     0
 66
     1
 10
0
 20
0
 30
0.0
 40
0
 41
0
  0
VERTEX
  8
0
 10
12.7991
 20
6.81104
 30
0.0
 40
0
 41
0
  0
VERTEX
  8
0
 10
12.7991
 20
5.78743
 30
0.0
 40
0
 41
0
  0
SEQEND
 8
0
  0
POLYLINE
  8
0
 62
     0
 66
     1
 10
0
 20
0
 30
0.0
 40
0
 41
0
  0
VERTEX
  8
0
 10
12.7991
 20
5.62993
 30
0.0
 40
0
 41
0
  0
VERTEX
  8
0
 10
12.7991
 20
5.11811
 30
0.0
 40
0
 41
0
  0
SEQEND
 8
0
  0
POLYLINE
  8
0
 62
     0
 66
     1
 10
0
 20
0
 30
0.0
 40
0
 41
0
  0
VERTEX
  8
0
 10
12.7196
 20
5.19683
 30
0.0
 40
0
 41
0
  0
VERTEX
  8
0
 10
12.7196
 20
6.22049
 30
0.0
 40
0
 41
0
  0
SEQEND
 8
0
  0
POLYLINE
  8
0
 62
     0
 66
     1
 10
0
 20
0
 30
0.0
 40
0
 41
0
  0
VERTEX
  8
0
 10
12.7196
 20
6.37799
 30
0.0
 40
0
 41
0
  0
VERTEX
  8
0
 10
12.7196
 20
7.40158
 30
0.0
 40
0
 41
0
  0
SEQEND
 8
0
  0
POLYLINE
  8
0
 62
     0
 66
     1
 10
0
 20
0
 30
0.0
 40
0
 41
0
  0
VERTEX
  8
0
 10
12.6401
 20
7.48031
 30
0.0
 40
0
 41
0
  0
VERTEX
  8
0
 10
12.6401
 20
6.96853
 30
0.0
 40
0
 41
0
  0
SEQEND
 8
0
  0
POLYLINE
  8
0
 62
     0
 66
     1
 10
0
 20
0
 30
0.0
 40
0
 41
0
  0
VERTEX
  8
0
 10
12.6401
 20
6.81104
 30
0.0
 40
0
 41
0
  0
VERTEX
  8
0
 10
12.6401
 20
5.78743
 30
0.0
 40
0
 41
0
  0
SEQEND
 8
0
  0
POLYLINE
  8
0
 62
     0
 66
     1
 10
0
 20
0
 30
0.0
 40
0
 41
0
  0
VERTEX
  8
0
 10
12.6401
 20
5.62993
 30
0.0
 40
0
 41
0
  0
VERTEX
  8
0
 10
12.6401
 20
5.11811
 30
0.0
 40
0
 41
0
  0
SEQEND
 8
0
  0
POLYLINE
  8
0
 62
     0
 66
     1
 10
0
 20
0
 30
0.0
 40
0
 41
0
  0
VERTEX
  8
0
 10
12.5605
 20
5.19683
 30
0.0
 40
0
 41
0
  0
VERTEX
  8
0
 10
12.5605
 20
6.22049
 30
0.0
 40
0
 41
0
  0
SEQEND
 8
0
  0
POLYLINE
  8
0
 62
     0
 66
     1
 10
0
 20
0
 30
0.0
 40
0
 41
0
  0
VERTEX
  8
0
 10
12.5605
 20
6.37799
 30
0.0
 40
0
 41
0
  0
VERTEX
  8
0
 10
12.5605
 20
7.40158
 30
0.0
 40
0
 41
0
  0
SEQEND
 8
0
  0
POLYLINE
  8
0
 62
     0
 66
     1
 10
0
 20
0
 30
0.0
 40
0
 41
0
  0
VERTEX
  8
0
 10
12.4811
 20
7.48031
 30
0.0
 40
0
 41
0
  0
VERTEX
  8
0
 10
12.4811
 20
6.96853
 30
0.0
 40
0
 41
0
  0
SEQEND
 8
0
  0
POLYLINE
  8
0
 62
     0
 66
     1
 10
0
 20
0
 30
0.0
 40
0
 41
0
  0
VERTEX
  8
0
 10
12.4811
 20
6.81104
 30
0.0
 40
0
 41
0
  0
VERTEX
  8
0
 10
12.4811
 20
5.78743
 30
0.0
 40
0
 41
0
  0
SEQEND
 8
0
  0
POLYLINE
  8
0
 62
     0
 66
     1
 10
0
 20
0
 30
0.0
 40
0
 41
0
  0
VERTEX
  8
0
 10
12.4811
 20
5.62993
 30
0.0
 40
0
 41
0
  0
VERTEX
  8
0
 10
12.4811
 20
5.11811
 30
0.0
 40
0
 41
0
  0
SEQEND
 8
0
  0
POLYLINE
  8
0
 62
     0
 66
     1
 10
0
 20
0
 30
0.0
 40
0
 41
0
  0
VERTEX
  8
0
 10
12.4015
 20
5.19683
 30
0.0
 40
0
 41
0
  0
VERTEX
  8
0
 10
12.4015
 20
6.22049
 30
0.0
 40
0
 41
0
  0
SEQEND
 8
0
  0
POLYLINE
  8
0
 62
     0
 66
     1
 10
0
 20
0
 30
0.0
 40
0
 41
0
  0
VERTEX
  8
0
 10
12.4015
 20
6.37799
 30
0.0
 40
0
 41
0
  0
VERTEX
  8
0
 10
12.4015
 20
7.40158
 30
0.0
 40
0
 41
0
  0
SEQEND
 8
0
  0
POLYLINE
  8
0
 62
     0
 66
     1
 10
0
 20
0
 30
0.0
 40
0
 41
0
  0
VERTEX
  8
0
 10
12.3221
 20
7.48031
 30
0.0
 40
0
 41
0
  0
VERTEX
  8
0
 10
12.3221
 20
6.96853
 30
0.0
 40
0
 41
0
  0
SEQEND
 8
0
  0
POLYLINE
  8
0
 62
     0
 66
     1
 10
0
 20
0
 30
0.0
 40
0
 41
0
  0
VERTEX
  8
0
 10
12.3221
 20
6.81104
 30
0.0
 40
0
 41
0
  0
VERTEX
  8
0
 10
12.3221
 20
5.78743
 30
0.0
 40
0
 41
0
  0
SEQEND
 8
0
  0
POLYLINE
  8
0
 62
     0
 66
     1
 10
0
 20
0
 30
0.0
 40
0
 41
0
  0
VERTEX
  8
0
 10
12.3221
 20
5.62993
 30
0.0
 40
0
 41
0
  0
VERTEX
  8
0
 10
12.3221
 20
5.11811
 30
0.0
 40
0
 41
0
  0
SEQEND
 8
0
  0
POLYLINE
  8
0
 62
     0
 66
     1
 10
0
 20
0
 30
0.0
 40
0
 41
0
  0
VERTEX
  8
0
 10
12.2425
 20
5.19683
 30
0.0
 40
0
 41
0
  0
VERTEX
  8
0
 10
12.2425
 20
6.22049
 30
0.0
 40
0
 41
0
  0
SEQEND
 8
0
  0
POLYLINE
  8
0
 62
     0
 66
     1
 10
0
 20
0
 30
0.0
 40
0
 41
0
  0
VERTEX
  8
0
 10
12.2425
 20
6.37799
 30
0.0
 40
0
 41
0
  0
VERTEX
  8
0
 10
12.2425
 20
7.40158
 30
0.0
 40
0
 41
0
  0
SEQEND
 8
0
  0
POLYLINE
  8
0
 62
     0
 66
     1
 10
0
 20
0
 30
0.0
 40
0
 41
0
  0
VERTEX
  8
0
 10
12.163
 20
7.48031
 30
0.0
 40
0
 41
0
  0
VERTEX
  8
0
 10
12.163
 20
6.96853
 30
0.0
 40
0
 41
0
  0
SEQEND
 8
0
  0
POLYLINE
  8
0
 62
     0
 66
     1
 10
0
 20
0
 30
0.0
 40
0
 41
0
  0
VERTEX
  8
0
 10
12.163
 20
6.81104
 30
0.0
 40
0
 41
0
  0
VERTEX
  8
0
 10
12.163
 20
5.78743
 30
0.0
 40
0
 41
0
  0
SEQEND
 8
0
  0
POLYLINE
  8
0
 62
     0
 66
     1
 10
0
 20
0
 30
0.0
 40
0
 41
0
  0
VERTEX
  8
0
 10
12.163
 20
5.62993
 30
0.0
 40
0
 41
0
  0
VERTEX
  8
0
 10
12.163
 20
5.11811
 30
0.0
 40
0
 41
0
  0
SEQEND
 8
0
  0
POLYLINE
  8
0
 62
     0
 66
     1
 10
0
 20
0
 30
0.0
 40
0
 41
0
  0
VERTEX
  8
0
 10
12.0835
 20
5.19683
 30
0.0
 40
0
 41
0
  0
VERTEX
  8
0
 10
12.0835
 20
6.22049
 30
0.0
 40
0
 41
0
  0
SEQEND
 8
0
  0
POLYLINE
  8
0
 62
     0
 66
     1
 10
0
 20
0
 30
0.0
 40
0
 41
0
  0
VERTEX
  8
0
 10
12.0835
 20
6.37799
 30
0.0
 40
0
 41
0
  0
VERTEX
  8
0
 10
12.0835
 20
7.40158
 30
0.0
 40
0
 41
0
  0
SEQEND
 8
0
  0
POLYLINE
  8
0
 62
     0
 66
     1
 10
0
 20
0
 30
0.0
 40
0
 41
0
  0
VERTEX
  8
0
 10
12.004
 20
7.48031
 30
0.0
 40
0
 41
0
  0
VERTEX
  8
0
 10
12.004
 20
6.96853
 30
0.0
 40
0
 41
0
  0
SEQEND
 8
0
  0
POLYLINE
  8
0
 62
     0
 66
     1
 10
0
 20
0
 30
0.0
 40
0
 41
0
  0
VERTEX
  8
0
 10
12.004
 20
6.81104
 30
0.0
 40
0
 41
0
  0
VERTEX
  8
0
 10
12.004
 20
5.78743
 30
0.0
 40
0
 41
0
  0
SEQEND
 8
0
  0
POLYLINE
  8
0
 62
     0
 66
     1
 10
0
 20
0
 30
0.0
 40
0
 41
0
  0
VERTEX
  8
0
 10
12.004
 20
5.62993
 30
0.0
 40
0
 41
0
  0
VERTEX
  8
0
 10
12.004
 20
5.11811
 30
0.0
 40
0
 41
0
  0
SEQEND
 8
0
  0
POLYLINE
  8
0
 62
     0
 66
     1
 10
0
 20
0
 30
0.0
 40
0
 41
0
  0
VERTEX
  8
0
 10
11.9245
 20
5.19683
 30
0.0
 40
0
 41
0
  0
VERTEX
  8
0
 10
11.9245
 20
6.22049
 30
0.0
 40
0
 41
0
  0
SEQEND
 8
0
  0
POLYLINE
  8
0
 62
     0
 66
     1
 10
0
 20
0
 30
0.0
 40
0
 41
0
  0
VERTEX
  8
0
 10
11.9245
 20
6.37799
 30
0.0
 40
0
 41
0
  0
VERTEX
  8
0
 10
11.9245
 20
7.40158
 30
0.0
 40
0
 41
0
  0
SEQEND
 8
0
  0
POLYLINE
  8
0
 62
     0
 66
     1
 10
0
 20
0
 30
0.0
 40
0
 41
0
  0
VERTEX
  8
0
 10
11.8449
 20
7.48031
 30
0.0
 40
0
 41
0
  0
VERTEX
  8
0
 10
11.8449
 20
6.96853
 30
0.0
 40
0
 41
0
  0
SEQEND
 8
0
  0
POLYLINE
  8
0
 62
     0
 66
     1
 10
0
 20
0
 30
0.0
 40
0
 41
0
  0
VERTEX
  8
0
 10
11.8449
 20
6.81104
 30
0.0
 40
0
 41
0
  0
VERTEX
  8
0
 10
11.8449
 20
5.78743
 30
0.0
 40
0
 41
0
  0
SEQEND
 8
0
  0
POLYLINE
  8
0
 62
     0
 66
     1
 10
0
 20
0
 30
0.0
 40
0
 41
0
  0
VERTEX
  8
0
 10
11.8449
 20
5.62993
 30
0.0
 40
0
 41
0
  0
VERTEX
  8
0
 10
11.8449
 20
5.11811
 30
0.0
 40
0
 41
0
  0
SEQEND
 8
0
  0
POLYLINE
  8
0
 62
     0
 66
     1
 10
0
 20
0
 30
0.0
 40
0
 41
0
  0
VERTEX
  8
0
 10
11.7655
 20
5.19683
 30
0.0
 40
0
 41
0
  0
VERTEX
  8
0
 10
11.7655
 20
6.22049
 30
0.0
 40
0
 41
0
  0
SEQEND
 8
0
  0
POLYLINE
  8
0
 62
     0
 66
     1
 10
0
 20
0
 30
0.0
 40
0
 41
0
  0
VERTEX
  8
0
 10
11.7655
 20
6.37799
 30
0.0
 40
0
 41
0
  0
VERTEX
  8
0
 10
11.7655
 20
7.40158
 30
0.0
 40
0
 41
0
  0
SEQEND
 8
0
  0
POLYLINE
  8
0
 62
     0
 66
     1
 10
0
 20
0
 30
0.0
 40
0
 41
0
  0
VERTEX
  8
0
 10
11.6859
 20
7.48031
 30
0.0
 40
0
 41
0
  0
VERTEX
  8
0
 10
11.6859
 20
6.96853
 30
0.0
 40
0
 41
0
  0
SEQEND
 8
0
  0
POLYLINE
  8
0
 62
     0
 66
     1
 10
0
 20
0
 30
0.0
 40
0
 41
0
  0
VERTEX
  8
0
 10
11.6859
 20
6.81104
 30
0.0
 40
0
 41
0
  0
VERTEX
  8
0
 10
11.6859
 20
5.78743
 30
0.0
 40
0
 41
0
  0
SEQEND
 8
0
  0
POLYLINE
  8
0
 62
     0
 66
     1
 10
0
 20
0
 30
0.0
 40
0
 41
0
  0
VERTEX
  8
0
 10
11.6859
 20
5.62993
 30
0.0
 40
0
 41
0
  0
VERTEX
  8
0
 10
11.6859
 20
5.11811
 30
0.0
 40
0
 41
0
  0
SEQEND
 8
0
  0
POLYLINE
  8
0
 62
     0
 66
     1
 10
0
 20
0
 30
0.0
 40
0
 41
0
  0
VERTEX
  8
0
 10
11.6064
 20
5.19683
 30
0.0
 40
0
 41
0
  0
VERTEX
  8
0
 10
11.6064
 20
6.22049
 30
0.0
 40
0
 41
0
  0
SEQEND
 8
0
  0
POLYLINE
  8
0
 62
     0
 66
     1
 10
0
 20
0
 30
0.0
 40
0
 41
0
  0
VERTEX
  8
0
 10
11.6064
 20
6.37799
 30
0.0
 40
0
 41
0
  0
VERTEX
  8
0
 10
11.6064
 20
7.40158
 30
0.0
 40
0
 41
0
  0
SEQEND
 8
0
  0
POLYLINE
  8
0
 62
     0
 66
     1
 10
0
 20
0
 30
0.0
 40
0
 41
0
  0
VERTEX
  8
0
 10
11.5269
 20
7.48031
 30
0.0
 40
0
 41
0
  0
VERTEX
  8
0
 10
11.5269
 20
6.96853
 30
0.0
 40
0
 41
0
  0
SEQEND
 8
0
  0
POLYLINE
  8
0
 62
     0
 66
     1
 10
0
 20
0
 30
0.0
 40
0
 41
0
  0
VERTEX
  8
0
 10
11.5269
 20
6.81104
 30
0.0
 40
0
 41
0
  0
VERTEX
  8
0
 10
11.5269
 20
5.78743
 30
0.0
 40
0
 41
0
  0
SEQEND
 8
0
  0
POLYLINE
  8
0
 62
     0
 66
     1
 10
0
 20
0
 30
0.0
 40
0
 41
0
  0
VERTEX
  8
0
 10
11.5269
 20
5.62993
 30
0.0
 40
0
 41
0
  0
VERTEX
  8
0
 10
11.5269
 20
5.11811
 30
0.0
 40
0
 41
0
  0
SEQEND
 8
0
  0
POLYLINE
  8
0
 62
     0
 66
     1
 10
0
 20
0
 30
0.0
 40
0
 41
0
  0
VERTEX
  8
0
 10
11.4474
 20
5.19683
 30
0.0
 40
0
 41
0
  0
VERTEX
  8
0
 10
11.4474
 20
6.22049
 30
0.0
 40
0
 41
0
  0
SEQEND
 8
0
  0
POLYLINE
  8
0
 62
     0
 66
     1
 10
0
 20
0
 30
0.0
 40
0
 41
0
  0
VERTEX
  8
0
 10
11.4474
 20
6.37799
 30
0.0
 40
0
 41
0
  0
VERTEX
  8
0
 10
11.4474
 20
7.40158
 30
0.0
 40
0
 41
0
  0
SEQEND
 8
0
  0
POLYLINE
  8
0
 62
     0
 66
     1
 10
0
 20
0
 30
0.0
 40
0
 41
0
  0
VERTEX
  8
0
 10
11.3679
 20
7.48031
 30
0.0
 40
0
 41
0
  0
VERTEX
  8
0
 10
11.3679
 20
6.96853
 30
0.0
 40
0
 41
0
  0
SEQEND
 8
0
  0
POLYLINE
  8
0
 62
     0
 66
     1
 10
0
 20
0
 30
0.0
 40
0
 41
0
  0
VERTEX
  8
0
 10
11.3679
 20
6.81104
 30
0.0
 40
0
 41
0
  0
VERTEX
  8
0
 10
11.3679
 20
5.78743
 30
0.0
 40
0
 41
0
  0
SEQEND
 8
0
  0
POLYLINE
  8
0
 62
     0
 66
     1
 10
0
 20
0
 30
0.0
 40
0
 41
0
  0
VERTEX
  8
0
 10
11.3679
 20
5.62993
 30
0.0
 40
0
 41
0
  0
VERTEX
  8
0
 10
11.3679
 20
5.11811
 30
0.0
 40
0
 41
0
  0
SEQEND
 8
0
  0
POLYLINE
  8
0
 62
     0
 66
     1
 10
0
 20
0
 30
0.0
 40
0
 41
0
  0
VERTEX
  8
0
 10
11.2884
 20
5.19683
 30
0.0
 40
0
 41
0
  0
VERTEX
  8
0
 10
11.2884
 20
6.22049
 30
0.0
 40
0
 41
0
  0
SEQEND
 8
0
  0
POLYLINE
  8
0
 62
     0
 66
     1
 10
0
 20
0
 30
0.0
 40
0
 41
0
  0
VERTEX
  8
0
 10
11.2884
 20
6.37799
 30
0.0
 40
0
 41
0
  0
VERTEX
  8
0
 10
11.2884
 20
7.40158
 30
0.0
 40
0
 41
0
  0
SEQEND
 8
0
  0
POLYLINE
  8
0
 62
     0
 66
     1
 10
0
 20
0
 30
0.0
 40
0
 41
0
  0
VERTEX
  8
0
 10
11.2089
 20
7.48031
 30
0.0
 40
0
 41
0
  0
VERTEX
  8
0
 10
11.2089
 20
6.96853
 30
0.0
 40
0
 41
0
  0
SEQEND
 8
0
  0
POLYLINE
  8
0
 62
     0
 66
     1
 10
0
 20
0
 30
0.0
 40
0
 41
0
  0
VERTEX
  8
0
 10
11.2089
 20
6.81104
 30
0.0
 40
0
 41
0
  0
VERTEX
  8
0
 10
11.2089
 20
5.78743
 30
0.0
 40
0
 41
0
  0
SEQEND
 8
0
  0
POLYLINE
  8
0
 62
     0
 66
     1
 10
0
 20
0
 30
0.0
 40
0
 41
0
  0
VERTEX
  8
0
 10
11.2089
 20
5.62993
 30
0.0
 40
0
 41
0
  0
VERTEX
  8
0
 10
11.2089
 20
5.11811
 30
0.0
 40
0
 41
0
  0
SEQEND
 8
0
  0
POLYLINE
  8
0
 62
     0
 66
     1
 10
0
 20
0
 30
0.0
 40
0
 41
0
  0
VERTEX
  8
0
 10
11.1293
 20
5.19683
 30
0.0
 40
0
 41
0
  0
VERTEX
  8
0
 10
11.1293
 20
6.22049
 30
0.0
 40
0
 41
0
  0
SEQEND
 8
0
  0
POLYLINE
  8
0
 62
     0
 66
     1
 10
0
 20
0
 30
0.0
 40
0
 41
0
  0
VERTEX
  8
0
 10
11.1293
 20
6.37799
 30
0.0
 40
0
 41
0
  0
VERTEX
  8
0
 10
11.1293
 20
7.40158
 30
0.0
 40
0
 41
0
  0
SEQEND
 8
0
  0
POLYLINE
  8
0
 62
     0
 66
     1
 10
0
 20
0
 30
0.0
 40
0
 41
0
  0
VERTEX
  8
0
 10
11.0499
 20
7.48031
 30
0.0
 40
0
 41
0
  0
VERTEX
  8
0
 10
11.0499
 20
6.96853
 30
0.0
 40
0
 41
0
  0
SEQEND
 8
0
  0
POLYLINE
  8
0
 62
     0
 66
     1
 10
0
 20
0
 30
0.0
 40
0
 41
0
  0
VERTEX
  8
0
 10
11.0499
 20
6.81104
 30
0.0
 40
0
 41
0
  0
VERTEX
  8
0
 10
11.0499
 20
5.78743
 30
0.0
 40
0
 41
0
  0
SEQEND
 8
0
  0
POLYLINE
  8
0
 62
     0
 66
     1
 10
0
 20
0
 30
0.0
 40
0
 41
0
  0
VERTEX
  8
0
 10
11.0499
 20
5.62993
 30
0.0
 40
0
 41
0
  0
VERTEX
  8
0
 10
11.0499
 20
5.11811
 30
0.0
 40
0
 41
0
  0
SEQEND
 8
0
  0
POLYLINE
  8
0
 62
     0
 66
     1
 10
0
 20
0
 30
0.0
 40
0
 41
0
  0
VERTEX
  8
0
 10
10.9703
 20
5.19683
 30
0.0
 40
0
 41
0
  0
VERTEX
  8
0
 10
10.9703
 20
6.22049
 30
0.0
 40
0
 41
0
  0
SEQEND
 8
0
  0
POLYLINE
  8
0
 62
     0
 66
     1
 10
0
 20
0
 30
0.0
 40
0
 41
0
  0
VERTEX
  8
0
 10
10.9703
 20
6.37799
 30
0.0
 40
0
 41
0
  0
VERTEX
  8
0
 10
10.9703
 20
7.40158
 30
0.0
 40
0
 41
0
  0
SEQEND
 8
0
  0
POLYLINE
  8
0
 62
     0
 66
     1
 10
0
 20
0
 30
0.0
 40
0
 41
0
  0
VERTEX
  8
0
 10
13.1967
 20
7.48031
 30
0.0
 40
0
 41
0
  0
VERTEX
  8
0
 10
10.9703
 20
7.48031
 30
0.0
 40
0
 41
0
  0
SEQEND
 8
0
  0
POLYLINE
  8
0
 62
     0
 66
     1
 10
0
 20
0
 30
0.0
 40
0
 41
0
  0
VERTEX
  8
0
 10
10.9703
 20
5.11811
 30
0.0
 40
0
 41
0
  0
VERTEX
  8
0
 10
13.1967
 20
5.11811
 30
0.0
 40
0
 41
0
  0
SEQEND
 8
0
  0
POLYLINE
  8
0
 62
     0
 66
     1
 10
0
 20
0
 30
0.0
 40
0
 41
0
  0
VERTEX
  8
0
 10
9.78922
 20
5.19683
 30
0.0
 40
0
 41
0
  0
VERTEX
  8
0
 10
9.78922
 20
6.22049
 30
0.0
 40
0
 41
0
  0
SEQEND
 8
0
  0
POLYLINE
  8
0
 62
     0
 66
     1
 10
0
 20
0
 30
0.0
 40
0
 41
0
  0
VERTEX
  8
0
 10
9.78922
 20
6.37799
 30
0.0
 40
0
 41
0
  0
VERTEX
  8
0
 10
9.78922
 20
7.40158
 30
0.0
 40
0
 41
0
  0
SEQEND
 8
0
  0
POLYLINE
  8
0
 62
     0
 66
     1
 10
0
 20
0
 30
0.0
 40
0
 41
0
  0
VERTEX
  8
0
 10
9.70969
 20
7.48031
 30
0.0
 40
0
 41
0
  0
VERTEX
  8
0
 10
9.70969
 20
6.96853
 30
0.0
 40
0
 41
0
  0
SEQEND
 8
0
  0
POLYLINE
  8
0
 62
     0
 66
     1
 10
0
 20
0
 30
0.0
 40
0
 41
0
  0
VERTEX
  8
0
 10
9.70969
 20
6.81104
 30
0.0
 40
0
 41
0
  0
VERTEX
  8
0
 10
9.70969
 20
5.78743
 30
0.0
 40
0
 41
0
  0
SEQEND
 8
0
  0
POLYLINE
  8
0
 62
     0
 66
     1
 10
0
 20
0
 30
0.0
 40
0
 41
0
  0
VERTEX
  8
0
 10
9.70969
 20
5.62993
 30
0.0
 40
0
 41
0
  0
VERTEX
  8
0
 10
9.70969
 20
5.11811
 30
0.0
 40
0
 41
0
  0
SEQEND
 8
0
  0
POLYLINE
  8
0
 62
     0
 66
     1
 10
0
 20
0
 30
0.0
 40
0
 41
0
  0
VERTEX
  8
0
 10
9.63021
 20
5.19683
 30
0.0
 40
0
 41
0
  0
VERTEX
  8
0
 10
9.63021
 20
6.22049
 30
0.0
 40
0
 41
0
  0
SEQEND
 8
0
  0
POLYLINE
  8
0
 62
     0
 66
     1
 10
0
 20
0
 30
0.0
 40
0
 41
0
  0
VERTEX
  8
0
 10
9.63021
 20
6.37799
 30
0.0
 40
0
 41
0
  0
VERTEX
  8
0
 10
9.63021
 20
7.40158
 30
0.0
 40
0
 41
0
  0
SEQEND
 8
0
  0
POLYLINE
  8
0
 62
     0
 66
     1
 10
0
 20
0
 30
0.0
 40
0
 41
0
  0
VERTEX
  8
0
 10
9.55067
 20
7.48031
 30
0.0
 40
0
 41
0
  0
VERTEX
  8
0
 10
9.55067
 20
6.96853
 30
0.0
 40
0
 41
0
  0
SEQEND
 8
0
  0
POLYLINE
  8
0
 62
     0
 66
     1
 10
0
 20
0
 30
0.0
 40
0
 41
0
  0
VERTEX
  8
0
 10
9.55067
 20
6.81104
 30
0.0
 40
0
 41
0
  0
VERTEX
  8
0
 10
9.55067
 20
5.78743
 30
0.0
 40
0
 41
0
  0
SEQEND
 8
0
  0
POLYLINE
  8
0
 62
     0
 66
     1
 10
0
 20
0
 30
0.0
 40
0
 41
0
  0
VERTEX
  8
0
 10
9.55067
 20
5.62993
 30
0.0
 40
0
 41
0
  0
VERTEX
  8
0
 10
9.55067
 20
5.11811
 30
0.0
 40
0
 41
0
  0
SEQEND
 8
0
  0
POLYLINE
  8
0
 62
     0
 66
     1
 10
0
 20
0
 30
0.0
 40
0
 41
0
  0
VERTEX
  8
0
 10
9.47119
 20
5.19683
 30
0.0
 40
0
 41
0
  0
VERTEX
  8
0
 10
9.47119
 20
6.22049
 30
0.0
 40
0
 41
0
  0
SEQEND
 8
0
  0
POLYLINE
  8
0
 62
     0
 66
     1
 10
0
 20
0
 30
0.0
 40
0
 41
0
  0
VERTEX
  8
0
 10
9.47119
 20
6.37799
 30
0.0
 40
0
 41
0
  0
VERTEX
  8
0
 10
9.47119
 20
7.40158
 30
0.0
 40
0
 41
0
  0
SEQEND
 8
0
  0
POLYLINE
  8
0
 62
     0
 66
     1
 10
0
 20
0
 30
0.0
 40
0
 41
0
  0
VERTEX
  8
0
 10
9.39165
 20
7.48031
 30
0.0
 40
0
 41
0
  0
VERTEX
  8
0
 10
9.39165
 20
6.96853
 30
0.0
 40
0
 41
0
  0
SEQEND
 8
0
  0
POLYLINE
  8
0
 62
     0
 66
     1
 10
0
 20
0
 30
0.0
 40
0
 41
0
  0
VERTEX
  8
0
 10
9.39165
 20
6.81104
 30
0.0
 40
0
 41
0
  0
VERTEX
  8
0
 10
9.39165
 20
5.78743
 30
0.0
 40
0
 41
0
  0
SEQEND
 8
0
  0
POLYLINE
  8
0
 62
     0
 66
     1
 10
0
 20
0
 30
0.0
 40
0
 41
0
  0
VERTEX
  8
0
 10
9.39165
 20
5.62993
 30
0.0
 40
0
 41
0
  0
VERTEX
  8
0
 10
9.39165
 20
5.11811
 30
0.0
 40
0
 41
0
  0
SEQEND
 8
0
  0
POLYLINE
  8
0
 62
     0
 66
     1
 10
0
 20
0
 30
0.0
 40
0
 41
0
  0
VERTEX
  8
0
 10
9.31218
 20
5.19683
 30
0.0
 40
0
 41
0
  0
VERTEX
  8
0
 10
9.31218
 20
6.22049
 30
0.0
 40
0
 41
0
  0
SEQEND
 8
0
  0
POLYLINE
  8
0
 62
     0
 66
     1
 10
0
 20
0
 30
0.0
 40
0
 41
0
  0
VERTEX
  8
0
 10
9.31218
 20
6.37799
 30
0.0
 40
0
 41
0
  0
VERTEX
  8
0
 10
9.31218
 20
7.40158
 30
0.0
 40
0
 41
0
  0
SEQEND
 8
0
  0
POLYLINE
  8
0
 62
     0
 66
     1
 10
0
 20
0
 30
0.0
 40
0
 41
0
  0
VERTEX
  8
0
 10
9.23264
 20
7.48031
 30
0.0
 40
0
 41
0
  0
VERTEX
  8
0
 10
9.23264
 20
6.96853
 30
0.0
 40
0
 41
0
  0
SEQEND
 8
0
  0
POLYLINE
  8
0
 62
     0
 66
     1
 10
0
 20
0
 30
0.0
 40
0
 41
0
  0
VERTEX
  8
0
 10
9.23264
 20
6.81104
 30
0.0
 40
0
 41
0
  0
VERTEX
  8
0
 10
9.23264
 20
5.78743
 30
0.0
 40
0
 41
0
  0
SEQEND
 8
0
  0
POLYLINE
  8
0
 62
     0
 66
     1
 10
0
 20
0
 30
0.0
 40
0
 41
0
  0
VERTEX
  8
0
 10
9.23264
 20
5.62993
 30
0.0
 40
0
 41
0
  0
VERTEX
  8
0
 10
9.23264
 20
5.11811
 30
0.0
 40
0
 41
0
  0
SEQEND
 8
0
  0
POLYLINE
  8
0
 62
     0
 66
     1
 10
0
 20
0
 30
0.0
 40
0
 41
0
  0
VERTEX
  8
0
 10
9.1531
 20
5.19683
 30
0.0
 40
0
 41
0
  0
VERTEX
  8
0
 10
9.1531
 20
6.22049
 30
0.0
 40
0
 41
0
  0
SEQEND
 8
0
  0
POLYLINE
  8
0
 62
     0
 66
     1
 10
0
 20
0
 30
0.0
 40
0
 41
0
  0
VERTEX
  8
0
 10
9.1531
 20
6.37799
 30
0.0
 40
0
 41
0
  0
VERTEX
  8
0
 10
9.1531
 20
7.40158
 30
0.0
 40
0
 41
0
  0
SEQEND
 8
0
  0
POLYLINE
  8
0
 62
     0
 66
     1
 10
0
 20
0
 30
0.0
 40
0
 41
0
  0
VERTEX
  8
0
 10
9.07363
 20
7.48031
 30
0.0
 40
0
 41
0
  0
VERTEX
  8
0
 10
9.07363
 20
6.96853
 30
0.0
 40
0
 41
0
  0
SEQEND
 8
0
  0
POLYLINE
  8
0
 62
     0
 66
     1
 10
0
 20
0
 30
0.0
 40
0
 41
0
  0
VERTEX
  8
0
 10
9.07363
 20
6.81104
 30
0.0
 40
0
 41
0
  0
VERTEX
  8
0
 10
9.07363
 20
5.78743
 30
0.0
 40
0
 41
0
  0
SEQEND
 8
0
  0
POLYLINE
  8
0
 62
     0
 66
     1
 10
0
 20
0
 30
0.0
 40
0
 41
0
  0
VERTEX
  8
0
 10
9.07363
 20
5.62993
 30
0.0
 40
0
 41
0
  0
VERTEX
  8
0
 10
9.07363
 20
5.11811
 30
0.0
 40
0
 41
0
  0
SEQEND
 8
0
  0
POLYLINE
  8
0
 62
     0
 66
     1
 10
0
 20
0
 30
0.0
 40
0
 41
0
  0
VERTEX
  8
0
 10
8.99408
 20
5.19683
 30
0.0
 40
0
 41
0
  0
VERTEX
  8
0
 10
8.99408
 20
6.22049
 30
0.0
 40
0
 41
0
  0
SEQEND
 8
0
  0
POLYLINE
  8
0
 62
     0
 66
     1
 10
0
 20
0
 30
0.0
 40
0
 41
0
  0
VERTEX
  8
0
 10
8.99408
 20
6.37799
 30
0.0
 40
0
 41
0
  0
VERTEX
  8
0
 10
8.99408
 20
7.40158
 30
0.0
 40
0
 41
0
  0
SEQEND
 8
0
  0
POLYLINE
  8
0
 62
     0
 66
     1
 10
0
 20
0
 30
0.0
 40
0
 41
0
  0
VERTEX
  8
0
 10
8.91461
 20
7.48031
 30
0.0
 40
0
 41
0
  0
VERTEX
  8
0
 10
8.91461
 20
6.96853
 30
0.0
 40
0
 41
0
  0
SEQEND
 8
0
  0
POLYLINE
  8
0
 62
     0
 66
     1
 10
0
 20
0
 30
0.0
 40
0
 41
0
  0
VERTEX
  8
0
 10
8.91461
 20
6.81104
 30
0.0
 40
0
 41
0
  0
VERTEX
  8
0
 10
8.91461
 20
5.78743
 30
0.0
 40
0
 41
0
  0
SEQEND
 8
0
  0
POLYLINE
  8
0
 62
     0
 66
     1
 10
0
 20
0
 30
0.0
 40
0
 41
0
  0
VERTEX
  8
0
 10
8.91461
 20
5.62993
 30
0.0
 40
0
 41
0
  0
VERTEX
  8
0
 10
8.91461
 20
5.11811
 30
0.0
 40
0
 41
0
  0
SEQEND
 8
0
  0
POLYLINE
  8
0
 62
     0
 66
     1
 10
0
 20
0
 30
0.0
 40
0
 41
0
  0
VERTEX
  8
0
 10
8.83507
 20
5.19683
 30
0.0
 40
0
 41
0
  0
VERTEX
  8
0
 10
8.83507
 20
6.22049
 30
0.0
 40
0
 41
0
  0
SEQEND
 8
0
  0
POLYLINE
  8
0
 62
     0
 66
     1
 10
0
 20
0
 30
0.0
 40
0
 41
0
  0
VERTEX
  8
0
 10
8.83507
 20
6.37799
 30
0.0
 40
0
 41
0
  0
VERTEX
  8
0
 10
8.83507
 20
7.40158
 30
0.0
 40
0
 41
0
  0
SEQEND
 8
0
  0
POLYLINE
  8
0
 62
     0
 66
     1
 10
0
 20
0
 30
0.0
 40
0
 41
0
  0
VERTEX
  8
0
 10
8.75558
 20
7.48031
 30
0.0
 40
0
 41
0
  0
VERTEX
  8
0
 10
8.75558
 20
6.96853
 30
0.0
 40
0
 41
0
  0
SEQEND
 8
0
  0
POLYLINE
  8
0
 62
     0
 66
     1
 10
0
 20
0
 30
0.0
 40
0
 41
0
  0
VERTEX
  8
0
 10
8.75558
 20
6.81104
 30
0.0
 40
0
 41
0
  0
VERTEX
  8
0
 10
8.75558
 20
5.78743
 30
0.0
 40
0
 41
0
  0
SEQEND
 8
0
  0
POLYLINE
  8
0
 62
     0
 66
     1
 10
0
 20
0
 30
0.0
 40
0
 41
0
  0
VERTEX
  8
0
 10
8.75558
 20
5.62993
 30
0.0
 40
0
 41
0
  0
VERTEX
  8
0
 10
8.75558
 20
5.11811
 30
0.0
 40
0
 41
0
  0
SEQEND
 8
0
  0
POLYLINE
  8
0
 62
     0
 66
     1
 10
0
 20
0
 30
0.0
 40
0
 41
0
  0
VERTEX
  8
0
 10
8.67606
 20
5.19683
 30
0.0
 40
0
 41
0
  0
VERTEX
  8
0
 10
8.67606
 20
6.22049
 30
0.0
 40
0
 41
0
  0
SEQEND
 8
0
  0
POLYLINE
  8
0
 62
     0
 66
     1
 10
0
 20
0
 30
0.0
 40
0
 41
0
  0
VERTEX
  8
0
 10
8.67606
 20
6.37799
 30
0.0
 40
0
 41
0
  0
VERTEX
  8
0
 10
8.67606
 20
7.40158
 30
0.0
 40
0
 41
0
  0
SEQEND
 8
0
  0
POLYLINE
  8
0
 62
     0
 66
     1
 10
0
 20
0
 30
0.0
 40
0
 41
0
  0
VERTEX
  8
0
 10
8.59657
 20
7.48031
 30
0.0
 40
0
 41
0
  0
VERTEX
  8
0
 10
8.59657
 20
6.96853
 30
0.0
 40
0
 41
0
  0
SEQEND
 8
0
  0
POLYLINE
  8
0
 62
     0
 66
     1
 10
0
 20
0
 30
0.0
 40
0
 41
0
  0
VERTEX
  8
0
 10
8.59657
 20
6.81104
 30
0.0
 40
0
 41
0
  0
VERTEX
  8
0
 10
8.59657
 20
5.78743
 30
0.0
 40
0
 41
0
  0
SEQEND
 8
0
  0
POLYLINE
  8
0
 62
     0
 66
     1
 10
0
 20
0
 30
0.0
 40
0
 41
0
  0
VERTEX
  8
0
 10
8.59657
 20
5.62993
 30
0.0
 40
0
 41
0
  0
VERTEX
  8
0
 10
8.59657
 20
5.11811
 30
0.0
 40
0
 41
0
  0
SEQEND
 8
0
  0
POLYLINE
  8
0
 62
     0
 66
     1
 10
0
 20
0
 30
0.0
 40
0
 41
0
  0
VERTEX
  8
0
 10
8.51704
 20
5.19683
 30
0.0
 40
0
 41
0
  0
VERTEX
  8
0
 10
8.51704
 20
6.22049
 30
0.0
 40
0
 41
0
  0
SEQEND
 8
0
  0
POLYLINE
  8
0
 62
     0
 66
     1
 10
0
 20
0
 30
0.0
 40
0
 41
0
  0
VERTEX
  8
0
 10
8.51704
 20
6.37799
 30
0.0
 40
0
 41
0
  0
VERTEX
  8
0
 10
8.51704
 20
7.40158
 30
0.0
 40
0
 41
0
  0
SEQEND
 8
0
  0
POLYLINE
  8
0
 62
     0
 66
     1
 10
0
 20
0
 30
0.0
 40
0
 41
0
  0
VERTEX
  8
0
 10
8.4375
 20
7.48031
 30
0.0
 40
0
 41
0
  0
VERTEX
  8
0
 10
8.4375
 20
6.96853
 30
0.0
 40
0
 41
0
  0
SEQEND
 8
0
  0
POLYLINE
  8
0
 62
     0
 66
     1
 10
0
 20
0
 30
0.0
 40
0
 41
0
  0
VERTEX
  8
0
 10
8.4375
 20
6.81104
 30
0.0
 40
0
 41
0
  0
VERTEX
  8
0
 10
8.4375
 20
5.78743
 30
0.0
 40
0
 41
0
  0
SEQEND
 8
0
  0
POLYLINE
  8
0
 62
     0
 66
     1
 10
0
 20
0
 30
0.0
 40
0
 41
0
  0
VERTEX
  8
0
 10
8.4375
 20
5.62993
 30
0.0
 40
0
 41
0
  0
VERTEX
  8
0
 10
8.4375
 20
5.11811
 30
0.0
 40
0
 41
0
  0
SEQEND
 8
0
  0
POLYLINE
  8
0
 62
     0
 66
     1
 10
0
 20
0
 30
0.0
 40
0
 41
0
  0
VERTEX
  8
0
 10
8.35801
 20
5.19683
 30
0.0
 40
0
 41
0
  0
VERTEX
  8
0
 10
8.35801
 20
6.22049
 30
0.0
 40
0
 41
0
  0
SEQEND
 8
0
  0
POLYLINE
  8
0
 62
     0
 66
     1
 10
0
 20
0
 30
0.0
 40
0
 41
0
  0
VERTEX
  8
0
 10
8.35801
 20
6.37799
 30
0.0
 40
0
 41
0
  0
VERTEX
  8
0
 10
8.35801
 20
7.40158
 30
0.0
 40
0
 41
0
  0
SEQEND
 8
0
  0
POLYLINE
  8
0
 62
     0
 66
     1
 10
0
 20
0
 30
0.0
 40
0
 41
0
  0
VERTEX
  8
0
 10
8.27849
 20
7.48031
 30
0.0
 40
0
 41
0
  0
VERTEX
  8
0
 10
8.27849
 20
6.96853
 30
0.0
 40
0
 41
0
  0
SEQEND
 8
0
  0
POLYLINE
  8
0
 62
     0
 66
     1
 10
0
 20
0
 30
0.0
 40
0
 41
0
  0
VERTEX
  8
0
 10
8.27849
 20
6.81104
 30
0.0
 40
0
 41
0
  0
VERTEX
  8
0
 10
8.27849
 20
5.78743
 30
0.0
 40
0
 41
0
  0
SEQEND
 8
0
  0
POLYLINE
  8
0
 62
     0
 66
     1
 10
0
 20
0
 30
0.0
 40
0
 41
0
  0
VERTEX
  8
0
 10
8.27849
 20
5.62993
 30
0.0
 40
0
 41
0
  0
VERTEX
  8
0
 10
8.27849
 20
5.11811
 30
0.0
 40
0
 41
0
  0
SEQEND
 8
0
  0
POLYLINE
  8
0
 62
     0
 66
     1
 10
0
 20
0
 30
0.0
 40
0
 41
0
  0
VERTEX
  8
0
 10
8.199
 20
5.19683
 30
0.0
 40
0
 41
0
  0
VERTEX
  8
0
 10
8.199
 20
6.22049
 30
0.0
 40
0
 41
0
  0
SEQEND
 8
0
  0
POLYLINE
  8
0
 62
     0
 66
     1
 10
0
 20
0
 30
0.0
 40
0
 41
0
  0
VERTEX
  8
0
 10
8.199
 20
6.37799
 30
0.0
 40
0
 41
0
  0
VERTEX
  8
0
 10
8.199
 20
7.40158
 30
0.0
 40
0
 41
0
  0
SEQEND
 8
0
  0
POLYLINE
  8
0
 62
     0
 66
     1
 10
0
 20
0
 30
0.0
 40
0
 41
0
  0
VERTEX
  8
0
 10
8.11947
 20
7.48031
 30
0.0
 40
0
 41
0
  0
VERTEX
  8
0
 10
8.11947
 20
6.96853
 30
0.0
 40
0
 41
0
  0
SEQEND
 8
0
  0
POLYLINE
  8
0
 62
     0
 66
     1
 10
0
 20
0
 30
0.0
 40
0
 41
0
  0
VERTEX
  8
0
 10
8.11947
 20
6.81104
 30
0.0
 40
0
 41
0
  0
VERTEX
  8
0
 10
8.11947
 20
5.78743
 30
0.0
 40
0
 41
0
  0
SEQEND
 8
0
  0
POLYLINE
  8
0
 62
     0
 66
     1
 10
0
 20
0
 30
0.0
 40
0
 41
0
  0
VERTEX
  8
0
 10
8.11947
 20
5.62993
 30
0.0
 40
0
 41
0
  0
VERTEX
  8
0
 10
8.11947
 20
5.11811
 30
0.0
 40
0
 41
0
  0
SEQEND
 8
0
  0
POLYLINE
  8
0
 62
     0
 66
     1
 10
0
 20
0
 30
0.0
 40
0
 41
0
  0
VERTEX
  8
0
 10
8.03999
 20
5.19683
 30
0.0
 40
0
 41
0
  0
VERTEX
  8
0
 10
8.03999
 20
6.22049
 30
0.0
 40
0
 41
0
  0
SEQEND
 8
0
  0
POLYLINE
  8
0
 62
     0
 66
     1
 10
0
 20
0
 30
0.0
 40
0
 41
0
  0
VERTEX
  8
0
 10
8.03999
 20
6.37799
 30
0.0
 40
0
 41
0
  0
VERTEX
  8
0
 10
8.03999
 20
7.40158
 30
0.0
 40
0
 41
0
  0
SEQEND
 8
0
  0
POLYLINE
  8
0
 62
     0
 66
     1
 10
0
 20
0
 30
0.0
 40
0
 41
0
  0
VERTEX
  8
0
 10
7.96044
 20
7.48031
 30
0.0
 40
0
 41
0
  0
VERTEX
  8
0
 10
7.96044
 20
6.96853
 30
0.0
 40
0
 41
0
  0
SEQEND
 8
0
  0
POLYLINE
  8
0
 62
     0
 66
     1
 10
0
 20
0
 30
0.0
 40
0
 41
0
  0
VERTEX
  8
0
 10
7.96044
 20
6.81104
 30
0.0
 40
0
 41
0
  0
VERTEX
  8
0
 10
7.96044
 20
5.78743
 30
0.0
 40
0
 41
0
  0
SEQEND
 8
0
  0
POLYLINE
  8
0
 62
     0
 66
     1
 10
0
 20
0
 30
0.0
 40
0
 41
0
  0
VERTEX
  8
0
 10
7.96044
 20
5.62993
 30
0.0
 40
0
 41
0
  0
VERTEX
  8
0
 10
7.96044
 20
5.11811
 30
0.0
 40
0
 41
0
  0
SEQEND
 8
0
  0
POLYLINE
  8
0
 62
     0
 66
     1
 10
0
 20
0
 30
0.0
 40
0
 41
0
  0
VERTEX
  8
0
 10
7.88097
 20
5.19683
 30
0.0
 40
0
 41
0
  0
VERTEX
  8
0
 10
7.88097
 20
6.22049
 30
0.0
 40
0
 41
0
  0
SEQEND
 8
0
  0
POLYLINE
  8
0
 62
     0
 66
     1
 10
0
 20
0
 30
0.0
 40
0
 41
0
  0
VERTEX
  8
0
 10
7.88097
 20
6.37799
 30
0.0
 40
0
 41
0
  0
VERTEX
  8
0
 10
7.88097
 20
7.40158
 30
0.0
 40
0
 41
0
  0
SEQEND
 8
0
  0
POLYLINE
  8
0
 62
     0
 66
     1
 10
0
 20
0
 30
0.0
 40
0
 41
0
  0
VERTEX
  8
0
 10
7.80143
 20
7.48031
 30
0.0
 40
0
 41
0
  0
VERTEX
  8
0
 10
7.80143
 20
6.96853
 30
0.0
 40
0
 41
0
  0
SEQEND
 8
0
  0
POLYLINE
  8
0
 62
     0
 66
     1
 10
0
 20
0
 30
0.0
 40
0
 41
0
  0
VERTEX
  8
0
 10
7.80143
 20
6.81104
 30
0.0
 40
0
 41
0
  0
VERTEX
  8
0
 10
7.80143
 20
5.78743
 30
0.0
 40
0
 41
0
  0
SEQEND
 8
0
  0
POLYLINE
  8
0
 62
     0
 66
     1
 10
0
 20
0
 30
0.0
 40
0
 41
0
  0
VERTEX
  8
0
 10
7.80143
 20
5.62993
 30
0.0
 40
0
 41
0
  0
VERTEX
  8
0
 10
7.80143
 20
5.11811
 30
0.0
 40
0
 41
0
  0
SEQEND
 8
0
  0
POLYLINE
  8
0
 62
     0
 66
     1
 10
0
 20
0
 30
0.0
 40
0
 41
0
  0
VERTEX
  8
0
 10
7.7219
 20
5.19683
 30
0.0
 40
0
 41
0
  0
VERTEX
  8
0
 10
7.7219
 20
6.22049
 30
0.0
 40
0
 41
0
  0
SEQEND
 8
0
  0
POLYLINE
  8
0
 62
     0
 66
     1
 10
0
 20
0
 30
0.0
 40
0
 41
0
  0
VERTEX
  8
0
 10
7.7219
 20
6.37799
 30
0.0
 40
0
 41
0
  0
VERTEX
  8
0
 10
7.7219
 20
7.40158
 30
0.0
 40
0
 41
0
  0
SEQEND
 8
0
  0
POLYLINE
  8
0
 62
     0
 66
     1
 10
0
 20
0
 30
0.0
 40
0
 41
0
  0
VERTEX
  8
0
 10
7.64242
 20
7.48031
 30
0.0
 40
0
 41
0
  0
VERTEX
  8
0
 10
7.64242
 20
6.96853
 30
0.0
 40
0
 41
0
  0
SEQEND
 8
0
  0
POLYLINE
  8
0
 62
     0
 66
     1
 10
0
 20
0
 30
0.0
 40
0
 41
0
  0
VERTEX
  8
0
 10
7.64242
 20
6.81104
 30
0.0
 40
0
 41
0
  0
VERTEX
  8
0
 10
7.64242
 20
5.78743
 30
0.0
 40
0
 41
0
  0
SEQEND
 8
0
  0
POLYLINE
  8
0
 62
     0
 66
     1
 10
0
 20
0
 30
0.0
 40
0
 41
0
  0
VERTEX
  8
0
 10
7.64242
 20
5.62993
 30
0.0
 40
0
 41
0
  0
VERTEX
  8
0
 10
7.64242
 20
5.11811
 30
0.0
 40
0
 41
0
  0
SEQEND
 8
0
  0
POLYLINE
  8
0
 62
     0
 66
     1
 10
0
 20
0
 30
0.0
 40
0
 41
0
  0
VERTEX
  8
0
 10
7.56287
 20
5.19683
 30
0.0
 40
0
 41
0
  0
VERTEX
  8
0
 10
7.56287
 20
6.22049
 30
0.0
 40
0
 41
0
  0
SEQEND
 8
0
  0
POLYLINE
  8
0
 62
     0
 66
     1
 10
0
 20
0
 30
0.0
 40
0
 41
0
  0
VERTEX
  8
0
 10
7.56287
 20
6.37799
 30
0.0
 40
0
 41
0
  0
VERTEX
  8
0
 10
7.56287
 20
7.40158
 30
0.0
 40
0
 41
0
  0
SEQEND
 8
0
  0
POLYLINE
  8
0
 62
     0
 66
     1
 10
0
 20
0
 30
0.0
 40
0
 41
0
  0
VERTEX
  8
0
 10
9.78922
 20
7.48031
 30
0.0
 40
0
 41
0
  0
VERTEX
  8
0
 10
7.56287
 20
7.48031
 30
0.0
 40
0
 41
0
  0
SEQEND
 8
0
  0
POLYLINE
  8
0
 62
     0
 66
     1
 10
0
 20
0
 30
0.0
 40
0
 41
0
  0
VERTEX
  8
0
 10
7.56287
 20
5.11811
 30
0.0
 40
0
 41
0
  0
VERTEX
  8
0
 10
9.78922
 20
5.11811
 30
0.0
 40
0
 41
0
  0
SEQEND
 8
0
  0
POLYLINE
  8
0
 62
     0
 66
     1
 10
0
 20
0
 30
0.0
 40
0
 41
0
  0
VERTEX
  8
0
 10
13.1967
 20
7.48031
 30
0.0
 40
0
 41
0
  0
VERTEX
  8
0
 10
13.1573
 20
7.48031
 30
0.0
 40
0
 41
0
  0
VERTEX
  8
0
 10
13.1573
 20
7.32286
 30
0.0
 40
0
 41
0
  0
VERTEX
  8
0
 10
13.4722
 20
7.32286
 30
0.0
 40
0
 41
0
  0
VERTEX
  8
0
 10
13.4722
 20
7.48031
 30
0.0
 40
0
 41
0
  0
VERTEX
  8
0
 10
13.7872
 20
7.48031
 30
0.0
 40
0
 41
0
  0
VERTEX
  8
0
 10
13.7872
 20
5.11811
 30
0.0
 40
0
 41
0
  0
VERTEX
  8
0
 10
13.4722
 20
5.11811
 30
0.0
 40
0
 41
0
  0
VERTEX
  8
0
 10
13.4722
 20
5.27561
 30
0.0
 40
0
 41
0
  0
VERTEX
  8
0
 10
13.1573
 20
5.27561
 30
0.0
 40
0
 41
0
  0
VERTEX
  8
0
 10
13.1573
 20
5.11811
 30
0.0
 40
0
 41
0
  0
VERTEX
  8
0
 10
13.1967
 20
5.11811
 30
0.0
 40
0
 41
0
  0
SEQEND
 8
0
  0
POLYLINE
  8
0
 62
     0
 66
     1
 10
0
 20
0
 30
0.0
 40
0
 41
0
  0
VERTEX
  8
0
 10
10.9703
 20
7.48031
 30
0.0
 40
0
 41
0
  0
VERTEX
  8
0
 10
10.7341
 20
7.48031
 30
0.0
 40
0
 41
0
  0
VERTEX
  8
0
 10
10.7341
 20
7.32286
 30
0.0
 40
0
 41
0
  0
VERTEX
  8
0
 10
10.4979
 20
7.32286
 30
0.0
 40
0
 41
0
  0
VERTEX
  8
0
 10
10.4979
 20
7.48031
 30
0.0
 40
0
 41
0
  0
VERTEX
  8
0
 10
10.2617
 20
7.48031
 30
0.0
 40
0
 41
0
  0
VERTEX
  8
0
 10
10.2617
 20
7.32286
 30
0.0
 40
0
 41
0
  0
VERTEX
  8
0
 10
10.0254
 20
7.32286
 30
0.0
 40
0
 41
0
  0
VERTEX
  8
0
 10
10.0254
 20
7.48031
 30
0.0
 40
0
 41
0
  0
VERTEX
  8
0
 10
9.78922
 20
7.48031
 30
0.0
 40
0
 41
0
  0
SEQEND
 8
0
  0
POLYLINE
  8
0
 62
     0
 66
     1
 10
0
 20
0
 30
0.0
 40
0
 41
0
  0
VERTEX
  8
0
 10
9.78922
 20
5.11811
 30
0.0
 40
0
 41
0
  0
VERTEX
  8
0
 10
10.0254
 20
5.11811
 30
0.0
 40
0
 41
0
  0
VERTEX
  8
0
 10
10.0254
 20
5.27561
 30
0.0
 40
0
 41
0
  0
VERTEX
  8
0
 10
10.2617
 20
5.27561
 30
0.0
 40
0
 41
0
  0
VERTEX
  8
0
 10
10.2617
 20
5.11811
 30
0.0
 40
0
 41
0
  0
VERTEX
  8
0
 10
10.4979
 20
5.11811
 30
0.0
 40
0
 41
0
  0
VERTEX
  8
0
 10
10.4979
 20
5.27561
 30
0.0
 40
0
 41
0
  0
VERTEX
  8
0
 10
10.7341
 20
5.27561
 30
0.0
 40
0
 41
0
  0
VERTEX
  8
0
 10
10.7341
 20
5.11811
 30
0.0
 40
0
 41
0
  0
VERTEX
  8
0
 10
10.9703
 20
5.11811
 30
0.0
 40
0
 41
0
  0
SEQEND
 8
0
  0
POLYLINE
  8
0
 62
     0
 66
     1
 10
0
 20
0
 30
0.0
 40
0
 41
0
  0
VERTEX
  8
0
 10
6.38178
 20
7.48031
 30
0.0
 40
0
 41
0
  0
VERTEX
  8
0
 10
6.7755
 20
7.48031
 30
0.0
 40
0
 41
0
  0
VERTEX
  8
0
 10
6.7755
 20
7.32286
 30
0.0
 40
0
 41
0
  0
VERTEX
  8
0
 10
7.16922
 20
7.32286
 30
0.0
 40
0
 41
0
  0
VERTEX
  8
0
 10
7.16922
 20
7.48031
 30
0.0
 40
0
 41
0
  0
VERTEX
  8
0
 10
7.56287
 20
7.48031
 30
0.0
 40
0
 41
0
  0
SEQEND
 8
0
  0
POLYLINE
  8
0
 62
     0
 66
     1
 10
0
 20
0
 30
0.0
 40
0
 41
0
  0
VERTEX
  8
0
 10
7.56287
 20
7.48031
 30
0.0
 40
0
 41
0
  0
VERTEX
  8
0
 10
7.56287
 20
7.48031
 30
0.0
 40
0
 41
0
  0
VERTEX
  8
0
 10
7.70774
 20
7.48763
 30
0.0
 40
0
 41
0
  0
VERTEX
  8
0
 10
7.84847
 20
7.50911
 30
0.0
 40
0
 41
0
  0
VERTEX
  8
0
 10
7.98432
 20
7.54406
 30
0.0
 40
0
 41
0
  0
VERTEX
  8
0
 10
8.11453
 20
7.59174
 30
0.0
 40
0
 41
0
  0
VERTEX
  8
0
 10
8.23839
 20
7.65142
 30
0.0
 40
0
 41
0
  0
VERTEX
  8
0
 10
8.35525
 20
7.72244
 30
0.0
 40
0
 41
0
  0
VERTEX
  8
0
 10
8.46436
 20
7.80404
 30
0.0
 40
0
 41
0
  0
VERTEX
  8
0
 10
8.56506
 20
7.89551
 30
0.0
 40
0
 41
0
  0
VERTEX
  8
0
 10
8.65653
 20
7.99615
 30
0.0
 40
0
 41
0
  0
VERTEX
  8
0
 10
8.73813
 20
8.10525
 30
0.0
 40
0
 41
0
  0
VERTEX
  8
0
 10
8.80908
 20
8.22211
 30
0.0
 40
0
 41
0
  0
VERTEX
  8
0
 10
8.86876
 20
8.34603
 30
0.0
 40
0
 41
0
  0
VERTEX
  8
0
 10
8.91644
 20
8.47624
 30
0.0
 40
0
 41
0
  0
VERTEX
  8
0
 10
8.95139
 20
8.61208
 30
0.0
 40
0
 41
0
  0
VERTEX
  8
0
 10
8.97288
 20
8.75282
 30
0.0
 40
0
 41
0
  0
VERTEX
  8
0
 10
8.98019
 20
8.89768
 30
0.0
 40
0
 41
0
  0
SEQEND
 8
0
  0
POLYLINE
  8
0
 62
     0
 66
     1
 10
0
 20
0
 30
0.0
 40
0
 41
0
  0
VERTEX
  8
0
 10
8.98019
 20
8.89768
 30
0.0
 40
0
 41
0
  0
VERTEX
  8
0
 10
8.98019
 20
9.1339
 30
0.0
 40
0
 41
0
  0
VERTEX
  8
0
 10
9.13769
 20
9.1339
 30
0.0
 40
0
 41
0
  0
VERTEX
  8
0
 10
9.13769
 20
9.37011
 30
0.0
 40
0
 41
0
  0
VERTEX
  8
0
 10
8.98019
 20
9.37011
 30
0.0
 40
0
 41
0
  0
VERTEX
  8
0
 10
8.98019
 20
9.60633
 30
0.0
 40
0
 41
0
  0
VERTEX
  8
0
 10
9.13769
 20
9.60633
 30
0.0
 40
0
 41
0
  0
VERTEX
  8
0
 10
9.13769
 20
9.84256
 30
0.0
 40
0
 41
0
  0
VERTEX
  8
0
 10
8.98019
 20
9.84256
 30
0.0
 40
0
 41
0
  0
VERTEX
  8
0
 10
8.98019
 20
10.0788
 30
0.0
 40
0
 41
0
  0
SEQEND
 8
0
  0
POLYLINE
  8
0
 62
     0
 66
     1
 10
0
 20
0
 30
0.0
 40
0
 41
0
  0
VERTEX
  8
0
 10
8.98019
 20
10.0788
 30
0.0
 40
0
 41
0
  0
VERTEX
  8
0
 10
8.97288
 20
10.2237
 30
0.0
 40
0
 41
0
  0
VERTEX
  8
0
 10
8.95139
 20
10.3644
 30
0.0
 40
0
 41
0
  0
VERTEX
  8
0
 10
8.91644
 20
10.5003
 30
0.0
 40
0
 41
0
  0
VERTEX
  8
0
 10
8.86876
 20
10.6305
 30
0.0
 40
0
 41
0
  0
VERTEX
  8
0
 10
8.80908
 20
10.7543
 30
0.0
 40
0
 41
0
  0
VERTEX
  8
0
 10
8.73813
 20
10.8712
 30
0.0
 40
0
 41
0
  0
VERTEX
  8
0
 10
8.65653
 20
10.9803
 30
0.0
 40
0
 41
0
  0
VERTEX
  8
0
 10
8.56506
 20
11.081
 30
0.0
 40
0
 41
0
  0
VERTEX
  8
0
 10
8.46436
 20
11.1725
 30
0.0
 40
0
 41
0
  0
VERTEX
  8
0
 10
8.35525
 20
11.2541
 30
0.0
 40
0
 41
0
  0
VERTEX
  8
0
 10
8.23839
 20
11.325
 30
0.0
 40
0
 41
0
  0
VERTEX
  8
0
 10
8.11453
 20
11.3847
 30
0.0
 40
0
 41
0
  0
VERTEX
  8
0
 10
7.98432
 20
11.4324
 30
0.0
 40
0
 41
0
  0
VERTEX
  8
0
 10
7.84847
 20
11.4673
 30
0.0
 40
0
 41
0
  0
VERTEX
  8
0
 10
7.70774
 20
11.4888
 30
0.0
 40
0
 41
0
  0
VERTEX
  8
0
 10
7.56287
 20
11.4961
 30
0.0
 40
0
 41
0
  0
VERTEX
  8
0
 10
7.60226
 20
11.4961
 30
0.0
 40
0
 41
0
  0
VERTEX
  8
0
 10
7.60226
 20
11.6535
 30
0.0
 40
0
 41
0
  0
VERTEX
  8
0
 10
7.28733
 20
11.6535
 30
0.0
 40
0
 41
0
  0
VERTEX
  8
0
 10
7.28733
 20
11.4961
 30
0.0
 40
0
 41
0
  0
VERTEX
  8
0
 10
6.65739
 20
11.4961
 30
0.0
 40
0
 41
0
  0
VERTEX
  8
0
 10
6.65739
 20
11.6535
 30
0.0
 40
0
 41
0
  0
VERTEX
  8
0
 10
6.34244
 20
11.6535
 30
0.0
 40
0
 41
0
  0
VERTEX
  8
0
 10
6.34244
 20
11.4961
 30
0.0
 40
0
 41
0
  0
VERTEX
  8
0
 10
6.38178
 20
11.4961
 30
0.0
 40
0
 41
0
  0
VERTEX
  8
0
 10
6.38178
 20
11.4961
 30
0.0
 40
0
 41
0
  0
VERTEX
  8
0
 10
6.23687
 20
11.4888
 30
0.0
 40
0
 41
0
  0
VERTEX
  8
0
 10
6.09614
 20
11.4673
 30
0.0
 40
0
 41
0
  0
VERTEX
  8
0
 10
5.96029
 20
11.4324
 30
0.0
 40
0
 41
0
  0
VERTEX
  8
0
 10
5.83008
 20
11.3847
 30
0.0
 40
0
 41
0
  0
VERTEX
  8
0
 10
5.70622
 20
11.325
 30
0.0
 40
0
 41
0
  0
VERTEX
  8
0
 10
5.58936
 20
11.2541
 30
0.0
 40
0
 41
0
  0
VERTEX
  8
0
 10
5.48025
 20
11.1725
 30
0.0
 40
0
 41
0
  0
VERTEX
  8
0
 10
5.37956
 20
11.081
 30
0.0
 40
0
 41
0
  0
VERTEX
  8
0
 10
5.28808
 20
10.9803
 30
0.0
 40
0
 41
0
  0
VERTEX
  8
0
 10
5.20649
 20
10.8712
 30
0.0
 40
0
 41
0
  0
VERTEX
  8
0
 10
5.13553
 20
10.7543
 30
0.0
 40
0
 41
0
  0
VERTEX
  8
0
 10
5.07585
 20
10.6305
 30
0.0
 40
0
 41
0
  0
VERTEX
  8
0
 10
5.02815
 20
10.5003
 30
0.0
 40
0
 41
0
  0
VERTEX
  8
0
 10
4.99322
 20
10.3644
 30
0.0
 40
0
 41
0
  0
VERTEX
  8
0
 10
4.97174
 20
10.2237
 30
0.0
 40
0
 41
0
  0
VERTEX
  8
0
 10
4.96446
 20
10.0788
 30
0.0
 40
0
 41
0
  0
SEQEND
 8
0
  0
POLYLINE
  8
0
 62
     0
 66
     1
 10
0
 20
0
 30
0.0
 40
0
 41
0
  0
VERTEX
  8
0
 10
4.96446
 20
10.0788
 30
0.0
 40
0
 41
0
  0
VERTEX
  8
0
 10
4.96446
 20
9.84256
 30
0.0
 40
0
 41
0
  0
VERTEX
  8
0
 10
4.80697
 20
9.84256
 30
0.0
 40
0
 41
0
  0
VERTEX
  8
0
 10
4.80697
 20
9.60633
 30
0.0
 40
0
 41
0
  0
VERTEX
  8
0
 10
4.96446
 20
9.60633
 30
0.0
 40
0
 41
0
  0
VERTEX
  8
0
 10
4.96446
 20
9.37011
 30
0.0
 40
0
 41
0
  0
VERTEX
  8
0
 10
4.80697
 20
9.37011
 30
0.0
 40
0
 41
0
  0
VERTEX
  8
0
 10
4.80697
 20
9.1339
 30
0.0
 40
0
 41
0
  0
VERTEX
  8
0
 10
4.96446
 20
9.1339
 30
0.0
 40
0
 41
0
  0
VERTEX
  8
0
 10
4.96446
 20
8.89768
 30
0.0
 40
0
 41
0
  0
SEQEND
 8
0
  0
POLYLINE
  8
0
 62
     0
 66
     1
 10
0
 20
0
 30
0.0
 40
0
 41
0
  0
VERTEX
  8
0
 10
4.96446
 20
8.89768
 30
0.0
 40
0
 41
0
  0
VERTEX
  8
0
 10
4.97174
 20
8.75282
 30
0.0
 40
0
 41
0
  0
VERTEX
  8
0
 10
4.99322
 20
8.61208
 30
0.0
 40
0
 41
0
  0
VERTEX
  8
0
 10
5.02815
 20
8.47624
 30
0.0
 40
0
 41
0
  0
VERTEX
  8
0
 10
5.07585
 20
8.34603
 30
0.0
 40
0
 41
0
  0
VERTEX
  8
0
 10
5.13553
 20
8.22211
 30
0.0
 40
0
 41
0
  0
VERTEX
  8
0
 10
5.20649
 20
8.10525
 30
0.0
 40
0
 41
0
  0
VERTEX
  8
0
 10
5.28808
 20
7.99615
 30
0.0
 40
0
 41
0
  0
VERTEX
  8
0
 10
5.37956
 20
7.89551
 30
0.0
 40
0
 41
0
  0
VERTEX
  8
0
 10
5.48025
 20
7.80404
 30
0.0
 40
0
 41
0
  0
VERTEX
  8
0
 10
5.58936
 20
7.72244
 30
0.0
 40
0
 41
0
  0
VERTEX
  8
0
 10
5.70622
 20
7.65142
 30
0.0
 40
0
 41
0
  0
VERTEX
  8
0
 10
5.83008
 20
7.59174
 30
0.0
 40
0
 41
0
  0
VERTEX
  8
0
 10
5.96029
 20
7.54406
 30
0.0
 40
0
 41
0
  0
VERTEX
  8
0
 10
6.09614
 20
7.50911
 30
0.0
 40
0
 41
0
  0
VERTEX
  8
0
 10
6.23687
 20
7.48763
 30
0.0
 40
0
 41
0
  0
VERTEX
  8
0
 10
6.38178
 20
7.48031
 30
0.0
 40
0
 41
0
  0
SEQEND
 8
0
  0
POLYLINE
  8
0
 62
     0
 66
     1
 10
0
 20
0
 30
0.0
 40
0
 41
0
  0
VERTEX
  8
0
 10
7.56287
 20
5.11811
 30
0.0
 40
0
 41
0
  0
VERTEX
  8
0
 10
7.16922
 20
5.11811
 30
0.0
 40
0
 41
0
  0
VERTEX
  8
0
 10
7.16922
 20
5.27561
 30
0.0
 40
0
 41
0
  0
VERTEX
  8
0
 10
6.7755
 20
5.27561
 30
0.0
 40
0
 41
0
  0
VERTEX
  8
0
 10
6.7755
 20
5.11811
 30
0.0
 40
0
 41
0
  0
VERTEX
  8
0
 10
6.38178
 20
5.11811
 30
0.0
 40
0
 41
0
  0
SEQEND
 8
0
  0
POLYLINE
  8
0
 62
     0
 66
     1
 10
0
 20
0
 30
0.0
 40
0
 41
0
  0
VERTEX
  8
0
 10
6.38178
 20
5.11811
 30
0.0
 40
0
 41
0
  0
VERTEX
  8
0
 10
6.38178
 20
5.11811
 30
0.0
 40
0
 41
0
  0
VERTEX
  8
0
 10
6.23687
 20
5.11083
 30
0.0
 40
0
 41
0
  0
VERTEX
  8
0
 10
6.09614
 20
5.08936
 30
0.0
 40
0
 41
0
  0
VERTEX
  8
0
 10
5.96029
 20
5.05442
 30
0.0
 40
0
 41
0
  0
VERTEX
  8
0
 10
5.83008
 20
5.00672
 30
0.0
 40
0
 41
0
  0
VERTEX
  8
0
 10
5.70622
 20
4.94706
 30
0.0
 40
0
 41
0
  0
VERTEX
  8
0
 10
5.58936
 20
4.87608
 30
0.0
 40
0
 41
0
  0
VERTEX
  8
0
 10
5.48025
 20
4.79449
 30
0.0
 40
0
 41
0
  0
VERTEX
  8
0
 10
5.37956
 20
4.70301
 30
0.0
 40
0
 41
0
  0
VERTEX
  8
0
 10
5.28808
 20
4.60232
 30
0.0
 40
0
 41
0
  0
VERTEX
  8
0
 10
5.20649
 20
4.49322
 30
0.0
 40
0
 41
0
  0
VERTEX
  8
0
 10
5.13553
 20
4.37636
 30
0.0
 40
0
 41
0
  0
VERTEX
  8
0
 10
5.07585
 20
4.2525
 30
0.0
 40
0
 41
0
  0
VERTEX
  8
0
 10
5.02815
 20
4.12229
 30
0.0
 40
0
 41
0
  0
VERTEX
  8
0
 10
4.99322
 20
3.98643
 30
0.0
 40
0
 41
0
  0
VERTEX
  8
0
 10
4.97174
 20
3.84571
 30
0.0
 40
0
 41
0
  0
VERTEX
  8
0
 10
4.96446
 20
3.70079
 30
0.0
 40
0
 41
0
  0
SEQEND
 8
0
  0
POLYLINE
  8
0
 62
     0
 66
     1
 10
0
 20
0
 30
0.0
 40
0
 41
0
  0
VERTEX
  8
0
 10
4.96446
 20
3.70079
 30
0.0
 40
0
 41
0
  0
VERTEX
  8
0
 10
4.96446
 20
3.46457
 30
0.0
 40
0
 41
0
  0
VERTEX
  8
0
 10
4.80697
 20
3.46457
 30
0.0
 40
0
 41
0
  0
VERTEX
  8
0
 10
4.80697
 20
3.22835
 30
0.0
 40
0
 41
0
  0
VERTEX
  8
0
 10
4.96446
 20
3.22835
 30
0.0
 40
0
 41
0
  0
VERTEX
  8
0
 10
4.96446
 20
2.99214
 30
0.0
 40
0
 41
0
  0
VERTEX
  8
0
 10
4.80697
 20
2.99214
 30
0.0
 40
0
 41
0
  0
VERTEX
  8
0
 10
4.80697
 20
2.75592
 30
0.0
 40
0
 41
0
  0
VERTEX
  8
0
 10
4.96446
 20
2.75592
 30
0.0
 40
0
 41
0
  0
VERTEX
  8
0
 10
4.96446
 20
2.51969
 30
0.0
 40
0
 41
0
  0
SEQEND
 8
0
  0
POLYLINE
  8
0
 62
     0
 66
     1
 10
0
 20
0
 30
0.0
 40
0
 41
0
  0
VERTEX
  8
0
 10
4.96446
 20
2.51969
 30
0.0
 40
0
 41
0
  0
VERTEX
  8
0
 10
4.97174
 20
2.37483
 30
0.0
 40
0
 41
0
  0
VERTEX
  8
0
 10
4.99322
 20
2.2341
 30
0.0
 40
0
 41
0
  0
VERTEX
  8
0
 10
5.02815
 20
2.09825
 30
0.0
 40
0
 41
0
  0
VERTEX
  8
0
 10
5.07585
 20
1.96804
 30
0.0
 40
0
 41
0
  0
VERTEX
  8
0
 10
5.13553
 20
1.84418
 30
0.0
 40
0
 41
0
  0
VERTEX
  8
0
 10
5.20649
 20
1.72732
 30
0.0
 40
0
 41
0
  0
VERTEX
  8
0
 10
5.28808
 20
1.61822
 30
0.0
 40
0
 41
0
  0
VERTEX
  8
0
 10
5.37956
 20
1.51753
 30
0.0
 40
0
 41
0
  0
VERTEX
  8
0
 10
5.48025
 20
1.42606
 30
0.0
 40
0
 41
0
  0
VERTEX
  8
0
 10
5.58936
 20
1.34446
 30
0.0
 40
0
 41
0
  0
VERTEX
  8
0
 10
5.70622
 20
1.27349
 30
0.0
 40
0
 41
0
  0
VERTEX
  8
0
 10
5.83008
 20
1.21381
 30
0.0
 40
0
 41
0
  0
VERTEX
  8
0
 10
5.96029
 20
1.16612
 30
0.0
 40
0
 41
0
  0
VERTEX
  8
0
 10
6.09614
 20
1.13118
 30
0.0
 40
0
 41
0
  0
VERTEX
  8
0
 10
6.23687
 20
1.1097
 30
0.0
 40
0
 41
0
  0
VERTEX
  8
0
 10
6.38178
 20
1.10238
 30
0.0
 40
0
 41
0
  0
VERTEX
  8
0
 10
6.34239
 20
1.10238
 30
0.0
 40
0
 41
0
  0
VERTEX
  8
0
 10
6.34239
 20
0.944878
 30
0.0
 40
0
 41
0
  0
VERTEX
  8
0
 10
6.65739
 20
0.944878
 30
0.0
 40
0
 41
0
  0
VERTEX
  8
0
 10
6.65739
 20
1.10238
 30
0.0
 40
0
 41
0
  0
VERTEX
  8
0
 10
7.28733
 20
1.10238
 30
0.0
 40
0
 41
0
  0
VERTEX
  8
0
 10
7.28733
 20
0.944878
 30
0.0
 40
0
 41
0
  0
VERTEX
  8
0
 10
7.60226
 20
0.944878
 30
0.0
 40
0
 41
0
  0
VERTEX
  8
0
 10
7.60226
 20
1.10238
 30
0.0
 40
0
 41
0
  0
VERTEX
  8
0
 10
7.56287
 20
1.10238
 30
0.0
 40
0
 41
0
  0
VERTEX
  8
0
 10
7.56287
 20
1.10238
 30
0.0
 40
0
 41
0
  0
VERTEX
  8
0
 10
7.70774
 20
1.1097
 30
0.0
 40
0
 41
0
  0
VERTEX
  8
0
 10
7.84847
 20
1.13118
 30
0.0
 40
0
 41
0
  0
VERTEX
  8
0
 10
7.98432
 20
1.16612
 30
0.0
 40
0
 41
0
  0
VERTEX
  8
0
 10
8.11453
 20
1.21381
 30
0.0
 40
0
 41
0
  0
VERTEX
  8
0
 10
8.23839
 20
1.27349
 30
0.0
 40
0
 41
0
  0
VERTEX
  8
0
 10
8.35525
 20
1.34446
 30
0.0
 40
0
 41
0
  0
VERTEX
  8
0
 10
8.46436
 20
1.42606
 30
0.0
 40
0
 41
0
  0
VERTEX
  8
0
 10
8.56506
 20
1.51753
 30
0.0
 40
0
 41
0
  0
VERTEX
  8
0
 10
8.65653
 20
1.61822
 30
0.0
 40
0
 41
0
  0
VERTEX
  8
0
 10
8.73813
 20
1.72732
 30
0.0
 40
0
 41
0
  0
VERTEX
  8
0
 10
8.80908
 20
1.84418
 30
0.0
 40
0
 41
0
  0
VERTEX
  8
0
 10
8.86876
 20
1.96804
 30
0.0
 40
0
 41
0
  0
VERTEX
  8
0
 10
8.91644
 20
2.09825
 30
0.0
 40
0
 41
0
  0
VERTEX
  8
0
 10
8.95139
 20
2.2341
 30
0.0
 40
0
 41
0
  0
VERTEX
  8
0
 10
8.97288
 20
2.37483
 30
0.0
 40
0
 41
0
  0
VERTEX
  8
0
 10
8.98019
 20
2.51969
 30
0.0
 40
0
 41
0
  0
SEQEND
 8
0
  0
POLYLINE
  8
0
 62
     0
 66
     1
 10
0
 20
0
 30
0.0
 40
0
 41
0
  0
VERTEX
  8
0
 10
8.98019
 20
2.51969
 30
0.0
 40
0
 41
0
  0
VERTEX
  8
0
 10
8.98019
 20
2.75592
 30
0.0
 40
0
 41
0
  0
VERTEX
  8
0
 10
9.13769
 20
2.75592
 30
0.0
 40
0
 41
0
  0
VERTEX
  8
0
 10
9.13769
 20
2.99214
 30
0.0
 40
0
 41
0
  0
VERTEX
  8
0
 10
8.98019
 20
2.99214
 30
0.0
 40
0
 41
0
  0
VERTEX
  8
0
 10
8.98019
 20
3.22835
 30
0.0
 40
0
 41
0
  0
VERTEX
  8
0
 10
9.13769
 20
3.22835
 30
0.0
 40
0
 41
0
  0
VERTEX
  8
0
 10
9.13769
 20
3.46457
 30
0.0
 40
0
 41
0
  0
VERTEX
  8
0
 10
8.98019
 20
3.46457
 30
0.0
 40
0
 41
0
  0
VERTEX
  8
0
 10
8.98019
 20
3.70079
 30
0.0
 40
0
 41
0
  0
SEQEND
 8
0
  0
POLYLINE
  8
0
 62
     0
 66
     1
 10
0
 20
0
 30
0.0
 40
0
 41
0
  0
VERTEX
  8
0
 10
8.98019
 20
3.70079
 30
0.0
 40
0
 41
0
  0
VERTEX
  8
0
 10
8.97288
 20
3.84571
 30
0.0
 40
0
 41
0
  0
VERTEX
  8
0
 10
8.95139
 20
3.98643
 30
0.0
 40
0
 41
0
  0
VERTEX
  8
0
 10
8.91644
 20
4.12229
 30
0.0
 40
0
 41
0
  0
VERTEX
  8
0
 10
8.86876
 20
4.2525
 30
0.0
 40
0
 41
0
  0
VERTEX
  8
0
 10
8.80908
 20
4.37636
 30
0.0
 40
0
 41
0
  0
VERTEX
  8
0
 10
8.73813
 20
4.49322
 30
0.0
 40
0
 41
0
  0
VERTEX
  8
0
 10
8.65653
 20
4.60232
 30
0.0
 40
0
 41
0
  0
VERTEX
  8
0
 10
8.56506
 20
4.70301
 30
0.0
 40
0
 41
0
  0
VERTEX
  8
0
 10
8.46436
 20
4.79449
 30
0.0
 40
0
 41
0
  0
VERTEX
  8
0
 10
8.35525
 20
4.87608
 30
0.0
 40
0
 41
0
  0
VERTEX
  8
0
 10
8.23839
 20
4.94706
 30
0.0
 40
0
 41
0
  0
VERTEX
  8
0
 10
8.11453
 20
5.00672
 30
0.0
 40
0
 41
0
  0
VERTEX
  8
0
 10
7.98432
 20
5.05442
 30
0.0
 40
0
 41
0
  0
VERTEX
  8
0
 10
7.84847
 20
5.08936
 30
0.0
 40
0
 41
0
  0
VERTEX
  8
0
 10
7.70774
 20
5.11083
 30
0.0
 40
0
 41
0
  0
VERTEX
  8
0
 10
7.56287
 20
5.11811
 30
0.0
 40
0
 41
0
  0
SEQEND
 8
0
  0
POLYLINE
  8
0
 62
     1
 66
     1
 10
0
 20
0
 30
0.0
 70
     1
 40
0
 41
0
  0
VERTEX
  8
0
 10
0.157497
 20
12.0472
 30
0.0
 40
0
 41
0
  0
VERTEX
  8
0
 10
19.8425
 20
12.0472
 30
0.0
 40
0
 41
0
  0
VERTEX
  8
0
 10
19.8425
 20
0.236219
 30
0.0
 40
0
 41
0
  0
VERTEX
  8
0
 10
0.157497
 20
0.236219
 30
0.0
 40
0
 41
0
  0
VERTEX
  8
0
 10
0.157497
 20
12.0472
 30
0.0
 40
0
 41
0
  0
SEQEND
 8
0
  0
ENDSEC
  0
EOF
