  0
SECTION
  2
HEADER
  9
$ACADVER
  1
AC1009
  9
$EXTMIN
 10
0.0
 20
0.0
 30
0.0
  9
$EXTMAX
 10
1000.0
 20
1000.0
 30
0.0
  9
$FILLMODE
 70
 0
  9
$SPLFRAME
 70
 1
  0
ENDSEC
  0
SECTION
  2
TABLES
  0
TABLE
  2
LAYER
 70
1
  0
LAYER
  2
0
 70
     0
 62
     7
  6
CONTINUOUS
  0
ENDTAB
  0
ENDSEC
  0
SECTION
  2
ENTITIES
  0
POLYLINE
  8
0
 62
     0
 66
     1
 10
0
 20
0
 30
0.0
 40
0
 41
0
  0
VERTEX
  8
0
 10
2.51969
 20
4.80317
 30
0.0
 40
0
 41
0
  0
VERTEX
  8
0
 10
2.51969
 20
5.56429
 30
0.0
 40
0
 41
0
  0
SEQEND
 8
0
  0
POLYLINE
  8
0
 62
     0
 66
     1
 10
0
 20
0
 30
0.0
 40
0
 41
0
  0
VERTEX
  8
0
 10
2.51969
 20
5.72179
 30
0.0
 40
0
 41
0
  0
VERTEX
  8
0
 10
2.51969
 20
6.48296
 30
0.0
 40
0
 41
0
  0
SEQEND
 8
0
  0
POLYLINE
  8
0
 62
     0
 66
     1
 10
0
 20
0
 30
0.0
 40
0
 41
0
  0
VERTEX
  8
0
 10
2.51969
 20
6.6404
 30
0.0
 40
0
 41
0
  0
VERTEX
  8
0
 10
2.51969
 20
7.40158
 30
0.0
 40
0
 41
0
  0
SEQEND
 8
0
  0
POLYLINE
  8
0
 62
     0
 66
     1
 10
0
 20
0
 30
0.0
 40
0
 41
0
  0
VERTEX
  8
0
 10
2.6001
 20
7.48031
 30
0.0
 40
0
 41
0
  0
VERTEX
  8
0
 10
2.6001
 20
7.09978
 30
0.0
 40
0
 41
0
  0
SEQEND
 8
0
  0
POLYLINE
  8
0
 62
     0
 66
     1
 10
0
 20
0
 30
0.0
 40
0
 41
0
  0
VERTEX
  8
0
 10
2.6001
 20
6.94228
 30
0.0
 40
0
 41
0
  0
VERTEX
  8
0
 10
2.6001
 20
6.1811
 30
0.0
 40
0
 41
0
  0
SEQEND
 8
0
  0
POLYLINE
  8
0
 62
     0
 66
     1
 10
0
 20
0
 30
0.0
 40
0
 41
0
  0
VERTEX
  8
0
 10
2.6001
 20
6.02365
 30
0.0
 40
0
 41
0
  0
VERTEX
  8
0
 10
2.6001
 20
5.26247
 30
0.0
 40
0
 41
0
  0
SEQEND
 8
0
  0
POLYLINE
  8
0
 62
     0
 66
     1
 10
0
 20
0
 30
0.0
 40
0
 41
0
  0
VERTEX
  8
0
 10
2.6001
 20
5.10499
 30
0.0
 40
0
 41
0
  0
VERTEX
  8
0
 10
2.6001
 20
4.72439
 30
0.0
 40
0
 41
0
  0
SEQEND
 8
0
  0
POLYLINE
  8
0
 62
     0
 66
     1
 10
0
 20
0
 30
0.0
 40
0
 41
0
  0
VERTEX
  8
0
 10
2.6805
 20
4.80317
 30
0.0
 40
0
 41
0
  0
VERTEX
  8
0
 10
2.6805
 20
5.56429
 30
0.0
 40
0
 41
0
  0
SEQEND
 8
0
  0
POLYLINE
  8
0
 62
     0
 66
     1
 10
0
 20
0
 30
0.0
 40
0
 41
0
  0
VERTEX
  8
0
 10
2.6805
 20
5.72179
 30
0.0
 40
0
 41
0
  0
VERTEX
  8
0
 10
2.6805
 20
6.48296
 30
0.0
 40
0
 41
0
  0
SEQEND
 8
0
  0
POLYLINE
  8
0
 62
     0
 66
     1
 10
0
 20
0
 30
0.0
 40
0
 41
0
  0
VERTEX
  8
0
 10
2.6805
 20
6.6404
 30
0.0
 40
0
 41
0
  0
VERTEX
  8
0
 10
2.6805
 20
7.40158
 30
0.0
 40
0
 41
0
  0
SEQEND
 8
0
  0
POLYLINE
  8
0
 62
     0
 66
     1
 10
0
 20
0
 30
0.0
 40
0
 41
0
  0
VERTEX
  8
0
 10
2.76085
 20
7.48031
 30
0.0
 40
0
 41
0
  0
VERTEX
  8
0
 10
2.76085
 20
7.09978
 30
0.0
 40
0
 41
0
  0
SEQEND
 8
0
  0
POLYLINE
  8
0
 62
     0
 66
     1
 10
0
 20
0
 30
0.0
 40
0
 41
0
  0
VERTEX
  8
0
 10
2.76085
 20
6.94228
 30
0.0
 40
0
 41
0
  0
VERTEX
  8
0
 10
2.76085
 20
6.1811
 30
0.0
 40
0
 41
0
  0
SEQEND
 8
0
  0
POLYLINE
  8
0
 62
     0
 66
     1
 10
0
 20
0
 30
0.0
 40
0
 41
0
  0
VERTEX
  8
0
 10
2.76085
 20
6.02365
 30
0.0
 40
0
 41
0
  0
VERTEX
  8
0
 10
2.76085
 20
5.26247
 30
0.0
 40
0
 41
0
  0
SEQEND
 8
0
  0
POLYLINE
  8
0
 62
     0
 66
     1
 10
0
 20
0
 30
0.0
 40
0
 41
0
  0
VERTEX
  8
0
 10
2.76085
 20
5.10499
 30
0.0
 40
0
 41
0
  0
VERTEX
  8
0
 10
2.76085
 20
4.72439
 30
0.0
 40
0
 41
0
  0
SEQEND
 8
0
  0
POLYLINE
  8
0
 62
     0
 66
     1
 10
0
 20
0
 30
0.0
 40
0
 41
0
  0
VERTEX
  8
0
 10
2.84125
 20
4.80317
 30
0.0
 40
0
 41
0
  0
VERTEX
  8
0
 10
2.84125
 20
5.56429
 30
0.0
 40
0
 41
0
  0
SEQEND
 8
0
  0
POLYLINE
  8
0
 62
     0
 66
     1
 10
0
 20
0
 30
0.0
 40
0
 41
0
  0
VERTEX
  8
0
 10
2.84125
 20
5.72179
 30
0.0
 40
0
 41
0
  0
VERTEX
  8
0
 10
2.84125
 20
6.48296
 30
0.0
 40
0
 41
0
  0
SEQEND
 8
0
  0
POLYLINE
  8
0
 62
     0
 66
     1
 10
0
 20
0
 30
0.0
 40
0
 41
0
  0
VERTEX
  8
0
 10
2.84125
 20
6.6404
 30
0.0
 40
0
 41
0
  0
VERTEX
  8
0
 10
2.84125
 20
7.40158
 30
0.0
 40
0
 41
0
  0
SEQEND
 8
0
  0
POLYLINE
  8
0
 62
     0
 66
     1
 10
0
 20
0
 30
0.0
 40
0
 41
0
  0
VERTEX
  8
0
 10
2.92165
 20
7.48031
 30
0.0
 40
0
 41
0
  0
VERTEX
  8
0
 10
2.92165
 20
7.09978
 30
0.0
 40
0
 41
0
  0
SEQEND
 8
0
  0
POLYLINE
  8
0
 62
     0
 66
     1
 10
0
 20
0
 30
0.0
 40
0
 41
0
  0
VERTEX
  8
0
 10
2.92165
 20
6.94228
 30
0.0
 40
0
 41
0
  0
VERTEX
  8
0
 10
2.92165
 20
6.1811
 30
0.0
 40
0
 41
0
  0
SEQEND
 8
0
  0
POLYLINE
  8
0
 62
     0
 66
     1
 10
0
 20
0
 30
0.0
 40
0
 41
0
  0
VERTEX
  8
0
 10
2.92165
 20
6.02365
 30
0.0
 40
0
 41
0
  0
VERTEX
  8
0
 10
2.92165
 20
5.26247
 30
0.0
 40
0
 41
0
  0
SEQEND
 8
0
  0
POLYLINE
  8
0
 62
     0
 66
     1
 10
0
 20
0
 30
0.0
 40
0
 41
0
  0
VERTEX
  8
0
 10
2.92165
 20
5.10499
 30
0.0
 40
0
 41
0
  0
VERTEX
  8
0
 10
2.92165
 20
4.72439
 30
0.0
 40
0
 41
0
  0
SEQEND
 8
0
  0
POLYLINE
  8
0
 62
     0
 66
     1
 10
0
 20
0
 30
0.0
 40
0
 41
0
  0
VERTEX
  8
0
 10
3.00206
 20
4.80317
 30
0.0
 40
0
 41
0
  0
VERTEX
  8
0
 10
3.00206
 20
5.56429
 30
0.0
 40
0
 41
0
  0
SEQEND
 8
0
  0
POLYLINE
  8
0
 62
     0
 66
     1
 10
0
 20
0
 30
0.0
 40
0
 41
0
  0
VERTEX
  8
0
 10
3.00206
 20
5.72179
 30
0.0
 40
0
 41
0
  0
VERTEX
  8
0
 10
3.00206
 20
6.48296
 30
0.0
 40
0
 41
0
  0
SEQEND
 8
0
  0
POLYLINE
  8
0
 62
     0
 66
     1
 10
0
 20
0
 30
0.0
 40
0
 41
0
  0
VERTEX
  8
0
 10
3.00206
 20
6.6404
 30
0.0
 40
0
 41
0
  0
VERTEX
  8
0
 10
3.00206
 20
7.40158
 30
0.0
 40
0
 41
0
  0
SEQEND
 8
0
  0
POLYLINE
  8
0
 62
     0
 66
     1
 10
0
 20
0
 30
0.0
 40
0
 41
0
  0
VERTEX
  8
0
 10
3.08247
 20
7.48031
 30
0.0
 40
0
 41
0
  0
VERTEX
  8
0
 10
3.08247
 20
7.09978
 30
0.0
 40
0
 41
0
  0
SEQEND
 8
0
  0
POLYLINE
  8
0
 62
     0
 66
     1
 10
0
 20
0
 30
0.0
 40
0
 41
0
  0
VERTEX
  8
0
 10
3.08247
 20
6.94228
 30
0.0
 40
0
 41
0
  0
VERTEX
  8
0
 10
3.08247
 20
6.1811
 30
0.0
 40
0
 41
0
  0
SEQEND
 8
0
  0
POLYLINE
  8
0
 62
     0
 66
     1
 10
0
 20
0
 30
0.0
 40
0
 41
0
  0
VERTEX
  8
0
 10
3.08247
 20
6.02365
 30
0.0
 40
0
 41
0
  0
VERTEX
  8
0
 10
3.08247
 20
5.26247
 30
0.0
 40
0
 41
0
  0
SEQEND
 8
0
  0
POLYLINE
  8
0
 62
     0
 66
     1
 10
0
 20
0
 30
0.0
 40
0
 41
0
  0
VERTEX
  8
0
 10
3.08247
 20
5.10499
 30
0.0
 40
0
 41
0
  0
VERTEX
  8
0
 10
3.08247
 20
4.72439
 30
0.0
 40
0
 41
0
  0
SEQEND
 8
0
  0
POLYLINE
  8
0
 62
     0
 66
     1
 10
0
 20
0
 30
0.0
 40
0
 41
0
  0
VERTEX
  8
0
 10
3.16288
 20
4.80317
 30
0.0
 40
0
 41
0
  0
VERTEX
  8
0
 10
3.16288
 20
5.56429
 30
0.0
 40
0
 41
0
  0
SEQEND
 8
0
  0
POLYLINE
  8
0
 62
     0
 66
     1
 10
0
 20
0
 30
0.0
 40
0
 41
0
  0
VERTEX
  8
0
 10
3.16288
 20
5.72179
 30
0.0
 40
0
 41
0
  0
VERTEX
  8
0
 10
3.16288
 20
6.48296
 30
0.0
 40
0
 41
0
  0
SEQEND
 8
0
  0
POLYLINE
  8
0
 62
     0
 66
     1
 10
0
 20
0
 30
0.0
 40
0
 41
0
  0
VERTEX
  8
0
 10
3.16288
 20
6.6404
 30
0.0
 40
0
 41
0
  0
VERTEX
  8
0
 10
3.16288
 20
7.40158
 30
0.0
 40
0
 41
0
  0
SEQEND
 8
0
  0
POLYLINE
  8
0
 62
     0
 66
     1
 10
0
 20
0
 30
0.0
 40
0
 41
0
  0
VERTEX
  8
0
 10
3.24328
 20
7.48031
 30
0.0
 40
0
 41
0
  0
VERTEX
  8
0
 10
3.24328
 20
7.09978
 30
0.0
 40
0
 41
0
  0
SEQEND
 8
0
  0
POLYLINE
  8
0
 62
     0
 66
     1
 10
0
 20
0
 30
0.0
 40
0
 41
0
  0
VERTEX
  8
0
 10
3.24328
 20
6.94228
 30
0.0
 40
0
 41
0
  0
VERTEX
  8
0
 10
3.24328
 20
6.1811
 30
0.0
 40
0
 41
0
  0
SEQEND
 8
0
  0
POLYLINE
  8
0
 62
     0
 66
     1
 10
0
 20
0
 30
0.0
 40
0
 41
0
  0
VERTEX
  8
0
 10
3.24328
 20
6.02365
 30
0.0
 40
0
 41
0
  0
VERTEX
  8
0
 10
3.24328
 20
5.26247
 30
0.0
 40
0
 41
0
  0
SEQEND
 8
0
  0
POLYLINE
  8
0
 62
     0
 66
     1
 10
0
 20
0
 30
0.0
 40
0
 41
0
  0
VERTEX
  8
0
 10
3.24328
 20
5.10499
 30
0.0
 40
0
 41
0
  0
VERTEX
  8
0
 10
3.24328
 20
4.72439
 30
0.0
 40
0
 41
0
  0
SEQEND
 8
0
  0
POLYLINE
  8
0
 62
     0
 66
     1
 10
0
 20
0
 30
0.0
 40
0
 41
0
  0
VERTEX
  8
0
 10
3.32362
 20
4.80317
 30
0.0
 40
0
 41
0
  0
VERTEX
  8
0
 10
3.32362
 20
5.56429
 30
0.0
 40
0
 41
0
  0
SEQEND
 8
0
  0
POLYLINE
  8
0
 62
     0
 66
     1
 10
0
 20
0
 30
0.0
 40
0
 41
0
  0
VERTEX
  8
0
 10
3.32362
 20
5.72179
 30
0.0
 40
0
 41
0
  0
VERTEX
  8
0
 10
3.32362
 20
6.48296
 30
0.0
 40
0
 41
0
  0
SEQEND
 8
0
  0
POLYLINE
  8
0
 62
     0
 66
     1
 10
0
 20
0
 30
0.0
 40
0
 41
0
  0
VERTEX
  8
0
 10
3.32362
 20
6.6404
 30
0.0
 40
0
 41
0
  0
VERTEX
  8
0
 10
3.32362
 20
7.40158
 30
0.0
 40
0
 41
0
  0
SEQEND
 8
0
  0
POLYLINE
  8
0
 62
     0
 66
     1
 10
0
 20
0
 30
0.0
 40
0
 41
0
  0
VERTEX
  8
0
 10
3.40403
 20
7.48031
 30
0.0
 40
0
 41
0
  0
VERTEX
  8
0
 10
3.40403
 20
7.09978
 30
0.0
 40
0
 41
0
  0
SEQEND
 8
0
  0
POLYLINE
  8
0
 62
     0
 66
     1
 10
0
 20
0
 30
0.0
 40
0
 41
0
  0
VERTEX
  8
0
 10
3.40403
 20
6.94228
 30
0.0
 40
0
 41
0
  0
VERTEX
  8
0
 10
3.40403
 20
6.1811
 30
0.0
 40
0
 41
0
  0
SEQEND
 8
0
  0
POLYLINE
  8
0
 62
     0
 66
     1
 10
0
 20
0
 30
0.0
 40
0
 41
0
  0
VERTEX
  8
0
 10
3.40403
 20
6.02365
 30
0.0
 40
0
 41
0
  0
VERTEX
  8
0
 10
3.40403
 20
5.26247
 30
0.0
 40
0
 41
0
  0
SEQEND
 8
0
  0
POLYLINE
  8
0
 62
     0
 66
     1
 10
0
 20
0
 30
0.0
 40
0
 41
0
  0
VERTEX
  8
0
 10
3.40403
 20
5.10499
 30
0.0
 40
0
 41
0
  0
VERTEX
  8
0
 10
3.40403
 20
4.72439
 30
0.0
 40
0
 41
0
  0
SEQEND
 8
0
  0
POLYLINE
  8
0
 62
     0
 66
     1
 10
0
 20
0
 30
0.0
 40
0
 41
0
  0
VERTEX
  8
0
 10
3.48443
 20
4.80317
 30
0.0
 40
0
 41
0
  0
VERTEX
  8
0
 10
3.48443
 20
5.56429
 30
0.0
 40
0
 41
0
  0
SEQEND
 8
0
  0
POLYLINE
  8
0
 62
     0
 66
     1
 10
0
 20
0
 30
0.0
 40
0
 41
0
  0
VERTEX
  8
0
 10
3.48443
 20
5.72179
 30
0.0
 40
0
 41
0
  0
VERTEX
  8
0
 10
3.48443
 20
6.48296
 30
0.0
 40
0
 41
0
  0
SEQEND
 8
0
  0
POLYLINE
  8
0
 62
     0
 66
     1
 10
0
 20
0
 30
0.0
 40
0
 41
0
  0
VERTEX
  8
0
 10
3.48443
 20
6.6404
 30
0.0
 40
0
 41
0
  0
VERTEX
  8
0
 10
3.48443
 20
7.40158
 30
0.0
 40
0
 41
0
  0
SEQEND
 8
0
  0
POLYLINE
  8
0
 62
     0
 66
     1
 10
0
 20
0
 30
0.0
 40
0
 41
0
  0
VERTEX
  8
0
 10
3.56483
 20
7.48031
 30
0.0
 40
0
 41
0
  0
VERTEX
  8
0
 10
3.56483
 20
7.09978
 30
0.0
 40
0
 41
0
  0
SEQEND
 8
0
  0
POLYLINE
  8
0
 62
     0
 66
     1
 10
0
 20
0
 30
0.0
 40
0
 41
0
  0
VERTEX
  8
0
 10
3.56483
 20
6.94228
 30
0.0
 40
0
 41
0
  0
VERTEX
  8
0
 10
3.56483
 20
6.1811
 30
0.0
 40
0
 41
0
  0
SEQEND
 8
0
  0
POLYLINE
  8
0
 62
     0
 66
     1
 10
0
 20
0
 30
0.0
 40
0
 41
0
  0
VERTEX
  8
0
 10
3.56483
 20
6.02365
 30
0.0
 40
0
 41
0
  0
VERTEX
  8
0
 10
3.56483
 20
5.26247
 30
0.0
 40
0
 41
0
  0
SEQEND
 8
0
  0
POLYLINE
  8
0
 62
     0
 66
     1
 10
0
 20
0
 30
0.0
 40
0
 41
0
  0
VERTEX
  8
0
 10
3.56483
 20
5.10499
 30
0.0
 40
0
 41
0
  0
VERTEX
  8
0
 10
3.56483
 20
4.72439
 30
0.0
 40
0
 41
0
  0
SEQEND
 8
0
  0
POLYLINE
  8
0
 62
     0
 66
     1
 10
0
 20
0
 30
0.0
 40
0
 41
0
  0
VERTEX
  8
0
 10
3.64524
 20
4.80317
 30
0.0
 40
0
 41
0
  0
VERTEX
  8
0
 10
3.64524
 20
5.56429
 30
0.0
 40
0
 41
0
  0
SEQEND
 8
0
  0
POLYLINE
  8
0
 62
     0
 66
     1
 10
0
 20
0
 30
0.0
 40
0
 41
0
  0
VERTEX
  8
0
 10
3.64524
 20
5.72179
 30
0.0
 40
0
 41
0
  0
VERTEX
  8
0
 10
3.64524
 20
6.48296
 30
0.0
 40
0
 41
0
  0
SEQEND
 8
0
  0
POLYLINE
  8
0
 62
     0
 66
     1
 10
0
 20
0
 30
0.0
 40
0
 41
0
  0
VERTEX
  8
0
 10
3.64524
 20
6.6404
 30
0.0
 40
0
 41
0
  0
VERTEX
  8
0
 10
3.64524
 20
7.40158
 30
0.0
 40
0
 41
0
  0
SEQEND
 8
0
  0
POLYLINE
  8
0
 62
     0
 66
     1
 10
0
 20
0
 30
0.0
 40
0
 41
0
  0
VERTEX
  8
0
 10
3.72564
 20
7.48031
 30
0.0
 40
0
 41
0
  0
VERTEX
  8
0
 10
3.72564
 20
7.09978
 30
0.0
 40
0
 41
0
  0
SEQEND
 8
0
  0
POLYLINE
  8
0
 62
     0
 66
     1
 10
0
 20
0
 30
0.0
 40
0
 41
0
  0
VERTEX
  8
0
 10
3.72564
 20
6.94228
 30
0.0
 40
0
 41
0
  0
VERTEX
  8
0
 10
3.72564
 20
6.1811
 30
0.0
 40
0
 41
0
  0
SEQEND
 8
0
  0
POLYLINE
  8
0
 62
     0
 66
     1
 10
0
 20
0
 30
0.0
 40
0
 41
0
  0
VERTEX
  8
0
 10
3.72564
 20
6.02365
 30
0.0
 40
0
 41
0
  0
VERTEX
  8
0
 10
3.72564
 20
5.26247
 30
0.0
 40
0
 41
0
  0
SEQEND
 8
0
  0
POLYLINE
  8
0
 62
     0
 66
     1
 10
0
 20
0
 30
0.0
 40
0
 41
0
  0
VERTEX
  8
0
 10
3.72564
 20
5.10499
 30
0.0
 40
0
 41
0
  0
VERTEX
  8
0
 10
3.72564
 20
4.72439
 30
0.0
 40
0
 41
0
  0
SEQEND
 8
0
  0
POLYLINE
  8
0
 62
     0
 66
     1
 10
0
 20
0
 30
0.0
 40
0
 41
0
  0
VERTEX
  8
0
 10
3.80599
 20
4.80317
 30
0.0
 40
0
 41
0
  0
VERTEX
  8
0
 10
3.80599
 20
5.56429
 30
0.0
 40
0
 41
0
  0
SEQEND
 8
0
  0
POLYLINE
  8
0
 62
     0
 66
     1
 10
0
 20
0
 30
0.0
 40
0
 41
0
  0
VERTEX
  8
0
 10
3.80599
 20
5.72179
 30
0.0
 40
0
 41
0
  0
VERTEX
  8
0
 10
3.80599
 20
6.48296
 30
0.0
 40
0
 41
0
  0
SEQEND
 8
0
  0
POLYLINE
  8
0
 62
     0
 66
     1
 10
0
 20
0
 30
0.0
 40
0
 41
0
  0
VERTEX
  8
0
 10
3.80599
 20
6.6404
 30
0.0
 40
0
 41
0
  0
VERTEX
  8
0
 10
3.80599
 20
7.40158
 30
0.0
 40
0
 41
0
  0
SEQEND
 8
0
  0
POLYLINE
  8
0
 62
     0
 66
     1
 10
0
 20
0
 30
0.0
 40
0
 41
0
  0
VERTEX
  8
0
 10
3.88639
 20
7.48031
 30
0.0
 40
0
 41
0
  0
VERTEX
  8
0
 10
3.88639
 20
7.09978
 30
0.0
 40
0
 41
0
  0
SEQEND
 8
0
  0
POLYLINE
  8
0
 62
     0
 66
     1
 10
0
 20
0
 30
0.0
 40
0
 41
0
  0
VERTEX
  8
0
 10
3.88639
 20
6.94228
 30
0.0
 40
0
 41
0
  0
VERTEX
  8
0
 10
3.88639
 20
6.1811
 30
0.0
 40
0
 41
0
  0
SEQEND
 8
0
  0
POLYLINE
  8
0
 62
     0
 66
     1
 10
0
 20
0
 30
0.0
 40
0
 41
0
  0
VERTEX
  8
0
 10
3.88639
 20
6.02365
 30
0.0
 40
0
 41
0
  0
VERTEX
  8
0
 10
3.88639
 20
5.26247
 30
0.0
 40
0
 41
0
  0
SEQEND
 8
0
  0
POLYLINE
  8
0
 62
     0
 66
     1
 10
0
 20
0
 30
0.0
 40
0
 41
0
  0
VERTEX
  8
0
 10
3.88639
 20
5.10499
 30
0.0
 40
0
 41
0
  0
VERTEX
  8
0
 10
3.88639
 20
4.72439
 30
0.0
 40
0
 41
0
  0
SEQEND
 8
0
  0
POLYLINE
  8
0
 62
     0
 66
     1
 10
0
 20
0
 30
0.0
 40
0
 41
0
  0
VERTEX
  8
0
 10
3.96679
 20
4.80317
 30
0.0
 40
0
 41
0
  0
VERTEX
  8
0
 10
3.96679
 20
5.56429
 30
0.0
 40
0
 41
0
  0
SEQEND
 8
0
  0
POLYLINE
  8
0
 62
     0
 66
     1
 10
0
 20
0
 30
0.0
 40
0
 41
0
  0
VERTEX
  8
0
 10
3.96679
 20
5.72179
 30
0.0
 40
0
 41
0
  0
VERTEX
  8
0
 10
3.96679
 20
6.48296
 30
0.0
 40
0
 41
0
  0
SEQEND
 8
0
  0
POLYLINE
  8
0
 62
     0
 66
     1
 10
0
 20
0
 30
0.0
 40
0
 41
0
  0
VERTEX
  8
0
 10
3.96679
 20
6.6404
 30
0.0
 40
0
 41
0
  0
VERTEX
  8
0
 10
3.96679
 20
7.40158
 30
0.0
 40
0
 41
0
  0
SEQEND
 8
0
  0
POLYLINE
  8
0
 62
     0
 66
     1
 10
0
 20
0
 30
0.0
 40
0
 41
0
  0
VERTEX
  8
0
 10
4.04719
 20
7.48031
 30
0.0
 40
0
 41
0
  0
VERTEX
  8
0
 10
4.04719
 20
7.09978
 30
0.0
 40
0
 41
0
  0
SEQEND
 8
0
  0
POLYLINE
  8
0
 62
     0
 66
     1
 10
0
 20
0
 30
0.0
 40
0
 41
0
  0
VERTEX
  8
0
 10
4.04719
 20
6.94228
 30
0.0
 40
0
 41
0
  0
VERTEX
  8
0
 10
4.04719
 20
6.1811
 30
0.0
 40
0
 41
0
  0
SEQEND
 8
0
  0
POLYLINE
  8
0
 62
     0
 66
     1
 10
0
 20
0
 30
0.0
 40
0
 41
0
  0
VERTEX
  8
0
 10
4.04719
 20
6.02365
 30
0.0
 40
0
 41
0
  0
VERTEX
  8
0
 10
4.04719
 20
5.26247
 30
0.0
 40
0
 41
0
  0
SEQEND
 8
0
  0
POLYLINE
  8
0
 62
     0
 66
     1
 10
0
 20
0
 30
0.0
 40
0
 41
0
  0
VERTEX
  8
0
 10
4.04719
 20
5.10499
 30
0.0
 40
0
 41
0
  0
VERTEX
  8
0
 10
4.04719
 20
4.72439
 30
0.0
 40
0
 41
0
  0
SEQEND
 8
0
  0
POLYLINE
  8
0
 62
     0
 66
     1
 10
0
 20
0
 30
0.0
 40
0
 41
0
  0
VERTEX
  8
0
 10
4.12761
 20
4.80317
 30
0.0
 40
0
 41
0
  0
VERTEX
  8
0
 10
4.12761
 20
5.56429
 30
0.0
 40
0
 41
0
  0
SEQEND
 8
0
  0
POLYLINE
  8
0
 62
     0
 66
     1
 10
0
 20
0
 30
0.0
 40
0
 41
0
  0
VERTEX
  8
0
 10
4.12761
 20
5.72179
 30
0.0
 40
0
 41
0
  0
VERTEX
  8
0
 10
4.12761
 20
6.48296
 30
0.0
 40
0
 41
0
  0
SEQEND
 8
0
  0
POLYLINE
  8
0
 62
     0
 66
     1
 10
0
 20
0
 30
0.0
 40
0
 41
0
  0
VERTEX
  8
0
 10
4.12761
 20
6.6404
 30
0.0
 40
0
 41
0
  0
VERTEX
  8
0
 10
4.12761
 20
7.40158
 30
0.0
 40
0
 41
0
  0
SEQEND
 8
0
  0
POLYLINE
  8
0
 62
     0
 66
     1
 10
0
 20
0
 30
0.0
 40
0
 41
0
  0
VERTEX
  8
0
 10
2.51969
 20
7.48031
 30
0.0
 40
0
 41
0
  0
VERTEX
  8
0
 10
4.12761
 20
7.48031
 30
0.0
 40
0
 41
0
  0
SEQEND
 8
0
  0
POLYLINE
  8
0
 62
     0
 66
     1
 10
0
 20
0
 30
0.0
 40
0
 41
0
  0
VERTEX
  8
0
 10
4.12761
 20
4.72439
 30
0.0
 40
0
 41
0
  0
VERTEX
  8
0
 10
2.51969
 20
4.72439
 30
0.0
 40
0
 41
0
  0
SEQEND
 8
0
  0
POLYLINE
  8
0
 62
     0
 66
     1
 10
0
 20
0
 30
0.0
 40
0
 41
0
  0
VERTEX
  8
0
 10
6.09608
 20
4.80317
 30
0.0
 40
0
 41
0
  0
VERTEX
  8
0
 10
6.09608
 20
5.56429
 30
0.0
 40
0
 41
0
  0
SEQEND
 8
0
  0
POLYLINE
  8
0
 62
     0
 66
     1
 10
0
 20
0
 30
0.0
 40
0
 41
0
  0
VERTEX
  8
0
 10
6.09608
 20
5.72179
 30
0.0
 40
0
 41
0
  0
VERTEX
  8
0
 10
6.09608
 20
6.48296
 30
0.0
 40
0
 41
0
  0
SEQEND
 8
0
  0
POLYLINE
  8
0
 62
     0
 66
     1
 10
0
 20
0
 30
0.0
 40
0
 41
0
  0
VERTEX
  8
0
 10
6.09608
 20
6.6404
 30
0.0
 40
0
 41
0
  0
VERTEX
  8
0
 10
6.09608
 20
7.40158
 30
0.0
 40
0
 41
0
  0
SEQEND
 8
0
  0
POLYLINE
  8
0
 62
     0
 66
     1
 10
0
 20
0
 30
0.0
 40
0
 41
0
  0
VERTEX
  8
0
 10
6.17649
 20
7.48031
 30
0.0
 40
0
 41
0
  0
VERTEX
  8
0
 10
6.17649
 20
7.09978
 30
0.0
 40
0
 41
0
  0
SEQEND
 8
0
  0
POLYLINE
  8
0
 62
     0
 66
     1
 10
0
 20
0
 30
0.0
 40
0
 41
0
  0
VERTEX
  8
0
 10
6.17649
 20
6.94228
 30
0.0
 40
0
 41
0
  0
VERTEX
  8
0
 10
6.17649
 20
6.1811
 30
0.0
 40
0
 41
0
  0
SEQEND
 8
0
  0
POLYLINE
  8
0
 62
     0
 66
     1
 10
0
 20
0
 30
0.0
 40
0
 41
0
  0
VERTEX
  8
0
 10
6.17649
 20
6.02365
 30
0.0
 40
0
 41
0
  0
VERTEX
  8
0
 10
6.17649
 20
5.26247
 30
0.0
 40
0
 41
0
  0
SEQEND
 8
0
  0
POLYLINE
  8
0
 62
     0
 66
     1
 10
0
 20
0
 30
0.0
 40
0
 41
0
  0
VERTEX
  8
0
 10
6.17649
 20
5.10499
 30
0.0
 40
0
 41
0
  0
VERTEX
  8
0
 10
6.17649
 20
4.72439
 30
0.0
 40
0
 41
0
  0
SEQEND
 8
0
  0
POLYLINE
  8
0
 62
     0
 66
     1
 10
0
 20
0
 30
0.0
 40
0
 41
0
  0
VERTEX
  8
0
 10
6.25689
 20
4.80317
 30
0.0
 40
0
 41
0
  0
VERTEX
  8
0
 10
6.25689
 20
5.56429
 30
0.0
 40
0
 41
0
  0
SEQEND
 8
0
  0
POLYLINE
  8
0
 62
     0
 66
     1
 10
0
 20
0
 30
0.0
 40
0
 41
0
  0
VERTEX
  8
0
 10
6.25689
 20
5.72179
 30
0.0
 40
0
 41
0
  0
VERTEX
  8
0
 10
6.25689
 20
6.48296
 30
0.0
 40
0
 41
0
  0
SEQEND
 8
0
  0
POLYLINE
  8
0
 62
     0
 66
     1
 10
0
 20
0
 30
0.0
 40
0
 41
0
  0
VERTEX
  8
0
 10
6.25689
 20
6.6404
 30
0.0
 40
0
 41
0
  0
VERTEX
  8
0
 10
6.25689
 20
7.40158
 30
0.0
 40
0
 41
0
  0
SEQEND
 8
0
  0
POLYLINE
  8
0
 62
     0
 66
     1
 10
0
 20
0
 30
0.0
 40
0
 41
0
  0
VERTEX
  8
0
 10
6.33729
 20
7.48031
 30
0.0
 40
0
 41
0
  0
VERTEX
  8
0
 10
6.33729
 20
7.09978
 30
0.0
 40
0
 41
0
  0
SEQEND
 8
0
  0
POLYLINE
  8
0
 62
     0
 66
     1
 10
0
 20
0
 30
0.0
 40
0
 41
0
  0
VERTEX
  8
0
 10
6.33729
 20
6.94228
 30
0.0
 40
0
 41
0
  0
VERTEX
  8
0
 10
6.33729
 20
6.1811
 30
0.0
 40
0
 41
0
  0
SEQEND
 8
0
  0
POLYLINE
  8
0
 62
     0
 66
     1
 10
0
 20
0
 30
0.0
 40
0
 41
0
  0
VERTEX
  8
0
 10
6.33729
 20
6.02365
 30
0.0
 40
0
 41
0
  0
VERTEX
  8
0
 10
6.33729
 20
5.26247
 30
0.0
 40
0
 41
0
  0
SEQEND
 8
0
  0
POLYLINE
  8
0
 62
     0
 66
     1
 10
0
 20
0
 30
0.0
 40
0
 41
0
  0
VERTEX
  8
0
 10
6.33729
 20
5.10499
 30
0.0
 40
0
 41
0
  0
VERTEX
  8
0
 10
6.33729
 20
4.72439
 30
0.0
 40
0
 41
0
  0
SEQEND
 8
0
  0
POLYLINE
  8
0
 62
     0
 66
     1
 10
0
 20
0
 30
0.0
 40
0
 41
0
  0
VERTEX
  8
0
 10
6.41769
 20
4.80317
 30
0.0
 40
0
 41
0
  0
VERTEX
  8
0
 10
6.41769
 20
5.56429
 30
0.0
 40
0
 41
0
  0
SEQEND
 8
0
  0
POLYLINE
  8
0
 62
     0
 66
     1
 10
0
 20
0
 30
0.0
 40
0
 41
0
  0
VERTEX
  8
0
 10
6.41769
 20
5.72179
 30
0.0
 40
0
 41
0
  0
VERTEX
  8
0
 10
6.41769
 20
6.48296
 30
0.0
 40
0
 41
0
  0
SEQEND
 8
0
  0
POLYLINE
  8
0
 62
     0
 66
     1
 10
0
 20
0
 30
0.0
 40
0
 41
0
  0
VERTEX
  8
0
 10
6.41769
 20
6.6404
 30
0.0
 40
0
 41
0
  0
VERTEX
  8
0
 10
6.41769
 20
7.40158
 30
0.0
 40
0
 41
0
  0
SEQEND
 8
0
  0
POLYLINE
  8
0
 62
     0
 66
     1
 10
0
 20
0
 30
0.0
 40
0
 41
0
  0
VERTEX
  8
0
 10
6.4981
 20
7.48031
 30
0.0
 40
0
 41
0
  0
VERTEX
  8
0
 10
6.4981
 20
7.09978
 30
0.0
 40
0
 41
0
  0
SEQEND
 8
0
  0
POLYLINE
  8
0
 62
     0
 66
     1
 10
0
 20
0
 30
0.0
 40
0
 41
0
  0
VERTEX
  8
0
 10
6.4981
 20
6.94228
 30
0.0
 40
0
 41
0
  0
VERTEX
  8
0
 10
6.4981
 20
6.1811
 30
0.0
 40
0
 41
0
  0
SEQEND
 8
0
  0
POLYLINE
  8
0
 62
     0
 66
     1
 10
0
 20
0
 30
0.0
 40
0
 41
0
  0
VERTEX
  8
0
 10
6.4981
 20
6.02365
 30
0.0
 40
0
 41
0
  0
VERTEX
  8
0
 10
6.4981
 20
5.26247
 30
0.0
 40
0
 41
0
  0
SEQEND
 8
0
  0
POLYLINE
  8
0
 62
     0
 66
     1
 10
0
 20
0
 30
0.0
 40
0
 41
0
  0
VERTEX
  8
0
 10
6.4981
 20
5.10499
 30
0.0
 40
0
 41
0
  0
VERTEX
  8
0
 10
6.4981
 20
4.72439
 30
0.0
 40
0
 41
0
  0
SEQEND
 8
0
  0
POLYLINE
  8
0
 62
     0
 66
     1
 10
0
 20
0
 30
0.0
 40
0
 41
0
  0
VERTEX
  8
0
 10
6.57844
 20
4.80317
 30
0.0
 40
0
 41
0
  0
VERTEX
  8
0
 10
6.57844
 20
5.56429
 30
0.0
 40
0
 41
0
  0
SEQEND
 8
0
  0
POLYLINE
  8
0
 62
     0
 66
     1
 10
0
 20
0
 30
0.0
 40
0
 41
0
  0
VERTEX
  8
0
 10
6.57844
 20
5.72179
 30
0.0
 40
0
 41
0
  0
VERTEX
  8
0
 10
6.57844
 20
6.48296
 30
0.0
 40
0
 41
0
  0
SEQEND
 8
0
  0
POLYLINE
  8
0
 62
     0
 66
     1
 10
0
 20
0
 30
0.0
 40
0
 41
0
  0
VERTEX
  8
0
 10
6.57844
 20
6.6404
 30
0.0
 40
0
 41
0
  0
VERTEX
  8
0
 10
6.57844
 20
7.40158
 30
0.0
 40
0
 41
0
  0
SEQEND
 8
0
  0
POLYLINE
  8
0
 62
     0
 66
     1
 10
0
 20
0
 30
0.0
 40
0
 41
0
  0
VERTEX
  8
0
 10
6.65886
 20
7.48031
 30
0.0
 40
0
 41
0
  0
VERTEX
  8
0
 10
6.65886
 20
7.09978
 30
0.0
 40
0
 41
0
  0
SEQEND
 8
0
  0
POLYLINE
  8
0
 62
     0
 66
     1
 10
0
 20
0
 30
0.0
 40
0
 41
0
  0
VERTEX
  8
0
 10
6.65886
 20
6.94228
 30
0.0
 40
0
 41
0
  0
VERTEX
  8
0
 10
6.65886
 20
6.1811
 30
0.0
 40
0
 41
0
  0
SEQEND
 8
0
  0
POLYLINE
  8
0
 62
     0
 66
     1
 10
0
 20
0
 30
0.0
 40
0
 41
0
  0
VERTEX
  8
0
 10
6.65886
 20
6.02365
 30
0.0
 40
0
 41
0
  0
VERTEX
  8
0
 10
6.65886
 20
5.26247
 30
0.0
 40
0
 41
0
  0
SEQEND
 8
0
  0
POLYLINE
  8
0
 62
     0
 66
     1
 10
0
 20
0
 30
0.0
 40
0
 41
0
  0
VERTEX
  8
0
 10
6.65886
 20
5.10499
 30
0.0
 40
0
 41
0
  0
VERTEX
  8
0
 10
6.65886
 20
4.72439
 30
0.0
 40
0
 41
0
  0
SEQEND
 8
0
  0
POLYLINE
  8
0
 62
     0
 66
     1
 10
0
 20
0
 30
0.0
 40
0
 41
0
  0
VERTEX
  8
0
 10
6.73926
 20
4.80317
 30
0.0
 40
0
 41
0
  0
VERTEX
  8
0
 10
6.73926
 20
5.56429
 30
0.0
 40
0
 41
0
  0
SEQEND
 8
0
  0
POLYLINE
  8
0
 62
     0
 66
     1
 10
0
 20
0
 30
0.0
 40
0
 41
0
  0
VERTEX
  8
0
 10
6.73926
 20
5.72179
 30
0.0
 40
0
 41
0
  0
VERTEX
  8
0
 10
6.73926
 20
6.48296
 30
0.0
 40
0
 41
0
  0
SEQEND
 8
0
  0
POLYLINE
  8
0
 62
     0
 66
     1
 10
0
 20
0
 30
0.0
 40
0
 41
0
  0
VERTEX
  8
0
 10
6.73926
 20
6.6404
 30
0.0
 40
0
 41
0
  0
VERTEX
  8
0
 10
6.73926
 20
7.40158
 30
0.0
 40
0
 41
0
  0
SEQEND
 8
0
  0
POLYLINE
  8
0
 62
     0
 66
     1
 10
0
 20
0
 30
0.0
 40
0
 41
0
  0
VERTEX
  8
0
 10
6.81967
 20
7.48031
 30
0.0
 40
0
 41
0
  0
VERTEX
  8
0
 10
6.81967
 20
7.09978
 30
0.0
 40
0
 41
0
  0
SEQEND
 8
0
  0
POLYLINE
  8
0
 62
     0
 66
     1
 10
0
 20
0
 30
0.0
 40
0
 41
0
  0
VERTEX
  8
0
 10
6.81967
 20
6.94228
 30
0.0
 40
0
 41
0
  0
VERTEX
  8
0
 10
6.81967
 20
6.1811
 30
0.0
 40
0
 41
0
  0
SEQEND
 8
0
  0
POLYLINE
  8
0
 62
     0
 66
     1
 10
0
 20
0
 30
0.0
 40
0
 41
0
  0
VERTEX
  8
0
 10
6.81967
 20
6.02365
 30
0.0
 40
0
 41
0
  0
VERTEX
  8
0
 10
6.81967
 20
5.26247
 30
0.0
 40
0
 41
0
  0
SEQEND
 8
0
  0
POLYLINE
  8
0
 62
     0
 66
     1
 10
0
 20
0
 30
0.0
 40
0
 41
0
  0
VERTEX
  8
0
 10
6.81967
 20
5.10499
 30
0.0
 40
0
 41
0
  0
VERTEX
  8
0
 10
6.81967
 20
4.72439
 30
0.0
 40
0
 41
0
  0
SEQEND
 8
0
  0
POLYLINE
  8
0
 62
     0
 66
     1
 10
0
 20
0
 30
0.0
 40
0
 41
0
  0
VERTEX
  8
0
 10
6.90007
 20
4.80317
 30
0.0
 40
0
 41
0
  0
VERTEX
  8
0
 10
6.90007
 20
5.56429
 30
0.0
 40
0
 41
0
  0
SEQEND
 8
0
  0
POLYLINE
  8
0
 62
     0
 66
     1
 10
0
 20
0
 30
0.0
 40
0
 41
0
  0
VERTEX
  8
0
 10
6.90007
 20
5.72179
 30
0.0
 40
0
 41
0
  0
VERTEX
  8
0
 10
6.90007
 20
6.48296
 30
0.0
 40
0
 41
0
  0
SEQEND
 8
0
  0
POLYLINE
  8
0
 62
     0
 66
     1
 10
0
 20
0
 30
0.0
 40
0
 41
0
  0
VERTEX
  8
0
 10
6.90007
 20
6.6404
 30
0.0
 40
0
 41
0
  0
VERTEX
  8
0
 10
6.90007
 20
7.40158
 30
0.0
 40
0
 41
0
  0
SEQEND
 8
0
  0
POLYLINE
  8
0
 62
     0
 66
     1
 10
0
 20
0
 30
0.0
 40
0
 41
0
  0
VERTEX
  8
0
 10
6.98047
 20
7.48031
 30
0.0
 40
0
 41
0
  0
VERTEX
  8
0
 10
6.98047
 20
7.09978
 30
0.0
 40
0
 41
0
  0
SEQEND
 8
0
  0
POLYLINE
  8
0
 62
     0
 66
     1
 10
0
 20
0
 30
0.0
 40
0
 41
0
  0
VERTEX
  8
0
 10
6.98047
 20
6.94228
 30
0.0
 40
0
 41
0
  0
VERTEX
  8
0
 10
6.98047
 20
6.1811
 30
0.0
 40
0
 41
0
  0
SEQEND
 8
0
  0
POLYLINE
  8
0
 62
     0
 66
     1
 10
0
 20
0
 30
0.0
 40
0
 41
0
  0
VERTEX
  8
0
 10
6.98047
 20
6.02365
 30
0.0
 40
0
 41
0
  0
VERTEX
  8
0
 10
6.98047
 20
5.26247
 30
0.0
 40
0
 41
0
  0
SEQEND
 8
0
  0
POLYLINE
  8
0
 62
     0
 66
     1
 10
0
 20
0
 30
0.0
 40
0
 41
0
  0
VERTEX
  8
0
 10
6.98047
 20
5.10499
 30
0.0
 40
0
 41
0
  0
VERTEX
  8
0
 10
6.98047
 20
4.72439
 30
0.0
 40
0
 41
0
  0
SEQEND
 8
0
  0
POLYLINE
  8
0
 62
     0
 66
     1
 10
0
 20
0
 30
0.0
 40
0
 41
0
  0
VERTEX
  8
0
 10
7.06082
 20
4.80317
 30
0.0
 40
0
 41
0
  0
VERTEX
  8
0
 10
7.06082
 20
5.56429
 30
0.0
 40
0
 41
0
  0
SEQEND
 8
0
  0
POLYLINE
  8
0
 62
     0
 66
     1
 10
0
 20
0
 30
0.0
 40
0
 41
0
  0
VERTEX
  8
0
 10
7.06082
 20
5.72179
 30
0.0
 40
0
 41
0
  0
VERTEX
  8
0
 10
7.06082
 20
6.48296
 30
0.0
 40
0
 41
0
  0
SEQEND
 8
0
  0
POLYLINE
  8
0
 62
     0
 66
     1
 10
0
 20
0
 30
0.0
 40
0
 41
0
  0
VERTEX
  8
0
 10
7.06082
 20
6.6404
 30
0.0
 40
0
 41
0
  0
VERTEX
  8
0
 10
7.06082
 20
7.40158
 30
0.0
 40
0
 41
0
  0
SEQEND
 8
0
  0
POLYLINE
  8
0
 62
     0
 66
     1
 10
0
 20
0
 30
0.0
 40
0
 41
0
  0
VERTEX
  8
0
 10
7.14122
 20
7.48031
 30
0.0
 40
0
 41
0
  0
VERTEX
  8
0
 10
7.14122
 20
7.09978
 30
0.0
 40
0
 41
0
  0
SEQEND
 8
0
  0
POLYLINE
  8
0
 62
     0
 66
     1
 10
0
 20
0
 30
0.0
 40
0
 41
0
  0
VERTEX
  8
0
 10
7.14122
 20
6.94228
 30
0.0
 40
0
 41
0
  0
VERTEX
  8
0
 10
7.14122
 20
6.1811
 30
0.0
 40
0
 41
0
  0
SEQEND
 8
0
  0
POLYLINE
  8
0
 62
     0
 66
     1
 10
0
 20
0
 30
0.0
 40
0
 41
0
  0
VERTEX
  8
0
 10
7.14122
 20
6.02365
 30
0.0
 40
0
 41
0
  0
VERTEX
  8
0
 10
7.14122
 20
5.26247
 30
0.0
 40
0
 41
0
  0
SEQEND
 8
0
  0
POLYLINE
  8
0
 62
     0
 66
     1
 10
0
 20
0
 30
0.0
 40
0
 41
0
  0
VERTEX
  8
0
 10
7.14122
 20
5.10499
 30
0.0
 40
0
 41
0
  0
VERTEX
  8
0
 10
7.14122
 20
4.72439
 30
0.0
 40
0
 41
0
  0
SEQEND
 8
0
  0
POLYLINE
  8
0
 62
     0
 66
     1
 10
0
 20
0
 30
0.0
 40
0
 41
0
  0
VERTEX
  8
0
 10
7.22162
 20
4.80317
 30
0.0
 40
0
 41
0
  0
VERTEX
  8
0
 10
7.22162
 20
5.56429
 30
0.0
 40
0
 41
0
  0
SEQEND
 8
0
  0
POLYLINE
  8
0
 62
     0
 66
     1
 10
0
 20
0
 30
0.0
 40
0
 41
0
  0
VERTEX
  8
0
 10
7.22162
 20
5.72179
 30
0.0
 40
0
 41
0
  0
VERTEX
  8
0
 10
7.22162
 20
6.48296
 30
0.0
 40
0
 41
0
  0
SEQEND
 8
0
  0
POLYLINE
  8
0
 62
     0
 66
     1
 10
0
 20
0
 30
0.0
 40
0
 41
0
  0
VERTEX
  8
0
 10
7.22162
 20
6.6404
 30
0.0
 40
0
 41
0
  0
VERTEX
  8
0
 10
7.22162
 20
7.40158
 30
0.0
 40
0
 41
0
  0
SEQEND
 8
0
  0
POLYLINE
  8
0
 62
     0
 66
     1
 10
0
 20
0
 30
0.0
 40
0
 41
0
  0
VERTEX
  8
0
 10
7.30203
 20
7.48031
 30
0.0
 40
0
 41
0
  0
VERTEX
  8
0
 10
7.30203
 20
7.09978
 30
0.0
 40
0
 41
0
  0
SEQEND
 8
0
  0
POLYLINE
  8
0
 62
     0
 66
     1
 10
0
 20
0
 30
0.0
 40
0
 41
0
  0
VERTEX
  8
0
 10
7.30203
 20
6.94228
 30
0.0
 40
0
 41
0
  0
VERTEX
  8
0
 10
7.30203
 20
6.1811
 30
0.0
 40
0
 41
0
  0
SEQEND
 8
0
  0
POLYLINE
  8
0
 62
     0
 66
     1
 10
0
 20
0
 30
0.0
 40
0
 41
0
  0
VERTEX
  8
0
 10
7.30203
 20
6.02365
 30
0.0
 40
0
 41
0
  0
VERTEX
  8
0
 10
7.30203
 20
5.26247
 30
0.0
 40
0
 41
0
  0
SEQEND
 8
0
  0
POLYLINE
  8
0
 62
     0
 66
     1
 10
0
 20
0
 30
0.0
 40
0
 41
0
  0
VERTEX
  8
0
 10
7.30203
 20
5.10499
 30
0.0
 40
0
 41
0
  0
VERTEX
  8
0
 10
7.30203
 20
4.72439
 30
0.0
 40
0
 41
0
  0
SEQEND
 8
0
  0
POLYLINE
  8
0
 62
     0
 66
     1
 10
0
 20
0
 30
0.0
 40
0
 41
0
  0
VERTEX
  8
0
 10
7.38243
 20
4.80317
 30
0.0
 40
0
 41
0
  0
VERTEX
  8
0
 10
7.38243
 20
5.56429
 30
0.0
 40
0
 41
0
  0
SEQEND
 8
0
  0
POLYLINE
  8
0
 62
     0
 66
     1
 10
0
 20
0
 30
0.0
 40
0
 41
0
  0
VERTEX
  8
0
 10
7.38243
 20
5.72179
 30
0.0
 40
0
 41
0
  0
VERTEX
  8
0
 10
7.38243
 20
6.48296
 30
0.0
 40
0
 41
0
  0
SEQEND
 8
0
  0
POLYLINE
  8
0
 62
     0
 66
     1
 10
0
 20
0
 30
0.0
 40
0
 41
0
  0
VERTEX
  8
0
 10
7.38243
 20
6.6404
 30
0.0
 40
0
 41
0
  0
VERTEX
  8
0
 10
7.38243
 20
7.40158
 30
0.0
 40
0
 41
0
  0
SEQEND
 8
0
  0
POLYLINE
  8
0
 62
     0
 66
     1
 10
0
 20
0
 30
0.0
 40
0
 41
0
  0
VERTEX
  8
0
 10
7.46283
 20
7.48031
 30
0.0
 40
0
 41
0
  0
VERTEX
  8
0
 10
7.46283
 20
7.09978
 30
0.0
 40
0
 41
0
  0
SEQEND
 8
0
  0
POLYLINE
  8
0
 62
     0
 66
     1
 10
0
 20
0
 30
0.0
 40
0
 41
0
  0
VERTEX
  8
0
 10
7.46283
 20
6.94228
 30
0.0
 40
0
 41
0
  0
VERTEX
  8
0
 10
7.46283
 20
6.1811
 30
0.0
 40
0
 41
0
  0
SEQEND
 8
0
  0
POLYLINE
  8
0
 62
     0
 66
     1
 10
0
 20
0
 30
0.0
 40
0
 41
0
  0
VERTEX
  8
0
 10
7.46283
 20
6.02365
 30
0.0
 40
0
 41
0
  0
VERTEX
  8
0
 10
7.46283
 20
5.26247
 30
0.0
 40
0
 41
0
  0
SEQEND
 8
0
  0
POLYLINE
  8
0
 62
     0
 66
     1
 10
0
 20
0
 30
0.0
 40
0
 41
0
  0
VERTEX
  8
0
 10
7.46283
 20
5.10499
 30
0.0
 40
0
 41
0
  0
VERTEX
  8
0
 10
7.46283
 20
4.72439
 30
0.0
 40
0
 41
0
  0
SEQEND
 8
0
  0
POLYLINE
  8
0
 62
     0
 66
     1
 10
0
 20
0
 30
0.0
 40
0
 41
0
  0
VERTEX
  8
0
 10
7.54318
 20
4.80317
 30
0.0
 40
0
 41
0
  0
VERTEX
  8
0
 10
7.54318
 20
5.56429
 30
0.0
 40
0
 41
0
  0
SEQEND
 8
0
  0
POLYLINE
  8
0
 62
     0
 66
     1
 10
0
 20
0
 30
0.0
 40
0
 41
0
  0
VERTEX
  8
0
 10
7.54318
 20
5.72179
 30
0.0
 40
0
 41
0
  0
VERTEX
  8
0
 10
7.54318
 20
6.48296
 30
0.0
 40
0
 41
0
  0
SEQEND
 8
0
  0
POLYLINE
  8
0
 62
     0
 66
     1
 10
0
 20
0
 30
0.0
 40
0
 41
0
  0
VERTEX
  8
0
 10
7.54318
 20
6.6404
 30
0.0
 40
0
 41
0
  0
VERTEX
  8
0
 10
7.54318
 20
7.40158
 30
0.0
 40
0
 41
0
  0
SEQEND
 8
0
  0
POLYLINE
  8
0
 62
     0
 66
     1
 10
0
 20
0
 30
0.0
 40
0
 41
0
  0
VERTEX
  8
0
 10
7.62358
 20
7.48031
 30
0.0
 40
0
 41
0
  0
VERTEX
  8
0
 10
7.62358
 20
7.09978
 30
0.0
 40
0
 41
0
  0
SEQEND
 8
0
  0
POLYLINE
  8
0
 62
     0
 66
     1
 10
0
 20
0
 30
0.0
 40
0
 41
0
  0
VERTEX
  8
0
 10
7.62358
 20
6.94228
 30
0.0
 40
0
 41
0
  0
VERTEX
  8
0
 10
7.62358
 20
6.1811
 30
0.0
 40
0
 41
0
  0
SEQEND
 8
0
  0
POLYLINE
  8
0
 62
     0
 66
     1
 10
0
 20
0
 30
0.0
 40
0
 41
0
  0
VERTEX
  8
0
 10
7.62358
 20
6.02365
 30
0.0
 40
0
 41
0
  0
VERTEX
  8
0
 10
7.62358
 20
5.26247
 30
0.0
 40
0
 41
0
  0
SEQEND
 8
0
  0
POLYLINE
  8
0
 62
     0
 66
     1
 10
0
 20
0
 30
0.0
 40
0
 41
0
  0
VERTEX
  8
0
 10
7.62358
 20
5.10499
 30
0.0
 40
0
 41
0
  0
VERTEX
  8
0
 10
7.62358
 20
4.72439
 30
0.0
 40
0
 41
0
  0
SEQEND
 8
0
  0
POLYLINE
  8
0
 62
     0
 66
     1
 10
0
 20
0
 30
0.0
 40
0
 41
0
  0
VERTEX
  8
0
 10
7.704
 20
4.80317
 30
0.0
 40
0
 41
0
  0
VERTEX
  8
0
 10
7.704
 20
5.56429
 30
0.0
 40
0
 41
0
  0
SEQEND
 8
0
  0
POLYLINE
  8
0
 62
     0
 66
     1
 10
0
 20
0
 30
0.0
 40
0
 41
0
  0
VERTEX
  8
0
 10
7.704
 20
5.72179
 30
0.0
 40
0
 41
0
  0
VERTEX
  8
0
 10
7.704
 20
6.48296
 30
0.0
 40
0
 41
0
  0
SEQEND
 8
0
  0
POLYLINE
  8
0
 62
     0
 66
     1
 10
0
 20
0
 30
0.0
 40
0
 41
0
  0
VERTEX
  8
0
 10
7.704
 20
6.6404
 30
0.0
 40
0
 41
0
  0
VERTEX
  8
0
 10
7.704
 20
7.40158
 30
0.0
 40
0
 41
0
  0
SEQEND
 8
0
  0
POLYLINE
  8
0
 62
     0
 66
     1
 10
0
 20
0
 30
0.0
 40
0
 41
0
  0
VERTEX
  8
0
 10
6.09608
 20
7.48031
 30
0.0
 40
0
 41
0
  0
VERTEX
  8
0
 10
7.704
 20
7.48031
 30
0.0
 40
0
 41
0
  0
SEQEND
 8
0
  0
POLYLINE
  8
0
 62
     0
 66
     1
 10
0
 20
0
 30
0.0
 40
0
 41
0
  0
VERTEX
  8
0
 10
7.704
 20
4.72439
 30
0.0
 40
0
 41
0
  0
VERTEX
  8
0
 10
6.09608
 20
4.72439
 30
0.0
 40
0
 41
0
  0
SEQEND
 8
0
  0
POLYLINE
  8
0
 62
     0
 66
     1
 10
0
 20
0
 30
0.0
 40
0
 41
0
  0
VERTEX
  8
0
 10
2.51969
 20
7.48031
 30
0.0
 40
0
 41
0
  0
VERTEX
  8
0
 10
0.787381
 20
7.48031
 30
0.0
 40
0
 41
0
  0
VERTEX
  8
0
 10
0.787381
 20
7.32286
 30
0.0
 40
0
 41
0
  0
VERTEX
  8
0
 10
0.472439
 20
7.32286
 30
0.0
 40
0
 41
0
  0
VERTEX
  8
0
 10
0.472439
 20
7.48031
 30
0.0
 40
0
 41
0
  0
VERTEX
  8
0
 10
0.157497
 20
7.48031
 30
0.0
 40
0
 41
0
  0
VERTEX
  8
0
 10
0.157497
 20
4.72439
 30
0.0
 40
0
 41
0
  0
VERTEX
  8
0
 10
0.472439
 20
4.72439
 30
0.0
 40
0
 41
0
  0
VERTEX
  8
0
 10
0.472439
 20
4.88189
 30
0.0
 40
0
 41
0
  0
VERTEX
  8
0
 10
0.787381
 20
4.88189
 30
0.0
 40
0
 41
0
  0
VERTEX
  8
0
 10
0.787381
 20
4.72439
 30
0.0
 40
0
 41
0
  0
VERTEX
  8
0
 10
2.51969
 20
4.72439
 30
0.0
 40
0
 41
0
  0
SEQEND
 8
0
  0
POLYLINE
  8
0
 62
     0
 66
     1
 10
0
 20
0
 30
0.0
 40
0
 41
0
  0
VERTEX
  8
0
 10
4.12761
 20
7.48031
 30
0.0
 40
0
 41
0
  0
VERTEX
  8
0
 10
4.34631
 20
7.48031
 30
0.0
 40
0
 41
0
  0
VERTEX
  8
0
 10
4.34631
 20
7.32286
 30
0.0
 40
0
 41
0
  0
VERTEX
  8
0
 10
4.56506
 20
7.32286
 30
0.0
 40
0
 41
0
  0
VERTEX
  8
0
 10
4.56506
 20
7.48031
 30
0.0
 40
0
 41
0
  0
VERTEX
  8
0
 10
4.78375
 20
7.48031
 30
0.0
 40
0
 41
0
  0
VERTEX
  8
0
 10
4.78375
 20
7.32286
 30
0.0
 40
0
 41
0
  0
VERTEX
  8
0
 10
5.0025
 20
7.32286
 30
0.0
 40
0
 41
0
  0
VERTEX
  8
0
 10
5.0025
 20
7.48031
 30
0.0
 40
0
 41
0
  0
VERTEX
  8
0
 10
5.22119
 20
7.48031
 30
0.0
 40
0
 41
0
  0
VERTEX
  8
0
 10
5.22119
 20
7.32286
 30
0.0
 40
0
 41
0
  0
VERTEX
  8
0
 10
5.43994
 20
7.32286
 30
0.0
 40
0
 41
0
  0
VERTEX
  8
0
 10
5.43994
 20
7.48031
 30
0.0
 40
0
 41
0
  0
VERTEX
  8
0
 10
5.65864
 20
7.48031
 30
0.0
 40
0
 41
0
  0
VERTEX
  8
0
 10
5.65864
 20
7.32286
 30
0.0
 40
0
 41
0
  0
VERTEX
  8
0
 10
5.87739
 20
7.32286
 30
0.0
 40
0
 41
0
  0
VERTEX
  8
0
 10
5.87739
 20
7.48031
 30
0.0
 40
0
 41
0
  0
VERTEX
  8
0
 10
6.09608
 20
7.48031
 30
0.0
 40
0
 41
0
  0
SEQEND
 8
0
  0
POLYLINE
  8
0
 62
     0
 66
     1
 10
0
 20
0
 30
0.0
 40
0
 41
0
  0
VERTEX
  8
0
 10
6.09608
 20
4.72439
 30
0.0
 40
0
 41
0
  0
VERTEX
  8
0
 10
5.87739
 20
4.72439
 30
0.0
 40
0
 41
0
  0
VERTEX
  8
0
 10
5.87739
 20
4.88189
 30
0.0
 40
0
 41
0
  0
VERTEX
  8
0
 10
5.65864
 20
4.88189
 30
0.0
 40
0
 41
0
  0
VERTEX
  8
0
 10
5.65864
 20
4.72439
 30
0.0
 40
0
 41
0
  0
VERTEX
  8
0
 10
5.43994
 20
4.72439
 30
0.0
 40
0
 41
0
  0
VERTEX
  8
0
 10
5.43994
 20
4.88189
 30
0.0
 40
0
 41
0
  0
VERTEX
  8
0
 10
5.22119
 20
4.88189
 30
0.0
 40
0
 41
0
  0
VERTEX
  8
0
 10
5.22119
 20
4.72439
 30
0.0
 40
0
 41
0
  0
VERTEX
  8
0
 10
5.0025
 20
4.72439
 30
0.0
 40
0
 41
0
  0
VERTEX
  8
0
 10
5.0025
 20
4.88189
 30
0.0
 40
0
 41
0
  0
VERTEX
  8
0
 10
4.78375
 20
4.88189
 30
0.0
 40
0
 41
0
  0
VERTEX
  8
0
 10
4.78375
 20
4.72439
 30
0.0
 40
0
 41
0
  0
VERTEX
  8
0
 10
4.56506
 20
4.72439
 30
0.0
 40
0
 41
0
  0
VERTEX
  8
0
 10
4.56506
 20
4.88189
 30
0.0
 40
0
 41
0
  0
VERTEX
  8
0
 10
4.34631
 20
4.88189
 30
0.0
 40
0
 41
0
  0
VERTEX
  8
0
 10
4.34631
 20
4.72439
 30
0.0
 40
0
 41
0
  0
VERTEX
  8
0
 10
4.12761
 20
4.72439
 30
0.0
 40
0
 41
0
  0
SEQEND
 8
0
  0
POLYLINE
  8
0
 62
     0
 66
     1
 10
0
 20
0
 30
0.0
 40
0
 41
0
  0
VERTEX
  8
0
 10
17.6128
 20
4.80317
 30
0.0
 40
0
 41
0
  0
VERTEX
  8
0
 10
17.6128
 20
5.56429
 30
0.0
 40
0
 41
0
  0
SEQEND
 8
0
  0
POLYLINE
  8
0
 62
     0
 66
     1
 10
0
 20
0
 30
0.0
 40
0
 41
0
  0
VERTEX
  8
0
 10
17.6128
 20
5.72179
 30
0.0
 40
0
 41
0
  0
VERTEX
  8
0
 10
17.6128
 20
6.48296
 30
0.0
 40
0
 41
0
  0
SEQEND
 8
0
  0
POLYLINE
  8
0
 62
     0
 66
     1
 10
0
 20
0
 30
0.0
 40
0
 41
0
  0
VERTEX
  8
0
 10
17.6128
 20
6.6404
 30
0.0
 40
0
 41
0
  0
VERTEX
  8
0
 10
17.6128
 20
7.40158
 30
0.0
 40
0
 41
0
  0
SEQEND
 8
0
  0
POLYLINE
  8
0
 62
     0
 66
     1
 10
0
 20
0
 30
0.0
 40
0
 41
0
  0
VERTEX
  8
0
 10
17.5324
 20
7.48031
 30
0.0
 40
0
 41
0
  0
VERTEX
  8
0
 10
17.5324
 20
7.09978
 30
0.0
 40
0
 41
0
  0
SEQEND
 8
0
  0
POLYLINE
  8
0
 62
     0
 66
     1
 10
0
 20
0
 30
0.0
 40
0
 41
0
  0
VERTEX
  8
0
 10
17.5324
 20
6.94228
 30
0.0
 40
0
 41
0
  0
VERTEX
  8
0
 10
17.5324
 20
6.1811
 30
0.0
 40
0
 41
0
  0
SEQEND
 8
0
  0
POLYLINE
  8
0
 62
     0
 66
     1
 10
0
 20
0
 30
0.0
 40
0
 41
0
  0
VERTEX
  8
0
 10
17.5324
 20
6.02365
 30
0.0
 40
0
 41
0
  0
VERTEX
  8
0
 10
17.5324
 20
5.26247
 30
0.0
 40
0
 41
0
  0
SEQEND
 8
0
  0
POLYLINE
  8
0
 62
     0
 66
     1
 10
0
 20
0
 30
0.0
 40
0
 41
0
  0
VERTEX
  8
0
 10
17.5324
 20
5.10499
 30
0.0
 40
0
 41
0
  0
VERTEX
  8
0
 10
17.5324
 20
4.72439
 30
0.0
 40
0
 41
0
  0
SEQEND
 8
0
  0
POLYLINE
  8
0
 62
     0
 66
     1
 10
0
 20
0
 30
0.0
 40
0
 41
0
  0
VERTEX
  8
0
 10
17.4519
 20
4.80317
 30
0.0
 40
0
 41
0
  0
VERTEX
  8
0
 10
17.4519
 20
5.56429
 30
0.0
 40
0
 41
0
  0
SEQEND
 8
0
  0
POLYLINE
  8
0
 62
     0
 66
     1
 10
0
 20
0
 30
0.0
 40
0
 41
0
  0
VERTEX
  8
0
 10
17.4519
 20
5.72179
 30
0.0
 40
0
 41
0
  0
VERTEX
  8
0
 10
17.4519
 20
6.48296
 30
0.0
 40
0
 41
0
  0
SEQEND
 8
0
  0
POLYLINE
  8
0
 62
     0
 66
     1
 10
0
 20
0
 30
0.0
 40
0
 41
0
  0
VERTEX
  8
0
 10
17.4519
 20
6.6404
 30
0.0
 40
0
 41
0
  0
VERTEX
  8
0
 10
17.4519
 20
7.40158
 30
0.0
 40
0
 41
0
  0
SEQEND
 8
0
  0
POLYLINE
  8
0
 62
     0
 66
     1
 10
0
 20
0
 30
0.0
 40
0
 41
0
  0
VERTEX
  8
0
 10
17.3715
 20
7.48031
 30
0.0
 40
0
 41
0
  0
VERTEX
  8
0
 10
17.3715
 20
7.09978
 30
0.0
 40
0
 41
0
  0
SEQEND
 8
0
  0
POLYLINE
  8
0
 62
     0
 66
     1
 10
0
 20
0
 30
0.0
 40
0
 41
0
  0
VERTEX
  8
0
 10
17.3715
 20
6.94228
 30
0.0
 40
0
 41
0
  0
VERTEX
  8
0
 10
17.3715
 20
6.1811
 30
0.0
 40
0
 41
0
  0
SEQEND
 8
0
  0
POLYLINE
  8
0
 62
     0
 66
     1
 10
0
 20
0
 30
0.0
 40
0
 41
0
  0
VERTEX
  8
0
 10
17.3715
 20
6.02365
 30
0.0
 40
0
 41
0
  0
VERTEX
  8
0
 10
17.3715
 20
5.26247
 30
0.0
 40
0
 41
0
  0
SEQEND
 8
0
  0
POLYLINE
  8
0
 62
     0
 66
     1
 10
0
 20
0
 30
0.0
 40
0
 41
0
  0
VERTEX
  8
0
 10
17.3715
 20
5.10499
 30
0.0
 40
0
 41
0
  0
VERTEX
  8
0
 10
17.3715
 20
4.72439
 30
0.0
 40
0
 41
0
  0
SEQEND
 8
0
  0
POLYLINE
  8
0
 62
     0
 66
     1
 10
0
 20
0
 30
0.0
 40
0
 41
0
  0
VERTEX
  8
0
 10
17.2911
 20
4.80317
 30
0.0
 40
0
 41
0
  0
VERTEX
  8
0
 10
17.2911
 20
5.56429
 30
0.0
 40
0
 41
0
  0
SEQEND
 8
0
  0
POLYLINE
  8
0
 62
     0
 66
     1
 10
0
 20
0
 30
0.0
 40
0
 41
0
  0
VERTEX
  8
0
 10
17.2911
 20
5.72179
 30
0.0
 40
0
 41
0
  0
VERTEX
  8
0
 10
17.2911
 20
6.48296
 30
0.0
 40
0
 41
0
  0
SEQEND
 8
0
  0
POLYLINE
  8
0
 62
     0
 66
     1
 10
0
 20
0
 30
0.0
 40
0
 41
0
  0
VERTEX
  8
0
 10
17.2911
 20
6.6404
 30
0.0
 40
0
 41
0
  0
VERTEX
  8
0
 10
17.2911
 20
7.40158
 30
0.0
 40
0
 41
0
  0
SEQEND
 8
0
  0
POLYLINE
  8
0
 62
     0
 66
     1
 10
0
 20
0
 30
0.0
 40
0
 41
0
  0
VERTEX
  8
0
 10
17.2108
 20
7.48031
 30
0.0
 40
0
 41
0
  0
VERTEX
  8
0
 10
17.2108
 20
7.09978
 30
0.0
 40
0
 41
0
  0
SEQEND
 8
0
  0
POLYLINE
  8
0
 62
     0
 66
     1
 10
0
 20
0
 30
0.0
 40
0
 41
0
  0
VERTEX
  8
0
 10
17.2108
 20
6.94228
 30
0.0
 40
0
 41
0
  0
VERTEX
  8
0
 10
17.2108
 20
6.1811
 30
0.0
 40
0
 41
0
  0
SEQEND
 8
0
  0
POLYLINE
  8
0
 62
     0
 66
     1
 10
0
 20
0
 30
0.0
 40
0
 41
0
  0
VERTEX
  8
0
 10
17.2108
 20
6.02365
 30
0.0
 40
0
 41
0
  0
VERTEX
  8
0
 10
17.2108
 20
5.26247
 30
0.0
 40
0
 41
0
  0
SEQEND
 8
0
  0
POLYLINE
  8
0
 62
     0
 66
     1
 10
0
 20
0
 30
0.0
 40
0
 41
0
  0
VERTEX
  8
0
 10
17.2108
 20
5.10499
 30
0.0
 40
0
 41
0
  0
VERTEX
  8
0
 10
17.2108
 20
4.72439
 30
0.0
 40
0
 41
0
  0
SEQEND
 8
0
  0
POLYLINE
  8
0
 62
     0
 66
     1
 10
0
 20
0
 30
0.0
 40
0
 41
0
  0
VERTEX
  8
0
 10
17.1304
 20
4.80317
 30
0.0
 40
0
 41
0
  0
VERTEX
  8
0
 10
17.1304
 20
5.56429
 30
0.0
 40
0
 41
0
  0
SEQEND
 8
0
  0
POLYLINE
  8
0
 62
     0
 66
     1
 10
0
 20
0
 30
0.0
 40
0
 41
0
  0
VERTEX
  8
0
 10
17.1304
 20
5.72179
 30
0.0
 40
0
 41
0
  0
VERTEX
  8
0
 10
17.1304
 20
6.48296
 30
0.0
 40
0
 41
0
  0
SEQEND
 8
0
  0
POLYLINE
  8
0
 62
     0
 66
     1
 10
0
 20
0
 30
0.0
 40
0
 41
0
  0
VERTEX
  8
0
 10
17.1304
 20
6.6404
 30
0.0
 40
0
 41
0
  0
VERTEX
  8
0
 10
17.1304
 20
7.40158
 30
0.0
 40
0
 41
0
  0
SEQEND
 8
0
  0
POLYLINE
  8
0
 62
     0
 66
     1
 10
0
 20
0
 30
0.0
 40
0
 41
0
  0
VERTEX
  8
0
 10
17.05
 20
7.48031
 30
0.0
 40
0
 41
0
  0
VERTEX
  8
0
 10
17.05
 20
7.09978
 30
0.0
 40
0
 41
0
  0
SEQEND
 8
0
  0
POLYLINE
  8
0
 62
     0
 66
     1
 10
0
 20
0
 30
0.0
 40
0
 41
0
  0
VERTEX
  8
0
 10
17.05
 20
6.94228
 30
0.0
 40
0
 41
0
  0
VERTEX
  8
0
 10
17.05
 20
6.1811
 30
0.0
 40
0
 41
0
  0
SEQEND
 8
0
  0
POLYLINE
  8
0
 62
     0
 66
     1
 10
0
 20
0
 30
0.0
 40
0
 41
0
  0
VERTEX
  8
0
 10
17.05
 20
6.02365
 30
0.0
 40
0
 41
0
  0
VERTEX
  8
0
 10
17.05
 20
5.26247
 30
0.0
 40
0
 41
0
  0
SEQEND
 8
0
  0
POLYLINE
  8
0
 62
     0
 66
     1
 10
0
 20
0
 30
0.0
 40
0
 41
0
  0
VERTEX
  8
0
 10
17.05
 20
5.10499
 30
0.0
 40
0
 41
0
  0
VERTEX
  8
0
 10
17.05
 20
4.72439
 30
0.0
 40
0
 41
0
  0
SEQEND
 8
0
  0
POLYLINE
  8
0
 62
     0
 66
     1
 10
0
 20
0
 30
0.0
 40
0
 41
0
  0
VERTEX
  8
0
 10
16.9696
 20
4.80317
 30
0.0
 40
0
 41
0
  0
VERTEX
  8
0
 10
16.9696
 20
5.56429
 30
0.0
 40
0
 41
0
  0
SEQEND
 8
0
  0
POLYLINE
  8
0
 62
     0
 66
     1
 10
0
 20
0
 30
0.0
 40
0
 41
0
  0
VERTEX
  8
0
 10
16.9696
 20
5.72179
 30
0.0
 40
0
 41
0
  0
VERTEX
  8
0
 10
16.9696
 20
6.48296
 30
0.0
 40
0
 41
0
  0
SEQEND
 8
0
  0
POLYLINE
  8
0
 62
     0
 66
     1
 10
0
 20
0
 30
0.0
 40
0
 41
0
  0
VERTEX
  8
0
 10
16.9696
 20
6.6404
 30
0.0
 40
0
 41
0
  0
VERTEX
  8
0
 10
16.9696
 20
7.40158
 30
0.0
 40
0
 41
0
  0
SEQEND
 8
0
  0
POLYLINE
  8
0
 62
     0
 66
     1
 10
0
 20
0
 30
0.0
 40
0
 41
0
  0
VERTEX
  8
0
 10
16.8892
 20
7.48031
 30
0.0
 40
0
 41
0
  0
VERTEX
  8
0
 10
16.8892
 20
7.09978
 30
0.0
 40
0
 41
0
  0
SEQEND
 8
0
  0
POLYLINE
  8
0
 62
     0
 66
     1
 10
0
 20
0
 30
0.0
 40
0
 41
0
  0
VERTEX
  8
0
 10
16.8892
 20
6.94228
 30
0.0
 40
0
 41
0
  0
VERTEX
  8
0
 10
16.8892
 20
6.1811
 30
0.0
 40
0
 41
0
  0
SEQEND
 8
0
  0
POLYLINE
  8
0
 62
     0
 66
     1
 10
0
 20
0
 30
0.0
 40
0
 41
0
  0
VERTEX
  8
0
 10
16.8892
 20
6.02365
 30
0.0
 40
0
 41
0
  0
VERTEX
  8
0
 10
16.8892
 20
5.26247
 30
0.0
 40
0
 41
0
  0
SEQEND
 8
0
  0
POLYLINE
  8
0
 62
     0
 66
     1
 10
0
 20
0
 30
0.0
 40
0
 41
0
  0
VERTEX
  8
0
 10
16.8892
 20
5.10499
 30
0.0
 40
0
 41
0
  0
VERTEX
  8
0
 10
16.8892
 20
4.72439
 30
0.0
 40
0
 41
0
  0
SEQEND
 8
0
  0
POLYLINE
  8
0
 62
     0
 66
     1
 10
0
 20
0
 30
0.0
 40
0
 41
0
  0
VERTEX
  8
0
 10
16.8087
 20
4.80317
 30
0.0
 40
0
 41
0
  0
VERTEX
  8
0
 10
16.8087
 20
5.56429
 30
0.0
 40
0
 41
0
  0
SEQEND
 8
0
  0
POLYLINE
  8
0
 62
     0
 66
     1
 10
0
 20
0
 30
0.0
 40
0
 41
0
  0
VERTEX
  8
0
 10
16.8087
 20
5.72179
 30
0.0
 40
0
 41
0
  0
VERTEX
  8
0
 10
16.8087
 20
6.48296
 30
0.0
 40
0
 41
0
  0
SEQEND
 8
0
  0
POLYLINE
  8
0
 62
     0
 66
     1
 10
0
 20
0
 30
0.0
 40
0
 41
0
  0
VERTEX
  8
0
 10
16.8087
 20
6.6404
 30
0.0
 40
0
 41
0
  0
VERTEX
  8
0
 10
16.8087
 20
7.40158
 30
0.0
 40
0
 41
0
  0
SEQEND
 8
0
  0
POLYLINE
  8
0
 62
     0
 66
     1
 10
0
 20
0
 30
0.0
 40
0
 41
0
  0
VERTEX
  8
0
 10
16.7285
 20
7.48031
 30
0.0
 40
0
 41
0
  0
VERTEX
  8
0
 10
16.7285
 20
7.09978
 30
0.0
 40
0
 41
0
  0
SEQEND
 8
0
  0
POLYLINE
  8
0
 62
     0
 66
     1
 10
0
 20
0
 30
0.0
 40
0
 41
0
  0
VERTEX
  8
0
 10
16.7285
 20
6.94228
 30
0.0
 40
0
 41
0
  0
VERTEX
  8
0
 10
16.7285
 20
6.1811
 30
0.0
 40
0
 41
0
  0
SEQEND
 8
0
  0
POLYLINE
  8
0
 62
     0
 66
     1
 10
0
 20
0
 30
0.0
 40
0
 41
0
  0
VERTEX
  8
0
 10
16.7285
 20
6.02365
 30
0.0
 40
0
 41
0
  0
VERTEX
  8
0
 10
16.7285
 20
5.26247
 30
0.0
 40
0
 41
0
  0
SEQEND
 8
0
  0
POLYLINE
  8
0
 62
     0
 66
     1
 10
0
 20
0
 30
0.0
 40
0
 41
0
  0
VERTEX
  8
0
 10
16.7285
 20
5.10499
 30
0.0
 40
0
 41
0
  0
VERTEX
  8
0
 10
16.7285
 20
4.72439
 30
0.0
 40
0
 41
0
  0
SEQEND
 8
0
  0
POLYLINE
  8
0
 62
     0
 66
     1
 10
0
 20
0
 30
0.0
 40
0
 41
0
  0
VERTEX
  8
0
 10
16.6481
 20
4.80317
 30
0.0
 40
0
 41
0
  0
VERTEX
  8
0
 10
16.6481
 20
5.56429
 30
0.0
 40
0
 41
0
  0
SEQEND
 8
0
  0
POLYLINE
  8
0
 62
     0
 66
     1
 10
0
 20
0
 30
0.0
 40
0
 41
0
  0
VERTEX
  8
0
 10
16.6481
 20
5.72179
 30
0.0
 40
0
 41
0
  0
VERTEX
  8
0
 10
16.6481
 20
6.48296
 30
0.0
 40
0
 41
0
  0
SEQEND
 8
0
  0
POLYLINE
  8
0
 62
     0
 66
     1
 10
0
 20
0
 30
0.0
 40
0
 41
0
  0
VERTEX
  8
0
 10
16.6481
 20
6.6404
 30
0.0
 40
0
 41
0
  0
VERTEX
  8
0
 10
16.6481
 20
7.40158
 30
0.0
 40
0
 41
0
  0
SEQEND
 8
0
  0
POLYLINE
  8
0
 62
     0
 66
     1
 10
0
 20
0
 30
0.0
 40
0
 41
0
  0
VERTEX
  8
0
 10
16.5676
 20
7.48031
 30
0.0
 40
0
 41
0
  0
VERTEX
  8
0
 10
16.5676
 20
7.09978
 30
0.0
 40
0
 41
0
  0
SEQEND
 8
0
  0
POLYLINE
  8
0
 62
     0
 66
     1
 10
0
 20
0
 30
0.0
 40
0
 41
0
  0
VERTEX
  8
0
 10
16.5676
 20
6.94228
 30
0.0
 40
0
 41
0
  0
VERTEX
  8
0
 10
16.5676
 20
6.1811
 30
0.0
 40
0
 41
0
  0
SEQEND
 8
0
  0
POLYLINE
  8
0
 62
     0
 66
     1
 10
0
 20
0
 30
0.0
 40
0
 41
0
  0
VERTEX
  8
0
 10
16.5676
 20
6.02365
 30
0.0
 40
0
 41
0
  0
VERTEX
  8
0
 10
16.5676
 20
5.26247
 30
0.0
 40
0
 41
0
  0
SEQEND
 8
0
  0
POLYLINE
  8
0
 62
     0
 66
     1
 10
0
 20
0
 30
0.0
 40
0
 41
0
  0
VERTEX
  8
0
 10
16.5676
 20
5.10499
 30
0.0
 40
0
 41
0
  0
VERTEX
  8
0
 10
16.5676
 20
4.72439
 30
0.0
 40
0
 41
0
  0
SEQEND
 8
0
  0
POLYLINE
  8
0
 62
     0
 66
     1
 10
0
 20
0
 30
0.0
 40
0
 41
0
  0
VERTEX
  8
0
 10
16.4872
 20
4.80317
 30
0.0
 40
0
 41
0
  0
VERTEX
  8
0
 10
16.4872
 20
5.56429
 30
0.0
 40
0
 41
0
  0
SEQEND
 8
0
  0
POLYLINE
  8
0
 62
     0
 66
     1
 10
0
 20
0
 30
0.0
 40
0
 41
0
  0
VERTEX
  8
0
 10
16.4872
 20
5.72179
 30
0.0
 40
0
 41
0
  0
VERTEX
  8
0
 10
16.4872
 20
6.48296
 30
0.0
 40
0
 41
0
  0
SEQEND
 8
0
  0
POLYLINE
  8
0
 62
     0
 66
     1
 10
0
 20
0
 30
0.0
 40
0
 41
0
  0
VERTEX
  8
0
 10
16.4872
 20
6.6404
 30
0.0
 40
0
 41
0
  0
VERTEX
  8
0
 10
16.4872
 20
7.40158
 30
0.0
 40
0
 41
0
  0
SEQEND
 8
0
  0
POLYLINE
  8
0
 62
     0
 66
     1
 10
0
 20
0
 30
0.0
 40
0
 41
0
  0
VERTEX
  8
0
 10
16.4068
 20
7.48031
 30
0.0
 40
0
 41
0
  0
VERTEX
  8
0
 10
16.4068
 20
7.09978
 30
0.0
 40
0
 41
0
  0
SEQEND
 8
0
  0
POLYLINE
  8
0
 62
     0
 66
     1
 10
0
 20
0
 30
0.0
 40
0
 41
0
  0
VERTEX
  8
0
 10
16.4068
 20
6.94228
 30
0.0
 40
0
 41
0
  0
VERTEX
  8
0
 10
16.4068
 20
6.1811
 30
0.0
 40
0
 41
0
  0
SEQEND
 8
0
  0
POLYLINE
  8
0
 62
     0
 66
     1
 10
0
 20
0
 30
0.0
 40
0
 41
0
  0
VERTEX
  8
0
 10
16.4068
 20
6.02365
 30
0.0
 40
0
 41
0
  0
VERTEX
  8
0
 10
16.4068
 20
5.26247
 30
0.0
 40
0
 41
0
  0
SEQEND
 8
0
  0
POLYLINE
  8
0
 62
     0
 66
     1
 10
0
 20
0
 30
0.0
 40
0
 41
0
  0
VERTEX
  8
0
 10
16.4068
 20
5.10499
 30
0.0
 40
0
 41
0
  0
VERTEX
  8
0
 10
16.4068
 20
4.72439
 30
0.0
 40
0
 41
0
  0
SEQEND
 8
0
  0
POLYLINE
  8
0
 62
     0
 66
     1
 10
0
 20
0
 30
0.0
 40
0
 41
0
  0
VERTEX
  8
0
 10
16.3264
 20
4.80317
 30
0.0
 40
0
 41
0
  0
VERTEX
  8
0
 10
16.3264
 20
5.56429
 30
0.0
 40
0
 41
0
  0
SEQEND
 8
0
  0
POLYLINE
  8
0
 62
     0
 66
     1
 10
0
 20
0
 30
0.0
 40
0
 41
0
  0
VERTEX
  8
0
 10
16.3264
 20
5.72179
 30
0.0
 40
0
 41
0
  0
VERTEX
  8
0
 10
16.3264
 20
6.48296
 30
0.0
 40
0
 41
0
  0
SEQEND
 8
0
  0
POLYLINE
  8
0
 62
     0
 66
     1
 10
0
 20
0
 30
0.0
 40
0
 41
0
  0
VERTEX
  8
0
 10
16.3264
 20
6.6404
 30
0.0
 40
0
 41
0
  0
VERTEX
  8
0
 10
16.3264
 20
7.40158
 30
0.0
 40
0
 41
0
  0
SEQEND
 8
0
  0
POLYLINE
  8
0
 62
     0
 66
     1
 10
0
 20
0
 30
0.0
 40
0
 41
0
  0
VERTEX
  8
0
 10
16.246
 20
7.48031
 30
0.0
 40
0
 41
0
  0
VERTEX
  8
0
 10
16.246
 20
7.09978
 30
0.0
 40
0
 41
0
  0
SEQEND
 8
0
  0
POLYLINE
  8
0
 62
     0
 66
     1
 10
0
 20
0
 30
0.0
 40
0
 41
0
  0
VERTEX
  8
0
 10
16.246
 20
6.94228
 30
0.0
 40
0
 41
0
  0
VERTEX
  8
0
 10
16.246
 20
6.1811
 30
0.0
 40
0
 41
0
  0
SEQEND
 8
0
  0
POLYLINE
  8
0
 62
     0
 66
     1
 10
0
 20
0
 30
0.0
 40
0
 41
0
  0
VERTEX
  8
0
 10
16.246
 20
6.02365
 30
0.0
 40
0
 41
0
  0
VERTEX
  8
0
 10
16.246
 20
5.26247
 30
0.0
 40
0
 41
0
  0
SEQEND
 8
0
  0
POLYLINE
  8
0
 62
     0
 66
     1
 10
0
 20
0
 30
0.0
 40
0
 41
0
  0
VERTEX
  8
0
 10
16.246
 20
5.10499
 30
0.0
 40
0
 41
0
  0
VERTEX
  8
0
 10
16.246
 20
4.72439
 30
0.0
 40
0
 41
0
  0
SEQEND
 8
0
  0
POLYLINE
  8
0
 62
     0
 66
     1
 10
0
 20
0
 30
0.0
 40
0
 41
0
  0
VERTEX
  8
0
 10
16.1657
 20
4.80317
 30
0.0
 40
0
 41
0
  0
VERTEX
  8
0
 10
16.1657
 20
5.56429
 30
0.0
 40
0
 41
0
  0
SEQEND
 8
0
  0
POLYLINE
  8
0
 62
     0
 66
     1
 10
0
 20
0
 30
0.0
 40
0
 41
0
  0
VERTEX
  8
0
 10
16.1657
 20
5.72179
 30
0.0
 40
0
 41
0
  0
VERTEX
  8
0
 10
16.1657
 20
6.48296
 30
0.0
 40
0
 41
0
  0
SEQEND
 8
0
  0
POLYLINE
  8
0
 62
     0
 66
     1
 10
0
 20
0
 30
0.0
 40
0
 41
0
  0
VERTEX
  8
0
 10
16.1657
 20
6.6404
 30
0.0
 40
0
 41
0
  0
VERTEX
  8
0
 10
16.1657
 20
7.40158
 30
0.0
 40
0
 41
0
  0
SEQEND
 8
0
  0
POLYLINE
  8
0
 62
     0
 66
     1
 10
0
 20
0
 30
0.0
 40
0
 41
0
  0
VERTEX
  8
0
 10
16.0853
 20
7.48031
 30
0.0
 40
0
 41
0
  0
VERTEX
  8
0
 10
16.0853
 20
7.09978
 30
0.0
 40
0
 41
0
  0
SEQEND
 8
0
  0
POLYLINE
  8
0
 62
     0
 66
     1
 10
0
 20
0
 30
0.0
 40
0
 41
0
  0
VERTEX
  8
0
 10
16.0853
 20
6.94228
 30
0.0
 40
0
 41
0
  0
VERTEX
  8
0
 10
16.0853
 20
6.1811
 30
0.0
 40
0
 41
0
  0
SEQEND
 8
0
  0
POLYLINE
  8
0
 62
     0
 66
     1
 10
0
 20
0
 30
0.0
 40
0
 41
0
  0
VERTEX
  8
0
 10
16.0853
 20
6.02365
 30
0.0
 40
0
 41
0
  0
VERTEX
  8
0
 10
16.0853
 20
5.26247
 30
0.0
 40
0
 41
0
  0
SEQEND
 8
0
  0
POLYLINE
  8
0
 62
     0
 66
     1
 10
0
 20
0
 30
0.0
 40
0
 41
0
  0
VERTEX
  8
0
 10
16.0853
 20
5.10499
 30
0.0
 40
0
 41
0
  0
VERTEX
  8
0
 10
16.0853
 20
4.72439
 30
0.0
 40
0
 41
0
  0
SEQEND
 8
0
  0
POLYLINE
  8
0
 62
     0
 66
     1
 10
0
 20
0
 30
0.0
 40
0
 41
0
  0
VERTEX
  8
0
 10
16.0049
 20
4.80317
 30
0.0
 40
0
 41
0
  0
VERTEX
  8
0
 10
16.0049
 20
5.56429
 30
0.0
 40
0
 41
0
  0
SEQEND
 8
0
  0
POLYLINE
  8
0
 62
     0
 66
     1
 10
0
 20
0
 30
0.0
 40
0
 41
0
  0
VERTEX
  8
0
 10
16.0049
 20
5.72179
 30
0.0
 40
0
 41
0
  0
VERTEX
  8
0
 10
16.0049
 20
6.48296
 30
0.0
 40
0
 41
0
  0
SEQEND
 8
0
  0
POLYLINE
  8
0
 62
     0
 66
     1
 10
0
 20
0
 30
0.0
 40
0
 41
0
  0
VERTEX
  8
0
 10
16.0049
 20
6.6404
 30
0.0
 40
0
 41
0
  0
VERTEX
  8
0
 10
16.0049
 20
7.40158
 30
0.0
 40
0
 41
0
  0
SEQEND
 8
0
  0
POLYLINE
  8
0
 62
     0
 66
     1
 10
0
 20
0
 30
0.0
 40
0
 41
0
  0
VERTEX
  8
0
 10
17.6128
 20
7.48031
 30
0.0
 40
0
 41
0
  0
VERTEX
  8
0
 10
16.0049
 20
7.48031
 30
0.0
 40
0
 41
0
  0
SEQEND
 8
0
  0
POLYLINE
  8
0
 62
     0
 66
     1
 10
0
 20
0
 30
0.0
 40
0
 41
0
  0
VERTEX
  8
0
 10
16.0049
 20
4.72439
 30
0.0
 40
0
 41
0
  0
VERTEX
  8
0
 10
17.6128
 20
4.72439
 30
0.0
 40
0
 41
0
  0
SEQEND
 8
0
  0
POLYLINE
  8
0
 62
     0
 66
     1
 10
0
 20
0
 30
0.0
 40
0
 41
0
  0
VERTEX
  8
0
 10
14.0364
 20
4.80317
 30
0.0
 40
0
 41
0
  0
VERTEX
  8
0
 10
14.0364
 20
5.56429
 30
0.0
 40
0
 41
0
  0
SEQEND
 8
0
  0
POLYLINE
  8
0
 62
     0
 66
     1
 10
0
 20
0
 30
0.0
 40
0
 41
0
  0
VERTEX
  8
0
 10
14.0364
 20
5.72179
 30
0.0
 40
0
 41
0
  0
VERTEX
  8
0
 10
14.0364
 20
6.48296
 30
0.0
 40
0
 41
0
  0
SEQEND
 8
0
  0
POLYLINE
  8
0
 62
     0
 66
     1
 10
0
 20
0
 30
0.0
 40
0
 41
0
  0
VERTEX
  8
0
 10
14.0364
 20
6.6404
 30
0.0
 40
0
 41
0
  0
VERTEX
  8
0
 10
14.0364
 20
7.40158
 30
0.0
 40
0
 41
0
  0
SEQEND
 8
0
  0
POLYLINE
  8
0
 62
     0
 66
     1
 10
0
 20
0
 30
0.0
 40
0
 41
0
  0
VERTEX
  8
0
 10
13.956
 20
7.48031
 30
0.0
 40
0
 41
0
  0
VERTEX
  8
0
 10
13.956
 20
7.09978
 30
0.0
 40
0
 41
0
  0
SEQEND
 8
0
  0
POLYLINE
  8
0
 62
     0
 66
     1
 10
0
 20
0
 30
0.0
 40
0
 41
0
  0
VERTEX
  8
0
 10
13.956
 20
6.94228
 30
0.0
 40
0
 41
0
  0
VERTEX
  8
0
 10
13.956
 20
6.1811
 30
0.0
 40
0
 41
0
  0
SEQEND
 8
0
  0
POLYLINE
  8
0
 62
     0
 66
     1
 10
0
 20
0
 30
0.0
 40
0
 41
0
  0
VERTEX
  8
0
 10
13.956
 20
6.02365
 30
0.0
 40
0
 41
0
  0
VERTEX
  8
0
 10
13.956
 20
5.26247
 30
0.0
 40
0
 41
0
  0
SEQEND
 8
0
  0
POLYLINE
  8
0
 62
     0
 66
     1
 10
0
 20
0
 30
0.0
 40
0
 41
0
  0
VERTEX
  8
0
 10
13.956
 20
5.10499
 30
0.0
 40
0
 41
0
  0
VERTEX
  8
0
 10
13.956
 20
4.72439
 30
0.0
 40
0
 41
0
  0
SEQEND
 8
0
  0
POLYLINE
  8
0
 62
     0
 66
     1
 10
0
 20
0
 30
0.0
 40
0
 41
0
  0
VERTEX
  8
0
 10
13.8755
 20
4.80317
 30
0.0
 40
0
 41
0
  0
VERTEX
  8
0
 10
13.8755
 20
5.56429
 30
0.0
 40
0
 41
0
  0
SEQEND
 8
0
  0
POLYLINE
  8
0
 62
     0
 66
     1
 10
0
 20
0
 30
0.0
 40
0
 41
0
  0
VERTEX
  8
0
 10
13.8755
 20
5.72179
 30
0.0
 40
0
 41
0
  0
VERTEX
  8
0
 10
13.8755
 20
6.48296
 30
0.0
 40
0
 41
0
  0
SEQEND
 8
0
  0
POLYLINE
  8
0
 62
     0
 66
     1
 10
0
 20
0
 30
0.0
 40
0
 41
0
  0
VERTEX
  8
0
 10
13.8755
 20
6.6404
 30
0.0
 40
0
 41
0
  0
VERTEX
  8
0
 10
13.8755
 20
7.40158
 30
0.0
 40
0
 41
0
  0
SEQEND
 8
0
  0
POLYLINE
  8
0
 62
     0
 66
     1
 10
0
 20
0
 30
0.0
 40
0
 41
0
  0
VERTEX
  8
0
 10
13.7951
 20
7.48031
 30
0.0
 40
0
 41
0
  0
VERTEX
  8
0
 10
13.7951
 20
7.09978
 30
0.0
 40
0
 41
0
  0
SEQEND
 8
0
  0
POLYLINE
  8
0
 62
     0
 66
     1
 10
0
 20
0
 30
0.0
 40
0
 41
0
  0
VERTEX
  8
0
 10
13.7951
 20
6.94228
 30
0.0
 40
0
 41
0
  0
VERTEX
  8
0
 10
13.7951
 20
6.1811
 30
0.0
 40
0
 41
0
  0
SEQEND
 8
0
  0
POLYLINE
  8
0
 62
     0
 66
     1
 10
0
 20
0
 30
0.0
 40
0
 41
0
  0
VERTEX
  8
0
 10
13.7951
 20
6.02365
 30
0.0
 40
0
 41
0
  0
VERTEX
  8
0
 10
13.7951
 20
5.26247
 30
0.0
 40
0
 41
0
  0
SEQEND
 8
0
  0
POLYLINE
  8
0
 62
     0
 66
     1
 10
0
 20
0
 30
0.0
 40
0
 41
0
  0
VERTEX
  8
0
 10
13.7951
 20
5.10499
 30
0.0
 40
0
 41
0
  0
VERTEX
  8
0
 10
13.7951
 20
4.72439
 30
0.0
 40
0
 41
0
  0
SEQEND
 8
0
  0
POLYLINE
  8
0
 62
     0
 66
     1
 10
0
 20
0
 30
0.0
 40
0
 41
0
  0
VERTEX
  8
0
 10
13.7147
 20
4.80317
 30
0.0
 40
0
 41
0
  0
VERTEX
  8
0
 10
13.7147
 20
5.56429
 30
0.0
 40
0
 41
0
  0
SEQEND
 8
0
  0
POLYLINE
  8
0
 62
     0
 66
     1
 10
0
 20
0
 30
0.0
 40
0
 41
0
  0
VERTEX
  8
0
 10
13.7147
 20
5.72179
 30
0.0
 40
0
 41
0
  0
VERTEX
  8
0
 10
13.7147
 20
6.48296
 30
0.0
 40
0
 41
0
  0
SEQEND
 8
0
  0
POLYLINE
  8
0
 62
     0
 66
     1
 10
0
 20
0
 30
0.0
 40
0
 41
0
  0
VERTEX
  8
0
 10
13.7147
 20
6.6404
 30
0.0
 40
0
 41
0
  0
VERTEX
  8
0
 10
13.7147
 20
7.40158
 30
0.0
 40
0
 41
0
  0
SEQEND
 8
0
  0
POLYLINE
  8
0
 62
     0
 66
     1
 10
0
 20
0
 30
0.0
 40
0
 41
0
  0
VERTEX
  8
0
 10
13.6343
 20
7.48031
 30
0.0
 40
0
 41
0
  0
VERTEX
  8
0
 10
13.6343
 20
7.09978
 30
0.0
 40
0
 41
0
  0
SEQEND
 8
0
  0
POLYLINE
  8
0
 62
     0
 66
     1
 10
0
 20
0
 30
0.0
 40
0
 41
0
  0
VERTEX
  8
0
 10
13.6343
 20
6.94228
 30
0.0
 40
0
 41
0
  0
VERTEX
  8
0
 10
13.6343
 20
6.1811
 30
0.0
 40
0
 41
0
  0
SEQEND
 8
0
  0
POLYLINE
  8
0
 62
     0
 66
     1
 10
0
 20
0
 30
0.0
 40
0
 41
0
  0
VERTEX
  8
0
 10
13.6343
 20
6.02365
 30
0.0
 40
0
 41
0
  0
VERTEX
  8
0
 10
13.6343
 20
5.26247
 30
0.0
 40
0
 41
0
  0
SEQEND
 8
0
  0
POLYLINE
  8
0
 62
     0
 66
     1
 10
0
 20
0
 30
0.0
 40
0
 41
0
  0
VERTEX
  8
0
 10
13.6343
 20
5.10499
 30
0.0
 40
0
 41
0
  0
VERTEX
  8
0
 10
13.6343
 20
4.72439
 30
0.0
 40
0
 41
0
  0
SEQEND
 8
0
  0
POLYLINE
  8
0
 62
     0
 66
     1
 10
0
 20
0
 30
0.0
 40
0
 41
0
  0
VERTEX
  8
0
 10
13.5539
 20
4.80317
 30
0.0
 40
0
 41
0
  0
VERTEX
  8
0
 10
13.5539
 20
5.56429
 30
0.0
 40
0
 41
0
  0
SEQEND
 8
0
  0
POLYLINE
  8
0
 62
     0
 66
     1
 10
0
 20
0
 30
0.0
 40
0
 41
0
  0
VERTEX
  8
0
 10
13.5539
 20
5.72179
 30
0.0
 40
0
 41
0
  0
VERTEX
  8
0
 10
13.5539
 20
6.48296
 30
0.0
 40
0
 41
0
  0
SEQEND
 8
0
  0
POLYLINE
  8
0
 62
     0
 66
     1
 10
0
 20
0
 30
0.0
 40
0
 41
0
  0
VERTEX
  8
0
 10
13.5539
 20
6.6404
 30
0.0
 40
0
 41
0
  0
VERTEX
  8
0
 10
13.5539
 20
7.40158
 30
0.0
 40
0
 41
0
  0
SEQEND
 8
0
  0
POLYLINE
  8
0
 62
     0
 66
     1
 10
0
 20
0
 30
0.0
 40
0
 41
0
  0
VERTEX
  8
0
 10
13.4736
 20
7.48031
 30
0.0
 40
0
 41
0
  0
VERTEX
  8
0
 10
13.4736
 20
7.09978
 30
0.0
 40
0
 41
0
  0
SEQEND
 8
0
  0
POLYLINE
  8
0
 62
     0
 66
     1
 10
0
 20
0
 30
0.0
 40
0
 41
0
  0
VERTEX
  8
0
 10
13.4736
 20
6.94228
 30
0.0
 40
0
 41
0
  0
VERTEX
  8
0
 10
13.4736
 20
6.1811
 30
0.0
 40
0
 41
0
  0
SEQEND
 8
0
  0
POLYLINE
  8
0
 62
     0
 66
     1
 10
0
 20
0
 30
0.0
 40
0
 41
0
  0
VERTEX
  8
0
 10
13.4736
 20
6.02365
 30
0.0
 40
0
 41
0
  0
VERTEX
  8
0
 10
13.4736
 20
5.26247
 30
0.0
 40
0
 41
0
  0
SEQEND
 8
0
  0
POLYLINE
  8
0
 62
     0
 66
     1
 10
0
 20
0
 30
0.0
 40
0
 41
0
  0
VERTEX
  8
0
 10
13.4736
 20
5.10499
 30
0.0
 40
0
 41
0
  0
VERTEX
  8
0
 10
13.4736
 20
4.72439
 30
0.0
 40
0
 41
0
  0
SEQEND
 8
0
  0
POLYLINE
  8
0
 62
     0
 66
     1
 10
0
 20
0
 30
0.0
 40
0
 41
0
  0
VERTEX
  8
0
 10
13.3932
 20
4.80317
 30
0.0
 40
0
 41
0
  0
VERTEX
  8
0
 10
13.3932
 20
5.56429
 30
0.0
 40
0
 41
0
  0
SEQEND
 8
0
  0
POLYLINE
  8
0
 62
     0
 66
     1
 10
0
 20
0
 30
0.0
 40
0
 41
0
  0
VERTEX
  8
0
 10
13.3932
 20
5.72179
 30
0.0
 40
0
 41
0
  0
VERTEX
  8
0
 10
13.3932
 20
6.48296
 30
0.0
 40
0
 41
0
  0
SEQEND
 8
0
  0
POLYLINE
  8
0
 62
     0
 66
     1
 10
0
 20
0
 30
0.0
 40
0
 41
0
  0
VERTEX
  8
0
 10
13.3932
 20
6.6404
 30
0.0
 40
0
 41
0
  0
VERTEX
  8
0
 10
13.3932
 20
7.40158
 30
0.0
 40
0
 41
0
  0
SEQEND
 8
0
  0
POLYLINE
  8
0
 62
     0
 66
     1
 10
0
 20
0
 30
0.0
 40
0
 41
0
  0
VERTEX
  8
0
 10
13.3128
 20
7.48031
 30
0.0
 40
0
 41
0
  0
VERTEX
  8
0
 10
13.3128
 20
7.09978
 30
0.0
 40
0
 41
0
  0
SEQEND
 8
0
  0
POLYLINE
  8
0
 62
     0
 66
     1
 10
0
 20
0
 30
0.0
 40
0
 41
0
  0
VERTEX
  8
0
 10
13.3128
 20
6.94228
 30
0.0
 40
0
 41
0
  0
VERTEX
  8
0
 10
13.3128
 20
6.1811
 30
0.0
 40
0
 41
0
  0
SEQEND
 8
0
  0
POLYLINE
  8
0
 62
     0
 66
     1
 10
0
 20
0
 30
0.0
 40
0
 41
0
  0
VERTEX
  8
0
 10
13.3128
 20
6.02365
 30
0.0
 40
0
 41
0
  0
VERTEX
  8
0
 10
13.3128
 20
5.26247
 30
0.0
 40
0
 41
0
  0
SEQEND
 8
0
  0
POLYLINE
  8
0
 62
     0
 66
     1
 10
0
 20
0
 30
0.0
 40
0
 41
0
  0
VERTEX
  8
0
 10
13.3128
 20
5.10499
 30
0.0
 40
0
 41
0
  0
VERTEX
  8
0
 10
13.3128
 20
4.72439
 30
0.0
 40
0
 41
0
  0
SEQEND
 8
0
  0
POLYLINE
  8
0
 62
     0
 66
     1
 10
0
 20
0
 30
0.0
 40
0
 41
0
  0
VERTEX
  8
0
 10
13.2324
 20
4.80317
 30
0.0
 40
0
 41
0
  0
VERTEX
  8
0
 10
13.2324
 20
5.56429
 30
0.0
 40
0
 41
0
  0
SEQEND
 8
0
  0
POLYLINE
  8
0
 62
     0
 66
     1
 10
0
 20
0
 30
0.0
 40
0
 41
0
  0
VERTEX
  8
0
 10
13.2324
 20
5.72179
 30
0.0
 40
0
 41
0
  0
VERTEX
  8
0
 10
13.2324
 20
6.48296
 30
0.0
 40
0
 41
0
  0
SEQEND
 8
0
  0
POLYLINE
  8
0
 62
     0
 66
     1
 10
0
 20
0
 30
0.0
 40
0
 41
0
  0
VERTEX
  8
0
 10
13.2324
 20
6.6404
 30
0.0
 40
0
 41
0
  0
VERTEX
  8
0
 10
13.2324
 20
7.40158
 30
0.0
 40
0
 41
0
  0
SEQEND
 8
0
  0
POLYLINE
  8
0
 62
     0
 66
     1
 10
0
 20
0
 30
0.0
 40
0
 41
0
  0
VERTEX
  8
0
 10
13.152
 20
7.48031
 30
0.0
 40
0
 41
0
  0
VERTEX
  8
0
 10
13.152
 20
7.09978
 30
0.0
 40
0
 41
0
  0
SEQEND
 8
0
  0
POLYLINE
  8
0
 62
     0
 66
     1
 10
0
 20
0
 30
0.0
 40
0
 41
0
  0
VERTEX
  8
0
 10
13.152
 20
6.94228
 30
0.0
 40
0
 41
0
  0
VERTEX
  8
0
 10
13.152
 20
6.1811
 30
0.0
 40
0
 41
0
  0
SEQEND
 8
0
  0
POLYLINE
  8
0
 62
     0
 66
     1
 10
0
 20
0
 30
0.0
 40
0
 41
0
  0
VERTEX
  8
0
 10
13.152
 20
6.02365
 30
0.0
 40
0
 41
0
  0
VERTEX
  8
0
 10
13.152
 20
5.26247
 30
0.0
 40
0
 41
0
  0
SEQEND
 8
0
  0
POLYLINE
  8
0
 62
     0
 66
     1
 10
0
 20
0
 30
0.0
 40
0
 41
0
  0
VERTEX
  8
0
 10
13.152
 20
5.10499
 30
0.0
 40
0
 41
0
  0
VERTEX
  8
0
 10
13.152
 20
4.72439
 30
0.0
 40
0
 41
0
  0
SEQEND
 8
0
  0
POLYLINE
  8
0
 62
     0
 66
     1
 10
0
 20
0
 30
0.0
 40
0
 41
0
  0
VERTEX
  8
0
 10
13.0716
 20
4.80317
 30
0.0
 40
0
 41
0
  0
VERTEX
  8
0
 10
13.0716
 20
5.56429
 30
0.0
 40
0
 41
0
  0
SEQEND
 8
0
  0
POLYLINE
  8
0
 62
     0
 66
     1
 10
0
 20
0
 30
0.0
 40
0
 41
0
  0
VERTEX
  8
0
 10
13.0716
 20
5.72179
 30
0.0
 40
0
 41
0
  0
VERTEX
  8
0
 10
13.0716
 20
6.48296
 30
0.0
 40
0
 41
0
  0
SEQEND
 8
0
  0
POLYLINE
  8
0
 62
     0
 66
     1
 10
0
 20
0
 30
0.0
 40
0
 41
0
  0
VERTEX
  8
0
 10
13.0716
 20
6.6404
 30
0.0
 40
0
 41
0
  0
VERTEX
  8
0
 10
13.0716
 20
7.40158
 30
0.0
 40
0
 41
0
  0
SEQEND
 8
0
  0
POLYLINE
  8
0
 62
     0
 66
     1
 10
0
 20
0
 30
0.0
 40
0
 41
0
  0
VERTEX
  8
0
 10
12.9912
 20
7.48031
 30
0.0
 40
0
 41
0
  0
VERTEX
  8
0
 10
12.9912
 20
7.09978
 30
0.0
 40
0
 41
0
  0
SEQEND
 8
0
  0
POLYLINE
  8
0
 62
     0
 66
     1
 10
0
 20
0
 30
0.0
 40
0
 41
0
  0
VERTEX
  8
0
 10
12.9912
 20
6.94228
 30
0.0
 40
0
 41
0
  0
VERTEX
  8
0
 10
12.9912
 20
6.1811
 30
0.0
 40
0
 41
0
  0
SEQEND
 8
0
  0
POLYLINE
  8
0
 62
     0
 66
     1
 10
0
 20
0
 30
0.0
 40
0
 41
0
  0
VERTEX
  8
0
 10
12.9912
 20
6.02365
 30
0.0
 40
0
 41
0
  0
VERTEX
  8
0
 10
12.9912
 20
5.26247
 30
0.0
 40
0
 41
0
  0
SEQEND
 8
0
  0
POLYLINE
  8
0
 62
     0
 66
     1
 10
0
 20
0
 30
0.0
 40
0
 41
0
  0
VERTEX
  8
0
 10
12.9912
 20
5.10499
 30
0.0
 40
0
 41
0
  0
VERTEX
  8
0
 10
12.9912
 20
4.72439
 30
0.0
 40
0
 41
0
  0
SEQEND
 8
0
  0
POLYLINE
  8
0
 62
     0
 66
     1
 10
0
 20
0
 30
0.0
 40
0
 41
0
  0
VERTEX
  8
0
 10
12.9108
 20
4.80317
 30
0.0
 40
0
 41
0
  0
VERTEX
  8
0
 10
12.9108
 20
5.56429
 30
0.0
 40
0
 41
0
  0
SEQEND
 8
0
  0
POLYLINE
  8
0
 62
     0
 66
     1
 10
0
 20
0
 30
0.0
 40
0
 41
0
  0
VERTEX
  8
0
 10
12.9108
 20
5.72179
 30
0.0
 40
0
 41
0
  0
VERTEX
  8
0
 10
12.9108
 20
6.48296
 30
0.0
 40
0
 41
0
  0
SEQEND
 8
0
  0
POLYLINE
  8
0
 62
     0
 66
     1
 10
0
 20
0
 30
0.0
 40
0
 41
0
  0
VERTEX
  8
0
 10
12.9108
 20
6.6404
 30
0.0
 40
0
 41
0
  0
VERTEX
  8
0
 10
12.9108
 20
7.40158
 30
0.0
 40
0
 41
0
  0
SEQEND
 8
0
  0
POLYLINE
  8
0
 62
     0
 66
     1
 10
0
 20
0
 30
0.0
 40
0
 41
0
  0
VERTEX
  8
0
 10
12.8304
 20
7.48031
 30
0.0
 40
0
 41
0
  0
VERTEX
  8
0
 10
12.8304
 20
7.09978
 30
0.0
 40
0
 41
0
  0
SEQEND
 8
0
  0
POLYLINE
  8
0
 62
     0
 66
     1
 10
0
 20
0
 30
0.0
 40
0
 41
0
  0
VERTEX
  8
0
 10
12.8304
 20
6.94228
 30
0.0
 40
0
 41
0
  0
VERTEX
  8
0
 10
12.8304
 20
6.1811
 30
0.0
 40
0
 41
0
  0
SEQEND
 8
0
  0
POLYLINE
  8
0
 62
     0
 66
     1
 10
0
 20
0
 30
0.0
 40
0
 41
0
  0
VERTEX
  8
0
 10
12.8304
 20
6.02365
 30
0.0
 40
0
 41
0
  0
VERTEX
  8
0
 10
12.8304
 20
5.26247
 30
0.0
 40
0
 41
0
  0
SEQEND
 8
0
  0
POLYLINE
  8
0
 62
     0
 66
     1
 10
0
 20
0
 30
0.0
 40
0
 41
0
  0
VERTEX
  8
0
 10
12.8304
 20
5.10499
 30
0.0
 40
0
 41
0
  0
VERTEX
  8
0
 10
12.8304
 20
4.72439
 30
0.0
 40
0
 41
0
  0
SEQEND
 8
0
  0
POLYLINE
  8
0
 62
     0
 66
     1
 10
0
 20
0
 30
0.0
 40
0
 41
0
  0
VERTEX
  8
0
 10
12.75
 20
4.80317
 30
0.0
 40
0
 41
0
  0
VERTEX
  8
0
 10
12.75
 20
5.56429
 30
0.0
 40
0
 41
0
  0
SEQEND
 8
0
  0
POLYLINE
  8
0
 62
     0
 66
     1
 10
0
 20
0
 30
0.0
 40
0
 41
0
  0
VERTEX
  8
0
 10
12.75
 20
5.72179
 30
0.0
 40
0
 41
0
  0
VERTEX
  8
0
 10
12.75
 20
6.48296
 30
0.0
 40
0
 41
0
  0
SEQEND
 8
0
  0
POLYLINE
  8
0
 62
     0
 66
     1
 10
0
 20
0
 30
0.0
 40
0
 41
0
  0
VERTEX
  8
0
 10
12.75
 20
6.6404
 30
0.0
 40
0
 41
0
  0
VERTEX
  8
0
 10
12.75
 20
7.40158
 30
0.0
 40
0
 41
0
  0
SEQEND
 8
0
  0
POLYLINE
  8
0
 62
     0
 66
     1
 10
0
 20
0
 30
0.0
 40
0
 41
0
  0
VERTEX
  8
0
 10
12.6696
 20
7.48031
 30
0.0
 40
0
 41
0
  0
VERTEX
  8
0
 10
12.6696
 20
7.09978
 30
0.0
 40
0
 41
0
  0
SEQEND
 8
0
  0
POLYLINE
  8
0
 62
     0
 66
     1
 10
0
 20
0
 30
0.0
 40
0
 41
0
  0
VERTEX
  8
0
 10
12.6696
 20
6.94228
 30
0.0
 40
0
 41
0
  0
VERTEX
  8
0
 10
12.6696
 20
6.1811
 30
0.0
 40
0
 41
0
  0
SEQEND
 8
0
  0
POLYLINE
  8
0
 62
     0
 66
     1
 10
0
 20
0
 30
0.0
 40
0
 41
0
  0
VERTEX
  8
0
 10
12.6696
 20
6.02365
 30
0.0
 40
0
 41
0
  0
VERTEX
  8
0
 10
12.6696
 20
5.26247
 30
0.0
 40
0
 41
0
  0
SEQEND
 8
0
  0
POLYLINE
  8
0
 62
     0
 66
     1
 10
0
 20
0
 30
0.0
 40
0
 41
0
  0
VERTEX
  8
0
 10
12.6696
 20
5.10499
 30
0.0
 40
0
 41
0
  0
VERTEX
  8
0
 10
12.6696
 20
4.72439
 30
0.0
 40
0
 41
0
  0
SEQEND
 8
0
  0
POLYLINE
  8
0
 62
     0
 66
     1
 10
0
 20
0
 30
0.0
 40
0
 41
0
  0
VERTEX
  8
0
 10
12.5892
 20
4.80317
 30
0.0
 40
0
 41
0
  0
VERTEX
  8
0
 10
12.5892
 20
5.56429
 30
0.0
 40
0
 41
0
  0
SEQEND
 8
0
  0
POLYLINE
  8
0
 62
     0
 66
     1
 10
0
 20
0
 30
0.0
 40
0
 41
0
  0
VERTEX
  8
0
 10
12.5892
 20
5.72179
 30
0.0
 40
0
 41
0
  0
VERTEX
  8
0
 10
12.5892
 20
6.48296
 30
0.0
 40
0
 41
0
  0
SEQEND
 8
0
  0
POLYLINE
  8
0
 62
     0
 66
     1
 10
0
 20
0
 30
0.0
 40
0
 41
0
  0
VERTEX
  8
0
 10
12.5892
 20
6.6404
 30
0.0
 40
0
 41
0
  0
VERTEX
  8
0
 10
12.5892
 20
7.40158
 30
0.0
 40
0
 41
0
  0
SEQEND
 8
0
  0
POLYLINE
  8
0
 62
     0
 66
     1
 10
0
 20
0
 30
0.0
 40
0
 41
0
  0
VERTEX
  8
0
 10
12.5088
 20
7.48031
 30
0.0
 40
0
 41
0
  0
VERTEX
  8
0
 10
12.5088
 20
7.09978
 30
0.0
 40
0
 41
0
  0
SEQEND
 8
0
  0
POLYLINE
  8
0
 62
     0
 66
     1
 10
0
 20
0
 30
0.0
 40
0
 41
0
  0
VERTEX
  8
0
 10
12.5088
 20
6.94228
 30
0.0
 40
0
 41
0
  0
VERTEX
  8
0
 10
12.5088
 20
6.1811
 30
0.0
 40
0
 41
0
  0
SEQEND
 8
0
  0
POLYLINE
  8
0
 62
     0
 66
     1
 10
0
 20
0
 30
0.0
 40
0
 41
0
  0
VERTEX
  8
0
 10
12.5088
 20
6.02365
 30
0.0
 40
0
 41
0
  0
VERTEX
  8
0
 10
12.5088
 20
5.26247
 30
0.0
 40
0
 41
0
  0
SEQEND
 8
0
  0
POLYLINE
  8
0
 62
     0
 66
     1
 10
0
 20
0
 30
0.0
 40
0
 41
0
  0
VERTEX
  8
0
 10
12.5088
 20
5.10499
 30
0.0
 40
0
 41
0
  0
VERTEX
  8
0
 10
12.5088
 20
4.72439
 30
0.0
 40
0
 41
0
  0
SEQEND
 8
0
  0
POLYLINE
  8
0
 62
     0
 66
     1
 10
0
 20
0
 30
0.0
 40
0
 41
0
  0
VERTEX
  8
0
 10
12.4284
 20
4.80317
 30
0.0
 40
0
 41
0
  0
VERTEX
  8
0
 10
12.4284
 20
5.56429
 30
0.0
 40
0
 41
0
  0
SEQEND
 8
0
  0
POLYLINE
  8
0
 62
     0
 66
     1
 10
0
 20
0
 30
0.0
 40
0
 41
0
  0
VERTEX
  8
0
 10
12.4284
 20
5.72179
 30
0.0
 40
0
 41
0
  0
VERTEX
  8
0
 10
12.4284
 20
6.48296
 30
0.0
 40
0
 41
0
  0
SEQEND
 8
0
  0
POLYLINE
  8
0
 62
     0
 66
     1
 10
0
 20
0
 30
0.0
 40
0
 41
0
  0
VERTEX
  8
0
 10
12.4284
 20
6.6404
 30
0.0
 40
0
 41
0
  0
VERTEX
  8
0
 10
12.4284
 20
7.40158
 30
0.0
 40
0
 41
0
  0
SEQEND
 8
0
  0
POLYLINE
  8
0
 62
     0
 66
     1
 10
0
 20
0
 30
0.0
 40
0
 41
0
  0
VERTEX
  8
0
 10
14.0364
 20
7.48031
 30
0.0
 40
0
 41
0
  0
VERTEX
  8
0
 10
12.4284
 20
7.48031
 30
0.0
 40
0
 41
0
  0
SEQEND
 8
0
  0
POLYLINE
  8
0
 62
     0
 66
     1
 10
0
 20
0
 30
0.0
 40
0
 41
0
  0
VERTEX
  8
0
 10
12.4284
 20
4.72439
 30
0.0
 40
0
 41
0
  0
VERTEX
  8
0
 10
14.0364
 20
4.72439
 30
0.0
 40
0
 41
0
  0
SEQEND
 8
0
  0
POLYLINE
  8
0
 62
     0
 66
     1
 10
0
 20
0
 30
0.0
 40
0
 41
0
  0
VERTEX
  8
0
 10
17.6128
 20
7.48031
 30
0.0
 40
0
 41
0
  0
VERTEX
  8
0
 10
19.345
 20
7.48031
 30
0.0
 40
0
 41
0
  0
VERTEX
  8
0
 10
19.345
 20
7.32286
 30
0.0
 40
0
 41
0
  0
VERTEX
  8
0
 10
19.66
 20
7.32286
 30
0.0
 40
0
 41
0
  0
VERTEX
  8
0
 10
19.66
 20
7.48031
 30
0.0
 40
0
 41
0
  0
VERTEX
  8
0
 10
19.975
 20
7.48031
 30
0.0
 40
0
 41
0
  0
VERTEX
  8
0
 10
19.975
 20
4.72439
 30
0.0
 40
0
 41
0
  0
VERTEX
  8
0
 10
19.66
 20
4.72439
 30
0.0
 40
0
 41
0
  0
VERTEX
  8
0
 10
19.66
 20
4.88189
 30
0.0
 40
0
 41
0
  0
VERTEX
  8
0
 10
19.345
 20
4.88189
 30
0.0
 40
0
 41
0
  0
VERTEX
  8
0
 10
19.345
 20
4.72439
 30
0.0
 40
0
 41
0
  0
VERTEX
  8
0
 10
17.6128
 20
4.72439
 30
0.0
 40
0
 41
0
  0
SEQEND
 8
0
  0
POLYLINE
  8
0
 62
     0
 66
     1
 10
0
 20
0
 30
0.0
 40
0
 41
0
  0
VERTEX
  8
0
 10
16.0049
 20
7.48031
 30
0.0
 40
0
 41
0
  0
VERTEX
  8
0
 10
15.7861
 20
7.48031
 30
0.0
 40
0
 41
0
  0
VERTEX
  8
0
 10
15.7861
 20
7.32286
 30
0.0
 40
0
 41
0
  0
VERTEX
  8
0
 10
15.5674
 20
7.32286
 30
0.0
 40
0
 41
0
  0
VERTEX
  8
0
 10
15.5674
 20
7.48031
 30
0.0
 40
0
 41
0
  0
VERTEX
  8
0
 10
15.3486
 20
7.48031
 30
0.0
 40
0
 41
0
  0
VERTEX
  8
0
 10
15.3486
 20
7.32286
 30
0.0
 40
0
 41
0
  0
VERTEX
  8
0
 10
15.13
 20
7.32286
 30
0.0
 40
0
 41
0
  0
VERTEX
  8
0
 10
15.13
 20
7.48031
 30
0.0
 40
0
 41
0
  0
VERTEX
  8
0
 10
14.9112
 20
7.48031
 30
0.0
 40
0
 41
0
  0
VERTEX
  8
0
 10
14.9112
 20
7.32286
 30
0.0
 40
0
 41
0
  0
VERTEX
  8
0
 10
14.6925
 20
7.32286
 30
0.0
 40
0
 41
0
  0
VERTEX
  8
0
 10
14.6925
 20
7.48031
 30
0.0
 40
0
 41
0
  0
VERTEX
  8
0
 10
14.4737
 20
7.48031
 30
0.0
 40
0
 41
0
  0
VERTEX
  8
0
 10
14.4737
 20
7.32286
 30
0.0
 40
0
 41
0
  0
VERTEX
  8
0
 10
14.255
 20
7.32286
 30
0.0
 40
0
 41
0
  0
VERTEX
  8
0
 10
14.255
 20
7.48031
 30
0.0
 40
0
 41
0
  0
VERTEX
  8
0
 10
14.0362
 20
7.48031
 30
0.0
 40
0
 41
0
  0
SEQEND
 8
0
  0
POLYLINE
  8
0
 62
     0
 66
     1
 10
0
 20
0
 30
0.0
 40
0
 41
0
  0
VERTEX
  8
0
 10
14.0362
 20
4.72439
 30
0.0
 40
0
 41
0
  0
VERTEX
  8
0
 10
14.255
 20
4.72439
 30
0.0
 40
0
 41
0
  0
VERTEX
  8
0
 10
14.255
 20
4.88189
 30
0.0
 40
0
 41
0
  0
VERTEX
  8
0
 10
14.4737
 20
4.88189
 30
0.0
 40
0
 41
0
  0
VERTEX
  8
0
 10
14.4737
 20
4.72439
 30
0.0
 40
0
 41
0
  0
VERTEX
  8
0
 10
14.6925
 20
4.72439
 30
0.0
 40
0
 41
0
  0
VERTEX
  8
0
 10
14.6925
 20
4.88189
 30
0.0
 40
0
 41
0
  0
VERTEX
  8
0
 10
14.9112
 20
4.88189
 30
0.0
 40
0
 41
0
  0
VERTEX
  8
0
 10
14.9112
 20
4.72439
 30
0.0
 40
0
 41
0
  0
VERTEX
  8
0
 10
15.13
 20
4.72439
 30
0.0
 40
0
 41
0
  0
VERTEX
  8
0
 10
15.13
 20
4.88189
 30
0.0
 40
0
 41
0
  0
VERTEX
  8
0
 10
15.3486
 20
4.88189
 30
0.0
 40
0
 41
0
  0
VERTEX
  8
0
 10
15.3486
 20
4.72439
 30
0.0
 40
0
 41
0
  0
VERTEX
  8
0
 10
15.5674
 20
4.72439
 30
0.0
 40
0
 41
0
  0
VERTEX
  8
0
 10
15.5674
 20
4.88189
 30
0.0
 40
0
 41
0
  0
VERTEX
  8
0
 10
15.7861
 20
4.88189
 30
0.0
 40
0
 41
0
  0
VERTEX
  8
0
 10
15.7861
 20
4.72439
 30
0.0
 40
0
 41
0
  0
VERTEX
  8
0
 10
16.0049
 20
4.72439
 30
0.0
 40
0
 41
0
  0
SEQEND
 8
0
  0
POLYLINE
  8
0
 62
     0
 66
     1
 10
0
 20
0
 30
0.0
 40
0
 41
0
  0
VERTEX
  8
0
 10
7.704
 20
7.48031
 30
0.0
 40
0
 41
0
  0
VERTEX
  8
0
 10
8.01899
 20
7.48031
 30
0.0
 40
0
 41
0
  0
VERTEX
  8
0
 10
8.01899
 20
7.32286
 30
0.0
 40
0
 41
0
  0
VERTEX
  8
0
 10
8.33393
 20
7.32286
 30
0.0
 40
0
 41
0
  0
VERTEX
  8
0
 10
8.33393
 20
7.48031
 30
0.0
 40
0
 41
0
  0
VERTEX
  8
0
 10
8.64887
 20
7.48031
 30
0.0
 40
0
 41
0
  0
VERTEX
  8
0
 10
8.64887
 20
7.32286
 30
0.0
 40
0
 41
0
  0
VERTEX
  8
0
 10
8.96386
 20
7.32286
 30
0.0
 40
0
 41
0
  0
VERTEX
  8
0
 10
8.96386
 20
7.48031
 30
0.0
 40
0
 41
0
  0
VERTEX
  8
0
 10
9.27881
 20
7.48031
 30
0.0
 40
0
 41
0
  0
VERTEX
  8
0
 10
9.27881
 20
7.32286
 30
0.0
 40
0
 41
0
  0
VERTEX
  8
0
 10
9.59375
 20
7.32286
 30
0.0
 40
0
 41
0
  0
VERTEX
  8
0
 10
9.59375
 20
7.48031
 30
0.0
 40
0
 41
0
  0
VERTEX
  8
0
 10
9.90875
 20
7.48031
 30
0.0
 40
0
 41
0
  0
VERTEX
  8
0
 10
9.90875
 20
7.32286
 30
0.0
 40
0
 41
0
  0
VERTEX
  8
0
 10
10.2237
 20
7.32286
 30
0.0
 40
0
 41
0
  0
VERTEX
  8
0
 10
10.2237
 20
7.48031
 30
0.0
 40
0
 41
0
  0
VERTEX
  8
0
 10
10.5386
 20
7.48031
 30
0.0
 40
0
 41
0
  0
VERTEX
  8
0
 10
10.5386
 20
7.32286
 30
0.0
 40
0
 41
0
  0
VERTEX
  8
0
 10
10.8536
 20
7.32286
 30
0.0
 40
0
 41
0
  0
VERTEX
  8
0
 10
10.8536
 20
7.48031
 30
0.0
 40
0
 41
0
  0
VERTEX
  8
0
 10
11.1686
 20
7.48031
 30
0.0
 40
0
 41
0
  0
VERTEX
  8
0
 10
11.1686
 20
7.32286
 30
0.0
 40
0
 41
0
  0
VERTEX
  8
0
 10
11.4836
 20
7.32286
 30
0.0
 40
0
 41
0
  0
VERTEX
  8
0
 10
11.4836
 20
7.48031
 30
0.0
 40
0
 41
0
  0
VERTEX
  8
0
 10
11.7985
 20
7.48031
 30
0.0
 40
0
 41
0
  0
VERTEX
  8
0
 10
11.7985
 20
7.32286
 30
0.0
 40
0
 41
0
  0
VERTEX
  8
0
 10
12.1134
 20
7.32286
 30
0.0
 40
0
 41
0
  0
VERTEX
  8
0
 10
12.1134
 20
7.48031
 30
0.0
 40
0
 41
0
  0
VERTEX
  8
0
 10
12.4284
 20
7.48031
 30
0.0
 40
0
 41
0
  0
SEQEND
 8
0
  0
POLYLINE
  8
0
 62
     0
 66
     1
 10
0
 20
0
 30
0.0
 40
0
 41
0
  0
VERTEX
  8
0
 10
12.4284
 20
7.48031
 30
0.0
 40
0
 41
0
  0
VERTEX
  8
0
 10
12.4284
 20
7.48031
 30
0.0
 40
0
 41
0
  0
VERTEX
  8
0
 10
12.6347
 20
7.50114
 30
0.0
 40
0
 41
0
  0
VERTEX
  8
0
 10
12.8268
 20
7.56076
 30
0.0
 40
0
 41
0
  0
VERTEX
  8
0
 10
13.0007
 20
7.65517
 30
0.0
 40
0
 41
0
  0
VERTEX
  8
0
 10
13.1522
 20
7.78017
 30
0.0
 40
0
 41
0
  0
VERTEX
  8
0
 10
13.2772
 20
7.93164
 30
0.0
 40
0
 41
0
  0
VERTEX
  8
0
 10
13.3716
 20
8.10553
 30
0.0
 40
0
 41
0
  0
VERTEX
  8
0
 10
13.4312
 20
8.29769
 30
0.0
 40
0
 41
0
  0
VERTEX
  8
0
 10
13.452
 20
8.50396
 30
0.0
 40
0
 41
0
  0
SEQEND
 8
0
  0
POLYLINE
  8
0
 62
     0
 66
     1
 10
0
 20
0
 30
0.0
 40
0
 41
0
  0
VERTEX
  8
0
 10
13.452
 20
8.50396
 30
0.0
 40
0
 41
0
  0
VERTEX
  8
0
 10
13.452
 20
8.72265
 30
0.0
 40
0
 41
0
  0
VERTEX
  8
0
 10
13.6095
 20
8.72265
 30
0.0
 40
0
 41
0
  0
VERTEX
  8
0
 10
13.6095
 20
8.9414
 30
0.0
 40
0
 41
0
  0
VERTEX
  8
0
 10
13.452
 20
8.9414
 30
0.0
 40
0
 41
0
  0
VERTEX
  8
0
 10
13.452
 20
9.1601
 30
0.0
 40
0
 41
0
  0
VERTEX
  8
0
 10
13.6095
 20
9.1601
 30
0.0
 40
0
 41
0
  0
VERTEX
  8
0
 10
13.6095
 20
9.37885
 30
0.0
 40
0
 41
0
  0
VERTEX
  8
0
 10
13.452
 20
9.37885
 30
0.0
 40
0
 41
0
  0
VERTEX
  8
0
 10
13.452
 20
9.59754
 30
0.0
 40
0
 41
0
  0
VERTEX
  8
0
 10
13.6095
 20
9.59754
 30
0.0
 40
0
 41
0
  0
VERTEX
  8
0
 10
13.6095
 20
9.81629
 30
0.0
 40
0
 41
0
  0
VERTEX
  8
0
 10
13.452
 20
9.81629
 30
0.0
 40
0
 41
0
  0
VERTEX
  8
0
 10
13.452
 20
10.035
 30
0.0
 40
0
 41
0
  0
VERTEX
  8
0
 10
13.6095
 20
10.035
 30
0.0
 40
0
 41
0
  0
VERTEX
  8
0
 10
13.6095
 20
10.2538
 30
0.0
 40
0
 41
0
  0
VERTEX
  8
0
 10
13.452
 20
10.2538
 30
0.0
 40
0
 41
0
  0
VERTEX
  8
0
 10
13.452
 20
10.4724
 30
0.0
 40
0
 41
0
  0
SEQEND
 8
0
  0
POLYLINE
  8
0
 62
     0
 66
     1
 10
0
 20
0
 30
0.0
 40
0
 41
0
  0
VERTEX
  8
0
 10
13.452
 20
10.4724
 30
0.0
 40
0
 41
0
  0
VERTEX
  8
0
 10
13.4312
 20
10.6788
 30
0.0
 40
0
 41
0
  0
VERTEX
  8
0
 10
13.3716
 20
10.8709
 30
0.0
 40
0
 41
0
  0
VERTEX
  8
0
 10
13.2772
 20
11.0448
 30
0.0
 40
0
 41
0
  0
VERTEX
  8
0
 10
13.1522
 20
11.1963
 30
0.0
 40
0
 41
0
  0
VERTEX
  8
0
 10
13.0007
 20
11.3213
 30
0.0
 40
0
 41
0
  0
VERTEX
  8
0
 10
12.8268
 20
11.4157
 30
0.0
 40
0
 41
0
  0
VERTEX
  8
0
 10
12.6347
 20
11.4753
 30
0.0
 40
0
 41
0
  0
VERTEX
  8
0
 10
12.4284
 20
11.4961
 30
0.0
 40
0
 41
0
  0
VERTEX
  8
0
 10
10.6961
 20
11.4961
 30
0.0
 40
0
 41
0
  0
VERTEX
  8
0
 10
10.6961
 20
11.6535
 30
0.0
 40
0
 41
0
  0
VERTEX
  8
0
 10
10.3812
 20
11.6535
 30
0.0
 40
0
 41
0
  0
VERTEX
  8
0
 10
10.3812
 20
11.4961
 30
0.0
 40
0
 41
0
  0
VERTEX
  8
0
 10
9.75125
 20
11.4961
 30
0.0
 40
0
 41
0
  0
VERTEX
  8
0
 10
9.75125
 20
11.6535
 30
0.0
 40
0
 41
0
  0
VERTEX
  8
0
 10
9.43631
 20
11.6535
 30
0.0
 40
0
 41
0
  0
VERTEX
  8
0
 10
9.43631
 20
11.4961
 30
0.0
 40
0
 41
0
  0
VERTEX
  8
0
 10
7.704
 20
11.4961
 30
0.0
 40
0
 41
0
  0
VERTEX
  8
0
 10
7.704
 20
11.4961
 30
0.0
 40
0
 41
0
  0
VERTEX
  8
0
 10
7.49767
 20
11.4753
 30
0.0
 40
0
 41
0
  0
VERTEX
  8
0
 10
7.30556
 20
11.4157
 30
0.0
 40
0
 41
0
  0
VERTEX
  8
0
 10
7.13167
 20
11.3213
 30
0.0
 40
0
 41
0
  0
VERTEX
  8
0
 10
6.98019
 20
11.1963
 30
0.0
 40
0
 41
0
  0
VERTEX
  8
0
 10
6.85519
 20
11.0448
 30
0.0
 40
0
 41
0
  0
VERTEX
  8
0
 10
6.76079
 20
10.8709
 30
0.0
 40
0
 41
0
  0
VERTEX
  8
0
 10
6.70117
 20
10.6788
 30
0.0
 40
0
 41
0
  0
VERTEX
  8
0
 10
6.68039
 20
10.4724
 30
0.0
 40
0
 41
0
  0
SEQEND
 8
0
  0
POLYLINE
  8
0
 62
     0
 66
     1
 10
0
 20
0
 30
0.0
 40
0
 41
0
  0
VERTEX
  8
0
 10
6.68039
 20
10.4724
 30
0.0
 40
0
 41
0
  0
VERTEX
  8
0
 10
6.68039
 20
10.2538
 30
0.0
 40
0
 41
0
  0
VERTEX
  8
0
 10
6.52289
 20
10.2538
 30
0.0
 40
0
 41
0
  0
VERTEX
  8
0
 10
6.52289
 20
10.035
 30
0.0
 40
0
 41
0
  0
VERTEX
  8
0
 10
6.68039
 20
10.035
 30
0.0
 40
0
 41
0
  0
VERTEX
  8
0
 10
6.68039
 20
9.81629
 30
0.0
 40
0
 41
0
  0
VERTEX
  8
0
 10
6.52289
 20
9.81629
 30
0.0
 40
0
 41
0
  0
VERTEX
  8
0
 10
6.52289
 20
9.59754
 30
0.0
 40
0
 41
0
  0
VERTEX
  8
0
 10
6.68039
 20
9.59754
 30
0.0
 40
0
 41
0
  0
VERTEX
  8
0
 10
6.68039
 20
9.37885
 30
0.0
 40
0
 41
0
  0
VERTEX
  8
0
 10
6.52289
 20
9.37885
 30
0.0
 40
0
 41
0
  0
VERTEX
  8
0
 10
6.52289
 20
9.1601
 30
0.0
 40
0
 41
0
  0
VERTEX
  8
0
 10
6.68039
 20
9.1601
 30
0.0
 40
0
 41
0
  0
VERTEX
  8
0
 10
6.68039
 20
8.9414
 30
0.0
 40
0
 41
0
  0
VERTEX
  8
0
 10
6.52289
 20
8.9414
 30
0.0
 40
0
 41
0
  0
VERTEX
  8
0
 10
6.52289
 20
8.72265
 30
0.0
 40
0
 41
0
  0
VERTEX
  8
0
 10
6.68039
 20
8.72265
 30
0.0
 40
0
 41
0
  0
VERTEX
  8
0
 10
6.68039
 20
8.50396
 30
0.0
 40
0
 41
0
  0
SEQEND
 8
0
  0
POLYLINE
  8
0
 62
     0
 66
     1
 10
0
 20
0
 30
0.0
 40
0
 41
0
  0
VERTEX
  8
0
 10
6.68039
 20
8.50396
 30
0.0
 40
0
 41
0
  0
VERTEX
  8
0
 10
6.70117
 20
8.29769
 30
0.0
 40
0
 41
0
  0
VERTEX
  8
0
 10
6.76079
 20
8.10553
 30
0.0
 40
0
 41
0
  0
VERTEX
  8
0
 10
6.85519
 20
7.93164
 30
0.0
 40
0
 41
0
  0
VERTEX
  8
0
 10
6.98019
 20
7.78017
 30
0.0
 40
0
 41
0
  0
VERTEX
  8
0
 10
7.13167
 20
7.65517
 30
0.0
 40
0
 41
0
  0
VERTEX
  8
0
 10
7.30556
 20
7.56076
 30
0.0
 40
0
 41
0
  0
VERTEX
  8
0
 10
7.49767
 20
7.50114
 30
0.0
 40
0
 41
0
  0
VERTEX
  8
0
 10
7.704
 20
7.48031
 30
0.0
 40
0
 41
0
  0
SEQEND
 8
0
  0
POLYLINE
  8
0
 62
     0
 66
     1
 10
0
 20
0
 30
0.0
 40
0
 41
0
  0
VERTEX
  8
0
 10
12.4284
 20
4.72439
 30
0.0
 40
0
 41
0
  0
VERTEX
  8
0
 10
12.1134
 20
4.72439
 30
0.0
 40
0
 41
0
  0
VERTEX
  8
0
 10
12.1134
 20
4.88189
 30
0.0
 40
0
 41
0
  0
VERTEX
  8
0
 10
11.7985
 20
4.88189
 30
0.0
 40
0
 41
0
  0
VERTEX
  8
0
 10
11.7985
 20
4.72439
 30
0.0
 40
0
 41
0
  0
VERTEX
  8
0
 10
11.4836
 20
4.72439
 30
0.0
 40
0
 41
0
  0
VERTEX
  8
0
 10
11.4836
 20
4.88189
 30
0.0
 40
0
 41
0
  0
VERTEX
  8
0
 10
11.1686
 20
4.88189
 30
0.0
 40
0
 41
0
  0
VERTEX
  8
0
 10
11.1686
 20
4.72439
 30
0.0
 40
0
 41
0
  0
VERTEX
  8
0
 10
10.8536
 20
4.72439
 30
0.0
 40
0
 41
0
  0
VERTEX
  8
0
 10
10.8536
 20
4.88189
 30
0.0
 40
0
 41
0
  0
VERTEX
  8
0
 10
10.5386
 20
4.88189
 30
0.0
 40
0
 41
0
  0
VERTEX
  8
0
 10
10.5386
 20
4.72439
 30
0.0
 40
0
 41
0
  0
VERTEX
  8
0
 10
10.2237
 20
4.72439
 30
0.0
 40
0
 41
0
  0
VERTEX
  8
0
 10
10.2237
 20
4.88189
 30
0.0
 40
0
 41
0
  0
VERTEX
  8
0
 10
9.90875
 20
4.88189
 30
0.0
 40
0
 41
0
  0
VERTEX
  8
0
 10
9.90875
 20
4.72439
 30
0.0
 40
0
 41
0
  0
VERTEX
  8
0
 10
9.59375
 20
4.72439
 30
0.0
 40
0
 41
0
  0
VERTEX
  8
0
 10
9.59375
 20
4.88189
 30
0.0
 40
0
 41
0
  0
VERTEX
  8
0
 10
9.27881
 20
4.88189
 30
0.0
 40
0
 41
0
  0
VERTEX
  8
0
 10
9.27881
 20
4.72439
 30
0.0
 40
0
 41
0
  0
VERTEX
  8
0
 10
8.96386
 20
4.72439
 30
0.0
 40
0
 41
0
  0
VERTEX
  8
0
 10
8.96386
 20
4.88189
 30
0.0
 40
0
 41
0
  0
VERTEX
  8
0
 10
8.64887
 20
4.88189
 30
0.0
 40
0
 41
0
  0
VERTEX
  8
0
 10
8.64887
 20
4.72439
 30
0.0
 40
0
 41
0
  0
VERTEX
  8
0
 10
8.33393
 20
4.72439
 30
0.0
 40
0
 41
0
  0
VERTEX
  8
0
 10
8.33393
 20
4.88189
 30
0.0
 40
0
 41
0
  0
VERTEX
  8
0
 10
8.01899
 20
4.88189
 30
0.0
 40
0
 41
0
  0
VERTEX
  8
0
 10
8.01899
 20
4.72439
 30
0.0
 40
0
 41
0
  0
VERTEX
  8
0
 10
7.704
 20
4.72439
 30
0.0
 40
0
 41
0
  0
SEQEND
 8
0
  0
POLYLINE
  8
0
 62
     0
 66
     1
 10
0
 20
0
 30
0.0
 40
0
 41
0
  0
VERTEX
  8
0
 10
7.704
 20
4.72439
 30
0.0
 40
0
 41
0
  0
VERTEX
  8
0
 10
7.704
 20
4.72439
 30
0.0
 40
0
 41
0
  0
VERTEX
  8
0
 10
7.49767
 20
4.70361
 30
0.0
 40
0
 41
0
  0
VERTEX
  8
0
 10
7.30556
 20
4.64399
 30
0.0
 40
0
 41
0
  0
VERTEX
  8
0
 10
7.13167
 20
4.54958
 30
0.0
 40
0
 41
0
  0
VERTEX
  8
0
 10
6.98019
 20
4.42458
 30
0.0
 40
0
 41
0
  0
VERTEX
  8
0
 10
6.85519
 20
4.27311
 30
0.0
 40
0
 41
0
  0
VERTEX
  8
0
 10
6.76079
 20
4.09924
 30
0.0
 40
0
 41
0
  0
VERTEX
  8
0
 10
6.70117
 20
3.90711
 30
0.0
 40
0
 41
0
  0
VERTEX
  8
0
 10
6.68039
 20
3.70079
 30
0.0
 40
0
 41
0
  0
SEQEND
 8
0
  0
POLYLINE
  8
0
 62
     0
 66
     1
 10
0
 20
0
 30
0.0
 40
0
 41
0
  0
VERTEX
  8
0
 10
6.68039
 20
3.70079
 30
0.0
 40
0
 41
0
  0
VERTEX
  8
0
 10
6.68039
 20
3.4821
 30
0.0
 40
0
 41
0
  0
VERTEX
  8
0
 10
6.52289
 20
3.4821
 30
0.0
 40
0
 41
0
  0
VERTEX
  8
0
 10
6.52289
 20
3.26335
 30
0.0
 40
0
 41
0
  0
VERTEX
  8
0
 10
6.68039
 20
3.26335
 30
0.0
 40
0
 41
0
  0
VERTEX
  8
0
 10
6.68039
 20
3.04465
 30
0.0
 40
0
 41
0
  0
VERTEX
  8
0
 10
6.52289
 20
3.04465
 30
0.0
 40
0
 41
0
  0
VERTEX
  8
0
 10
6.52289
 20
2.8259
 30
0.0
 40
0
 41
0
  0
VERTEX
  8
0
 10
6.68039
 20
2.8259
 30
0.0
 40
0
 41
0
  0
VERTEX
  8
0
 10
6.68039
 20
2.60721
 30
0.0
 40
0
 41
0
  0
VERTEX
  8
0
 10
6.52289
 20
2.60721
 30
0.0
 40
0
 41
0
  0
VERTEX
  8
0
 10
6.52289
 20
2.38846
 30
0.0
 40
0
 41
0
  0
VERTEX
  8
0
 10
6.68039
 20
2.38846
 30
0.0
 40
0
 41
0
  0
VERTEX
  8
0
 10
6.68039
 20
2.16976
 30
0.0
 40
0
 41
0
  0
VERTEX
  8
0
 10
6.52289
 20
2.16976
 30
0.0
 40
0
 41
0
  0
VERTEX
  8
0
 10
6.52289
 20
1.95101
 30
0.0
 40
0
 41
0
  0
VERTEX
  8
0
 10
6.68039
 20
1.95101
 30
0.0
 40
0
 41
0
  0
VERTEX
  8
0
 10
6.68039
 20
1.73232
 30
0.0
 40
0
 41
0
  0
SEQEND
 8
0
  0
POLYLINE
  8
0
 62
     0
 66
     1
 10
0
 20
0
 30
0.0
 40
0
 41
0
  0
VERTEX
  8
0
 10
6.68039
 20
1.73232
 30
0.0
 40
0
 41
0
  0
VERTEX
  8
0
 10
6.70117
 20
1.52604
 30
0.0
 40
0
 41
0
  0
VERTEX
  8
0
 10
6.76079
 20
1.33388
 30
0.0
 40
0
 41
0
  0
VERTEX
  8
0
 10
6.85519
 20
1.15999
 30
0.0
 40
0
 41
0
  0
VERTEX
  8
0
 10
6.98019
 20
1.00852
 30
0.0
 40
0
 41
0
  0
VERTEX
  8
0
 10
7.13167
 20
0.883518
 30
0.0
 40
0
 41
0
  0
VERTEX
  8
0
 10
7.30556
 20
0.789117
 30
0.0
 40
0
 41
0
  0
VERTEX
  8
0
 10
7.49767
 20
0.729492
 30
0.0
 40
0
 41
0
  0
VERTEX
  8
0
 10
7.704
 20
0.708658
 30
0.0
 40
0
 41
0
  0
VERTEX
  8
0
 10
9.43631
 20
0.708658
 30
0.0
 40
0
 41
0
  0
VERTEX
  8
0
 10
9.43631
 20
0.551161
 30
0.0
 40
0
 41
0
  0
VERTEX
  8
0
 10
9.75125
 20
0.551161
 30
0.0
 40
0
 41
0
  0
VERTEX
  8
0
 10
9.75125
 20
0.708658
 30
0.0
 40
0
 41
0
  0
VERTEX
  8
0
 10
10.3812
 20
0.708658
 30
0.0
 40
0
 41
0
  0
VERTEX
  8
0
 10
10.3812
 20
0.551161
 30
0.0
 40
0
 41
0
  0
VERTEX
  8
0
 10
10.6961
 20
0.551161
 30
0.0
 40
0
 41
0
  0
VERTEX
  8
0
 10
10.6961
 20
0.708658
 30
0.0
 40
0
 41
0
  0
VERTEX
  8
0
 10
12.4284
 20
0.708658
 30
0.0
 40
0
 41
0
  0
VERTEX
  8
0
 10
12.4284
 20
0.708658
 30
0.0
 40
0
 41
0
  0
VERTEX
  8
0
 10
12.6347
 20
0.729492
 30
0.0
 40
0
 41
0
  0
VERTEX
  8
0
 10
12.8268
 20
0.789117
 30
0.0
 40
0
 41
0
  0
VERTEX
  8
0
 10
13.0007
 20
0.883518
 30
0.0
 40
0
 41
0
  0
VERTEX
  8
0
 10
13.1522
 20
1.00852
 30
0.0
 40
0
 41
0
  0
VERTEX
  8
0
 10
13.2772
 20
1.15999
 30
0.0
 40
0
 41
0
  0
VERTEX
  8
0
 10
13.3716
 20
1.33388
 30
0.0
 40
0
 41
0
  0
VERTEX
  8
0
 10
13.4312
 20
1.52604
 30
0.0
 40
0
 41
0
  0
VERTEX
  8
0
 10
13.452
 20
1.73232
 30
0.0
 40
0
 41
0
  0
SEQEND
 8
0
  0
POLYLINE
  8
0
 62
     0
 66
     1
 10
0
 20
0
 30
0.0
 40
0
 41
0
  0
VERTEX
  8
0
 10
13.452
 20
1.73232
 30
0.0
 40
0
 41
0
  0
VERTEX
  8
0
 10
13.452
 20
1.95101
 30
0.0
 40
0
 41
0
  0
VERTEX
  8
0
 10
13.6095
 20
1.95101
 30
0.0
 40
0
 41
0
  0
VERTEX
  8
0
 10
13.6095
 20
2.16976
 30
0.0
 40
0
 41
0
  0
VERTEX
  8
0
 10
13.452
 20
2.16976
 30
0.0
 40
0
 41
0
  0
VERTEX
  8
0
 10
13.452
 20
2.38846
 30
0.0
 40
0
 41
0
  0
VERTEX
  8
0
 10
13.6095
 20
2.38846
 30
0.0
 40
0
 41
0
  0
VERTEX
  8
0
 10
13.6095
 20
2.60721
 30
0.0
 40
0
 41
0
  0
VERTEX
  8
0
 10
13.452
 20
2.60721
 30
0.0
 40
0
 41
0
  0
VERTEX
  8
0
 10
13.452
 20
2.8259
 30
0.0
 40
0
 41
0
  0
VERTEX
  8
0
 10
13.6095
 20
2.8259
 30
0.0
 40
0
 41
0
  0
VERTEX
  8
0
 10
13.6095
 20
3.04465
 30
0.0
 40
0
 41
0
  0
VERTEX
  8
0
 10
13.452
 20
3.04465
 30
0.0
 40
0
 41
0
  0
VERTEX
  8
0
 10
13.452
 20
3.26335
 30
0.0
 40
0
 41
0
  0
VERTEX
  8
0
 10
13.6095
 20
3.26335
 30
0.0
 40
0
 41
0
  0
VERTEX
  8
0
 10
13.6095
 20
3.4821
 30
0.0
 40
0
 41
0
  0
VERTEX
  8
0
 10
13.452
 20
3.4821
 30
0.0
 40
0
 41
0
  0
VERTEX
  8
0
 10
13.452
 20
3.70079
 30
0.0
 40
0
 41
0
  0
SEQEND
 8
0
  0
POLYLINE
  8
0
 62
     0
 66
     1
 10
0
 20
0
 30
0.0
 40
0
 41
0
  0
VERTEX
  8
0
 10
13.452
 20
3.70079
 30
0.0
 40
0
 41
0
  0
VERTEX
  8
0
 10
13.4312
 20
3.90711
 30
0.0
 40
0
 41
0
  0
VERTEX
  8
0
 10
13.3716
 20
4.09924
 30
0.0
 40
0
 41
0
  0
VERTEX
  8
0
 10
13.2772
 20
4.27311
 30
0.0
 40
0
 41
0
  0
VERTEX
  8
0
 10
13.1522
 20
4.42458
 30
0.0
 40
0
 41
0
  0
VERTEX
  8
0
 10
13.0007
 20
4.54958
 30
0.0
 40
0
 41
0
  0
VERTEX
  8
0
 10
12.8268
 20
4.64399
 30
0.0
 40
0
 41
0
  0
VERTEX
  8
0
 10
12.6347
 20
4.70361
 30
0.0
 40
0
 41
0
  0
VERTEX
  8
0
 10
12.4284
 20
4.72439
 30
0.0
 40
0
 41
0
  0
SEQEND
 8
0
  0
POLYLINE
  8
0
 62
     1
 66
     1
 10
0
 20
0
 30
0.0
 70
     1
 40
0
 41
0
  0
VERTEX
  8
0
 10
0.157497
 20
12.0472
 30
0.0
 40
0
 41
0
  0
VERTEX
  8
0
 10
19.8425
 20
12.0472
 30
0.0
 40
0
 41
0
  0
VERTEX
  8
0
 10
19.8425
 20
0.236219
 30
0.0
 40
0
 41
0
  0
VERTEX
  8
0
 10
0.157497
 20
0.236219
 30
0.0
 40
0
 41
0
  0
VERTEX
  8
0
 10
0.157497
 20
12.0472
 30
0.0
 40
0
 41
0
  0
SEQEND
 8
0
  0
ENDSEC
  0
EOF
