  0
SECTION
  2
HEADER
  9
$ACADVER
  1
AC1014
  9
$HANDSEED
  5
FFFF
  9
$MEASUREMENT
 70
     1
  0
ENDSEC
  0
SECTION
  2
TABLES
  0
TABLE
  2
VPORT
  5
8
330
0
100
AcDbSymbolTable
 70
     4
  0
VPORT
  5
2E
330
8
100
AcDbSymbolTableRecord
100
AcDbViewportTableRecord
  2
*ACTIVE
 70
     0
 10
0.0
 20
0.0
 11
1.0
 21
1.0
 12
210.0
 22
148.5
 13
0.0
 23
0.0
 14
10.0
 24
10.0
 15
10.0
 25
10.0
 16
0.0
 26
0.0
 36
1.0
 17
0.0
 27
0.0
 37
0.0
 40
341.0
 41
1.24
 42
50.0
 43
0.0
 44
0.0
 50
0.0
 51
0.0
 71
     0
 72
   100
 73
     1
 74
     3
 75
     0
 76
     0
 77
     0
 78
     0
  0
ENDTAB
  0
TABLE
  2
LTYPE
  5
5
330
0
100
AcDbSymbolTable
 70
     1
  0
LTYPE
  5
14
330
5
100
AcDbSymbolTableRecord
100
AcDbLinetypeTableRecord
  2
BYBLOCK
 70
     0
  3

 72
    65
 73
     0
 40
0.0
  0
LTYPE
  5
15
330
5
100
AcDbSymbolTableRecord
100
AcDbLinetypeTableRecord
  2
BYLAYER
 70
     0
  3

 72
    65
 73
     0
 40
0.0
  0
LTYPE
  5
16
330
5
100
AcDbSymbolTableRecord
100
AcDbLinetypeTableRecord
  2
CONTINUOUS
 70
     0
  3
Solid line
 72
    65
 73
     0
 40
0.0
  0
ENDTAB
  0
TABLE
  2
LAYER
  5
2
100
AcDbSymbolTable
 70
2
  0
LAYER
  5
50
100
AcDbSymbolTableRecord
100
AcDbLayerTableRecord
  2
0
 70
0
  6
CONTINUOUS
  0
LAYER
  5
51
100
AcDbSymbolTableRecord
100
AcDbLayerTableRecord
  2
Layer_1
 70
0
  6
CONTINUOUS
  0
ENDTAB
  0
TABLE
  2
STYLE
  5
3
330
0
100
AcDbSymbolTable
 70
     1
  0
STYLE
  5
11
330
3
100
AcDbSymbolTableRecord
100
AcDbTextStyleTableRecord
  2
STANDARD
 70
     0
 40
0.0
 41
1.0
 50
0.0
 71
     0
 42
2.5
  3
txt
  4

  0
ENDTAB
  0
TABLE
  2
VIEW
  5
6
330
0
100
AcDbSymbolTable
 70
     0
  0
ENDTAB
  0
TABLE
  2
UCS
  5
7
330
0
100
AcDbSymbolTable
 70
     0
  0
ENDTAB
  0
TABLE
  2
APPID
  5
9
330
0
100
AcDbSymbolTable
 70
     2
  0
APPID
  5
12
330
9
100
AcDbSymbolTableRecord
100
AcDbRegAppTableRecord
  2
ACAD
 70
     0
  0
ENDTAB
  0
TABLE
  2
DIMSTYLE
  5
A
330
0
100
AcDbSymbolTable
 70
     1
  0
DIMSTYLE
105
27
330
A
100
AcDbSymbolTableRecord
100
AcDbDimStyleTableRecord
  2
ISO-25
 70
     0
  3

  4

  5

  6

  7

 40
1.0
 41
2.5
 42
0.625
 43
3.75
 44
1.25
 45
0.0
 46
0.0
 47
0.0
 48
0.0
140
2.5
141
2.5
142
0.0
143
0.03937007874016
144
1.0
145
0.0
146
1.0
147
0.625
 71
     0
 72
     0
 73
     0
 74
     0
 75
     0
 76
     0
 77
     1
 78
     8
170
     0
171
     3
172
     1
173
     0
174
     0
175
     0
176
     0
177
     0
178
     0
270
     2
271
     2
272
     2
273
     2
274
     3
340
11
275
     0
280
     0
281
     0
282
     0
283
     0
284
     8
285
     0
286
     0
287
     3
288
     0
  0
ENDTAB
  0
TABLE
  2
BLOCK_RECORD
  5
1
330
0
100
AcDbSymbolTable
 70
     1
  0
BLOCK_RECORD
  5
1F
330
1
100
AcDbSymbolTableRecord
100
AcDbBlockTableRecord
  2
*MODEL_SPACE
  0
BLOCK_RECORD
  5
1B
330
1
100
AcDbSymbolTableRecord
100
AcDbBlockTableRecord
  2
*PAPER_SPACE
  0
ENDTAB
  0
ENDSEC
  0
SECTION
  2
BLOCKS
  0
BLOCK
  5
20
330
1F
100
AcDbEntity
  8
0
100
AcDbBlockBegin
  2
*MODEL_SPACE
 70
     0
 10
0.0
 20
0.0
 30
0.0
  3
*MODEL_SPACE
  1

  0
ENDBLK
  5
21
330
1F
100
AcDbEntity
  8
0
100
AcDbBlockEnd
  0
BLOCK
  5
1C
330
1B
100
AcDbEntity
 67
     1
  8
0
100
AcDbBlockBegin
  2
*PAPER_SPACE
  1

  0
ENDBLK
  5
1D
330
1B
100
AcDbEntity
 67
     1
  8
0
100
AcDbBlockEnd
  0
ENDSEC
  0
SECTION
  2
ENTITIES
  0
LWPOLYLINE
  5
100
100
AcDbEntity
  8
Layer_1
 62
7
100
AcDbPolyline
 90
9
 70
0
 10
100.514805
 20
256.188897
 30
0.0
 10
100.444244
 20
256.188897
 30
0.0
 10
100.373682
 20
256.118339
 30
0.0
 10
100.232563
 20
256.118339
 30
0.0
 10
100.162002
 20
256.047778
 30
0.0
 10
100.091443
 20
255.977217
 30
0.0
 10
100.091443
 20
255.836097
 30
0.0
 10
100.020882
 20
255.765539
 30
0.0
 10
100.020882
 20
255.694977
 30
0.0
  0
LWPOLYLINE
  5
101
100
AcDbEntity
  8
Layer_1
 62
7
100
AcDbPolyline
 90
9
 70
0
 10
106.441855
 20
255.694977
 30
0.0
 10
106.441855
 20
255.765539
 30
0.0
 10
106.371294
 20
255.836097
 30
0.0
 10
106.371294
 20
255.977217
 30
0.0
 10
106.300736
 20
256.047778
 30
0.0
 10
106.230174
 20
256.118339
 30
0.0
 10
106.089055
 20
256.118339
 30
0.0
 10
106.018494
 20
256.188897
 30
0.0
 10
105.947935
 20
256.188897
 30
0.0
  0
LWPOLYLINE
  5
102
100
AcDbEntity
  8
Layer_1
 62
7
100
AcDbPolyline
 90
9
 70
0
 10
159.926443
 20
246.169359
 30
0.0
 10
159.926443
 20
246.098798
 30
0.0
 10
159.926443
 20
245.957679
 30
0.0
 10
159.855882
 20
245.887117
 30
0.0
 10
159.785324
 20
245.816556
 30
0.0
 10
159.714763
 20
245.745998
 30
0.0
 10
159.644201
 20
245.675437
 30
0.0
 10
159.503082
 20
245.675437
 30
0.0
 10
159.432521
 20
245.675437
 30
0.0
  0
LWPOLYLINE
  5
103
100
AcDbEntity
  8
Layer_1
 62
7
100
AcDbPolyline
 90
9
 70
0
 10
160.420363
 20
252.166971
 30
0.0
 10
160.349805
 20
252.166971
 30
0.0
 10
160.208682
 20
252.096410
 30
0.0
 10
160.138124
 20
252.096410
 30
0.0
 10
160.067563
 20
252.025849
 30
0.0
 10
159.997002
 20
251.955290
 30
0.0
 10
159.997002
 20
251.884729
 30
0.0
 10
159.926443
 20
251.743610
 30
0.0
 10
159.926443
 20
251.673048
 30
0.0
  0
LWPOLYLINE
  5
104
100
AcDbEntity
  8
Layer_1
 62
7
100
AcDbPolyline
 90
2
 70
0
 10
180.247764
 20
255.201058
 30
0.0
 10
180.247764
 20
252.166971
 30
0.0
  0
LWPOLYLINE
  5
105
100
AcDbEntity
  8
Layer_1
 62
7
100
AcDbPolyline
 90
2
 70
0
 10
182.223447
 20
255.201058
 30
0.0
 10
180.247764
 20
255.201058
 30
0.0
  0
LWPOLYLINE
  5
106
100
AcDbEntity
  8
Layer_1
 62
7
100
AcDbPolyline
 90
2
 70
0
 10
182.223447
 20
255.201058
 30
0.0
 10
182.223447
 20
252.166971
 30
0.0
  0
LWPOLYLINE
  5
107
100
AcDbEntity
  8
Layer_1
 62
7
100
AcDbPolyline
 90
9
 70
0
 10
184.269690
 20
251.673048
 30
0.0
 10
184.199132
 20
251.743610
 30
0.0
 10
184.199132
 20
251.884729
 30
0.0
 10
184.128571
 20
251.955290
 30
0.0
 10
184.058012
 20
252.025849
 30
0.0
 10
183.987451
 20
252.096410
 30
0.0
 10
183.916890
 20
252.096410
 30
0.0
 10
183.846332
 20
252.166971
 30
0.0
 10
183.705209
 20
252.166971
 30
0.0
  0
LWPOLYLINE
  5
108
100
AcDbEntity
  8
Layer_1
 62
7
100
AcDbPolyline
 90
9
 70
0
 10
183.705209
 20
195.930547
 30
0.0
 10
183.846332
 20
196.001103
 30
0.0
 10
183.916890
 20
196.001103
 30
0.0
 10
183.987451
 20
196.071658
 30
0.0
 10
184.058012
 20
196.142214
 30
0.0
 10
184.128571
 20
196.212769
 30
0.0
 10
184.199132
 20
196.283325
 30
0.0
 10
184.199132
 20
196.353909
 30
0.0
 10
184.269690
 20
196.495020
 30
0.0
  0
LWPOLYLINE
  5
109
100
AcDbEntity
  8
Layer_1
 62
7
100
AcDbPolyline
 90
2
 70
0
 10
182.223447
 20
192.967016
 30
0.0
 10
182.223447
 20
195.930547
 30
0.0
  0
LWPOLYLINE
  5
10a
100
AcDbEntity
  8
Layer_1
 62
7
100
AcDbPolyline
 90
3
 70
0
 10
182.223447
 20
192.967016
 30
0.0
 10
180.247764
 20
192.967016
 30
0.0
 10
180.247764
 20
195.930547
 30
0.0
  0
LWPOLYLINE
  5
10b
100
AcDbEntity
  8
Layer_1
 62
7
100
AcDbPolyline
 90
9
 70
0
 10
145.743854
 20
196.495020
 30
0.0
 10
145.743854
 20
196.353909
 30
0.0
 10
145.743854
 20
196.283325
 30
0.0
 10
145.814415
 20
196.212769
 30
0.0
 10
145.884973
 20
196.142214
 30
0.0
 10
145.955535
 20
196.071658
 30
0.0
 10
146.026096
 20
196.001103
 30
0.0
 10
146.167215
 20
196.001103
 30
0.0
 10
146.237777
 20
195.930547
 30
0.0
  0
LWPOLYLINE
  5
10c
100
AcDbEntity
  8
Layer_1
 62
7
100
AcDbPolyline
 90
20
 70
0
 10
145.743854
 20
196.495020
 30
0.0
 10
145.743854
 20
217.733625
 30
0.0
 10
145.743854
 20
217.945291
 30
0.0
 10
145.673295
 20
218.156986
 30
0.0
 10
145.532173
 20
218.298097
 30
0.0
 10
145.461615
 20
218.439209
 30
0.0
 10
145.320492
 20
218.580348
 30
0.0
 10
145.108814
 20
218.721459
 30
0.0
 10
144.897134
 20
218.721459
 30
0.0
 10
144.756011
 20
218.792015
 30
0.0
 10
144.262091
 20
218.792015
 30
0.0
 10
144.050410
 20
218.721459
 30
0.0
 10
143.838730
 20
218.721459
 30
0.0
 10
143.697610
 20
218.580348
 30
0.0
 10
143.556490
 20
218.439209
 30
0.0
 10
143.415371
 20
218.298097
 30
0.0
 10
143.344810
 20
218.156986
 30
0.0
 10
143.274248
 20
217.945291
 30
0.0
 10
143.203690
 20
217.733625
 30
0.0
 10
143.203690
 20
196.495020
 30
0.0
  0
LWPOLYLINE
  5
10d
100
AcDbEntity
  8
Layer_1
 62
7
100
AcDbPolyline
 90
9
 70
0
 10
142.709767
 20
195.930547
 30
0.0
 10
142.850890
 20
196.001103
 30
0.0
 10
142.921448
 20
196.001103
 30
0.0
 10
142.992009
 20
196.071658
 30
0.0
 10
143.062568
 20
196.142214
 30
0.0
 10
143.133129
 20
196.212769
 30
0.0
 10
143.203690
 20
196.283325
 30
0.0
 10
143.203690
 20
196.353909
 30
0.0
 10
143.203690
 20
196.495020
 30
0.0
  0
LWPOLYLINE
  5
10e
100
AcDbEntity
  8
Layer_1
 62
7
100
AcDbPolyline
 90
9
 70
0
 10
105.947935
 20
191.979182
 30
0.0
 10
106.018494
 20
191.979182
 30
0.0
 10
106.089055
 20
191.979182
 30
0.0
 10
106.230174
 20
192.049737
 30
0.0
 10
106.300736
 20
192.120293
 30
0.0
 10
106.371294
 20
192.190849
 30
0.0
 10
106.371294
 20
192.261404
 30
0.0
 10
106.441855
 20
192.402543
 30
0.0
 10
106.441855
 20
192.473099
 30
0.0
  0
LWPOLYLINE
  5
10f
100
AcDbEntity
  8
Layer_1
 62
7
100
AcDbPolyline
 90
9
 70
0
 10
100.020882
 20
192.473099
 30
0.0
 10
100.020882
 20
192.402543
 30
0.0
 10
100.091443
 20
192.261404
 30
0.0
 10
100.091443
 20
192.190849
 30
0.0
 10
100.162002
 20
192.120293
 30
0.0
 10
100.232563
 20
192.049737
 30
0.0
 10
100.373682
 20
191.979182
 30
0.0
 10
100.444244
 20
191.979182
 30
0.0
 10
100.514805
 20
191.979182
 30
0.0
  0
LWPOLYLINE
  5
110
100
AcDbEntity
  8
Layer_1
 62
7
100
AcDbPolyline
 90
9
 70
0
 10
99.385842
 20
211.877119
 30
0.0
 10
99.526962
 20
211.736007
 30
0.0
 10
99.668082
 20
211.594896
 30
0.0
 10
99.738643
 20
211.453757
 30
0.0
 10
99.879762
 20
211.312646
 30
0.0
 10
99.950324
 20
211.171535
 30
0.0
 10
100.020882
 20
210.959840
 30
0.0
 10
100.020882
 20
210.818729
 30
0.0
 10
100.020882
 20
210.607034
 30
0.0
  0
LWPOLYLINE
  5
111
100
AcDbEntity
  8
Layer_1
 62
7
100
AcDbPolyline
 90
9
 70
0
 10
100.020882
 20
214.064482
 30
0.0
 10
99.668082
 20
213.993926
 30
0.0
 10
99.315281
 20
213.852815
 30
0.0
 10
99.033039
 20
213.570565
 30
0.0
 10
98.891920
 20
213.217759
 30
0.0
 10
98.821361
 20
212.864981
 30
0.0
 10
98.891920
 20
212.441619
 30
0.0
 10
99.103601
 20
212.159369
 30
0.0
 10
99.385842
 20
211.877119
 30
0.0
  0
LWPOLYLINE
  5
112
100
AcDbEntity
  8
Layer_1
 62
7
100
AcDbPolyline
 90
2
 70
0
 10
100.020882
 20
214.064482
 30
0.0
 10
104.042811
 20
214.064482
 30
0.0
  0
LWPOLYLINE
  5
113
100
AcDbEntity
  8
Layer_1
 62
7
100
AcDbPolyline
 90
9
 70
0
 10
106.018494
 20
216.040179
 30
0.0
 10
106.018494
 20
215.687373
 30
0.0
 10
105.877374
 20
215.334567
 30
0.0
 10
105.665693
 20
214.981789
 30
0.0
 10
105.454013
 20
214.628983
 30
0.0
 10
105.171773
 20
214.417288
 30
0.0
 10
104.818973
 20
214.205621
 30
0.0
 10
104.395611
 20
214.135066
 30
0.0
 10
104.042811
 20
214.064482
 30
0.0
  0
LWPOLYLINE
  5
114
100
AcDbEntity
  8
Layer_1
 62
7
100
AcDbPolyline
 90
2
 70
0
 10
106.018494
 20
216.040179
 30
0.0
 10
106.018494
 20
232.057334
 30
0.0
  0
LWPOLYLINE
  5
115
100
AcDbEntity
  8
Layer_1
 62
7
100
AcDbPolyline
 90
9
 70
0
 10
104.042811
 20
234.033002
 30
0.0
 10
104.395611
 20
234.033002
 30
0.0
 10
104.818973
 20
233.891891
 30
0.0
 10
105.171773
 20
233.750780
 30
0.0
 10
105.454013
 20
233.468530
 30
0.0
 10
105.665693
 20
233.186279
 30
0.0
 10
105.877374
 20
232.833501
 30
0.0
 10
106.018494
 20
232.480695
 30
0.0
 10
106.018494
 20
232.057334
 30
0.0
  0
LWPOLYLINE
  5
116
100
AcDbEntity
  8
Layer_1
 62
7
100
AcDbPolyline
 90
2
 70
0
 10
104.042811
 20
234.033002
 30
0.0
 10
100.020882
 20
234.033002
 30
0.0
  0
LWPOLYLINE
  5
117
100
AcDbEntity
  8
Layer_1
 62
7
100
AcDbPolyline
 90
9
 70
0
 10
99.385842
 20
236.290949
 30
0.0
 10
99.103601
 20
236.008699
 30
0.0
 10
98.891920
 20
235.655893
 30
0.0
 10
98.821361
 20
235.303087
 30
0.0
 10
98.891920
 20
234.950309
 30
0.0
 10
99.033039
 20
234.597503
 30
0.0
 10
99.315281
 20
234.315253
 30
0.0
 10
99.668082
 20
234.103586
 30
0.0
 10
100.020882
 20
234.033002
 30
0.0
  0
LWPOLYLINE
  5
118
100
AcDbEntity
  8
Layer_1
 62
7
100
AcDbPolyline
 90
9
 70
0
 10
100.020882
 20
237.490450
 30
0.0
 10
100.020882
 20
237.349339
 30
0.0
 10
100.020882
 20
237.137673
 30
0.0
 10
99.950324
 20
236.996533
 30
0.0
 10
99.879762
 20
236.784867
 30
0.0
 10
99.738643
 20
236.643727
 30
0.0
 10
99.668082
 20
236.502616
 30
0.0
 10
99.526962
 20
236.361505
 30
0.0
 10
99.385842
 20
236.290949
 30
0.0
  0
LWPOLYLINE
  5
119
100
AcDbEntity
  8
Layer_1
 62
7
100
AcDbPolyline
 90
2
 70
0
 10
105.947935
 20
256.188897
 30
0.0
 10
100.514805
 20
256.188897
 30
0.0
  0
LWPOLYLINE
  5
11a
100
AcDbEntity
  8
Layer_1
 62
7
100
AcDbPolyline
 90
2
 70
0
 10
106.441855
 20
245.675437
 30
0.0
 10
106.441855
 20
255.694977
 30
0.0
  0
LWPOLYLINE
  5
11b
100
AcDbEntity
  8
Layer_1
 62
7
100
AcDbPolyline
 90
2
 70
0
 10
159.432521
 20
245.675437
 30
0.0
 10
106.441855
 20
245.675437
 30
0.0
  0
LWPOLYLINE
  5
11c
100
AcDbEntity
  8
Layer_1
 62
7
100
AcDbPolyline
 90
2
 70
0
 10
159.926443
 20
251.673048
 30
0.0
 10
159.926443
 20
246.169359
 30
0.0
  0
LWPOLYLINE
  5
11d
100
AcDbEntity
  8
Layer_1
 62
7
100
AcDbPolyline
 90
2
 70
0
 10
180.247764
 20
252.166971
 30
0.0
 10
160.420363
 20
252.166971
 30
0.0
  0
LWPOLYLINE
  5
11e
100
AcDbEntity
  8
Layer_1
 62
7
100
AcDbPolyline
 90
2
 70
0
 10
184.269690
 20
196.495020
 30
0.0
 10
184.269690
 20
251.673048
 30
0.0
  0
LWPOLYLINE
  5
11f
100
AcDbEntity
  8
Layer_1
 62
7
100
AcDbPolyline
 90
2
 70
0
 10
106.441855
 20
195.930547
 30
0.0
 10
142.709767
 20
195.930547
 30
0.0
  0
LWPOLYLINE
  5
120
100
AcDbEntity
  8
Layer_1
 62
7
100
AcDbPolyline
 90
2
 70
0
 10
106.441855
 20
192.473099
 30
0.0
 10
106.441855
 20
195.930547
 30
0.0
  0
LWPOLYLINE
  5
121
100
AcDbEntity
  8
Layer_1
 62
7
100
AcDbPolyline
 90
2
 70
0
 10
100.514805
 20
191.979182
 30
0.0
 10
105.947935
 20
191.979182
 30
0.0
  0
LWPOLYLINE
  5
122
100
AcDbEntity
  8
Layer_1
 62
7
100
AcDbPolyline
 90
2
 70
0
 10
100.020882
 20
210.607034
 30
0.0
 10
100.020882
 20
192.473099
 30
0.0
  0
LWPOLYLINE
  5
123
100
AcDbEntity
  8
Layer_1
 62
7
100
AcDbPolyline
 90
2
 70
0
 10
100.020882
 20
255.694977
 30
0.0
 10
100.020882
 20
237.490450
 30
0.0
  0
LWPOLYLINE
  5
124
100
AcDbEntity
  8
Layer_1
 62
7
100
AcDbPolyline
 90
2
 70
0
 10
146.237777
 20
195.930547
 30
0.0
 10
180.247764
 20
195.930547
 30
0.0
  0
LWPOLYLINE
  5
125
100
AcDbEntity
  8
Layer_1
 62
7
100
AcDbPolyline
 90
2
 70
0
 10
182.223447
 20
195.930547
 30
0.0
 10
183.705209
 20
195.930547
 30
0.0
  0
LWPOLYLINE
  5
126
100
AcDbEntity
  8
Layer_1
 62
7
100
AcDbPolyline
 90
2
 70
0
 10
183.705209
 20
252.166971
 30
0.0
 10
182.223447
 20
252.166971
 30
0.0
  0
LWPOLYLINE
  5
127
100
AcDbEntity
  8
Layer_1
 62
7
100
AcDbPolyline
 90
5
 70
0
 10
249.586936
 20
228.613833
 30
0.0
 10
259.606474
 20
228.613833
 30
0.0
 10
259.606474
 20
231.647920
 30
0.0
 10
249.586936
 20
231.647920
 30
0.0
 10
249.586936
 20
228.613833
 30
0.0
  0
LWPOLYLINE
  5
128
100
AcDbEntity
  8
Layer_1
 62
7
100
AcDbPolyline
 90
2
 70
0
 10
262.358310
 20
293.811403
 30
0.0
 10
231.382418
 20
293.811403
 30
0.0
  0
LWPOLYLINE
  5
129
100
AcDbEntity
  8
Layer_1
 62
7
100
AcDbPolyline
 90
9
 70
0
 10
264.334007
 20
291.835720
 30
0.0
 10
264.334007
 20
292.188521
 30
0.0
 10
264.192868
 20
292.611882
 30
0.0
 10
263.981201
 20
292.964683
 30
0.0
 10
263.769506
 20
293.246922
 30
0.0
 10
263.487284
 20
293.458602
 30
0.0
 10
263.134478
 20
293.670283
 30
0.0
 10
262.711116
 20
293.811403
 30
0.0
 10
262.358310
 20
293.811403
 30
0.0
  0
LWPOLYLINE
  5
12a
100
AcDbEntity
  8
Layer_1
 62
7
100
AcDbPolyline
 90
2
 70
0
 10
264.334007
 20
227.625991
 30
0.0
 10
264.334007
 20
291.835720
 30
0.0
  0
LWPOLYLINE
  5
12b
100
AcDbEntity
  8
Layer_1
 62
7
100
AcDbPolyline
 90
9
 70
0
 10
262.358310
 20
225.650308
 30
0.0
 10
262.711116
 20
225.650308
 30
0.0
 10
263.134478
 20
225.791428
 30
0.0
 10
263.487284
 20
225.932547
 30
0.0
 10
263.769506
 20
226.214789
 30
0.0
 10
263.981201
 20
226.497028
 30
0.0
 10
264.192868
 20
226.849829
 30
0.0
 10
264.334007
 20
227.202629
 30
0.0
 10
264.334007
 20
227.625991
 30
0.0
  0
LWPOLYLINE
  5
12c
100
AcDbEntity
  8
Layer_1
 62
7
100
AcDbPolyline
 90
2
 70
0
 10
231.382418
 20
225.650308
 30
0.0
 10
262.358310
 20
225.650308
 30
0.0
  0
LWPOLYLINE
  5
12d
100
AcDbEntity
  8
Layer_1
 62
7
100
AcDbPolyline
 90
9
 70
0
 10
229.336165
 20
227.625991
 30
0.0
 10
229.406721
 20
227.202629
 30
0.0
 10
229.477276
 20
226.849829
 30
0.0
 10
229.688971
 20
226.497028
 30
0.0
 10
229.900638
 20
226.214789
 30
0.0
 10
230.253444
 20
225.932547
 30
0.0
 10
230.606250
 20
225.791428
 30
0.0
 10
230.959056
 20
225.650308
 30
0.0
 10
231.382418
 20
225.650308
 30
0.0
  0
LWPOLYLINE
  5
12e
100
AcDbEntity
  8
Layer_1
 62
7
100
AcDbPolyline
 90
2
 70
0
 10
229.336165
 20
291.835720
 30
0.0
 10
229.336165
 20
227.625991
 30
0.0
  0
LWPOLYLINE
  5
12f
100
AcDbEntity
  8
Layer_1
 62
7
100
AcDbPolyline
 90
9
 70
0
 10
231.382418
 20
293.811403
 30
0.0
 10
230.959056
 20
293.811403
 30
0.0
 10
230.606250
 20
293.670283
 30
0.0
 10
230.253444
 20
293.458602
 30
0.0
 10
229.900638
 20
293.246922
 30
0.0
 10
229.688971
 20
292.964683
 30
0.0
 10
229.477276
 20
292.611882
 30
0.0
 10
229.406721
 20
292.188521
 30
0.0
 10
229.336165
 20
291.835720
 30
0.0
  0
LWPOLYLINE
  5
130
100
AcDbEntity
  8
Layer_1
 62
7
100
AcDbPolyline
 90
2
 70
0
 10
240.696344
 20
231.647920
 30
0.0
 10
232.229141
 20
231.647920
 30
0.0
  0
LWPOLYLINE
  5
131
100
AcDbEntity
  8
Layer_1
 62
7
100
AcDbPolyline
 90
9
 70
0
 10
238.156174
 20
284.709146
 30
0.0
 10
238.156174
 20
284.991385
 30
0.0
 10
238.297314
 20
285.273627
 30
0.0
 10
238.438425
 20
285.555867
 30
0.0
 10
238.579536
 20
285.767547
 30
0.0
 10
238.791231
 20
285.979228
 30
0.0
 10
239.073453
 20
286.120348
 30
0.0
 10
239.355703
 20
286.190909
 30
0.0
 10
239.637954
 20
286.261467
 30
0.0
  0
LWPOLYLINE
  5
132
100
AcDbEntity
  8
Layer_1
 62
7
100
AcDbPolyline
 90
9
 70
0
 10
238.156174
 20
265.657907
 30
0.0
 10
238.156174
 20
265.940146
 30
0.0
 10
238.297314
 20
266.222388
 30
0.0
 10
238.438425
 20
266.504628
 30
0.0
 10
238.579536
 20
266.716308
 30
0.0
 10
238.791231
 20
266.927989
 30
0.0
 10
239.073453
 20
267.069109
 30
0.0
 10
239.355703
 20
267.139670
 30
0.0
 10
239.637954
 20
267.210231
 30
0.0
  0
LWPOLYLINE
  5
133
100
AcDbEntity
  8
Layer_1
 62
7
100
AcDbPolyline
 90
9
 70
0
 10
238.156174
 20
247.594511
 30
0.0
 10
238.156174
 20
247.947311
 30
0.0
 10
238.297314
 20
248.229553
 30
0.0
 10
238.438425
 20
248.441231
 30
0.0
 10
238.579536
 20
248.652912
 30
0.0
 10
238.791231
 20
248.864593
 30
0.0
 10
239.073453
 20
249.005712
 30
0.0
 10
239.355703
 20
249.076274
 30
0.0
 10
239.637954
 20
249.146835
 30
0.0
  0
LWPOLYLINE
  5
134
100
AcDbEntity
  8
Layer_1
 62
7
100
AcDbPolyline
 90
9
 70
0
 10
256.854610
 20
234.117525
 30
0.0
 10
256.854610
 20
233.835283
 30
0.0
 10
256.713499
 20
233.553044
 30
0.0
 10
256.572388
 20
233.270802
 30
0.0
 10
256.431248
 20
233.059121
 30
0.0
 10
256.219582
 20
232.847440
 30
0.0
 10
255.937331
 20
232.706321
 30
0.0
 10
255.655109
 20
232.635760
 30
0.0
 10
255.372859
 20
232.635760
 30
0.0
  0
LWPOLYLINE
  5
135
100
AcDbEntity
  8
Layer_1
 62
7
100
AcDbPolyline
 90
9
 70
0
 10
256.854610
 20
252.180921
 30
0.0
 10
256.854610
 20
251.898679
 30
0.0
 10
256.713499
 20
251.616440
 30
0.0
 10
256.572388
 20
251.334198
 30
0.0
 10
256.431248
 20
251.122517
 30
0.0
 10
256.219582
 20
250.910837
 30
0.0
 10
255.937331
 20
250.769717
 30
0.0
 10
255.655109
 20
250.699156
 30
0.0
 10
255.372859
 20
250.699156
 30
0.0
  0
LWPOLYLINE
  5
136
100
AcDbEntity
  8
Layer_1
 62
7
100
AcDbPolyline
 90
9
 70
0
 10
255.372859
 20
267.210231
 30
0.0
 10
255.655109
 20
267.139670
 30
0.0
 10
255.937331
 20
267.069109
 30
0.0
 10
256.219582
 20
266.927989
 30
0.0
 10
256.431248
 20
266.716308
 30
0.0
 10
256.572388
 20
266.504628
 30
0.0
 10
256.713499
 20
266.222388
 30
0.0
 10
256.854610
 20
265.940146
 30
0.0
 10
256.854610
 20
265.657907
 30
0.0
  0
LWPOLYLINE
  5
137
100
AcDbEntity
  8
Layer_1
 62
7
100
AcDbPolyline
 90
9
 70
0
 10
239.637954
 20
250.699156
 30
0.0
 10
239.355703
 20
250.699156
 30
0.0
 10
239.073453
 20
250.769717
 30
0.0
 10
238.791231
 20
250.910837
 30
0.0
 10
238.579536
 20
251.122517
 30
0.0
 10
238.438425
 20
251.334198
 30
0.0
 10
238.297314
 20
251.616440
 30
0.0
 10
238.156174
 20
251.898679
 30
0.0
 10
238.156174
 20
252.180921
 30
0.0
  0
LWPOLYLINE
  5
138
100
AcDbEntity
  8
Layer_1
 62
7
100
AcDbPolyline
 90
9
 70
0
 10
255.372859
 20
249.146835
 30
0.0
 10
255.655109
 20
249.076274
 30
0.0
 10
255.937331
 20
249.005712
 30
0.0
 10
256.219582
 20
248.864593
 30
0.0
 10
256.431248
 20
248.652912
 30
0.0
 10
256.572388
 20
248.441231
 30
0.0
 10
256.713499
 20
248.229553
 30
0.0
 10
256.854610
 20
247.947311
 30
0.0
 10
256.854610
 20
247.594511
 30
0.0
  0
LWPOLYLINE
  5
139
100
AcDbEntity
  8
Layer_1
 62
7
100
AcDbPolyline
 90
9
 70
0
 10
239.637954
 20
232.635760
 30
0.0
 10
239.355703
 20
232.635760
 30
0.0
 10
239.073453
 20
232.706321
 30
0.0
 10
238.791231
 20
232.847440
 30
0.0
 10
238.579536
 20
233.059121
 30
0.0
 10
238.438425
 20
233.270802
 30
0.0
 10
238.297314
 20
233.553044
 30
0.0
 10
238.156174
 20
233.835283
 30
0.0
 10
238.156174
 20
234.117525
 30
0.0
  0
LWPOLYLINE
  5
13a
100
AcDbEntity
  8
Layer_1
 62
7
100
AcDbPolyline
 90
2
 70
0
 10
238.156174
 20
284.709146
 30
0.0
 10
238.156174
 20
270.103195
 30
0.0
  0
LWPOLYLINE
  5
13b
100
AcDbEntity
  8
Layer_1
 62
7
100
AcDbPolyline
 90
2
 70
0
 10
252.832689
 20
286.261467
 30
0.0
 10
239.637954
 20
286.261467
 30
0.0
  0
LWPOLYLINE
  5
13c
100
AcDbEntity
  8
Layer_1
 62
7
100
AcDbPolyline
 90
2
 70
0
 10
254.385024
 20
270.103195
 30
0.0
 10
254.385024
 20
284.709146
 30
0.0
  0
LWPOLYLINE
  5
13d
100
AcDbEntity
  8
Layer_1
 62
7
100
AcDbPolyline
 90
2
 70
0
 10
239.637954
 20
268.621433
 30
0.0
 10
252.832689
 20
268.621433
 30
0.0
  0
LWPOLYLINE
  5
13e
100
AcDbEntity
  8
Layer_1
 62
7
100
AcDbPolyline
 90
2
 70
0
 10
238.156174
 20
265.657907
 30
0.0
 10
238.156174
 20
252.180921
 30
0.0
  0
LWPOLYLINE
  5
13f
100
AcDbEntity
  8
Layer_1
 62
7
100
AcDbPolyline
 90
2
 70
0
 10
255.372859
 20
267.210231
 30
0.0
 10
239.637954
 20
267.210231
 30
0.0
  0
LWPOLYLINE
  5
140
100
AcDbEntity
  8
Layer_1
 62
7
100
AcDbPolyline
 90
2
 70
0
 10
256.854610
 20
252.180921
 30
0.0
 10
256.854610
 20
265.657907
 30
0.0
  0
LWPOLYLINE
  5
141
100
AcDbEntity
  8
Layer_1
 62
7
100
AcDbPolyline
 90
2
 70
0
 10
239.637954
 20
250.699156
 30
0.0
 10
255.372859
 20
250.699156
 30
0.0
  0
LWPOLYLINE
  5
142
100
AcDbEntity
  8
Layer_1
 62
7
100
AcDbPolyline
 90
2
 70
0
 10
256.854610
 20
234.117525
 30
0.0
 10
256.854610
 20
247.594511
 30
0.0
  0
LWPOLYLINE
  5
143
100
AcDbEntity
  8
Layer_1
 62
7
100
AcDbPolyline
 90
2
 70
0
 10
239.637954
 20
232.635760
 30
0.0
 10
255.372859
 20
232.635760
 30
0.0
  0
LWPOLYLINE
  5
144
100
AcDbEntity
  8
Layer_1
 62
7
100
AcDbPolyline
 90
2
 70
0
 10
238.156174
 20
247.594511
 30
0.0
 10
238.156174
 20
234.117525
 30
0.0
  0
LWPOLYLINE
  5
145
100
AcDbEntity
  8
Layer_1
 62
7
100
AcDbPolyline
 90
2
 70
0
 10
255.372859
 20
249.146835
 30
0.0
 10
239.637954
 20
249.146835
 30
0.0
  0
LWPOLYLINE
  5
146
100
AcDbEntity
  8
Layer_1
 62
7
100
AcDbPolyline
 90
2
 70
0
 10
249.586936
 20
287.813791
 30
0.0
 10
259.606474
 20
287.813791
 30
0.0
  0
LWPOLYLINE
  5
147
100
AcDbEntity
  8
Layer_1
 62
7
100
AcDbPolyline
 90
2
 70
0
 10
249.586936
 20
290.847878
 30
0.0
 10
249.586936
 20
287.813791
 30
0.0
  0
LWPOLYLINE
  5
148
100
AcDbEntity
  8
Layer_1
 62
7
100
AcDbPolyline
 90
2
 70
0
 10
259.606474
 20
290.847878
 30
0.0
 10
249.586936
 20
290.847878
 30
0.0
  0
LWPOLYLINE
  5
149
100
AcDbEntity
  8
Layer_1
 62
7
100
AcDbPolyline
 90
2
 70
0
 10
259.606474
 20
287.813791
 30
0.0
 10
259.606474
 20
290.847878
 30
0.0
  0
LWPOLYLINE
  5
14a
100
AcDbEntity
  8
Layer_1
 62
7
100
AcDbPolyline
 90
2
 70
0
 10
232.229141
 20
287.813791
 30
0.0
 10
240.696344
 20
287.813791
 30
0.0
  0
LWPOLYLINE
  5
14b
100
AcDbEntity
  8
Layer_1
 62
7
100
AcDbPolyline
 90
2
 70
0
 10
232.229141
 20
290.847878
 30
0.0
 10
232.229141
 20
287.813791
 30
0.0
  0
LWPOLYLINE
  5
14c
100
AcDbEntity
  8
Layer_1
 62
7
100
AcDbPolyline
 90
2
 70
0
 10
240.696344
 20
290.847878
 30
0.0
 10
232.229141
 20
290.847878
 30
0.0
  0
LWPOLYLINE
  5
14d
100
AcDbEntity
  8
Layer_1
 62
7
100
AcDbPolyline
 90
2
 70
0
 10
240.696344
 20
287.813791
 30
0.0
 10
240.696344
 20
290.847878
 30
0.0
  0
LWPOLYLINE
  5
14e
100
AcDbEntity
  8
Layer_1
 62
7
100
AcDbPolyline
 90
2
 70
0
 10
240.696344
 20
228.613833
 30
0.0
 10
240.696344
 20
231.647920
 30
0.0
  0
LWPOLYLINE
  5
14f
100
AcDbEntity
  8
Layer_1
 62
7
100
AcDbPolyline
 90
2
 70
0
 10
232.229141
 20
231.647920
 30
0.0
 10
232.229141
 20
228.613833
 30
0.0
  0
LWPOLYLINE
  5
150
100
AcDbEntity
  8
Layer_1
 62
7
100
AcDbPolyline
 90
9
 70
0
 10
252.832689
 20
286.261467
 30
0.0
 10
253.114940
 20
286.190909
 30
0.0
 10
253.397162
 20
286.120348
 30
0.0
 10
253.679412
 20
285.979228
 30
0.0
 10
253.891107
 20
285.767547
 30
0.0
 10
254.102774
 20
285.555867
 30
0.0
 10
254.243885
 20
285.273627
 30
0.0
 10
254.314469
 20
284.991385
 30
0.0
 10
254.385024
 20
284.709146
 30
0.0
  0
LWPOLYLINE
  5
151
100
AcDbEntity
  8
Layer_1
 62
7
100
AcDbPolyline
 90
9
 70
0
 10
254.385024
 20
270.103195
 30
0.0
 10
254.314469
 20
269.820956
 30
0.0
 10
254.243885
 20
269.538714
 30
0.0
 10
254.102774
 20
269.327033
 30
0.0
 10
253.891107
 20
269.044794
 30
0.0
 10
253.679412
 20
268.903675
 30
0.0
 10
253.397162
 20
268.762552
 30
0.0
 10
253.114940
 20
268.621433
 30
0.0
 10
252.832689
 20
268.621433
 30
0.0
  0
LWPOLYLINE
  5
152
100
AcDbEntity
  8
Layer_1
 62
7
100
AcDbPolyline
 90
9
 70
0
 10
239.637954
 20
268.621433
 30
0.0
 10
239.355703
 20
268.621433
 30
0.0
 10
239.073453
 20
268.762552
 30
0.0
 10
238.791231
 20
268.903675
 30
0.0
 10
238.579536
 20
269.044794
 30
0.0
 10
238.438425
 20
269.327033
 30
0.0
 10
238.297314
 20
269.538714
 30
0.0
 10
238.156174
 20
269.820956
 30
0.0
 10
238.156174
 20
270.103195
 30
0.0
  0
LWPOLYLINE
  5
153
100
AcDbEntity
  8
Layer_1
 62
7
100
AcDbPolyline
 90
2
 70
0
 10
232.229141
 20
228.613833
 30
0.0
 10
240.696344
 20
228.613833
 30
0.0
  0
LWPOLYLINE
  5
154
100
AcDbEntity
  8
Layer_1
 62
7
100
AcDbPolyline
 90
24
 70
0
 10
65.638197
 20
276.248324
 30
0.0
 10
64.579796
 20
276.107204
 30
0.0
 10
63.521392
 20
275.683843
 30
0.0
 10
62.674672
 20
274.978241
 30
0.0
 10
62.039630
 20
274.060960
 30
0.0
 10
61.686829
 20
273.002558
 30
0.0
 10
61.545710
 20
271.873595
 30
0.0
 10
61.827949
 20
270.815193
 30
0.0
 10
62.321872
 20
269.827351
 30
0.0
 10
63.098031
 20
268.980630
 30
0.0
 10
64.015315
 20
268.416147
 30
0.0
 10
65.144277
 20
268.133908
 30
0.0
 10
66.202679
 20
268.133908
 30
0.0
 10
67.331641
 20
268.416147
 30
0.0
 10
68.248922
 20
268.980630
 30
0.0
 10
69.025084
 20
269.827351
 30
0.0
 10
69.519004
 20
270.815193
 30
0.0
 10
69.730685
 20
271.873595
 30
0.0
 10
69.660127
 20
273.002558
 30
0.0
 10
69.307323
 20
274.060960
 30
0.0
 10
68.672284
 20
274.978241
 30
0.0
 10
67.825561
 20
275.683843
 30
0.0
 10
66.767160
 20
276.107204
 30
0.0
 10
65.638197
 20
276.248324
 30
0.0
  0
LWPOLYLINE
  5
155
100
AcDbEntity
  8
Layer_1
 62
7
100
AcDbPolyline
 90
5
 70
0
 10
77.633421
 20
266.087664
 30
0.0
 10
65.638197
 20
266.087664
 30
0.0
 10
65.638197
 20
263.053578
 30
0.0
 10
77.633421
 20
263.053578
 30
0.0
 10
77.633421
 20
266.087664
 30
0.0
  0
LWPOLYLINE
  5
156
100
AcDbEntity
  8
Layer_1
 62
7
100
AcDbPolyline
 90
2
 70
0
 10
100.353786
 20
290.501473
 30
0.0
 10
100.353786
 20
289.584191
 30
0.0
  0
LWPOLYLINE
  5
157
100
AcDbEntity
  8
Layer_1
 62
7
100
AcDbPolyline
 90
9
 70
0
 10
100.988828
 20
290.995394
 30
0.0
 10
100.847708
 20
290.995394
 30
0.0
 10
100.777147
 20
290.995394
 30
0.0
 10
100.636028
 20
290.995394
 30
0.0
 10
100.565466
 20
290.924834
 30
0.0
 10
100.494908
 20
290.854274
 30
0.0
 10
100.424347
 20
290.713153
 30
0.0
 10
100.353786
 20
290.642593
 30
0.0
 10
100.353786
 20
290.501473
 30
0.0
  0
LWPOLYLINE
  5
158
100
AcDbEntity
  8
Layer_1
 62
7
100
AcDbPolyline
 90
9
 70
0
 10
103.387872
 20
288.102428
 30
0.0
 10
103.317314
 20
288.596349
 30
0.0
 10
103.176191
 20
289.090270
 30
0.0
 10
102.964513
 20
289.513631
 30
0.0
 10
102.682271
 20
289.936992
 30
0.0
 10
102.329471
 20
290.360353
 30
0.0
 10
101.906110
 20
290.642593
 30
0.0
 10
101.482748
 20
290.854274
 30
0.0
 10
100.988828
 20
290.995394
 30
0.0
  0
LWPOLYLINE
  5
159
100
AcDbEntity
  8
Layer_1
 62
7
100
AcDbPolyline
 90
2
 70
0
 10
103.387872
 20
284.574421
 30
0.0
 10
103.387872
 20
288.102428
 30
0.0
  0
LWPOLYLINE
  5
15a
100
AcDbEntity
  8
Layer_1
 62
7
100
AcDbPolyline
 90
9
 70
0
 10
100.353786
 20
281.540335
 30
0.0
 10
100.988828
 20
281.610895
 30
0.0
 10
101.482748
 20
281.822575
 30
0.0
 10
102.047229
 20
282.104816
 30
0.0
 10
102.470591
 20
282.457617
 30
0.0
 10
102.893952
 20
282.880977
 30
0.0
 10
103.176191
 20
283.445458
 30
0.0
 10
103.317314
 20
284.009940
 30
0.0
 10
103.387872
 20
284.574421
 30
0.0
  0
LWPOLYLINE
  5
15b
100
AcDbEntity
  8
Layer_1
 62
7
100
AcDbPolyline
 90
2
 70
0
 10
97.390260
 20
281.540335
 30
0.0
 10
100.353786
 20
281.540335
 30
0.0
  0
LWPOLYLINE
  5
15c
100
AcDbEntity
  8
Layer_1
 62
7
100
AcDbPolyline
 90
2
 70
0
 10
97.390260
 20
271.097434
 30
0.0
 10
97.390260
 20
281.540335
 30
0.0
  0
LWPOLYLINE
  5
15d
100
AcDbEntity
  8
Layer_1
 62
7
100
AcDbPolyline
 90
2
 70
0
 10
100.353786
 20
271.097434
 30
0.0
 10
97.390260
 20
271.097434
 30
0.0
  0
LWPOLYLINE
  5
15e
100
AcDbEntity
  8
Layer_1
 62
7
100
AcDbPolyline
 90
9
 70
0
 10
103.387872
 20
268.063347
 30
0.0
 10
103.317314
 20
268.627828
 30
0.0
 10
103.176191
 20
269.192310
 30
0.0
 10
102.893952
 20
269.756791
 30
0.0
 10
102.470591
 20
270.180152
 30
0.0
 10
102.047229
 20
270.532953
 30
0.0
 10
101.482748
 20
270.815193
 30
0.0
 10
100.988828
 20
271.026874
 30
0.0
 10
100.353786
 20
271.097434
 30
0.0
  0
LWPOLYLINE
  5
15f
100
AcDbEntity
  8
Layer_1
 62
7
100
AcDbPolyline
 90
2
 70
0
 10
103.387872
 20
267.075507
 30
0.0
 10
103.387872
 20
268.063347
 30
0.0
  0
LWPOLYLINE
  5
160
100
AcDbEntity
  8
Layer_1
 62
7
100
AcDbPolyline
 90
2
 70
0
 10
98.378103
 20
267.075507
 30
0.0
 10
103.387872
 20
267.075507
 30
0.0
  0
LWPOLYLINE
  5
161
100
AcDbEntity
  8
Layer_1
 62
7
100
AcDbPolyline
 90
9
 70
0
 10
96.402418
 20
266.863826
 30
0.0
 10
96.614099
 20
266.934384
 30
0.0
 10
96.896341
 20
266.934384
 30
0.0
 10
97.108021
 20
267.004946
 30
0.0
 10
97.390260
 20
267.004946
 30
0.0
 10
97.601941
 20
267.075507
 30
0.0
 10
97.884183
 20
267.075507
 30
0.0
 10
98.166422
 20
267.075507
 30
0.0
 10
98.378103
 20
267.075507
 30
0.0
  0
LWPOLYLINE
  5
162
100
AcDbEntity
  8
Layer_1
 62
7
100
AcDbPolyline
 90
2
 70
0
 10
90.263686
 20
265.593741
 30
0.0
 10
96.402418
 20
266.863826
 30
0.0
  0
LWPOLYLINE
  5
163
100
AcDbEntity
  8
Layer_1
 62
7
100
AcDbPolyline
 90
9
 70
0
 10
88.923043
 20
265.382063
 30
0.0
 10
89.064163
 20
265.382063
 30
0.0
 10
89.205285
 20
265.452622
 30
0.0
 10
89.416966
 20
265.452622
 30
0.0
 10
89.558086
 20
265.452622
 30
0.0
 10
89.769767
 20
265.523183
 30
0.0
 10
89.910886
 20
265.523183
 30
0.0
 10
90.122567
 20
265.593744
 30
0.0
 10
90.263686
 20
265.593744
 30
0.0
  0
LWPOLYLINE
  5
164
100
AcDbEntity
  8
Layer_1
 62
7
100
AcDbPolyline
 90
2
 70
0
 10
83.983833
 20
264.747021
 30
0.0
 10
88.923043
 20
265.382063
 30
0.0
  0
LWPOLYLINE
  5
165
100
AcDbEntity
  8
Layer_1
 62
7
100
AcDbPolyline
 90
9
 70
0
 10
83.983833
 20
263.194697
 30
0.0
 10
83.701594
 20
263.265258
 30
0.0
 10
83.489913
 20
263.406378
 30
0.0
 10
83.278232
 20
263.688620
 30
0.0
 10
83.278232
 20
263.970859
 30
0.0
 10
83.278232
 20
264.253101
 30
0.0
 10
83.489913
 20
264.535340
 30
0.0
 10
83.701594
 20
264.676460
 30
0.0
 10
83.983833
 20
264.747021
 30
0.0
  0
LWPOLYLINE
  5
166
100
AcDbEntity
  8
Layer_1
 62
7
100
AcDbPolyline
 90
2
 70
0
 10
88.923043
 20
263.900301
 30
0.0
 10
83.983833
 20
263.194697
 30
0.0
  0
LWPOLYLINE
  5
167
100
AcDbEntity
  8
Layer_1
 62
7
100
AcDbPolyline
 90
9
 70
0
 10
90.263686
 20
264.111979
 30
0.0
 10
90.122567
 20
264.041420
 30
0.0
 10
89.910886
 20
264.041420
 30
0.0
 10
89.769767
 20
264.041420
 30
0.0
 10
89.558086
 20
263.970859
 30
0.0
 10
89.416966
 20
263.970859
 30
0.0
 10
89.205285
 20
263.900298
 30
0.0
 10
89.064163
 20
263.900298
 30
0.0
 10
88.923043
 20
263.900298
 30
0.0
  0
LWPOLYLINE
  5
168
100
AcDbEntity
  8
Layer_1
 62
7
100
AcDbPolyline
 90
2
 70
0
 10
96.402418
 20
265.382063
 30
0.0
 10
90.263686
 20
264.111979
 30
0.0
  0
LWPOLYLINE
  5
169
100
AcDbEntity
  8
Layer_1
 62
7
100
AcDbPolyline
 90
9
 70
0
 10
98.378103
 20
265.593741
 30
0.0
 10
98.166422
 20
265.593741
 30
0.0
 10
97.884183
 20
265.523183
 30
0.0
 10
97.601941
 20
265.523183
 30
0.0
 10
97.390260
 20
265.523183
 30
0.0
 10
97.108021
 20
265.523183
 30
0.0
 10
96.896341
 20
265.452622
 30
0.0
 10
96.614099
 20
265.382063
 30
0.0
 10
96.402418
 20
265.382063
 30
0.0
  0
LWPOLYLINE
  5
16a
100
AcDbEntity
  8
Layer_1
 62
7
100
AcDbPolyline
 90
2
 70
0
 10
103.387872
 20
265.593741
 30
0.0
 10
98.378103
 20
265.593741
 30
0.0
  0
LWPOLYLINE
  5
16b
100
AcDbEntity
  8
Layer_1
 62
7
100
AcDbPolyline
 90
2
 70
0
 10
103.387872
 20
264.605901
 30
0.0
 10
103.387872
 20
265.593744
 30
0.0
  0
LWPOLYLINE
  5
16c
100
AcDbEntity
  8
Layer_1
 62
7
100
AcDbPolyline
 90
9
 70
0
 10
100.353786
 20
261.571815
 30
0.0
 10
100.988828
 20
261.642376
 30
0.0
 10
101.482748
 20
261.783496
 30
0.0
 10
102.047229
 20
262.065735
 30
0.0
 10
102.470591
 20
262.418535
 30
0.0
 10
102.893952
 20
262.912458
 30
0.0
 10
103.176191
 20
263.406378
 30
0.0
 10
103.317314
 20
263.970859
 30
0.0
 10
103.387872
 20
264.605901
 30
0.0
  0
LWPOLYLINE
  5
16d
100
AcDbEntity
  8
Layer_1
 62
7
100
AcDbPolyline
 90
2
 70
0
 10
100.353786
 20
263.053578
 30
0.0
 10
100.353786
 20
261.571815
 30
0.0
  0
LWPOLYLINE
  5
16e
100
AcDbEntity
  8
Layer_1
 62
7
100
AcDbPolyline
 90
2
 70
0
 10
97.390260
 20
263.053578
 30
0.0
 10
100.353786
 20
263.053578
 30
0.0
  0
LWPOLYLINE
  5
16f
100
AcDbEntity
  8
Layer_1
 62
7
100
AcDbPolyline
 90
2
 70
0
 10
97.390260
 20
261.077892
 30
0.0
 10
97.390260
 20
263.053578
 30
0.0
  0
LWPOLYLINE
  5
170
100
AcDbEntity
  8
Layer_1
 62
7
100
AcDbPolyline
 90
9
 70
0
 10
96.402418
 20
260.090052
 30
0.0
 10
96.543540
 20
260.090052
 30
0.0
 10
96.755221
 20
260.160611
 30
0.0
 10
96.896341
 20
260.231172
 30
0.0
 10
97.108021
 20
260.372292
 30
0.0
 10
97.178580
 20
260.513414
 30
0.0
 10
97.319702
 20
260.654533
 30
0.0
 10
97.319702
 20
260.866214
 30
0.0
 10
97.390260
 20
261.077895
 30
0.0
  0
LWPOLYLINE
  5
171
100
AcDbEntity
  8
Layer_1
 62
7
100
AcDbPolyline
 90
9
 70
0
 10
11.941929
 20
261.077892
 30
0.0
 10
12.012490
 20
260.866214
 30
0.0
 10
12.012490
 20
260.654533
 30
0.0
 10
12.153609
 20
260.513414
 30
0.0
 10
12.224171
 20
260.372292
 30
0.0
 10
12.435851
 20
260.231172
 30
0.0
 10
12.576971
 20
260.160611
 30
0.0
 10
12.788652
 20
260.090052
 30
0.0
 10
12.929771
 20
260.090052
 30
0.0
  0
LWPOLYLINE
  5
172
100
AcDbEntity
  8
Layer_1
 62
7
100
AcDbPolyline
 90
2
 70
0
 10
8.978403
 20
281.540335
 30
0.0
 10
11.941929
 20
281.540335
 30
0.0
  0
LWPOLYLINE
  5
173
100
AcDbEntity
  8
Layer_1
 62
7
100
AcDbPolyline
 90
2
 70
0
 10
8.978403
 20
289.584191
 30
0.0
 10
8.978403
 20
290.501473
 30
0.0
  0
LWPOLYLINE
  5
174
100
AcDbEntity
  8
Layer_1
 62
7
100
AcDbPolyline
 90
2
 70
0
 10
18.786263
 20
289.584191
 30
0.0
 10
8.978403
 20
289.584191
 30
0.0
  0
LWPOLYLINE
  5
175
100
AcDbEntity
  8
Layer_1
 62
7
100
AcDbPolyline
 90
2
 70
0
 10
18.786263
 20
291.559875
 30
0.0
 10
18.786263
 20
289.584191
 30
0.0
  0
LWPOLYLINE
  5
176
100
AcDbEntity
  8
Layer_1
 62
7
100
AcDbPolyline
 90
2
 70
0
 10
76.927820
 20
292.547717
 30
0.0
 10
19.774106
 20
292.547717
 30
0.0
  0
LWPOLYLINE
  5
177
100
AcDbEntity
  8
Layer_1
 62
7
100
AcDbPolyline
 90
9
 70
0
 10
80.455826
 20
293.253318
 30
0.0
 10
80.032465
 20
293.041638
 30
0.0
 10
79.609106
 20
292.971078
 30
0.0
 10
79.185745
 20
292.829958
 30
0.0
 10
78.762383
 20
292.759397
 30
0.0
 10
78.268463
 20
292.688837
 30
0.0
 10
77.845102
 20
292.618277
 30
0.0
 10
77.421740
 20
292.547717
 30
0.0
 10
76.927820
 20
292.547717
 30
0.0
  0
LWPOLYLINE
  5
178
100
AcDbEntity
  8
Layer_1
 62
7
100
AcDbPolyline
 90
2
 70
0
 10
83.631032
 20
294.452841
 30
0.0
 10
80.455826
 20
293.253318
 30
0.0
  0
LWPOLYLINE
  5
179
100
AcDbEntity
  8
Layer_1
 62
7
100
AcDbPolyline
 90
9
 70
0
 10
87.229600
 20
295.087882
 30
0.0
 10
86.735680
 20
295.087882
 30
0.0
 10
86.312319
 20
295.017322
 30
0.0
 10
85.818399
 20
294.946762
 30
0.0
 10
85.395037
 20
294.876202
 30
0.0
 10
84.971676
 20
294.805642
 30
0.0
 10
84.548314
 20
294.735081
 30
0.0
 10
84.054394
 20
294.593961
 30
0.0
 10
83.631032
 20
294.452841
 30
0.0
  0
LWPOLYLINE
  5
17a
100
AcDbEntity
  8
Layer_1
 62
7
100
AcDbPolyline
 90
2
 70
0
 10
90.969287
 20
295.087882
 30
0.0
 10
87.229600
 20
295.087882
 30
0.0
  0
LWPOLYLINE
  5
17b
100
AcDbEntity
  8
Layer_1
 62
7
100
AcDbPolyline
 90
9
 70
0
 10
97.390260
 20
289.584191
 30
0.0
 10
97.108021
 20
290.713153
 30
0.0
 10
96.614099
 20
291.771555
 30
0.0
 10
95.979059
 20
292.688837
 30
0.0
 10
95.202897
 20
293.535559
 30
0.0
 10
94.215054
 20
294.170600
 30
0.0
 10
93.227212
 20
294.664521
 30
0.0
 10
92.098249
 20
294.946762
 30
0.0
 10
90.969287
 20
295.087882
 30
0.0
  0
LWPOLYLINE
  5
17c
100
AcDbEntity
  8
Layer_1
 62
7
100
AcDbPolyline
 90
2
 70
0
 10
100.353786
 20
289.584191
 30
0.0
 10
97.390260
 20
289.584191
 30
0.0
  0
LWPOLYLINE
  5
17d
100
AcDbEntity
  8
Layer_1
 62
7
100
AcDbPolyline
 90
9
 70
0
 10
52.584570
 20
276.248324
 30
0.0
 10
52.796251
 20
276.248324
 30
0.0
 10
53.007932
 20
276.177764
 30
0.0
 10
53.149051
 20
276.107204
 30
0.0
 10
53.290174
 20
275.966084
 30
0.0
 10
53.431293
 20
275.824963
 30
0.0
 10
53.572413
 20
275.683843
 30
0.0
 10
53.572413
 20
275.472163
 30
0.0
 10
53.642974
 20
275.260482
 30
0.0
  0
LWPOLYLINE
  5
17e
100
AcDbEntity
  8
Layer_1
 62
7
100
AcDbPolyline
 90
9
 70
0
 10
34.591735
 20
275.260482
 30
0.0
 10
34.662296
 20
275.472163
 30
0.0
 10
34.662296
 20
275.683843
 30
0.0
 10
34.803416
 20
275.824963
 30
0.0
 10
34.873974
 20
275.966084
 30
0.0
 10
35.085655
 20
276.107204
 30
0.0
 10
35.226777
 20
276.177764
 30
0.0
 10
35.438455
 20
276.248324
 30
0.0
 10
35.650136
 20
276.248324
 30
0.0
  0
LWPOLYLINE
  5
17f
100
AcDbEntity
  8
Layer_1
 62
7
100
AcDbPolyline
 90
9
 70
0
 10
35.650136
 20
268.275027
 30
0.0
 10
35.438455
 20
268.275027
 30
0.0
 10
35.226777
 20
268.345589
 30
0.0
 10
35.085655
 20
268.416147
 30
0.0
 10
34.873974
 20
268.557269
 30
0.0
 10
34.803416
 20
268.698389
 30
0.0
 10
34.662296
 20
268.910069
 30
0.0
 10
34.662296
 20
269.051190
 30
0.0
 10
34.591735
 20
269.262870
 30
0.0
  0
LWPOLYLINE
  5
180
100
AcDbEntity
  8
Layer_1
 62
7
100
AcDbPolyline
 90
9
 70
0
 10
53.642974
 20
269.262870
 30
0.0
 10
53.572413
 20
269.051190
 30
0.0
 10
53.572413
 20
268.910069
 30
0.0
 10
53.431293
 20
268.698389
 30
0.0
 10
53.290174
 20
268.557269
 30
0.0
 10
53.149051
 20
268.416147
 30
0.0
 10
53.007932
 20
268.345589
 30
0.0
 10
52.796251
 20
268.275027
 30
0.0
 10
52.584570
 20
268.275027
 30
0.0
  0
LWPOLYLINE
  5
181
100
AcDbEntity
  8
Layer_1
 62
7
100
AcDbPolyline
 90
2
 70
0
 10
53.642974
 20
269.262870
 30
0.0
 10
53.642974
 20
275.260482
 30
0.0
  0
LWPOLYLINE
  5
182
100
AcDbEntity
  8
Layer_1
 62
7
100
AcDbPolyline
 90
17
 70
0
 10
93.368334
 20
292.900518
 30
0.0
 10
92.662731
 20
292.759397
 30
0.0
 10
92.098249
 20
292.336036
 30
0.0
 10
91.674891
 20
291.771555
 30
0.0
 10
91.533768
 20
291.065954
 30
0.0
 10
91.674891
 20
290.360353
 30
0.0
 10
92.098249
 20
289.795871
 30
0.0
 10
92.662731
 20
289.372510
 30
0.0
 10
93.368334
 20
289.231390
 30
0.0
 10
94.073935
 20
289.372510
 30
0.0
 10
94.638416
 20
289.795871
 30
0.0
 10
95.061778
 20
290.360353
 30
0.0
 10
95.202897
 20
291.065954
 30
0.0
 10
95.061778
 20
291.771555
 30
0.0
 10
94.638416
 20
292.336036
 30
0.0
 10
94.073935
 20
292.759397
 30
0.0
 10
93.368334
 20
292.900518
 30
0.0
  0
LWPOLYLINE
  5
183
100
AcDbEntity
  8
Layer_1
 62
7
100
AcDbPolyline
 90
9
 70
0
 10
5.944317
 20
284.574421
 30
0.0
 10
6.014878
 20
284.009940
 30
0.0
 10
6.226559
 20
283.445458
 30
0.0
 10
6.438240
 20
282.880977
 30
0.0
 10
6.861598
 20
282.457617
 30
0.0
 10
7.284960
 20
282.104816
 30
0.0
 10
7.849441
 20
281.822575
 30
0.0
 10
8.343361
 20
281.610895
 30
0.0
 10
8.978403
 20
281.540335
 30
0.0
  0
LWPOLYLINE
  5
184
100
AcDbEntity
  8
Layer_1
 62
7
100
AcDbPolyline
 90
9
 70
0
 10
8.343361
 20
290.995394
 30
0.0
 10
7.849441
 20
290.854274
 30
0.0
 10
7.426079
 20
290.642593
 30
0.0
 10
7.002721
 20
290.360353
 30
0.0
 10
6.649918
 20
289.936992
 30
0.0
 10
6.367678
 20
289.513631
 30
0.0
 10
6.155998
 20
289.090270
 30
0.0
 10
6.014878
 20
288.596349
 30
0.0
 10
5.944317
 20
288.102428
 30
0.0
  0
LWPOLYLINE
  5
185
100
AcDbEntity
  8
Layer_1
 62
7
100
AcDbPolyline
 90
9
 70
0
 10
19.774106
 20
292.547717
 30
0.0
 10
19.562425
 20
292.547717
 30
0.0
 10
19.350744
 20
292.477157
 30
0.0
 10
19.209625
 20
292.406597
 30
0.0
 10
19.068502
 20
292.265476
 30
0.0
 10
18.927383
 20
292.124356
 30
0.0
 10
18.856825
 20
291.983236
 30
0.0
 10
18.786263
 20
291.771555
 30
0.0
 10
18.786263
 20
291.559875
 30
0.0
  0
LWPOLYLINE
  5
186
100
AcDbEntity
  8
Layer_1
 62
7
100
AcDbPolyline
 90
2
 70
0
 10
35.650136
 20
268.275027
 30
0.0
 10
52.584570
 20
268.275027
 30
0.0
  0
LWPOLYLINE
  5
187
100
AcDbEntity
  8
Layer_1
 62
7
100
AcDbPolyline
 90
2
 70
0
 10
34.591735
 20
275.260482
 30
0.0
 10
34.591735
 20
269.262870
 30
0.0
  0
LWPOLYLINE
  5
188
100
AcDbEntity
  8
Layer_1
 62
7
100
AcDbPolyline
 90
2
 70
0
 10
52.584570
 20
276.248324
 30
0.0
 10
35.650136
 20
276.248324
 30
0.0
  0
LWPOLYLINE
  5
189
100
AcDbEntity
  8
Layer_1
 62
7
100
AcDbPolyline
 90
2
 70
0
 10
31.698768
 20
263.053578
 30
0.0
 10
43.693994
 20
263.053578
 30
0.0
  0
LWPOLYLINE
  5
18a
100
AcDbEntity
  8
Layer_1
 62
7
100
AcDbPolyline
 90
2
 70
0
 10
31.698768
 20
266.087664
 30
0.0
 10
31.698768
 20
263.053578
 30
0.0
  0
LWPOLYLINE
  5
18b
100
AcDbEntity
  8
Layer_1
 62
7
100
AcDbPolyline
 90
2
 70
0
 10
43.693994
 20
266.087664
 30
0.0
 10
31.698768
 20
266.087664
 30
0.0
  0
LWPOLYLINE
  5
18c
100
AcDbEntity
  8
Layer_1
 62
7
100
AcDbPolyline
 90
2
 70
0
 10
43.693994
 20
263.053578
 30
0.0
 10
43.693994
 20
266.087664
 30
0.0
  0
LWPOLYLINE
  5
18d
100
AcDbEntity
  8
Layer_1
 62
7
100
AcDbPolyline
 90
2
 70
0
 10
5.944317
 20
288.102428
 30
0.0
 10
5.944317
 20
284.574421
 30
0.0
  0
LWPOLYLINE
  5
18e
100
AcDbEntity
  8
Layer_1
 62
7
100
AcDbPolyline
 90
9
 70
0
 10
8.978403
 20
290.501473
 30
0.0
 10
8.978403
 20
290.642593
 30
0.0
 10
8.907842
 20
290.713153
 30
0.0
 10
8.837284
 20
290.854274
 30
0.0
 10
8.766723
 20
290.924834
 30
0.0
 10
8.696164
 20
290.995394
 30
0.0
 10
8.555042
 20
290.995394
 30
0.0
 10
8.484483
 20
290.995394
 30
0.0
 10
8.343361
 20
290.995394
 30
0.0
  0
LWPOLYLINE
  5
18f
100
AcDbEntity
  8
Layer_1
 62
7
100
AcDbPolyline
 90
9
 70
0
 10
8.978403
 20
271.097434
 30
0.0
 10
8.343361
 20
271.026874
 30
0.0
 10
7.849441
 20
270.815193
 30
0.0
 10
7.284960
 20
270.532953
 30
0.0
 10
6.861598
 20
270.180152
 30
0.0
 10
6.438240
 20
269.756791
 30
0.0
 10
6.226559
 20
269.192310
 30
0.0
 10
6.014878
 20
268.627828
 30
0.0
 10
5.944317
 20
268.063347
 30
0.0
  0
LWPOLYLINE
  5
190
100
AcDbEntity
  8
Layer_1
 62
7
100
AcDbPolyline
 90
9
 70
0
 10
5.944317
 20
264.605901
 30
0.0
 10
6.014878
 20
263.970859
 30
0.0
 10
6.226559
 20
263.406378
 30
0.0
 10
6.438240
 20
262.912458
 30
0.0
 10
6.861598
 20
262.418535
 30
0.0
 10
7.284960
 20
262.065735
 30
0.0
 10
7.849441
 20
261.783496
 30
0.0
 10
8.343361
 20
261.642376
 30
0.0
 10
8.978403
 20
261.571815
 30
0.0
  0
LWPOLYLINE
  5
191
100
AcDbEntity
  8
Layer_1
 62
7
100
AcDbPolyline
 90
2
 70
0
 10
12.929771
 20
260.090052
 30
0.0
 10
96.402418
 20
260.090052
 30
0.0
  0
LWPOLYLINE
  5
192
100
AcDbEntity
  8
Layer_1
 62
7
100
AcDbPolyline
 90
2
 70
0
 10
11.941929
 20
263.053578
 30
0.0
 10
11.941929
 20
261.077892
 30
0.0
  0
LWPOLYLINE
  5
193
100
AcDbEntity
  8
Layer_1
 62
7
100
AcDbPolyline
 90
2
 70
0
 10
8.978403
 20
263.053578
 30
0.0
 10
11.941929
 20
263.053578
 30
0.0
  0
LWPOLYLINE
  5
194
100
AcDbEntity
  8
Layer_1
 62
7
100
AcDbPolyline
 90
2
 70
0
 10
8.978403
 20
261.571815
 30
0.0
 10
8.978403
 20
263.053578
 30
0.0
  0
LWPOLYLINE
  5
195
100
AcDbEntity
  8
Layer_1
 62
7
100
AcDbPolyline
 90
2
 70
0
 10
5.944317
 20
265.593741
 30
0.0
 10
5.944317
 20
264.605901
 30
0.0
  0
LWPOLYLINE
  5
196
100
AcDbEntity
  8
Layer_1
 62
7
100
AcDbPolyline
 90
2
 70
0
 10
10.954089
 20
265.593741
 30
0.0
 10
5.944317
 20
265.593741
 30
0.0
  0
LWPOLYLINE
  5
197
100
AcDbEntity
  8
Layer_1
 62
7
100
AcDbPolyline
 90
9
 70
0
 10
12.929771
 20
265.382063
 30
0.0
 10
12.718090
 20
265.382063
 30
0.0
 10
12.435851
 20
265.452622
 30
0.0
 10
12.224171
 20
265.523183
 30
0.0
 10
11.941929
 20
265.523183
 30
0.0
 10
11.730248
 20
265.523183
 30
0.0
 10
11.448009
 20
265.523183
 30
0.0
 10
11.165767
 20
265.593744
 30
0.0
 10
10.954089
 20
265.593744
 30
0.0
  0
LWPOLYLINE
  5
198
100
AcDbEntity
  8
Layer_1
 62
7
100
AcDbPolyline
 90
2
 70
0
 10
19.068502
 20
264.111979
 30
0.0
 10
12.929771
 20
265.382063
 30
0.0
  0
LWPOLYLINE
  5
199
100
AcDbEntity
  8
Layer_1
 62
7
100
AcDbPolyline
 90
9
 70
0
 10
20.409146
 20
263.900301
 30
0.0
 10
20.268026
 20
263.900301
 30
0.0
 10
20.126906
 20
263.900301
 30
0.0
 10
19.915226
 20
263.970859
 30
0.0
 10
19.774106
 20
263.970859
 30
0.0
 10
19.562425
 20
264.041420
 30
0.0
 10
19.421306
 20
264.041420
 30
0.0
 10
19.280183
 20
264.041420
 30
0.0
 10
19.068502
 20
264.111979
 30
0.0
  0
LWPOLYLINE
  5
19a
100
AcDbEntity
  8
Layer_1
 62
7
100
AcDbPolyline
 90
2
 70
0
 10
25.348356
 20
263.194697
 30
0.0
 10
20.409146
 20
263.900301
 30
0.0
  0
LWPOLYLINE
  5
19b
100
AcDbEntity
  8
Layer_1
 62
7
100
AcDbPolyline
 90
9
 70
0
 10
25.348356
 20
264.747021
 30
0.0
 10
25.630598
 20
264.676460
 30
0.0
 10
25.842276
 20
264.535340
 30
0.0
 10
26.053957
 20
264.253101
 30
0.0
 10
26.053957
 20
263.970859
 30
0.0
 10
26.053957
 20
263.688620
 30
0.0
 10
25.842276
 20
263.406378
 30
0.0
 10
25.630598
 20
263.265258
 30
0.0
 10
25.348356
 20
263.194697
 30
0.0
  0
LWPOLYLINE
  5
19c
100
AcDbEntity
  8
Layer_1
 62
7
100
AcDbPolyline
 90
2
 70
0
 10
20.409146
 20
265.382063
 30
0.0
 10
25.348356
 20
264.747021
 30
0.0
  0
LWPOLYLINE
  5
19d
100
AcDbEntity
  8
Layer_1
 62
7
100
AcDbPolyline
 90
9
 70
0
 10
19.068502
 20
265.593741
 30
0.0
 10
19.280183
 20
265.593741
 30
0.0
 10
19.421306
 20
265.523183
 30
0.0
 10
19.562425
 20
265.523183
 30
0.0
 10
19.774106
 20
265.452622
 30
0.0
 10
19.915226
 20
265.452622
 30
0.0
 10
20.126906
 20
265.452622
 30
0.0
 10
20.268026
 20
265.382063
 30
0.0
 10
20.409146
 20
265.382063
 30
0.0
  0
LWPOLYLINE
  5
19e
100
AcDbEntity
  8
Layer_1
 62
7
100
AcDbPolyline
 90
2
 70
0
 10
12.929771
 20
266.863826
 30
0.0
 10
19.068502
 20
265.593741
 30
0.0
  0
LWPOLYLINE
  5
19f
100
AcDbEntity
  8
Layer_1
 62
7
100
AcDbPolyline
 90
9
 70
0
 10
10.954089
 20
267.075507
 30
0.0
 10
11.165767
 20
267.075507
 30
0.0
 10
11.448009
 20
267.075507
 30
0.0
 10
11.730248
 20
267.075507
 30
0.0
 10
11.941929
 20
267.004946
 30
0.0
 10
12.224171
 20
267.004946
 30
0.0
 10
12.435851
 20
266.934384
 30
0.0
 10
12.718090
 20
266.934384
 30
0.0
 10
12.929771
 20
266.863826
 30
0.0
  0
LWPOLYLINE
  5
1a0
100
AcDbEntity
  8
Layer_1
 62
7
100
AcDbPolyline
 90
2
 70
0
 10
5.944317
 20
267.075507
 30
0.0
 10
10.954089
 20
267.075507
 30
0.0
  0
LWPOLYLINE
  5
1a1
100
AcDbEntity
  8
Layer_1
 62
7
100
AcDbPolyline
 90
2
 70
0
 10
5.944317
 20
268.063347
 30
0.0
 10
5.944317
 20
267.075507
 30
0.0
  0
LWPOLYLINE
  5
1a2
100
AcDbEntity
  8
Layer_1
 62
7
100
AcDbPolyline
 90
2
 70
0
 10
11.941929
 20
271.097434
 30
0.0
 10
8.978403
 20
271.097434
 30
0.0
  0
LWPOLYLINE
  5
1a3
100
AcDbEntity
  8
Layer_1
 62
7
100
AcDbPolyline
 90
2
 70
0
 10
11.941929
 20
281.540335
 30
0.0
 10
11.941929
 20
271.097434
 30
0.0
  0
LWPOLYLINE
  5
1a4
100
AcDbEntity
  8
Layer_1
 62
7
100
AcDbPolyline
 90
3
 70
0
 10
195.216357
 20
254.641134
 30
0.0
 10
195.216357
 20
266.636358
 30
0.0
 10
192.252831
 20
266.636358
 30
0.0
  0
LWPOLYLINE
  5
1a5
100
AcDbEntity
  8
Layer_1
 62
7
100
AcDbPolyline
 90
2
 70
0
 10
192.252831
 20
254.641134
 30
0.0
 10
195.216357
 20
254.641134
 30
0.0
  0
LWPOLYLINE
  5
1a6
100
AcDbEntity
  8
Layer_1
 62
7
100
AcDbPolyline
 90
9
 70
0
 10
223.581533
 20
272.633969
 30
0.0
 10
223.722652
 20
273.057331
 30
0.0
 10
223.863775
 20
273.551251
 30
0.0
 10
224.004894
 20
273.974612
 30
0.0
 10
224.075456
 20
274.397974
 30
0.0
 10
224.146014
 20
274.821336
 30
0.0
 10
224.216575
 20
275.315255
 30
0.0
 10
224.216575
 20
275.738617
 30
0.0
 10
224.216575
 20
276.232537
 30
0.0
  0
LWPOLYLINE
  5
1a7
100
AcDbEntity
  8
Layer_1
 62
7
100
AcDbPolyline
 90
2
 70
0
 10
222.382012
 20
269.458763
 30
0.0
 10
223.581533
 20
272.633969
 30
0.0
  0
LWPOLYLINE
  5
1a8
100
AcDbEntity
  8
Layer_1
 62
7
100
AcDbPolyline
 90
9
 70
0
 10
221.746970
 20
265.930757
 30
0.0
 10
221.746970
 20
266.424677
 30
0.0
 10
221.817531
 20
266.848038
 30
0.0
 10
221.817531
 20
267.271400
 30
0.0
 10
221.888090
 20
267.765320
 30
0.0
 10
222.029209
 20
268.188681
 30
0.0
 10
222.099770
 20
268.612043
 30
0.0
 10
222.240890
 20
269.035402
 30
0.0
 10
222.382012
 20
269.458763
 30
0.0
  0
LWPOLYLINE
  5
1a9
100
AcDbEntity
  8
Layer_1
 62
7
100
AcDbPolyline
 90
2
 70
0
 10
218.712883
 20
207.789200
 30
0.0
 10
220.759127
 20
207.789200
 30
0.0
  0
LWPOLYLINE
  5
1aa
100
AcDbEntity
  8
Layer_1
 62
7
100
AcDbPolyline
 90
2
 70
0
 10
218.712883
 20
197.981340
 30
0.0
 10
218.712883
 20
207.789200
 30
0.0
  0
LWPOLYLINE
  5
1ab
100
AcDbEntity
  8
Layer_1
 62
7
100
AcDbPolyline
 90
2
 70
0
 10
219.700726
 20
197.981340
 30
0.0
 10
218.712883
 20
197.981340
 30
0.0
  0
LWPOLYLINE
  5
1ac
100
AcDbEntity
  8
Layer_1
 62
7
100
AcDbPolyline
 90
9
 70
0
 10
220.194646
 20
197.346298
 30
0.0
 10
220.194646
 20
197.487420
 30
0.0
 10
220.194646
 20
197.557979
 30
0.0
 10
220.124088
 20
197.699101
 30
0.0
 10
220.053527
 20
197.769659
 30
0.0
 10
219.982965
 20
197.840221
 30
0.0
 10
219.912407
 20
197.910779
 30
0.0
 10
219.771285
 20
197.981340
 30
0.0
 10
219.700726
 20
197.981340
 30
0.0
  0
LWPOLYLINE
  5
1ad
100
AcDbEntity
  8
Layer_1
 62
7
100
AcDbPolyline
 90
9
 70
0
 10
217.231121
 20
194.947254
 30
0.0
 10
217.725041
 20
195.017815
 30
0.0
 10
218.218964
 20
195.158935
 30
0.0
 10
218.712883
 20
195.370615
 30
0.0
 10
219.136245
 20
195.652854
 30
0.0
 10
219.489045
 20
196.005658
 30
0.0
 10
219.841846
 20
196.429016
 30
0.0
 10
220.053527
 20
196.852378
 30
0.0
 10
220.194646
 20
197.346298
 30
0.0
  0
LWPOLYLINE
  5
1ae
100
AcDbEntity
  8
Layer_1
 62
7
100
AcDbPolyline
 90
2
 70
0
 10
213.773673
 20
194.947254
 30
0.0
 10
217.231121
 20
194.947254
 30
0.0
  0
LWPOLYLINE
  5
1af
100
AcDbEntity
  8
Layer_1
 62
7
100
AcDbPolyline
 90
9
 70
0
 10
210.739586
 20
197.981340
 30
0.0
 10
210.810148
 20
197.346298
 30
0.0
 10
210.951267
 20
196.852378
 30
0.0
 10
211.233509
 20
196.287897
 30
0.0
 10
211.656871
 20
195.864535
 30
0.0
 10
212.080229
 20
195.441176
 30
0.0
 10
212.574152
 20
195.229496
 30
0.0
 10
213.138633
 20
195.017815
 30
0.0
 10
213.773673
 20
194.947254
 30
0.0
  0
LWPOLYLINE
  5
1b0
100
AcDbEntity
  8
Layer_1
 62
7
100
AcDbPolyline
 90
2
 70
0
 10
210.739586
 20
259.298103
 30
0.0
 10
210.739586
 20
197.981340
 30
0.0
  0
LWPOLYLINE
  5
1b1
100
AcDbEntity
  8
Layer_1
 62
7
100
AcDbPolyline
 90
9
 70
0
 10
209.751747
 20
260.285946
 30
0.0
 10
209.963427
 20
260.285946
 30
0.0
 10
210.104547
 20
260.215384
 30
0.0
 10
210.316228
 20
260.074265
 30
0.0
 10
210.457347
 20
260.003704
 30
0.0
 10
210.598467
 20
259.792026
 30
0.0
 10
210.669028
 20
259.650903
 30
0.0
 10
210.739586
 20
259.439223
 30
0.0
 10
210.739586
 20
259.298103
 30
0.0
  0
LWPOLYLINE
  5
1b2
100
AcDbEntity
  8
Layer_1
 62
7
100
AcDbPolyline
 90
9
 70
0
 10
208.763904
 20
259.298103
 30
0.0
 10
208.763904
 20
259.439223
 30
0.0
 10
208.834465
 20
259.650903
 30
0.0
 10
208.905023
 20
259.792026
 30
0.0
 10
209.046143
 20
260.003704
 30
0.0
 10
209.187265
 20
260.074265
 30
0.0
 10
209.328385
 20
260.215384
 30
0.0
 10
209.540066
 20
260.285946
 30
0.0
 10
209.751747
 20
260.285946
 30
0.0
  0
LWPOLYLINE
  5
1b3
100
AcDbEntity
  8
Layer_1
 62
7
100
AcDbPolyline
 90
2
 70
0
 10
208.763904
 20
200.944865
 30
0.0
 10
208.763904
 20
259.298103
 30
0.0
  0
LWPOLYLINE
  5
1b4
100
AcDbEntity
  8
Layer_1
 62
7
100
AcDbPolyline
 90
2
 70
0
 10
200.226126
 20
200.944865
 30
0.0
 10
208.763904
 20
200.944865
 30
0.0
  0
LWPOLYLINE
  5
1b5
100
AcDbEntity
  8
Layer_1
 62
7
100
AcDbPolyline
 90
2
 70
0
 10
200.226126
 20
197.981340
 30
0.0
 10
200.226126
 20
200.944865
 30
0.0
  0
LWPOLYLINE
  5
1b6
100
AcDbEntity
  8
Layer_1
 62
7
100
AcDbPolyline
 90
9
 70
0
 10
197.262600
 20
194.947254
 30
0.0
 10
197.827082
 20
195.017815
 30
0.0
 10
198.391563
 20
195.229496
 30
0.0
 10
198.885483
 20
195.441176
 30
0.0
 10
199.379405
 20
195.864535
 30
0.0
 10
199.732206
 20
196.287897
 30
0.0
 10
200.014445
 20
196.852378
 30
0.0
 10
200.155567
 20
197.346298
 30
0.0
 10
200.226126
 20
197.981340
 30
0.0
  0
LWPOLYLINE
  5
1b7
100
AcDbEntity
  8
Layer_1
 62
7
100
AcDbPolyline
 90
2
 70
0
 10
196.274758
 20
194.947254
 30
0.0
 10
197.262600
 20
194.947254
 30
0.0
  0
LWPOLYLINE
  5
1b8
100
AcDbEntity
  8
Layer_1
 62
7
100
AcDbPolyline
 90
2
 70
0
 10
196.274758
 20
199.957026
 30
0.0
 10
196.274758
 20
194.947254
 30
0.0
  0
LWPOLYLINE
  5
1b9
100
AcDbEntity
  8
Layer_1
 62
7
100
AcDbPolyline
 90
9
 70
0
 10
196.063077
 20
201.932708
 30
0.0
 10
196.063077
 20
201.721027
 30
0.0
 10
196.133638
 20
201.438788
 30
0.0
 10
196.133638
 20
201.227107
 30
0.0
 10
196.204199
 20
200.944865
 30
0.0
 10
196.204199
 20
200.733185
 30
0.0
 10
196.204199
 20
200.450945
 30
0.0
 10
196.274758
 20
200.168704
 30
0.0
 10
196.274758
 20
199.957026
 30
0.0
  0
LWPOLYLINE
  5
1ba
100
AcDbEntity
  8
Layer_1
 62
7
100
AcDbPolyline
 90
2
 70
0
 10
194.792995
 20
208.071439
 30
0.0
 10
196.063077
 20
201.932708
 30
0.0
  0
LWPOLYLINE
  5
1bb
100
AcDbEntity
  8
Layer_1
 62
7
100
AcDbPolyline
 90
9
 70
0
 10
194.581314
 20
209.412082
 30
0.0
 10
194.581314
 20
209.270963
 30
0.0
 10
194.581314
 20
209.129843
 30
0.0
 10
194.651876
 20
208.918162
 30
0.0
 10
194.651876
 20
208.777043
 30
0.0
 10
194.651876
 20
208.565362
 30
0.0
 10
194.722437
 20
208.424243
 30
0.0
 10
194.722437
 20
208.283120
 30
0.0
 10
194.792995
 20
208.071439
 30
0.0
  0
LWPOLYLINE
  5
1bc
100
AcDbEntity
  8
Layer_1
 62
7
100
AcDbPolyline
 90
2
 70
0
 10
193.875714
 20
214.351293
 30
0.0
 10
194.581314
 20
209.412082
 30
0.0
  0
LWPOLYLINE
  5
1bd
100
AcDbEntity
  8
Layer_1
 62
7
100
AcDbPolyline
 90
9
 70
0
 10
192.393951
 20
214.351293
 30
0.0
 10
192.464512
 20
214.633535
 30
0.0
 10
192.605632
 20
214.845213
 30
0.0
 10
192.887871
 20
215.056894
 30
0.0
 10
193.170113
 20
215.056894
 30
0.0
 10
193.452352
 20
215.056894
 30
0.0
 10
193.664033
 20
214.845213
 30
0.0
 10
193.805152
 20
214.633535
 30
0.0
 10
193.875714
 20
214.351293
 30
0.0
  0
LWPOLYLINE
  5
1be
100
AcDbEntity
  8
Layer_1
 62
7
100
AcDbPolyline
 90
9
 70
0
 10
193.311232
 20
208.071439
 30
0.0
 10
193.240671
 20
208.283120
 30
0.0
 10
193.240671
 20
208.424243
 30
0.0
 10
193.170113
 20
208.565362
 30
0.0
 10
193.170113
 20
208.777043
 30
0.0
 10
193.099552
 20
208.918162
 30
0.0
 10
193.099552
 20
209.129843
 30
0.0
 10
193.099552
 20
209.270963
 30
0.0
 10
193.028993
 20
209.412082
 30
0.0
  0
LWPOLYLINE
  5
1bf
100
AcDbEntity
  8
Layer_1
 62
7
100
AcDbPolyline
 90
2
 70
0
 10
194.510756
 20
201.932708
 30
0.0
 10
193.311232
 20
208.071439
 30
0.0
  0
LWPOLYLINE
  5
1c0
100
AcDbEntity
  8
Layer_1
 62
7
100
AcDbPolyline
 90
9
 70
0
 10
194.722437
 20
199.957026
 30
0.0
 10
194.722437
 20
200.168704
 30
0.0
 10
194.722437
 20
200.450945
 30
0.0
 10
194.722437
 20
200.733185
 30
0.0
 10
194.722437
 20
200.944865
 30
0.0
 10
194.651876
 20
201.227107
 30
0.0
 10
194.651876
 20
201.438788
 30
0.0
 10
194.581314
 20
201.721027
 30
0.0
 10
194.510756
 20
201.932708
 30
0.0
  0
LWPOLYLINE
  5
1c1
100
AcDbEntity
  8
Layer_1
 62
7
100
AcDbPolyline
 90
2
 70
0
 10
194.722437
 20
194.947254
 30
0.0
 10
194.722437
 20
199.957026
 30
0.0
  0
LWPOLYLINE
  5
1c2
100
AcDbEntity
  8
Layer_1
 62
7
100
AcDbPolyline
 90
2
 70
0
 10
193.734594
 20
194.947254
 30
0.0
 10
194.722437
 20
194.947254
 30
0.0
  0
LWPOLYLINE
  5
1c3
100
AcDbEntity
  8
Layer_1
 62
7
100
AcDbPolyline
 90
9
 70
0
 10
190.771069
 20
197.981340
 30
0.0
 10
190.771069
 20
197.346298
 30
0.0
 10
190.982747
 20
196.852378
 30
0.0
 10
191.264989
 20
196.287897
 30
0.0
 10
191.617789
 20
195.864535
 30
0.0
 10
192.111709
 20
195.441176
 30
0.0
 10
192.605632
 20
195.229496
 30
0.0
 10
193.170113
 20
195.017815
 30
0.0
 10
193.734594
 20
194.947254
 30
0.0
  0
LWPOLYLINE
  5
1c4
100
AcDbEntity
  8
Layer_1
 62
7
100
AcDbPolyline
 90
2
 70
0
 10
192.252831
 20
197.981340
 30
0.0
 10
190.771069
 20
197.981340
 30
0.0
  0
LWPOLYLINE
  5
1c5
100
AcDbEntity
  8
Layer_1
 62
7
100
AcDbPolyline
 90
2
 70
0
 10
192.252831
 20
200.944865
 30
0.0
 10
192.252831
 20
197.981340
 30
0.0
  0
LWPOLYLINE
  5
1c6
100
AcDbEntity
  8
Layer_1
 62
7
100
AcDbPolyline
 90
2
 70
0
 10
190.277146
 20
200.944865
 30
0.0
 10
192.252831
 20
200.944865
 30
0.0
  0
LWPOLYLINE
  5
1c7
100
AcDbEntity
  8
Layer_1
 62
7
100
AcDbPolyline
 90
9
 70
0
 10
189.218745
 20
201.932708
 30
0.0
 10
189.289303
 20
201.791589
 30
0.0
 10
189.289303
 20
201.579908
 30
0.0
 10
189.430426
 20
201.438788
 30
0.0
 10
189.571545
 20
201.227107
 30
0.0
 10
189.712665
 20
201.156546
 30
0.0
 10
189.853784
 20
201.015427
 30
0.0
 10
190.065465
 20
201.015427
 30
0.0
 10
190.277146
 20
200.944865
 30
0.0
  0
LWPOLYLINE
  5
1c8
100
AcDbEntity
  8
Layer_1
 62
7
100
AcDbPolyline
 90
2
 70
0
 10
189.218745
 20
285.405355
 30
0.0
 10
189.218745
 20
201.932708
 30
0.0
  0
LWPOLYLINE
  5
1c9
100
AcDbEntity
  8
Layer_1
 62
7
100
AcDbPolyline
 90
9
 70
0
 10
190.277146
 20
286.393197
 30
0.0
 10
190.065465
 20
286.322639
 30
0.0
 10
189.853784
 20
286.322639
 30
0.0
 10
189.712665
 20
286.181517
 30
0.0
 10
189.571545
 20
286.110958
 30
0.0
 10
189.430426
 20
285.899277
 30
0.0
 10
189.289303
 20
285.758158
 30
0.0
 10
189.289303
 20
285.546477
 30
0.0
 10
189.218745
 20
285.405355
 30
0.0
  0
LWPOLYLINE
  5
1ca
100
AcDbEntity
  8
Layer_1
 62
7
100
AcDbPolyline
 90
2
 70
0
 10
192.252831
 20
289.356723
 30
0.0
 10
192.252831
 20
286.393197
 30
0.0
  0
LWPOLYLINE
  5
1cb
100
AcDbEntity
  8
Layer_1
 62
7
100
AcDbPolyline
 90
2
 70
0
 10
190.771069
 20
289.356723
 30
0.0
 10
192.252831
 20
289.356723
 30
0.0
  0
LWPOLYLINE
  5
1cc
100
AcDbEntity
  8
Layer_1
 62
7
100
AcDbPolyline
 90
9
 70
0
 10
193.734594
 20
292.390809
 30
0.0
 10
193.170113
 20
292.320251
 30
0.0
 10
192.605632
 20
292.179128
 30
0.0
 10
192.111709
 20
291.896889
 30
0.0
 10
191.617789
 20
291.473528
 30
0.0
 10
191.264989
 20
291.050166
 30
0.0
 10
190.982747
 20
290.485685
 30
0.0
 10
190.771069
 20
289.991765
 30
0.0
 10
190.771069
 20
289.356723
 30
0.0
  0
LWPOLYLINE
  5
1cd
100
AcDbEntity
  8
Layer_1
 62
7
100
AcDbPolyline
 90
2
 70
0
 10
194.722437
 20
287.381040
 30
0.0
 10
194.722437
 20
292.390809
 30
0.0
  0
LWPOLYLINE
  5
1ce
100
AcDbEntity
  8
Layer_1
 62
7
100
AcDbPolyline
 90
9
 70
0
 10
194.510756
 20
285.405355
 30
0.0
 10
194.581314
 20
285.617035
 30
0.0
 10
194.651876
 20
285.899277
 30
0.0
 10
194.651876
 20
286.110958
 30
0.0
 10
194.722437
 20
286.393197
 30
0.0
 10
194.722437
 20
286.604878
 30
0.0
 10
194.722437
 20
286.887120
 30
0.0
 10
194.722437
 20
287.169359
 30
0.0
 10
194.722437
 20
287.381040
 30
0.0
  0
LWPOLYLINE
  5
1cf
100
AcDbEntity
  8
Layer_1
 62
7
100
AcDbPolyline
 90
2
 70
0
 10
193.311232
 20
279.266623
 30
0.0
 10
194.510756
 20
285.405355
 30
0.0
  0
LWPOLYLINE
  5
1d0
100
AcDbEntity
  8
Layer_1
 62
7
100
AcDbPolyline
 90
9
 70
0
 10
193.028993
 20
277.925980
 30
0.0
 10
193.099552
 20
278.067100
 30
0.0
 10
193.099552
 20
278.208222
 30
0.0
 10
193.099552
 20
278.419903
 30
0.0
 10
193.170113
 20
278.561023
 30
0.0
 10
193.170113
 20
278.772703
 30
0.0
 10
193.240671
 20
278.913823
 30
0.0
 10
193.240671
 20
279.125504
 30
0.0
 10
193.311232
 20
279.266623
 30
0.0
  0
LWPOLYLINE
  5
1d1
100
AcDbEntity
  8
Layer_1
 62
7
100
AcDbPolyline
 90
9
 70
0
 10
193.875714
 20
272.986770
 30
0.0
 10
193.805152
 20
272.704531
 30
0.0
 10
193.664033
 20
272.492850
 30
0.0
 10
193.452352
 20
272.281169
 30
0.0
 10
193.170113
 20
272.281169
 30
0.0
 10
192.887871
 20
272.281169
 30
0.0
 10
192.605632
 20
272.492850
 30
0.0
 10
192.464512
 20
272.704531
 30
0.0
 10
192.393951
 20
272.986770
 30
0.0
  0
LWPOLYLINE
  5
1d2
100
AcDbEntity
  8
Layer_1
 62
7
100
AcDbPolyline
 90
2
 70
0
 10
194.581314
 20
277.925980
 30
0.0
 10
193.875714
 20
272.986770
 30
0.0
  0
LWPOLYLINE
  5
1d3
100
AcDbEntity
  8
Layer_1
 62
7
100
AcDbPolyline
 90
9
 70
0
 10
196.274758
 20
287.381040
 30
0.0
 10
196.274758
 20
287.169359
 30
0.0
 10
196.204199
 20
286.887120
 30
0.0
 10
196.204199
 20
286.604878
 30
0.0
 10
196.204199
 20
286.393197
 30
0.0
 10
196.133638
 20
286.110958
 30
0.0
 10
196.133638
 20
285.899277
 30
0.0
 10
196.063077
 20
285.617035
 30
0.0
 10
196.063077
 20
285.405355
 30
0.0
  0
LWPOLYLINE
  5
1d4
100
AcDbEntity
  8
Layer_1
 62
7
100
AcDbPolyline
 90
2
 70
0
 10
196.274758
 20
292.390809
 30
0.0
 10
196.274758
 20
287.381040
 30
0.0
  0
LWPOLYLINE
  5
1d5
100
AcDbEntity
  8
Layer_1
 62
7
100
AcDbPolyline
 90
2
 70
0
 10
197.262600
 20
292.390809
 30
0.0
 10
196.274758
 20
292.390809
 30
0.0
  0
LWPOLYLINE
  5
1d6
100
AcDbEntity
  8
Layer_1
 62
7
100
AcDbPolyline
 90
9
 70
0
 10
200.226126
 20
289.356723
 30
0.0
 10
200.155567
 20
289.991765
 30
0.0
 10
200.014445
 20
290.485685
 30
0.0
 10
199.732206
 20
291.050166
 30
0.0
 10
199.379405
 20
291.473528
 30
0.0
 10
198.885483
 20
291.896889
 30
0.0
 10
198.391563
 20
292.179128
 30
0.0
 10
197.827082
 20
292.320251
 30
0.0
 10
197.262600
 20
292.390809
 30
0.0
  0
LWPOLYLINE
  5
1d7
100
AcDbEntity
  8
Layer_1
 62
7
100
AcDbPolyline
 90
2
 70
0
 10
200.226126
 20
286.393197
 30
0.0
 10
200.226126
 20
289.356723
 30
0.0
  0
LWPOLYLINE
  5
1d8
100
AcDbEntity
  8
Layer_1
 62
7
100
AcDbPolyline
 90
2
 70
0
 10
210.739586
 20
286.393197
 30
0.0
 10
200.226126
 20
286.393197
 30
0.0
  0
LWPOLYLINE
  5
1d9
100
AcDbEntity
  8
Layer_1
 62
7
100
AcDbPolyline
 90
2
 70
0
 10
210.739586
 20
289.356723
 30
0.0
 10
210.739586
 20
286.393197
 30
0.0
  0
LWPOLYLINE
  5
1da
100
AcDbEntity
  8
Layer_1
 62
7
100
AcDbPolyline
 90
9
 70
0
 10
213.773673
 20
292.390809
 30
0.0
 10
213.138633
 20
292.320251
 30
0.0
 10
212.574152
 20
292.179128
 30
0.0
 10
212.080229
 20
291.896889
 30
0.0
 10
211.656871
 20
291.473528
 30
0.0
 10
211.233509
 20
291.050166
 30
0.0
 10
210.951267
 20
290.485685
 30
0.0
 10
210.810148
 20
289.991765
 30
0.0
 10
210.739586
 20
289.356723
 30
0.0
  0
LWPOLYLINE
  5
1db
100
AcDbEntity
  8
Layer_1
 62
7
100
AcDbPolyline
 90
2
 70
0
 10
217.231121
 20
292.390809
 30
0.0
 10
213.773673
 20
292.390809
 30
0.0
  0
LWPOLYLINE
  5
1dc
100
AcDbEntity
  8
Layer_1
 62
7
100
AcDbPolyline
 90
9
 70
0
 10
220.194646
 20
289.991765
 30
0.0
 10
220.053527
 20
290.485685
 30
0.0
 10
219.841846
 20
290.909046
 30
0.0
 10
219.489045
 20
291.332408
 30
0.0
 10
219.136245
 20
291.685208
 30
0.0
 10
218.712883
 20
291.967450
 30
0.0
 10
218.218964
 20
292.179128
 30
0.0
 10
217.725041
 20
292.320251
 30
0.0
 10
217.231121
 20
292.390809
 30
0.0
  0
LWPOLYLINE
  5
1dd
100
AcDbEntity
  8
Layer_1
 62
7
100
AcDbPolyline
 90
9
 70
0
 10
219.700726
 20
289.356723
 30
0.0
 10
219.771285
 20
289.356723
 30
0.0
 10
219.912407
 20
289.427284
 30
0.0
 10
219.982965
 20
289.497845
 30
0.0
 10
220.053527
 20
289.568403
 30
0.0
 10
220.124088
 20
289.638965
 30
0.0
 10
220.194646
 20
289.780084
 30
0.0
 10
220.194646
 20
289.850645
 30
0.0
 10
220.194646
 20
289.991765
 30
0.0
  0
LWPOLYLINE
  5
1de
100
AcDbEntity
  8
Layer_1
 62
7
100
AcDbPolyline
 90
2
 70
0
 10
218.712883
 20
289.356723
 30
0.0
 10
219.700726
 20
289.356723
 30
0.0
  0
LWPOLYLINE
  5
1df
100
AcDbEntity
  8
Layer_1
 62
7
100
AcDbPolyline
 90
2
 70
0
 10
218.712883
 20
286.393197
 30
0.0
 10
218.712883
 20
289.356723
 30
0.0
  0
LWPOLYLINE
  5
1e0
100
AcDbEntity
  8
Layer_1
 62
7
100
AcDbPolyline
 90
9
 70
0
 10
224.216575
 20
279.972224
 30
0.0
 10
224.146014
 20
281.101186
 30
0.0
 10
223.863775
 20
282.230149
 30
0.0
 10
223.369852
 20
283.217991
 30
0.0
 10
222.664251
 20
284.205834
 30
0.0
 10
221.888090
 20
284.981996
 30
0.0
 10
220.900247
 20
285.617035
 30
0.0
 10
219.841846
 20
286.110958
 30
0.0
 10
218.712883
 20
286.393197
 30
0.0
  0
LWPOLYLINE
  5
1e1
100
AcDbEntity
  8
Layer_1
 62
7
100
AcDbPolyline
 90
2
 70
0
 10
224.216575
 20
276.232537
 30
0.0
 10
224.216575
 20
279.972224
 30
0.0
  0
LWPOLYLINE
  5
1e2
100
AcDbEntity
  8
Layer_1
 62
7
100
AcDbPolyline
 90
4
 70
0
 10
195.216357
 20
220.701705
 30
0.0
 10
195.216357
 20
232.696931
 30
0.0
 10
192.252831
 20
232.696931
 30
0.0
 10
192.252831
 20
220.701705
 30
0.0
  0
LWPOLYLINE
  5
1e3
100
AcDbEntity
  8
Layer_1
 62
7
100
AcDbPolyline
 90
17
 70
0
 10
222.099770
 20
282.371271
 30
0.0
 10
221.958651
 20
283.076872
 30
0.0
 10
221.535289
 20
283.641353
 30
0.0
 10
220.970808
 20
284.064714
 30
0.0
 10
220.265207
 20
284.205834
 30
0.0
 10
219.559607
 20
284.064714
 30
0.0
 10
218.924564
 20
283.641353
 30
0.0
 10
218.571764
 20
283.076872
 30
0.0
 10
218.430644
 20
282.371271
 30
0.0
 10
218.571764
 20
281.665667
 30
0.0
 10
218.924564
 20
281.101186
 30
0.0
 10
219.559607
 20
280.677828
 30
0.0
 10
220.265207
 20
280.536705
 30
0.0
 10
220.970808
 20
280.677828
 30
0.0
 10
221.535289
 20
281.101186
 30
0.0
 10
221.958651
 20
281.665667
 30
0.0
 10
222.099770
 20
282.371271
 30
0.0
  0
LWPOLYLINE
  5
1e4
100
AcDbEntity
  8
Layer_1
 62
7
100
AcDbPolyline
 90
2
 70
0
 10
192.252831
 20
220.701705
 30
0.0
 10
195.216357
 20
220.701705
 30
0.0
  0
LWPOLYLINE
  5
1e5
100
AcDbEntity
  8
Layer_1
 62
7
100
AcDbPolyline
 90
2
 70
0
 10
194.722437
 20
292.390809
 30
0.0
 10
193.734594
 20
292.390809
 30
0.0
  0
LWPOLYLINE
  5
1e6
100
AcDbEntity
  8
Layer_1
 62
7
100
AcDbPolyline
 90
9
 70
0
 10
220.759127
 20
207.789200
 30
0.0
 10
220.970808
 20
207.789200
 30
0.0
 10
221.111928
 20
207.859761
 30
0.0
 10
221.323608
 20
207.930320
 30
0.0
 10
221.464728
 20
208.071439
 30
0.0
 10
221.605850
 20
208.212562
 30
0.0
 10
221.676409
 20
208.353681
 30
0.0
 10
221.746970
 20
208.565362
 30
0.0
 10
221.746970
 20
208.777043
 30
0.0
  0
LWPOLYLINE
  5
1e7
100
AcDbEntity
  8
Layer_1
 62
7
100
AcDbPolyline
 90
2
 70
0
 10
192.393951
 20
272.986770
 30
0.0
 10
193.028993
 20
277.925980
 30
0.0
  0
LWPOLYLINE
  5
1e8
100
AcDbEntity
  8
Layer_1
 62
7
100
AcDbPolyline
 90
9
 70
0
 10
194.792995
 20
279.266623
 30
0.0
 10
194.722437
 20
279.125504
 30
0.0
 10
194.722437
 20
278.913823
 30
0.0
 10
194.651876
 20
278.772703
 30
0.0
 10
194.651876
 20
278.561023
 30
0.0
 10
194.651876
 20
278.419903
 30
0.0
 10
194.581314
 20
278.208222
 30
0.0
 10
194.581314
 20
278.067100
 30
0.0
 10
194.581314
 20
277.925980
 30
0.0
  0
LWPOLYLINE
  5
1e9
100
AcDbEntity
  8
Layer_1
 62
7
100
AcDbPolyline
 90
2
 70
0
 10
221.746970
 20
208.777043
 30
0.0
 10
221.746970
 20
265.930757
 30
0.0
  0
LWPOLYLINE
  5
1ea
100
AcDbEntity
  8
Layer_1
 62
7
100
AcDbPolyline
 90
2
 70
0
 10
192.252831
 20
266.636358
 30
0.0
 10
192.252831
 20
254.641134
 30
0.0
  0
LWPOLYLINE
  5
1eb
100
AcDbEntity
  8
Layer_1
 62
7
100
AcDbPolyline
 90
2
 70
0
 10
192.252831
 20
286.393197
 30
0.0
 10
190.277146
 20
286.393197
 30
0.0
  0
LWPOLYLINE
  5
1ec
100
AcDbEntity
  8
Layer_1
 62
7
100
AcDbPolyline
 90
2
 70
0
 10
196.063077
 20
285.405355
 30
0.0
 10
194.792995
 20
279.266623
 30
0.0
  0
LWPOLYLINE
  5
1ed
100
AcDbEntity
  8
Layer_1
 62
7
100
AcDbPolyline
 90
2
 70
0
 10
193.028993
 20
209.412082
 30
0.0
 10
192.393951
 20
214.351293
 30
0.0
  0
LWPOLYLINE
  5
1ee
100
AcDbEntity
  8
Layer_1
 62
7
100
AcDbPolyline
 90
17
 70
0
 10
14.308692
 20
247.864965
 30
0.0
 10
14.802615
 20
248.006087
 30
0.0
 10
15.225976
 20
248.288326
 30
0.0
 10
15.508216
 20
248.711688
 30
0.0
 10
15.649335
 20
249.205608
 30
0.0
 10
15.508216
 20
249.770089
 30
0.0
 10
15.225976
 20
250.193450
 30
0.0
 10
14.802615
 20
250.475692
 30
0.0
 10
14.308692
 20
250.546251
 30
0.0
 10
13.744211
 20
250.475692
 30
0.0
 10
13.320852
 20
250.193450
 30
0.0
 10
13.038610
 20
249.770089
 30
0.0
 10
12.968052
 20
249.205608
 30
0.0
 10
13.038610
 20
248.711688
 30
0.0
 10
13.320852
 20
248.288326
 30
0.0
 10
13.744211
 20
248.006087
 30
0.0
 10
14.308692
 20
247.864965
 30
0.0
  0
LWPOLYLINE
  5
1ef
100
AcDbEntity
  8
Layer_1
 62
7
100
AcDbPolyline
 90
17
 70
0
 10
72.309129
 20
198.896228
 30
0.0
 10
72.803052
 20
198.966787
 30
0.0
 10
73.226411
 20
199.249029
 30
0.0
 10
73.508653
 20
199.672390
 30
0.0
 10
73.649772
 20
200.236871
 30
0.0
 10
73.508653
 20
200.730791
 30
0.0
 10
73.226411
 20
201.154153
 30
0.0
 10
72.803052
 20
201.436392
 30
0.0
 10
72.309129
 20
201.577512
 30
0.0
 10
71.744648
 20
201.436392
 30
0.0
 10
71.321287
 20
201.154153
 30
0.0
 10
71.039047
 20
200.730791
 30
0.0
 10
70.968486
 20
200.236871
 30
0.0
 10
71.039047
 20
199.672390
 30
0.0
 10
71.321287
 20
199.249029
 30
0.0
 10
71.744648
 20
198.966787
 30
0.0
 10
72.309129
 20
198.896228
 30
0.0
  0
LWPOLYLINE
  5
1f0
100
AcDbEntity
  8
Layer_1
 62
7
100
AcDbPolyline
 90
9
 70
0
 10
17.625020
 20
219.711469
 30
0.0
 10
17.554459
 20
219.358669
 30
0.0
 10
17.413340
 20
218.935307
 30
0.0
 10
17.272220
 20
218.582507
 30
0.0
 10
16.989978
 20
218.300268
 30
0.0
 10
16.707739
 20
218.088587
 30
0.0
 10
16.354939
 20
217.876906
 30
0.0
 10
16.002135
 20
217.735787
 30
0.0
 10
15.578777
 20
217.735787
 30
0.0
  0
LWPOLYLINE
  5
1f1
100
AcDbEntity
  8
Layer_1
 62
7
100
AcDbPolyline
 90
2
 70
0
 10
17.625020
 20
219.711469
 30
0.0
 10
17.625020
 20
229.731010
 30
0.0
  0
LWPOLYLINE
  5
1f2
100
AcDbEntity
  8
Layer_1
 62
7
100
AcDbPolyline
 90
9
 70
0
 10
15.578777
 20
231.706693
 30
0.0
 10
16.002135
 20
231.706693
 30
0.0
 10
16.354939
 20
231.565573
 30
0.0
 10
16.707739
 20
231.353892
 30
0.0
 10
16.989978
 20
231.142211
 30
0.0
 10
17.272220
 20
230.859972
 30
0.0
 10
17.413340
 20
230.507172
 30
0.0
 10
17.554459
 20
230.083810
 30
0.0
 10
17.625020
 20
229.731010
 30
0.0
  0
LWPOLYLINE
  5
1f3
100
AcDbEntity
  8
Layer_1
 62
7
100
AcDbPolyline
 90
9
 70
0
 10
10.569005
 20
233.682378
 30
0.0
 10
10.639566
 20
233.329578
 30
0.0
 10
10.710127
 20
232.976777
 30
0.0
 10
10.921805
 20
232.623974
 30
0.0
 10
11.204047
 20
232.271174
 30
0.0
 10
11.486286
 20
232.059493
 30
0.0
 10
11.839090
 20
231.847815
 30
0.0
 10
12.191890
 20
231.777254
 30
0.0
 10
12.615249
 20
231.706693
 30
0.0
  0
LWPOLYLINE
  5
1f4
100
AcDbEntity
  8
Layer_1
 62
7
100
AcDbPolyline
 90
9
 70
0
 10
11.556848
 20
252.804175
 30
0.0
 10
11.415728
 20
252.804175
 30
0.0
 10
11.204047
 20
252.733617
 30
0.0
 10
11.062928
 20
252.663056
 30
0.0
 10
10.851247
 20
252.521936
 30
0.0
 10
10.780686
 20
252.380814
 30
0.0
 10
10.639566
 20
252.169136
 30
0.0
 10
10.639566
 20
252.028013
 30
0.0
 10
10.569005
 20
251.816333
 30
0.0
  0
LWPOLYLINE
  5
1f5
100
AcDbEntity
  8
Layer_1
 62
7
100
AcDbPolyline
 90
2
 70
0
 10
30.325845
 20
252.804175
 30
0.0
 10
11.556848
 20
252.804175
 30
0.0
  0
LWPOLYLINE
  5
1f6
100
AcDbEntity
  8
Layer_1
 62
7
100
AcDbPolyline
 90
2
 70
0
 10
30.325845
 20
254.850419
 30
0.0
 10
30.325845
 20
252.804175
 30
0.0
  0
LWPOLYLINE
  5
1f7
100
AcDbEntity
  8
Layer_1
 62
7
100
AcDbPolyline
 90
9
 70
0
 10
31.313687
 20
255.838262
 30
0.0
 10
31.102006
 20
255.767700
 30
0.0
 10
30.890326
 20
255.767700
 30
0.0
 10
30.749206
 20
255.626581
 30
0.0
 10
30.608087
 20
255.556023
 30
0.0
 10
30.466967
 20
255.344342
 30
0.0
 10
30.396406
 20
255.203219
 30
0.0
 10
30.325845
 20
254.991541
 30
0.0
 10
30.325845
 20
254.850419
 30
0.0
  0
LWPOLYLINE
  5
1f8
100
AcDbEntity
  8
Layer_1
 62
7
100
AcDbPolyline
 90
2
 70
0
 10
41.262667
 20
255.838262
 30
0.0
 10
31.313687
 20
255.838262
 30
0.0
  0
LWPOLYLINE
  5
1f9
100
AcDbEntity
  8
Layer_1
 62
7
100
AcDbPolyline
 90
9
 70
0
 10
42.321071
 20
254.850419
 30
0.0
 10
42.250510
 20
254.991541
 30
0.0
 10
42.250510
 20
255.203219
 30
0.0
 10
42.109390
 20
255.344342
 30
0.0
 10
41.968268
 20
255.556023
 30
0.0
 10
41.827148
 20
255.626581
 30
0.0
 10
41.686028
 20
255.767700
 30
0.0
 10
41.474348
 20
255.767700
 30
0.0
 10
41.262667
 20
255.838262
 30
0.0
  0
LWPOLYLINE
  5
1fa
100
AcDbEntity
  8
Layer_1
 62
7
100
AcDbPolyline
 90
2
 70
0
 10
64.265274
 20
252.804175
 30
0.0
 10
42.321071
 20
252.804175
 30
0.0
  0
LWPOLYLINE
  5
1fb
100
AcDbEntity
  8
Layer_1
 62
7
100
AcDbPolyline
 90
2
 70
0
 10
75.272654
 20
255.838262
 30
0.0
 10
65.323675
 20
255.838262
 30
0.0
  0
LWPOLYLINE
  5
1fc
100
AcDbEntity
  8
Layer_1
 62
7
100
AcDbPolyline
 90
9
 70
0
 10
76.260497
 20
254.850419
 30
0.0
 10
76.260497
 20
254.991541
 30
0.0
 10
76.189939
 20
255.203219
 30
0.0
 10
76.119378
 20
255.344342
 30
0.0
 10
75.978258
 20
255.556023
 30
0.0
 10
75.837136
 20
255.626581
 30
0.0
 10
75.696016
 20
255.767700
 30
0.0
 10
75.484335
 20
255.767700
 30
0.0
 10
75.272654
 20
255.838262
 30
0.0
  0
LWPOLYLINE
  5
1fd
100
AcDbEntity
  8
Layer_1
 62
7
100
AcDbPolyline
 90
9
 70
0
 10
96.017337
 20
251.816333
 30
0.0
 10
95.946778
 20
252.028013
 30
0.0
 10
95.946778
 20
252.169136
 30
0.0
 10
95.805656
 20
252.380814
 30
0.0
 10
95.735098
 20
252.521936
 30
0.0
 10
95.523417
 20
252.663056
 30
0.0
 10
95.382297
 20
252.733617
 30
0.0
 10
95.170617
 20
252.804175
 30
0.0
 10
95.029494
 20
252.804175
 30
0.0
  0
LWPOLYLINE
  5
1fe
100
AcDbEntity
  8
Layer_1
 62
7
100
AcDbPolyline
 90
2
 70
0
 10
96.017337
 20
197.626144
 30
0.0
 10
96.017337
 20
251.816333
 30
0.0
  0
LWPOLYLINE
  5
1ff
100
AcDbEntity
  8
Layer_1
 62
7
100
AcDbPolyline
 90
9
 70
0
 10
95.029494
 20
196.638304
 30
0.0
 10
95.170617
 20
196.638304
 30
0.0
 10
95.382297
 20
196.708862
 30
0.0
 10
95.523417
 20
196.779423
 30
0.0
 10
95.735098
 20
196.920543
 30
0.0
 10
95.805656
 20
197.061663
 30
0.0
 10
95.946778
 20
197.202785
 30
0.0
 10
95.946778
 20
197.414466
 30
0.0
 10
96.017337
 20
197.626144
 30
0.0
  0
LWPOLYLINE
  5
200
100
AcDbEntity
  8
Layer_1
 62
7
100
AcDbPolyline
 90
2
 70
0
 10
76.260497
 20
196.638304
 30
0.0
 10
95.029494
 20
196.638304
 30
0.0
  0
LWPOLYLINE
  5
201
100
AcDbEntity
  8
Layer_1
 62
7
100
AcDbPolyline
 90
2
 70
0
 10
76.260497
 20
194.592060
 30
0.0
 10
76.260497
 20
196.638304
 30
0.0
  0
LWPOLYLINE
  5
202
100
AcDbEntity
  8
Layer_1
 62
7
100
AcDbPolyline
 90
9
 70
0
 10
75.272654
 20
193.604217
 30
0.0
 10
75.484335
 20
193.604217
 30
0.0
 10
75.696016
 20
193.674776
 30
0.0
 10
75.837136
 20
193.815898
 30
0.0
 10
75.978258
 20
193.886457
 30
0.0
 10
76.119378
 20
194.027579
 30
0.0
 10
76.189939
 20
194.239257
 30
0.0
 10
76.260497
 20
194.450938
 30
0.0
 10
76.260497
 20
194.592060
 30
0.0
  0
LWPOLYLINE
  5
203
100
AcDbEntity
  8
Layer_1
 62
7
100
AcDbPolyline
 90
2
 70
0
 10
65.323675
 20
193.604217
 30
0.0
 10
75.272654
 20
193.604217
 30
0.0
  0
LWPOLYLINE
  5
204
100
AcDbEntity
  8
Layer_1
 62
7
100
AcDbPolyline
 90
9
 70
0
 10
64.265274
 20
194.592060
 30
0.0
 10
64.335835
 20
194.450938
 30
0.0
 10
64.335835
 20
194.239257
 30
0.0
 10
64.476955
 20
194.027579
 30
0.0
 10
64.618074
 20
193.886457
 30
0.0
 10
64.759194
 20
193.815898
 30
0.0
 10
64.900316
 20
193.674776
 30
0.0
 10
65.111994
 20
193.604217
 30
0.0
 10
65.323675
 20
193.604217
 30
0.0
  0
LWPOLYLINE
  5
205
100
AcDbEntity
  8
Layer_1
 62
7
100
AcDbPolyline
 90
2
 70
0
 10
42.321071
 20
194.592060
 30
0.0
 10
42.321071
 20
196.638304
 30
0.0
  0
LWPOLYLINE
  5
206
100
AcDbEntity
  8
Layer_1
 62
7
100
AcDbPolyline
 90
9
 70
0
 10
30.325845
 20
194.592060
 30
0.0
 10
30.325845
 20
194.450938
 30
0.0
 10
30.396406
 20
194.239257
 30
0.0
 10
30.466967
 20
194.027579
 30
0.0
 10
30.608087
 20
193.886457
 30
0.0
 10
30.749206
 20
193.815898
 30
0.0
 10
30.890326
 20
193.674776
 30
0.0
 10
31.102006
 20
193.604217
 30
0.0
 10
31.313687
 20
193.604217
 30
0.0
  0
LWPOLYLINE
  5
207
100
AcDbEntity
  8
Layer_1
 62
7
100
AcDbPolyline
 90
2
 70
0
 10
11.556848
 20
196.638304
 30
0.0
 10
30.325845
 20
196.638304
 30
0.0
  0
LWPOLYLINE
  5
208
100
AcDbEntity
  8
Layer_1
 62
7
100
AcDbPolyline
 90
9
 70
0
 10
10.569005
 20
197.626144
 30
0.0
 10
10.639566
 20
197.414466
 30
0.0
 10
10.639566
 20
197.202785
 30
0.0
 10
10.780686
 20
197.061663
 30
0.0
 10
10.851247
 20
196.920543
 30
0.0
 10
11.062928
 20
196.779423
 30
0.0
 10
11.204047
 20
196.708862
 30
0.0
 10
11.415728
 20
196.638304
 30
0.0
 10
11.556848
 20
196.638304
 30
0.0
  0
LWPOLYLINE
  5
209
100
AcDbEntity
  8
Layer_1
 62
7
100
AcDbPolyline
 90
2
 70
0
 10
10.569005
 20
215.689540
 30
0.0
 10
10.569005
 20
197.626144
 30
0.0
  0
LWPOLYLINE
  5
20a
100
AcDbEntity
  8
Layer_1
 62
7
100
AcDbPolyline
 90
9
 70
0
 10
12.615249
 20
217.735787
 30
0.0
 10
12.191890
 20
217.665225
 30
0.0
 10
11.839090
 20
217.594664
 30
0.0
 10
11.486286
 20
217.382983
 30
0.0
 10
11.204047
 20
217.100744
 30
0.0
 10
10.921805
 20
216.818502
 30
0.0
 10
10.710127
 20
216.465702
 30
0.0
 10
10.639566
 20
216.112902
 30
0.0
 10
10.569005
 20
215.689540
 30
0.0
  0
LWPOLYLINE
  5
20b
100
AcDbEntity
  8
Layer_1
 62
7
100
AcDbPolyline
 90
2
 70
0
 10
12.615249
 20
217.735787
 30
0.0
 10
15.578777
 20
217.735787
 30
0.0
  0
LWPOLYLINE
  5
20c
100
AcDbEntity
  8
Layer_1
 62
7
100
AcDbPolyline
 90
9
 70
0
 10
65.323675
 20
255.838262
 30
0.0
 10
65.111994
 20
255.767700
 30
0.0
 10
64.900316
 20
255.767700
 30
0.0
 10
64.759194
 20
255.626581
 30
0.0
 10
64.618074
 20
255.556023
 30
0.0
 10
64.476955
 20
255.344342
 30
0.0
 10
64.335835
 20
255.203219
 30
0.0
 10
64.335835
 20
254.991541
 30
0.0
 10
64.265274
 20
254.850419
 30
0.0
  0
LWPOLYLINE
  5
20d
100
AcDbEntity
  8
Layer_1
 62
7
100
AcDbPolyline
 90
17
 70
0
 10
72.309129
 20
250.546251
 30
0.0
 10
71.744648
 20
250.475692
 30
0.0
 10
71.321287
 20
250.193450
 30
0.0
 10
71.039047
 20
249.770089
 30
0.0
 10
70.968486
 20
249.205608
 30
0.0
 10
71.039047
 20
248.711688
 30
0.0
 10
71.321287
 20
248.288326
 30
0.0
 10
71.744648
 20
248.006087
 30
0.0
 10
72.309129
 20
247.864965
 30
0.0
 10
72.803052
 20
248.006087
 30
0.0
 10
73.226411
 20
248.288326
 30
0.0
 10
73.508653
 20
248.711688
 30
0.0
 10
73.649772
 20
249.205608
 30
0.0
 10
73.508653
 20
249.770089
 30
0.0
 10
73.226411
 20
250.193450
 30
0.0
 10
72.803052
 20
250.475692
 30
0.0
 10
72.309129
 20
250.546251
 30
0.0
  0
LWPOLYLINE
  5
20e
100
AcDbEntity
  8
Layer_1
 62
7
100
AcDbPolyline
 90
2
 70
0
 10
42.321071
 20
252.804175
 30
0.0
 10
42.321071
 20
254.850419
 30
0.0
  0
LWPOLYLINE
  5
20f
100
AcDbEntity
  8
Layer_1
 62
7
100
AcDbPolyline
 90
2
 70
0
 10
64.265274
 20
254.850419
 30
0.0
 10
64.265274
 20
252.804175
 30
0.0
  0
LWPOLYLINE
  5
210
100
AcDbEntity
  8
Layer_1
 62
7
100
AcDbPolyline
 90
2
 70
0
 10
64.265274
 20
196.638304
 30
0.0
 10
64.265274
 20
194.592060
 30
0.0
  0
LWPOLYLINE
  5
211
100
AcDbEntity
  8
Layer_1
 62
7
100
AcDbPolyline
 90
2
 70
0
 10
30.325845
 20
196.638304
 30
0.0
 10
30.325845
 20
194.592060
 30
0.0
  0
LWPOLYLINE
  5
212
100
AcDbEntity
  8
Layer_1
 62
7
100
AcDbPolyline
 90
2
 70
0
 10
15.578777
 20
231.706693
 30
0.0
 10
12.615249
 20
231.706693
 30
0.0
  0
LWPOLYLINE
  5
213
100
AcDbEntity
  8
Layer_1
 62
7
100
AcDbPolyline
 90
17
 70
0
 10
14.308692
 20
201.577512
 30
0.0
 10
13.744211
 20
201.436392
 30
0.0
 10
13.320852
 20
201.154153
 30
0.0
 10
13.038610
 20
200.730791
 30
0.0
 10
12.968052
 20
200.236871
 30
0.0
 10
13.038610
 20
199.672390
 30
0.0
 10
13.320852
 20
199.249029
 30
0.0
 10
13.744211
 20
198.966787
 30
0.0
 10
14.308692
 20
198.896228
 30
0.0
 10
14.802615
 20
198.966787
 30
0.0
 10
15.225976
 20
199.249029
 30
0.0
 10
15.508216
 20
199.672390
 30
0.0
 10
15.649335
 20
200.236871
 30
0.0
 10
15.508216
 20
200.730791
 30
0.0
 10
15.225976
 20
201.154153
 30
0.0
 10
14.802615
 20
201.436392
 30
0.0
 10
14.308692
 20
201.577512
 30
0.0
  0
LWPOLYLINE
  5
214
100
AcDbEntity
  8
Layer_1
 62
7
100
AcDbPolyline
 90
2
 70
0
 10
95.029494
 20
252.804175
 30
0.0
 10
76.260497
 20
252.804175
 30
0.0
  0
LWPOLYLINE
  5
215
100
AcDbEntity
  8
Layer_1
 62
7
100
AcDbPolyline
 90
2
 70
0
 10
42.321071
 20
196.638304
 30
0.0
 10
64.265274
 20
196.638304
 30
0.0
  0
LWPOLYLINE
  5
216
100
AcDbEntity
  8
Layer_1
 62
7
100
AcDbPolyline
 90
2
 70
0
 10
31.313687
 20
193.604217
 30
0.0
 10
41.262667
 20
193.604217
 30
0.0
  0
LWPOLYLINE
  5
217
100
AcDbEntity
  8
Layer_1
 62
7
100
AcDbPolyline
 90
2
 70
0
 10
10.569005
 20
251.816333
 30
0.0
 10
10.569005
 20
233.682378
 30
0.0
  0
LWPOLYLINE
  5
218
100
AcDbEntity
  8
Layer_1
 62
7
100
AcDbPolyline
 90
2
 70
0
 10
76.260497
 20
252.804175
 30
0.0
 10
76.260497
 20
254.850419
 30
0.0
  0
LWPOLYLINE
  5
219
100
AcDbEntity
  8
Layer_1
 62
7
100
AcDbPolyline
 90
9
 70
0
 10
41.262667
 20
193.604217
 30
0.0
 10
41.474348
 20
193.604217
 30
0.0
 10
41.686028
 20
193.674776
 30
0.0
 10
41.827148
 20
193.815898
 30
0.0
 10
41.968268
 20
193.886457
 30
0.0
 10
42.109390
 20
194.027579
 30
0.0
 10
42.250510
 20
194.239257
 30
0.0
 10
42.250510
 20
194.450938
 30
0.0
 10
42.321071
 20
194.592060
 30
0.0
  0
LWPOLYLINE
  5
21a
100
AcDbEntity
  8
Layer_1
 62
7
100
AcDbPolyline
 90
5
 70
0
 10
174.970711
 20
290.882478
 30
0.0
 10
171.936624
 20
290.882478
 30
0.0
 10
171.936624
 20
282.344700
 30
0.0
 10
174.970711
 20
282.344700
 30
0.0
 10
174.970711
 20
290.882478
 30
0.0
  0
LWPOLYLINE
  5
21b
100
AcDbEntity
  8
Layer_1
 62
7
100
AcDbPolyline
 90
5
 70
0
 10
112.736667
 20
273.454121
 30
0.0
 10
112.736667
 20
263.505142
 30
0.0
 10
115.770753
 20
263.505142
 30
0.0
 10
115.770753
 20
273.454121
 30
0.0
 10
112.736667
 20
273.454121
 30
0.0
  0
LWPOLYLINE
  5
21c
100
AcDbEntity
  8
Layer_1
 62
7
100
AcDbPolyline
 90
5
 70
0
 10
112.736667
 20
290.882478
 30
0.0
 10
112.736667
 20
282.344700
 30
0.0
 10
115.770753
 20
282.344700
 30
0.0
 10
115.770753
 20
290.882478
 30
0.0
 10
112.736667
 20
290.882478
 30
0.0
  0
LWPOLYLINE
  5
21d
100
AcDbEntity
  8
Layer_1
 62
7
100
AcDbPolyline
 90
5
 70
0
 10
174.970711
 20
273.454121
 30
0.0
 10
171.936624
 20
273.454121
 30
0.0
 10
171.936624
 20
263.505142
 30
0.0
 10
174.970711
 20
263.505142
 30
0.0
 10
174.970711
 20
273.454121
 30
0.0
  0
LWPOLYLINE
  5
21e
100
AcDbEntity
  8
Layer_1
 62
7
100
AcDbPolyline
 90
5
 70
0
 10
157.824596
 20
264.140184
 30
0.0
 10
152.885388
 20
264.140184
 30
0.0
 10
152.885388
 20
261.106098
 30
0.0
 10
157.824596
 20
261.106098
 30
0.0
 10
157.824596
 20
264.140184
 30
0.0
  0
LWPOLYLINE
  5
21f
100
AcDbEntity
  8
Layer_1
 62
7
100
AcDbPolyline
 90
5
 70
0
 10
134.892550
 20
261.106098
 30
0.0
 10
134.892550
 20
264.140184
 30
0.0
 10
129.882781
 20
264.140184
 30
0.0
 10
129.882781
 20
261.106098
 30
0.0
 10
134.892550
 20
261.106098
 30
0.0
  0
LWPOLYLINE
  5
220
100
AcDbEntity
  8
Layer_1
 62
7
100
AcDbPolyline
 90
9
 70
0
 10
160.647002
 20
268.726591
 30
0.0
 10
160.788124
 20
268.726591
 30
0.0
 10
160.999802
 20
268.656033
 30
0.0
 10
161.070363
 20
268.585472
 30
0.0
 10
161.211483
 20
268.514911
 30
0.0
 10
161.352605
 20
268.373791
 30
0.0
 10
161.423164
 20
268.232671
 30
0.0
 10
161.423164
 20
268.091552
 30
0.0
 10
161.493725
 20
267.950429
 30
0.0
  0
LWPOLYLINE
  5
221
100
AcDbEntity
  8
Layer_1
 62
7
100
AcDbPolyline
 90
2
 70
0
 10
160.647002
 20
268.726591
 30
0.0
 10
160.294201
 20
268.726591
 30
0.0
  0
LWPOLYLINE
  5
222
100
AcDbEntity
  8
Layer_1
 62
7
100
AcDbPolyline
 90
9
 70
0
 10
159.447481
 20
267.950429
 30
0.0
 10
159.447481
 20
268.091552
 30
0.0
 10
159.518040
 20
268.232671
 30
0.0
 10
159.588601
 20
268.373791
 30
0.0
 10
159.659162
 20
268.514911
 30
0.0
 10
159.800282
 20
268.585472
 30
0.0
 10
159.941401
 20
268.656033
 30
0.0
 10
160.082521
 20
268.726591
 30
0.0
 10
160.294201
 20
268.726591
 30
0.0
  0
LWPOLYLINE
  5
223
100
AcDbEntity
  8
Layer_1
 62
7
100
AcDbPolyline
 90
2
 70
0
 10
159.447481
 20
267.950429
 30
0.0
 10
159.447481
 20
259.553774
 30
0.0
  0
LWPOLYLINE
  5
224
100
AcDbEntity
  8
Layer_1
 62
7
100
AcDbPolyline
 90
9
 70
0
 10
158.671319
 20
258.707053
 30
0.0
 10
158.812439
 20
258.707053
 30
0.0
 10
158.953558
 20
258.777612
 30
0.0
 10
159.094681
 20
258.848173
 30
0.0
 10
159.235800
 20
258.989293
 30
0.0
 10
159.306359
 20
259.059854
 30
0.0
 10
159.376920
 20
259.200973
 30
0.0
 10
159.447481
 20
259.342093
 30
0.0
 10
159.447481
 20
259.553774
 30
0.0
  0
LWPOLYLINE
  5
225
100
AcDbEntity
  8
Layer_1
 62
7
100
AcDbPolyline
 90
9
 70
0
 10
128.259896
 20
259.553774
 30
0.0
 10
128.259896
 20
259.342093
 30
0.0
 10
128.330458
 20
259.200973
 30
0.0
 10
128.401019
 20
259.059854
 30
0.0
 10
128.471577
 20
258.989293
 30
0.0
 10
128.612700
 20
258.848173
 30
0.0
 10
128.753819
 20
258.777612
 30
0.0
 10
128.894939
 20
258.707053
 30
0.0
 10
129.036058
 20
258.707053
 30
0.0
  0
LWPOLYLINE
  5
226
100
AcDbEntity
  8
Layer_1
 62
7
100
AcDbPolyline
 90
2
 70
0
 10
128.259896
 20
259.553774
 30
0.0
 10
128.259896
 20
267.950429
 30
0.0
  0
LWPOLYLINE
  5
227
100
AcDbEntity
  8
Layer_1
 62
7
100
AcDbPolyline
 90
9
 70
0
 10
127.483737
 20
268.726591
 30
0.0
 10
127.624857
 20
268.726591
 30
0.0
 10
127.765977
 20
268.656033
 30
0.0
 10
127.907096
 20
268.585472
 30
0.0
 10
128.048218
 20
268.514911
 30
0.0
 10
128.118777
 20
268.373791
 30
0.0
 10
128.189338
 20
268.232671
 30
0.0
 10
128.259896
 20
268.091552
 30
0.0
 10
128.259896
 20
267.950429
 30
0.0
  0
LWPOLYLINE
  5
228
100
AcDbEntity
  8
Layer_1
 62
7
100
AcDbPolyline
 90
2
 70
0
 10
127.483737
 20
268.726591
 30
0.0
 10
127.060376
 20
268.726591
 30
0.0
  0
LWPOLYLINE
  5
229
100
AcDbEntity
  8
Layer_1
 62
7
100
AcDbPolyline
 90
9
 70
0
 10
126.284214
 20
267.950429
 30
0.0
 10
126.284214
 20
268.091552
 30
0.0
 10
126.284214
 20
268.232671
 30
0.0
 10
126.425333
 20
268.373791
 30
0.0
 10
126.495895
 20
268.514911
 30
0.0
 10
126.637014
 20
268.585472
 30
0.0
 10
126.778134
 20
268.656033
 30
0.0
 10
126.919256
 20
268.726591
 30
0.0
 10
127.060376
 20
268.726591
 30
0.0
  0
LWPOLYLINE
  5
22a
100
AcDbEntity
  8
Layer_1
 62
7
100
AcDbPolyline
 90
2
 70
0
 10
126.284214
 20
267.950429
 30
0.0
 10
126.284214
 20
259.553774
 30
0.0
  0
LWPOLYLINE
  5
22b
100
AcDbEntity
  8
Layer_1
 62
7
100
AcDbPolyline
 90
9
 70
0
 10
125.437491
 20
258.707053
 30
0.0
 10
125.578613
 20
258.707053
 30
0.0
 10
125.790294
 20
258.777612
 30
0.0
 10
125.931414
 20
258.848173
 30
0.0
 10
126.001972
 20
258.989293
 30
0.0
 10
126.143094
 20
259.059854
 30
0.0
 10
126.213653
 20
259.200973
 30
0.0
 10
126.213653
 20
259.342093
 30
0.0
 10
126.284214
 20
259.553774
 30
0.0
  0
LWPOLYLINE
  5
22c
100
AcDbEntity
  8
Layer_1
 62
7
100
AcDbPolyline
 90
9
 70
0
 10
109.773141
 20
260.753297
 30
0.0
 10
109.773141
 20
260.329936
 30
0.0
 10
109.914261
 20
259.977135
 30
0.0
 10
110.125942
 20
259.624335
 30
0.0
 10
110.337623
 20
259.342093
 30
0.0
 10
110.619862
 20
259.059854
 30
0.0
 10
110.972662
 20
258.848173
 30
0.0
 10
111.396024
 20
258.777612
 30
0.0
 10
111.748824
 20
258.707053
 30
0.0
  0
LWPOLYLINE
  5
22d
100
AcDbEntity
  8
Layer_1
 62
7
100
AcDbPolyline
 90
2
 70
0
 10
109.773141
 20
291.729198
 30
0.0
 10
109.773141
 20
260.753297
 30
0.0
  0
LWPOLYLINE
  5
22e
100
AcDbEntity
  8
Layer_1
 62
7
100
AcDbPolyline
 90
9
 70
0
 10
111.748824
 20
293.704884
 30
0.0
 10
111.396024
 20
293.704884
 30
0.0
 10
110.972662
 20
293.563761
 30
0.0
 10
110.619862
 20
293.422642
 30
0.0
 10
110.337623
 20
293.140403
 30
0.0
 10
110.125942
 20
292.858161
 30
0.0
 10
109.914261
 20
292.505360
 30
0.0
 10
109.773141
 20
292.081999
 30
0.0
 10
109.773141
 20
291.729198
 30
0.0
  0
LWPOLYLINE
  5
22f
100
AcDbEntity
  8
Layer_1
 62
7
100
AcDbPolyline
 90
2
 70
0
 10
134.892550
 20
293.704884
 30
0.0
 10
111.748824
 20
293.704884
 30
0.0
  0
LWPOLYLINE
  5
230
100
AcDbEntity
  8
Layer_1
 62
7
100
AcDbPolyline
 90
9
 70
0
 10
136.868236
 20
291.729198
 30
0.0
 10
136.797675
 20
292.081999
 30
0.0
 10
136.727113
 20
292.505360
 30
0.0
 10
136.515435
 20
292.858161
 30
0.0
 10
136.303755
 20
293.140403
 30
0.0
 10
135.950954
 20
293.422642
 30
0.0
 10
135.598151
 20
293.563761
 30
0.0
 10
135.245351
 20
293.704884
 30
0.0
 10
134.892550
 20
293.704884
 30
0.0
  0
LWPOLYLINE
  5
231
100
AcDbEntity
  8
Layer_1
 62
7
100
AcDbPolyline
 90
2
 70
0
 10
136.868236
 20
291.729198
 30
0.0
 10
136.868236
 20
285.731587
 30
0.0
  0
LWPOLYLINE
  5
232
100
AcDbEntity
  8
Layer_1
 62
7
100
AcDbPolyline
 90
9
 70
0
 10
138.843918
 20
283.755901
 30
0.0
 10
138.491118
 20
283.755901
 30
0.0
 10
138.067756
 20
283.897024
 30
0.0
 10
137.714956
 20
284.038143
 30
0.0
 10
137.432717
 20
284.320382
 30
0.0
 10
137.221036
 20
284.602624
 30
0.0
 10
137.009355
 20
284.955425
 30
0.0
 10
136.868236
 20
285.308225
 30
0.0
 10
136.868236
 20
285.731587
 30
0.0
  0
LWPOLYLINE
  5
233
100
AcDbEntity
  8
Layer_1
 62
7
100
AcDbPolyline
 90
2
 70
0
 10
138.843918
 20
283.755901
 30
0.0
 10
148.863459
 20
283.755901
 30
0.0
  0
LWPOLYLINE
  5
234
100
AcDbEntity
  8
Layer_1
 62
7
100
AcDbPolyline
 90
9
 70
0
 10
150.839142
 20
285.731587
 30
0.0
 10
150.839142
 20
285.308225
 30
0.0
 10
150.698022
 20
284.955425
 30
0.0
 10
150.486341
 20
284.602624
 30
0.0
 10
150.274661
 20
284.320382
 30
0.0
 10
149.992421
 20
284.038143
 30
0.0
 10
149.639621
 20
283.897024
 30
0.0
 10
149.216260
 20
283.755901
 30
0.0
 10
148.863459
 20
283.755901
 30
0.0
  0
LWPOLYLINE
  5
235
100
AcDbEntity
  8
Layer_1
 62
7
100
AcDbPolyline
 90
2
 70
0
 10
150.839142
 20
285.731587
 30
0.0
 10
150.839142
 20
291.729198
 30
0.0
  0
LWPOLYLINE
  5
236
100
AcDbEntity
  8
Layer_1
 62
7
100
AcDbPolyline
 90
9
 70
0
 10
152.885388
 20
293.704884
 30
0.0
 10
152.462027
 20
293.704884
 30
0.0
 10
152.109226
 20
293.563761
 30
0.0
 10
151.756426
 20
293.422642
 30
0.0
 10
151.474184
 20
293.140403
 30
0.0
 10
151.191945
 20
292.858161
 30
0.0
 10
150.980264
 20
292.505360
 30
0.0
 10
150.909703
 20
292.081999
 30
0.0
 10
150.839142
 20
291.729198
 30
0.0
  0
LWPOLYLINE
  5
237
100
AcDbEntity
  8
Layer_1
 62
7
100
AcDbPolyline
 90
2
 70
0
 10
175.958554
 20
293.704884
 30
0.0
 10
152.885388
 20
293.704884
 30
0.0
  0
LWPOLYLINE
  5
238
100
AcDbEntity
  8
Layer_1
 62
7
100
AcDbPolyline
 90
9
 70
0
 10
177.934236
 20
291.729198
 30
0.0
 10
177.934236
 20
292.081999
 30
0.0
 10
177.793117
 20
292.505360
 30
0.0
 10
177.651997
 20
292.858161
 30
0.0
 10
177.369755
 20
293.140403
 30
0.0
 10
177.087516
 20
293.422642
 30
0.0
 10
176.734716
 20
293.563761
 30
0.0
 10
176.381915
 20
293.704884
 30
0.0
 10
175.958554
 20
293.704884
 30
0.0
  0
LWPOLYLINE
  5
239
100
AcDbEntity
  8
Layer_1
 62
7
100
AcDbPolyline
 90
2
 70
0
 10
177.934236
 20
260.753297
 30
0.0
 10
177.934236
 20
291.729198
 30
0.0
  0
LWPOLYLINE
  5
23a
100
AcDbEntity
  8
Layer_1
 62
7
100
AcDbPolyline
 90
9
 70
0
 10
175.958554
 20
258.707053
 30
0.0
 10
176.381915
 20
258.777612
 30
0.0
 10
176.734716
 20
258.848173
 30
0.0
 10
177.087516
 20
259.059854
 30
0.0
 10
177.369755
 20
259.342093
 30
0.0
 10
177.651997
 20
259.624335
 30
0.0
 10
177.793117
 20
259.977135
 30
0.0
 10
177.934236
 20
260.329936
 30
0.0
 10
177.934236
 20
260.753297
 30
0.0
  0
LWPOLYLINE
  5
23b
100
AcDbEntity
  8
Layer_1
 62
7
100
AcDbPolyline
 90
2
 70
0
 10
162.269887
 20
258.707053
 30
0.0
 10
175.958554
 20
258.707053
 30
0.0
  0
LWPOLYLINE
  5
23c
100
AcDbEntity
  8
Layer_1
 62
7
100
AcDbPolyline
 90
9
 70
0
 10
161.493725
 20
259.553774
 30
0.0
 10
161.493725
 20
259.342093
 30
0.0
 10
161.493725
 20
259.200973
 30
0.0
 10
161.564283
 20
259.059854
 30
0.0
 10
161.705406
 20
258.989293
 30
0.0
 10
161.846525
 20
258.848173
 30
0.0
 10
161.987645
 20
258.777612
 30
0.0
 10
162.128764
 20
258.707053
 30
0.0
 10
162.269887
 20
258.707053
 30
0.0
  0
LWPOLYLINE
  5
23d
100
AcDbEntity
  8
Layer_1
 62
7
100
AcDbPolyline
 90
2
 70
0
 10
161.493725
 20
259.553774
 30
0.0
 10
161.493725
 20
267.950429
 30
0.0
  0
LWPOLYLINE
  5
23e
100
AcDbEntity
  8
Layer_1
 62
7
100
AcDbPolyline
 90
2
 70
0
 10
129.036058
 20
258.707053
 30
0.0
 10
158.671319
 20
258.707053
 30
0.0
  0
LWPOLYLINE
  5
23f
100
AcDbEntity
  8
Layer_1
 62
7
100
AcDbPolyline
 90
2
 70
0
 10
111.748824
 20
258.707053
 30
0.0
 10
125.437491
 20
258.707053
 30
0.0
  0
LWPOLYLINE
  5
240
100
AcDbEntity
  8
Layer_1
 62
7
100
AcDbPolyline
 90
5
 70
0
 10
17.022259
 20
274.323004
 30
0.0
 10
28.241323
 20
274.323004
 30
0.0
 10
28.241323
 20
266.813003
 30
0.0
 10
17.022259
 20
266.813003
 30
0.0
 10
17.022259
 20
274.323004
 30
0.0
  0
ENDSEC
  0
SECTION
  2
OBJECTS
  0
DICTIONARY
  5
C
330
0
100
AcDbDictionary
  3
ACAD_GROUP
350
D
  3
ACAD_MLINESTYLE
350
17
  0
DICTIONARY
  5
D
330
C
100
AcDbDictionary
  0
DICTIONARY
  5
1A
330
C
100
AcDbDictionary
  0
DICTIONARY
  5
17
330
C
100
AcDbDictionary
  3
STANDARD
350
18
  0
DICTIONARY
  5
19
330
C
100
AcDbDictionary
  0
ENDSEC
  0
EOF
